<?xml version="1.0" encoding="UTF-8"?>
<svg xmlns="http://www.w3.org/2000/svg" xmlns:xlink="http://www.w3.org/1999/xlink" version="1.2" >
<font id="BellSlim Bold">
<font-face  font-family="BellSlim" units-per-em="1000" ascent="759" descent="-241" font-style="normal" font-weight="700" font-stretch="normal" cap-height="700" x-height="500" underline-position="-75" underline-thickness="50" />
<missing-glyph  horiz-adv-x="388" d="M327 733 L223 879 L165 879 L61 733 L96 733 L193 844 L291 733 L327 733 Z " />
<glyph glyph-name="NULL" d="" />
<glyph glyph-name="CR" unicode="&#xd;" horiz-adv-x="250" d="" />
<glyph glyph-name="space" unicode="&#x20;" horiz-adv-x="262" d="" />
<glyph glyph-name="exclam" unicode="&#x21;" horiz-adv-x="235" d="M88 174 L157 174 L157 714 L88 714 L88 174 Z M124 -7 C156 -7 172 14 172 43 C172 72 155 92 124 92 C93 92 73 74 73 43 C73 12 92 -7 124 -7 L124 -7 Z " />
<glyph glyph-name="quotedbl" unicode="&#x22;" horiz-adv-x="286" d="M233 541 L236 703 L171 703 L175 541 L233 541 Z M111 541 L115 703 L50 703 L54 541 L111 541 Z " />
<glyph glyph-name="numbersign" unicode="&#x23;" horiz-adv-x="686" d="M611 425 L620 485 L484 485 L508 630 L447 630 L423 485 L319 485 L343 630 L282 630 L258 485 L121 485 L112 425 L248 425 L231 319 L94 319 L84 260 L221 260 L196 106 L257 106 L282 260 L386 260 L361 106 L422 106 L447 260 L583 260 L593 319 L457 319 L475 425 L611 425 Z M309 425 L413 425 L396 319 L292 319 L309 425 Z " />
<glyph glyph-name="dollar" unicode="&#x24;" horiz-adv-x="578" d="M325 -4 C480 8 522 89 522 183 C522 313 436 358 325 393 L325 636 C374 632 411 613 448 554 L508 593 C460 674 388 698 325 704 L325 766 L254 766 L254 704 C142 693 76 631 76 532 C76 428 134 381 254 339 L254 64 C185 70 142 93 106 153 L41 115 C87 32 168 1 254 -5 L254 -65 L325 -65 L325 -4 Z M254 636 L254 419 C162 455 150 485 150 534 C150 605 200 630 254 636 L254 636 Z M325 315 C402 289 448 262 448 174 C448 111 421 72 325 64 L325 315 Z " />
<glyph glyph-name="percent" unicode="&#x25;" horiz-adv-x="755" d="M656 705 L577 705 L107 -10 L192 -10 L656 705 Z M222 402 C314 402 384 464 384 561 C384 656 313 719 222 719 C133 719 59 655 59 561 C59 464 131 402 222 402 L222 402 Z M557 -11 C647 -11 720 54 720 146 C720 237 648 305 557 305 C465 305 396 239 396 146 C396 54 467 -11 557 -11 L557 -11 Z M222 654 C278 654 314 616 314 561 C314 506 276 465 222 465 C168 465 129 506 129 561 C129 617 165 654 222 654 L222 654 Z M557 242 C614 242 650 203 650 146 C650 92 612 53 557 53 C503 53 464 93 464 146 C464 203 501 242 557 242 L557 242 Z " />
<glyph glyph-name="ampersand" unicode="&#x26;" horiz-adv-x="630" d="M562 0 L669 0 C606 56 552 109 499 163 C522 201 540 239 561 289 L492 317 C476 277 461 247 446 218 C378 287 311 360 250 431 C219 467 199 497 199 544 C199 598 239 630 289 630 C342 630 369 604 387 553 C408 565 429 577 449 589 C421 665 365 699 289 699 C195 699 122 634 122 540 C122 489 143 446 173 407 C104 351 42 274 42 181 C42 55 126 -9 248 -9 C339 -9 404 35 457 100 C490 66 525 33 562 0 L562 0 Z M220 352 C284 278 345 215 404 153 C363 93 308 62 251 62 C173 62 118 102 118 181 C118 182 118 183 118 183 C118 246 159 305 220 352 L220 352 Z " />
<glyph glyph-name="quotesingle" unicode="&#x27;" horiz-adv-x="172" d="M118 541 L121 703 L56 703 L60 541 L118 541 Z " />
<glyph glyph-name="parenleft" unicode="&#x28;" horiz-adv-x="270" d="M129 323 C129 479 159 629 230 798 L155 798 C91 637 59 484 59 321 C59 156 90 6 152 -138 L228 -138 C159 12 129 156 129 323 L129 323 Z " />
<glyph glyph-name="parenright" unicode="&#x29;" horiz-adv-x="271" d="M129 -138 C192 6 224 157 224 323 C224 486 191 637 127 798 L53 798 C121 629 152 479 152 323 C152 156 122 12 53 -138 L129 -138 Z " />
<glyph glyph-name="asterisk" unicode="&#x2a;" horiz-adv-x="463" d="M271 523 L414 515 L414 577 L269 567 L349 685 L295 716 L232 590 L171 717 L116 685 L195 567 L49 578 L49 517 L194 524 L111 408 L165 377 L232 504 L297 376 L351 408 L271 523 Z " />
<glyph glyph-name="plus" unicode="&#x2b;" horiz-adv-x="540" d="M304 313 L488 313 L488 381 L304 381 L304 566 L235 566 L235 381 L52 381 L52 313 L235 313 L235 127 L304 127 L304 313 Z " />
<glyph glyph-name="comma" unicode="&#x2c;" horiz-adv-x="198" d="M154 31 C154 66 136 90 102 90 C76 90 53 75 53 39 C53 18 66 -1 95 -7 C91 -43 76 -71 56 -109 L82 -119 C116 -81 154 -18 154 31 L154 31 Z " />
<glyph glyph-name="hyphen" unicode="&#x2d;" horiz-adv-x="476" d="M76 234 L400 234 L400 300 L76 300 L76 234 Z " />
<glyph glyph-name="period" unicode="&#x2e;" horiz-adv-x="212" d="M159 40 C159 71 143 88 112 88 C81 88 64 71 64 40 C64 9 81 -8 112 -8 C143 -8 159 9 159 40 L159 40 Z " />
<glyph glyph-name="slash" unicode="&#x2f;" horiz-adv-x="423" d="M422 720 L346 720 L35 0 L112 0 L422 720 Z " />
<glyph glyph-name="zero" unicode="0" horiz-adv-x="661" d="M338 -6 C558 -6 596 194 596 353 C596 517 564 712 338 712 C113 712 74 519 74 353 C74 188 114 -6 338 -6 L338 -6 Z M338 644 C498 644 516 495 516 354 C516 214 498 63 338 63 C176 63 154 212 154 354 C154 498 174 644 338 644 L338 644 Z " />
<glyph glyph-name="one" unicode="1" horiz-adv-x="335" d="M154 0 L231 0 L231 658 C231 686 218 711 185 711 C168 711 147 701 134 690 C108 670 79 645 55 625 L55 537 L154 620 L154 0 Z " />
<glyph glyph-name="two" unicode="2" horiz-adv-x="534" d="M65 0 L474 0 L474 71 L149 71 C149 83 149 92 150 109 C155 202 233 265 329 329 C446 407 471 463 471 538 C471 662 374 713 279 713 C147 713 70 638 67 511 L144 511 C150 600 190 644 278 644 C337 644 390 613 390 538 C390 476 365 446 318 411 C255 367 187 327 137 268 C78 201 66 143 65 66 L65 0 Z " />
<glyph glyph-name="three" unicode="3" horiz-adv-x="576" d="M275 -8 C399 -8 508 74 508 213 C508 305 460 371 381 402 C431 436 457 485 457 542 C457 651 374 710 276 710 C182 710 114 673 76 575 L144 544 C170 611 209 640 275 640 C335 640 378 603 378 542 C378 479 330 429 250 429 L211 429 L211 357 L255 357 C353 357 427 302 427 214 C427 119 364 63 276 63 C195 63 136 95 111 201 L36 175 C67 42 157 -8 275 -8 L275 -8 Z " />
<glyph glyph-name="four" unicode="4" horiz-adv-x="559" d="M378 0 L454 0 L454 632 C454 689 422 713 383 713 C346 713 318 690 295 658 C203 529 111 398 19 269 L19 205 L378 205 L378 0 Z M373 639 C376 639 378 637 378 630 L378 275 L112 275 C188 384 281 516 358 625 C367 637 370 639 373 639 L373 639 Z " />
<glyph glyph-name="five" unicode="5" horiz-adv-x="579" d="M282 -7 C431 -7 525 98 525 232 C525 378 430 466 282 466 C241 466 205 460 179 453 L179 610 C179 631 187 635 206 635 L481 635 L481 704 L185 704 C133 704 105 673 105 625 L105 357 C165 384 223 395 278 395 C384 395 445 332 445 231 C445 131 383 61 282 61 C192 61 145 108 111 164 C91 149 71 135 51 121 C98 41 168 -7 282 -7 L282 -7 Z " />
<glyph glyph-name="six" unicode="6" horiz-adv-x="620" d="M321 -11 C461 -11 562 94 562 230 C562 369 470 466 327 466 C287 466 252 456 218 439 C257 515 318 605 399 704 L307 704 C253 637 201 560 170 504 C131 435 83 335 83 230 C83 83 184 -11 321 -11 L321 -11 Z M327 397 C424 397 486 331 486 228 C486 129 419 58 324 58 C227 58 160 124 160 228 C160 329 226 397 327 397 L327 397 Z " />
<glyph glyph-name="seven" unicode="7" horiz-adv-x="482" d="M435 570 C444 592 452 613 452 636 C452 671 431 703 379 703 L16 703 L16 635 L355 635 C374 635 380 624 373 608 C345 543 111 0 111 0 L191 0 C191 0 354 381 435 570 L435 570 Z " />
<glyph glyph-name="eight" unicode="8" horiz-adv-x="597" d="M301 -12 C434 -12 540 78 540 213 C540 303 493 369 418 408 C462 439 489 484 489 545 C489 644 418 716 297 716 C174 716 106 640 106 540 C106 479 133 433 180 404 C110 364 63 299 63 213 C63 77 165 -12 301 -12 L301 -12 Z M297 650 C369 650 413 611 413 543 C413 475 368 433 297 433 C225 433 181 475 181 543 C181 608 224 650 297 650 L297 650 Z M301 365 C396 365 463 302 463 212 C463 123 395 57 301 57 C204 57 140 121 140 212 C140 301 206 365 301 365 L301 365 Z " />
<glyph glyph-name="nine" unicode="9" horiz-adv-x="605" d="M435 184 C487 267 539 354 539 479 C539 624 436 714 305 714 C172 714 68 616 68 481 C68 349 157 253 299 253 C334 253 376 263 409 278 C364 197 292 101 208 0 L302 0 C356 68 410 144 435 184 L435 184 Z M305 647 C401 647 464 581 464 479 C464 376 404 320 299 320 C203 320 142 383 142 484 C142 576 206 647 305 647 L305 647 Z " />
<glyph glyph-name="colon" unicode="&#x3a;" horiz-adv-x="193" d="M150 40 C150 71 135 88 103 88 C72 88 55 71 55 40 C55 9 71 -8 103 -8 C135 -8 150 9 150 40 L150 40 Z M150 339 C150 370 135 387 103 387 C72 387 55 370 55 339 C55 308 71 291 103 291 C135 291 150 308 150 339 L150 339 Z " />
<glyph glyph-name="semicolon" unicode="&#x3b;" horiz-adv-x="198" d="M156 31 C156 66 139 90 104 90 C78 90 56 75 56 39 C56 18 69 -1 97 -7 C93 -43 79 -71 58 -109 L84 -119 C118 -81 156 -18 156 31 L156 31 Z M151 339 C151 370 135 387 104 387 C73 387 56 370 56 339 C56 308 73 291 104 291 C136 291 151 308 151 339 L151 339 Z " />
<glyph glyph-name="less" unicode="&#x3c;" horiz-adv-x="476" d="M67 295 L441 79 L441 156 L123 341 L441 526 L441 602 L67 384 C26 360 25 320 67 295 L67 295 Z " />
<glyph glyph-name="equal" unicode="&#x3d;" horiz-adv-x="631" d="M66 391 L566 391 L566 456 L66 456 L66 391 Z M66 228 L566 228 L566 293 L66 293 L66 228 Z " />
<glyph glyph-name="greater" unicode="&#x3e;" horiz-adv-x="476" d="M35 79 L410 295 C451 319 451 361 410 385 L35 603 L35 526 L354 341 L35 156 L35 79 Z " />
<glyph glyph-name="question" unicode="&#x3f;" horiz-adv-x="453" d="M360 425 C391 464 421 504 421 558 C421 654 355 712 239 712 C167 712 84 692 40 600 L106 572 C135 626 178 643 237 643 C316 643 346 606 346 558 C346 511 315 476 287 443 C235 382 187 332 187 234 L187 174 L261 174 L261 236 C261 323 314 367 360 425 L360 425 Z M226 -7 C259 -7 276 14 276 44 C276 73 258 93 226 93 C194 93 176 73 176 44 C176 14 193 -7 226 -7 L226 -7 Z " />
<glyph glyph-name="at" unicode="&#x40;" horiz-adv-x="828" d="M570 131 C678 131 744 250 744 369 C744 540 611 635 451 635 C241 635 85 484 85 276 C85 81 230 -35 427 -35 C551 -35 650 -5 737 74 L701 116 C627 49 540 22 429 22 C259 22 145 116 145 276 C145 451 274 580 452 580 C584 580 685 504 685 370 C685 300 651 183 573 183 C554 183 544 194 544 213 C544 228 548 247 552 264 L590 429 C549 474 505 493 442 493 C324 493 237 394 237 281 C237 191 289 129 384 129 C423 129 466 141 500 161 C517 139 544 131 570 131 L570 131 Z M441 441 C474 441 502 431 525 410 L480 212 C456 193 419 182 390 182 C328 182 297 222 297 283 C297 360 356 441 441 441 L441 441 Z " />
<glyph glyph-name="A" unicode="A" horiz-adv-x="640" d="M535 0 L617 0 C617 0 428 560 402 636 C390 671 369 704 320 704 C273 704 250 672 238 636 C167 424 22 0 22 0 L104 0 L194 272 L445 272 L535 0 L535 0 Z M320 629 C326 629 328 622 334 604 C356 537 421 342 421 342 L217 342 C217 342 278 524 305 604 C311 622 314 629 320 629 L320 629 Z " />
<glyph glyph-name="B" unicode="B" horiz-adv-x="613" d="M384 5 C481 22 553 91 553 199 C553 286 506 350 432 380 C484 413 513 470 513 528 C513 625 445 690 355 704 C341 706 318 707 300 707 C272 707 246 708 220 704 C149 692 99 640 99 562 L99 0 L316 0 C339 0 369 2 384 5 L384 5 Z M337 634 C397 627 434 588 434 526 C434 464 392 417 333 407 C324 405 308 404 288 404 L175 404 L175 560 C175 615 209 637 257 637 L291 637 C305 637 324 636 337 634 L337 634 Z M308 335 C415 335 474 283 474 199 C474 123 429 69 324 69 L175 69 L175 335 L308 335 Z " />
<glyph glyph-name="C" unicode="C" horiz-adv-x="677" d="M394 -7 C480 -7 571 21 647 94 L607 151 C545 88 470 65 396 65 C237 65 139 189 139 352 C139 515 235 638 391 638 C467 638 533 605 593 542 L642 597 C568 679 484 709 392 709 C188 709 60 555 60 351 C60 144 188 -7 394 -7 L394 -7 Z " />
<glyph glyph-name="D" unicode="D" horiz-adv-x="699" d="M325 0 C537 0 646 161 646 350 C646 537 533 707 309 707 L266 707 C180 707 99 663 99 562 L99 0 L325 0 Z M310 636 C487 636 568 496 568 350 C568 191 489 87 363 72 C352 70 331 70 314 70 L176 70 L176 559 C176 618 215 636 266 636 L310 636 Z " />
<glyph glyph-name="E" unicode="E" horiz-adv-x="555" d="M99 0 L510 0 L510 69 L175 69 L175 330 L457 330 L457 401 L175 401 L175 547 C175 609 207 634 263 634 L492 634 L492 704 L290 704 C266 704 246 703 230 701 C162 694 114 647 102 584 C100 575 99 560 99 546 L99 0 Z " />
<glyph glyph-name="F" unicode="F" horiz-adv-x="516" d="M244 635 L474 635 L474 704 L263 704 C243 704 225 703 209 701 C141 694 95 647 84 584 C82 575 81 560 81 546 L81 0 L158 0 L158 335 L433 335 L433 404 L158 404 L158 548 C158 609 188 635 244 635 L244 635 Z " />
<glyph glyph-name="G" unicode="G" horiz-adv-x="732" d="M561 16 C629 43 658 76 658 132 L658 353 L417 353 L417 282 L578 282 L578 138 C578 109 569 97 547 87 C507 69 460 60 404 60 C230 60 139 178 139 347 C139 515 235 639 396 639 C472 639 538 613 603 551 L653 608 C577 683 494 710 396 710 C190 710 60 551 60 345 C60 143 177 -10 403 -10 C454 -10 516 -1 561 16 L561 16 Z " />
<glyph glyph-name="H" unicode="H" horiz-adv-x="705" d="M530 0 L610 0 L610 704 L530 704 L530 406 L174 406 L174 704 L94 704 L94 0 L174 0 L174 333 L530 333 L530 0 Z " />
<glyph glyph-name="I" unicode="I" horiz-adv-x="268" d="M94 0 L174 0 L174 704 L94 704 L94 0 Z " />
<glyph glyph-name="J" unicode="J" horiz-adv-x="492" d="M402 157 C404 173 405 196 405 211 L405 704 L326 704 L326 209 C326 196 326 191 325 177 C321 110 288 64 207 64 C169 64 127 71 69 101 L69 24 C113 0 165 -8 207 -8 C318 -8 392 57 402 157 L402 157 Z " />
<glyph glyph-name="K" unicode="K" horiz-adv-x="616" d="M517 0 L607 0 L378 368 C422 395 448 429 467 473 C501 550 534 627 568 704 L485 704 C478 687 412 533 400 506 C393 489 383 472 374 460 C340 416 294 401 230 401 L177 401 L177 704 L99 704 L99 0 L177 0 L177 334 L233 334 C297 334 314 325 337 288 L517 0 Z " />
<glyph glyph-name="L" unicode="L" horiz-adv-x="531" d="M198 0 L505 0 L505 72 L205 72 C186 72 178 84 178 99 L178 704 L99 704 L99 96 C99 37 144 0 198 0 L198 0 Z " />
<glyph glyph-name="M" unicode="M" horiz-adv-x="850" d="M676 0 L751 0 L751 631 C751 675 727 710 678 710 C631 710 605 676 591 644 C536 518 425 265 425 265 C425 265 315 518 259 644 C243 683 218 710 174 710 C130 710 99 678 99 632 L99 0 L172 0 L172 620 C172 627 173 631 177 631 C180 631 182 629 186 621 C253 467 389 163 389 163 L458 163 C458 163 606 496 662 622 C664 627 667 631 671 631 C675 631 676 627 676 620 L676 0 Z " />
<glyph glyph-name="N" unicode="N" horiz-adv-x="731" d="M559 -7 C605 -7 632 25 632 74 L632 704 L557 704 L557 83 C557 75 555 72 551 72 C547 72 544 76 540 84 L264 641 C244 680 218 710 173 710 C125 710 99 675 99 631 L99 0 L174 0 L174 621 C174 629 176 632 180 632 C184 632 188 628 193 618 C283 439 378 244 468 62 C493 11 522 -7 559 -7 L559 -7 Z " />
<glyph glyph-name="O" unicode="O" horiz-adv-x="764" d="M385 -12 C596 -12 705 162 705 351 C705 546 597 713 384 713 C163 713 60 546 60 351 C60 156 167 -12 385 -12 L385 -12 Z M384 642 C546 642 624 513 624 352 C624 194 552 59 385 59 C216 59 141 192 141 352 C141 512 216 642 384 642 L384 642 Z " />
<glyph glyph-name="P" unicode="P" horiz-adv-x="570" d="M362 274 C463 298 538 373 538 494 C538 608 463 686 359 703 C345 705 326 706 307 706 L262 706 C246 706 229 705 214 702 C145 688 99 638 99 563 L99 0 L177 0 L177 267 L281 267 C316 267 340 269 362 274 L362 274 Z M352 635 C418 621 461 562 461 493 C461 408 414 355 342 341 C329 338 307 337 286 337 L177 337 L177 566 C177 605 195 625 227 634 C238 637 250 638 266 638 L314 638 C326 638 341 637 352 635 L352 635 Z " />
<glyph glyph-name="Q" unicode="Q" horiz-adv-x="763" d="M667 -124 L732 -124 L732 -49 L667 -49 C613 -49 572 -9 531 16 C648 74 709 205 709 348 C709 547 597 712 387 712 C172 712 61 553 61 348 C61 145 175 -16 388 -16 L390 -16 C423 -16 443 -22 474 -39 C536 -73 578 -124 667 -124 L667 -124 Z M388 639 C548 639 628 512 628 349 C628 184 550 56 388 56 C223 56 142 182 142 349 C142 516 222 639 388 639 L388 639 Z " />
<glyph glyph-name="R" unicode="R" horiz-adv-x="597" d="M499 0 L591 0 L400 314 C481 342 539 408 539 507 C539 619 464 686 370 702 C354 705 329 707 309 707 L265 707 C245 707 224 705 206 701 C132 683 99 628 99 559 L99 0 L176 0 L176 302 L273 302 C307 302 326 289 349 249 L499 0 Z M366 631 C421 616 461 570 461 506 C461 416 398 371 311 371 L176 371 L176 560 C176 610 202 637 256 637 L312 637 C330 637 351 635 366 631 L366 631 Z " />
<glyph glyph-name="S" unicode="S" horiz-adv-x="574" d="M279 -5 C458 -5 524 86 524 189 C524 318 424 365 308 402 C175 445 153 486 153 543 C153 598 190 638 287 638 C348 638 406 626 449 564 C469 579 488 594 509 609 C447 697 371 707 289 707 C145 707 74 637 74 540 C74 425 149 379 235 345 C272 331 310 319 345 304 C399 281 444 249 444 184 C444 118 405 65 286 65 C200 65 145 86 102 156 C81 140 61 125 40 110 C91 19 185 -5 279 -5 L279 -5 Z " />
<glyph glyph-name="T" unicode="T" horiz-adv-x="522" d="M300 636 L506 636 L506 704 L15 704 L15 636 L221 636 L221 0 L300 0 L300 636 Z " />
<glyph glyph-name="U" unicode="U" horiz-adv-x="689" d="M354 -12 C437 -12 518 7 590 32 L590 704 L510 704 L510 86 C472 73 404 61 359 61 C240 61 186 113 173 180 C170 192 168 213 168 238 L168 704 L88 704 L88 235 C88 197 92 164 100 139 C130 44 219 -12 354 -12 L354 -12 Z " />
<glyph glyph-name="V" unicode="V" horiz-adv-x="638" d="M326 69 C322 69 320 71 315 85 C245 291 104 704 104 704 L18 704 C18 704 214 142 240 66 C255 22 279 -6 325 -6 C371 -6 397 25 410 66 C480 278 621 704 621 704 L539 704 L337 85 C332 71 330 69 326 69 L326 69 Z " />
<glyph glyph-name="W" unicode="W" horiz-adv-x="932" d="M667 70 C662 70 659 75 652 94 C603 234 500 535 500 535 L431 535 C431 535 328 235 279 94 C272 74 269 70 264 70 C260 70 256 73 251 94 L112 704 L33 704 L180 65 C191 19 218 -4 261 -4 C313 -4 334 30 348 71 L465 412 L582 69 C596 29 616 -4 668 -4 C718 -4 743 29 754 76 C803 285 899 704 899 704 L822 704 L681 94 C676 74 672 70 667 70 L667 70 Z " />
<glyph glyph-name="X" unicode="X" horiz-adv-x="623" d="M508 0 L600 0 L378 340 C364 363 362 377 375 397 L573 704 L485 704 L312 434 L139 704 L46 704 L247 397 C260 377 261 363 243 336 L23 0 L115 0 L311 304 L508 0 Z " />
<glyph glyph-name="Y" unicode="Y" horiz-adv-x="565" d="M351 356 L553 704 L465 704 L282 382 L99 704 L11 704 L211 356 C226 330 243 297 243 263 L243 0 L321 0 L321 263 C321 297 335 328 351 356 L351 356 Z " />
<glyph glyph-name="Z" unicode="Z" horiz-adv-x="597" d="M124 0 L549 0 L549 72 L140 72 C214 172 398 425 507 576 C533 612 538 627 538 646 C538 687 507 704 470 704 L101 704 L101 631 L451 631 C451 631 125 180 84 123 C70 104 55 84 55 58 C55 24 78 0 124 0 L124 0 Z " />
<glyph glyph-name="bracketleft" unicode="&#x5b;" horiz-adv-x="244" d="M148 -101 L205 -101 L205 -33 L147 -33 C132 -33 126 -24 126 -10 L126 721 C126 735 132 743 145 743 L205 743 L205 812 L148 812 C98 812 60 777 60 720 L60 -10 C60 -67 98 -101 148 -101 L148 -101 Z " />
<glyph glyph-name="backslash" unicode="&#x5c;" horiz-adv-x="413" d="M315 -1 L394 -1 L96 719 L17 719 L315 -1 Z " />
<glyph glyph-name="bracketright" unicode="&#x5d;" horiz-adv-x="255" d="M178 -83 C202 -65 209 -42 209 -10 L209 722 C209 784 181 812 121 812 L64 812 L64 742 L123 742 C139 742 143 734 143 720 L143 -10 C143 -23 139 -33 122 -33 L64 -33 L64 -101 L117 -101 C143 -101 162 -95 178 -83 L178 -83 Z " />
<glyph glyph-name="asciicircum" unicode="&#x5e;" horiz-adv-x="1033" d="M933 485 C884 485 834 468 804 424 L802 424 L802 474 L673 474 L673 -3 L802 -3 L802 224 C802 296 825 370 926 370 C946 370 977 365 996 357 L996 473 C979 480 952 485 933 485 L933 485 Z M321 489 C179 489 71 388 71 237 C71 60 195 -16 323 -16 C411 -16 479 8 523 48 L454 127 C423 103 382 89 336 89 C247 89 206 145 202 199 C324 199 422 199 556 199 C569 289 541 355 541 355 C506 435 433 489 321 489 L321 489 Z M208 296 C220 352 262 389 320 389 C379 389 414 355 425 296 L208 296 Z " />
<glyph glyph-name="underscore" unicode="&#x5f;" horiz-adv-x="536" d="M65 -193 L472 -193 L472 -160 L65 -160 L65 -193 Z " />
<glyph glyph-name="grave" unicode="&#x60;" horiz-adv-x="875" d="M693 344 C747 344 794 359 837 399 C829 411 820 423 812 435 C773 399 740 388 693 388 C609 388 556 447 556 527 C556 606 610 665 693 665 C735 665 769 651 801 615 C813 626 824 635 836 645 C799 689 755 709 692 709 C582 709 508 630 508 526 C508 421 581 344 693 344 L693 344 Z M153 655 L256 428 L297 428 L400 656 L400 350 L448 350 L448 661 C448 685 438 707 409 707 C378 707 364 687 350 655 C326 602 278 491 278 491 C278 491 229 602 205 655 C189 689 175 707 148 707 C118 707 107 685 107 661 L107 350 L153 350 L153 655 Z " />
<glyph glyph-name="a" unicode="a" horiz-adv-x="611" d="M310 425 C388 425 457 371 457 281 L457 97 C418 77 365 58 311 58 C196 58 137 131 137 236 C137 340 195 425 310 425 L310 425 Z M462 478 L462 431 C428 469 374 490 309 490 C151 490 60 374 60 234 C60 86 156 -7 304 -7 C380 -7 426 20 445 20 C456 20 461 15 465 0 L531 0 L531 478 L462 478 Z " />
<glyph glyph-name="b" unicode="b" horiz-adv-x="610" d="M320 -6 C466 -6 560 106 560 248 C560 392 471 493 329 493 C262 493 200 468 160 418 L160 709 L88 709 L88 0 L160 0 L160 10 C160 28 173 31 191 23 C230 5 264 -6 320 -6 L320 -6 Z M325 425 C432 425 483 346 483 248 C483 143 428 59 315 59 C251 59 204 82 161 109 L161 254 C161 357 232 425 325 425 L325 425 Z " />
<glyph glyph-name="c" unicode="c" horiz-adv-x="529" d="M302 -7 C378 -7 443 13 502 69 L460 122 C412 78 362 59 308 59 C204 59 137 130 137 247 C137 341 203 423 302 423 C362 423 403 404 446 358 L499 404 C446 465 392 489 302 489 C159 489 60 380 60 242 C60 99 149 -7 302 -7 L302 -7 Z " />
<glyph glyph-name="d" unicode="d" horiz-adv-x="616" d="M528 710 L457 710 L457 438 C421 470 373 492 302 492 C156 492 60 383 60 243 C60 101 143 -6 297 -6 C339 -6 390 7 426 22 C439 27 457 33 457 12 L457 0 L528 0 L528 710 Z M453 291 L453 107 C415 80 370 59 302 59 C189 59 136 142 136 244 C136 346 196 426 305 426 C394 426 453 368 453 291 L453 291 Z " />
<glyph glyph-name="e" unicode="e" horiz-adv-x="574" d="M138 225 L524 225 C524 239 521 275 521 276 C514 403 428 491 295 491 C156 491 60 381 60 241 C60 97 149 -9 306 -9 C388 -9 446 9 507 53 L474 110 C423 74 373 57 311 57 C202 57 143 125 138 225 L138 225 Z M295 427 C384 427 430 369 442 288 L140 288 C153 365 211 427 295 427 L295 427 Z " />
<glyph glyph-name="f" unicode="f" horiz-adv-x="366" d="M356 602 L379 665 C331 692 292 699 255 699 C147 699 91 622 91 518 L91 0 L166 0 L166 396 L334 396 L334 466 L166 466 L166 521 C166 591 196 632 260 632 C287 632 316 626 356 602 L356 602 Z " />
<glyph glyph-name="g" unicode="g" horiz-adv-x="607" d="M527 -5 L527 298 C527 407 448 487 310 487 C152 487 59 377 59 237 C59 94 143 -10 297 -10 C339 -10 378 0 424 17 C440 23 452 21 452 2 L452 -12 C452 -118 394 -184 288 -184 C238 -184 186 -171 140 -149 L123 -214 C171 -240 232 -251 289 -251 C440 -251 527 -158 527 -13 C527 -10 527 -8 527 -5 L527 -5 Z M450 290 L450 100 C410 76 362 55 302 55 C187 55 138 136 138 238 C138 339 198 421 305 421 C391 421 450 373 450 290 L450 290 Z " />
<glyph glyph-name="h" unicode="h" horiz-adv-x="573" d="M433 0 L511 0 L511 293 C511 416 439 494 315 494 C258 494 201 472 164 433 L164 708 L88 708 L88 0 L164 0 L164 281 C164 374 228 425 309 425 C394 425 433 371 433 289 L433 0 Z " />
<glyph glyph-name="i" unicode="i" horiz-adv-x="271" d="M98 0 L173 0 L173 479 L98 479 L98 0 Z M183 623 C183 654 168 670 136 670 C104 670 88 654 88 623 C88 591 104 574 136 574 C168 574 183 591 183 623 L183 623 Z " />
<glyph glyph-name="j" unicode="j" horiz-adv-x="259" d="M-56 -234 C133 -253 176 -149 176 -46 L176 479 L101 479 L101 -42 C101 -101 99 -180 -51 -166 L-56 -234 Z M187 623 C187 654 170 670 139 670 C107 670 91 654 91 623 C91 591 107 574 139 574 C171 574 187 591 187 623 L187 623 Z " />
<glyph glyph-name="k" unicode="k" horiz-adv-x="527" d="M427 0 L519 0 L348 264 C380 285 404 314 423 354 L480 479 L399 479 L362 398 C318 301 281 297 200 297 L163 297 L163 708 L88 708 L88 0 L163 0 L163 230 L242 230 C277 230 287 221 310 185 L427 0 Z " />
<glyph glyph-name="l" unicode="l" horiz-adv-x="251" d="M88 0 L163 0 L163 708 L88 708 L88 0 Z " />
<glyph glyph-name="m" unicode="m" horiz-adv-x="874" d="M723 0 L801 0 L801 304 C801 430 737 487 616 487 C547 487 489 465 451 431 C419 468 368 487 294 487 C217 487 148 460 88 422 L88 0 L164 0 L164 386 C195 403 244 421 289 421 C374 421 406 391 406 319 L406 0 L483 0 L483 343 C483 383 535 421 609 421 C703 421 723 378 723 297 L723 0 Z " />
<glyph glyph-name="n" unicode="n" horiz-adv-x="586" d="M435 0 L513 0 L513 305 C513 431 432 488 298 488 C227 488 147 463 88 421 L88 0 L165 0 L165 385 C194 404 248 421 294 421 C389 421 435 379 435 292 L435 0 Z " />
<glyph glyph-name="o" unicode="o" horiz-adv-x="594" d="M296 491 C152 491 50 379 50 242 C50 103 151 -8 296 -8 C443 -8 544 100 544 242 C544 383 443 491 296 491 L296 491 Z M296 58 C189 58 126 142 126 243 C126 343 190 426 296 426 C398 426 468 340 468 243 C468 137 399 58 296 58 L296 58 Z " />
<glyph glyph-name="p" unicode="p" horiz-adv-x="590" d="M289 -9 C462 -9 539 113 539 243 C539 398 440 489 300 489 C154 489 69 396 69 270 L69 -200 L146 -200 L146 -19 C146 11 162 18 188 9 C219 -1 256 -9 289 -9 L289 -9 Z M299 419 C404 419 460 342 460 243 C460 139 407 57 293 57 C240 57 198 69 146 98 L146 263 C146 357 197 419 299 419 L299 419 Z " />
<glyph glyph-name="q" unicode="q" horiz-adv-x="606" d="M547 -203 L582 -203 L582 -139 L557 -139 C538 -139 529 -129 529 -112 L529 285 C529 419 434 487 308 488 C162 488 60 378 60 237 C60 89 150 -10 300 -10 C340 -10 379 -2 411 8 C441 17 452 20 452 -8 L452 -112 C452 -169 485 -203 547 -203 L547 -203 Z M306 419 C398 419 452 369 452 282 L452 91 C401 69 358 57 302 57 C188 57 137 139 137 240 C137 339 201 419 306 419 L306 419 Z " />
<glyph glyph-name="r" unicode="r" horiz-adv-x="417" d="M264 490 C190 490 83 459 83 371 L83 0 L159 0 L159 351 C159 383 167 400 197 412 C220 422 245 424 270 424 C304 424 347 415 373 385 L424 432 C383 482 319 490 264 490 L264 490 Z " />
<glyph glyph-name="s" unicode="s" horiz-adv-x="477" d="M231 -12 C391 -12 435 47 435 125 C435 220 356 251 260 279 C149 311 135 336 135 369 C135 415 189 427 235 427 C289 427 335 420 359 375 C381 385 401 396 422 406 C380 488 294 489 236 489 C129 489 61 449 61 364 C61 286 110 250 195 223 C235 210 289 198 326 176 C350 162 362 144 362 118 C362 82 336 51 236 51 C163 51 126 66 101 113 C79 102 58 91 36 80 C70 8 149 -12 231 -12 L231 -12 Z " />
<glyph glyph-name="t" unicode="t" horiz-adv-x="364" d="M240 -5 C276 -5 320 0 356 17 L356 82 C318 69 284 62 252 62 C194 62 161 97 161 154 L161 408 L321 408 L321 478 L161 478 L161 606 L85 606 L85 149 C85 54 143 -5 240 -5 L240 -5 Z " />
<glyph glyph-name="u" unicode="u" horiz-adv-x="575" d="M308 56 C192 56 156 110 156 183 L156 478 L80 478 L80 182 C80 57 152 -12 304 -12 C373 -12 438 0 495 22 L495 478 L419 478 L419 71 C389 62 337 56 308 56 L308 56 Z " />
<glyph glyph-name="v" unicode="v" horiz-adv-x="537" d="M523 478 L444 478 L303 97 C293 70 289 64 282 64 C275 64 271 69 259 97 L112 478 L29 478 C82 345 136 212 188 79 C206 35 227 -6 280 -6 C333 -6 357 38 372 78 L523 478 Z " />
<glyph glyph-name="w" unicode="w" horiz-adv-x="813" d="M658 61 C702 200 792 478 792 478 L715 478 C715 478 632 213 590 81 C586 68 582 63 576 63 C571 63 567 67 563 81 C525 213 447 478 447 478 L381 478 C381 478 299 213 259 81 C255 66 250 63 245 63 C240 63 236 67 232 80 C190 213 107 478 107 478 L29 478 C29 478 117 201 162 62 C174 23 198 -7 245 -7 C294 -7 316 29 327 66 C356 157 412 339 412 339 C412 339 483 97 492 66 C505 21 529 -6 574 -6 C621 -6 644 19 658 61 L658 61 Z " />
<glyph glyph-name="x" unicode="x" horiz-adv-x="557" d="M432 0 L524 0 L356 224 C337 250 337 261 352 281 L502 479 L412 479 L285 310 L158 479 L66 479 L217 281 C233 260 234 250 214 224 L47 0 L137 0 L283 198 L432 0 Z " />
<glyph glyph-name="y" unicode="y" horiz-adv-x="609" d="M300 58 C198 58 160 119 160 194 L160 479 L85 479 L85 191 C85 59 168 -9 298 -9 C354 -9 403 2 442 19 L442 -10 C442 -116 388 -182 281 -182 C231 -182 189 -172 142 -149 L125 -214 C173 -239 227 -249 282 -249 C436 -249 518 -154 518 -2 L518 479 L442 479 L442 89 C396 67 341 58 300 58 L300 58 Z " />
<glyph glyph-name="z" unicode="z" horiz-adv-x="474" d="M145 67 L383 369 C403 394 410 411 410 430 C410 461 387 479 351 479 L88 479 L88 412 L325 412 L91 116 C75 97 59 75 59 49 C59 16 82 0 117 0 L419 0 L419 67 L145 67 Z " />
<glyph glyph-name="braceleft" unicode="&#x7b;" horiz-adv-x="359" d="M155 50 C155 -53 227 -111 332 -111 L332 -41 C264 -41 229 -17 229 47 L229 240 C229 297 199 336 164 354 C197 372 229 410 229 468 L229 662 C229 725 265 749 332 749 L332 817 C227 817 155 761 155 657 L155 473 C155 412 118 386 52 386 L52 321 C116 321 155 294 155 234 L155 50 Z " />
<glyph glyph-name="bar" unicode="&#x7c;" horiz-adv-x="222" d="M80 -52 L151 -52 L151 805 L80 805 L80 -52 Z " />
<glyph glyph-name="braceright" unicode="&#x7d;" horiz-adv-x="381" d="M237 234 C237 294 276 321 340 321 L340 386 C275 386 237 412 237 473 L237 657 C237 761 165 817 60 817 L60 749 C128 749 163 725 163 662 L163 468 C163 410 195 372 229 354 C193 336 163 297 163 240 L163 47 C163 -17 128 -41 60 -41 L60 -111 C165 -111 237 -53 237 50 L237 234 Z " />
<glyph glyph-name="asciitilde" unicode="&#x7e;" horiz-adv-x="867" d="M664 350 C773 350 829 432 829 526 C829 621 770 705 662 705 L607 705 C559 705 524 677 524 630 L524 402 C524 370 549 350 579 350 L664 350 Z M154 650 L257 428 L297 428 L400 651 C400 651 400 650 400 350 L447 350 L447 666 C447 692 428 707 405 707 C383 707 367 693 358 674 C331 615 278 495 278 495 C278 495 223 615 196 674 C187 693 172 707 149 707 C127 707 107 692 107 666 L107 350 L154 350 L154 650 Z M661 663 C740 663 778 600 778 525 C778 451 742 392 662 392 L584 392 C577 392 574 397 574 403 L574 632 C574 652 589 663 612 663 L661 663 Z " />
<glyph glyph-name="nbspace" unicode="&#xa0;" horiz-adv-x="333" d="" />
<glyph glyph-name="exclamdown" unicode="&#xa1;" horiz-adv-x="189" d="M134 513 L64 513 L64 -36 L134 -36 L134 513 Z M97 692 C64 692 49 670 49 641 C49 610 65 591 97 591 C128 591 149 609 149 641 C149 672 129 692 97 692 L97 692 Z " />
<glyph glyph-name="cent" unicode="&#xa2;" horiz-adv-x="504" d="M242 415 L242 64 C165 82 117 145 117 245 C117 327 165 397 242 415 L242 415 Z M242 -6 L242 -72 L312 -72 L312 -9 C379 -3 441 23 488 74 L447 125 C402 83 359 65 312 61 L312 418 C359 412 396 390 431 351 L482 398 C432 454 386 481 312 486 L312 542 L242 542 L242 484 C123 465 43 365 43 240 C43 110 116 12 242 -6 L242 -6 Z " />
<glyph glyph-name="sterling" unicode="&#xa3;" horiz-adv-x="465" d="M79 0 L468 0 L468 69 L153 69 L153 305 L332 305 L332 374 L153 374 C153 401 153 482 153 482 C153 565 198 615 274 615 C334 615 377 583 405 526 L461 570 C417 648 359 682 274 682 C153 682 78 603 79 481 C79 366 79 0 79 0 L79 0 Z " />
<glyph glyph-name="currency" unicode="&#xa4;" horiz-adv-x="410" d="M346 220 L301 266 C318 286 326 312 326 341 C326 369 318 393 303 413 L343 454 L321 477 L281 436 C260 452 236 459 209 459 C180 459 155 451 133 434 L87 479 L65 457 L112 411 C98 391 91 368 91 341 C91 314 98 289 114 270 L68 224 L91 200 L136 246 C157 231 181 223 209 223 C235 223 258 230 278 244 L324 197 L346 220 Z M296 342 C296 315 289 293 273 276 C257 259 236 250 209 250 C181 250 160 259 144 276 C128 293 121 315 121 342 C121 369 129 392 144 408 C160 425 181 433 209 433 C236 433 256 425 272 408 C288 390 296 369 296 342 L296 342 Z " />
<glyph glyph-name="yen" unicode="&#xa5;" horiz-adv-x="570" d="M293 380 C287 380 281 391 275 403 C224 502 124 702 124 702 L44 702 L212 372 L73 372 L73 305 L255 305 L255 209 L73 209 L73 141 L255 141 L255 0 L332 0 L332 141 L514 141 L514 209 L332 209 L332 305 L514 305 L514 372 L376 372 L542 702 L465 702 C465 702 330 439 311 403 C304 390 299 380 293 380 L293 380 Z " />
<glyph glyph-name="brokenbar" unicode="&#xa6;" horiz-adv-x="165" d="M101 324 L101 626 L65 626 L65 324 L101 324 Z M101 -71 L101 227 L65 227 L65 -71 L101 -71 Z " />
<glyph glyph-name="section" unicode="&#xa7;" horiz-adv-x="498" d="M243 -63 C418 -63 463 10 463 94 C463 133 449 164 425 190 C449 217 462 250 462 284 C462 393 362 428 268 462 C181 499 142 516 142 573 C142 626 199 644 255 644 C314 644 364 629 392 580 L452 615 C406 701 319 707 255 707 C137 707 67 657 67 566 C67 529 78 500 100 474 C77 451 63 422 63 386 C63 293 125 245 245 204 C334 173 389 141 389 87 C389 38 354 2 250 2 C170 2 126 23 95 73 L32 36 C73 -37 155 -63 243 -63 L243 -63 Z M256 389 C334 362 384 335 384 280 C384 264 379 247 367 234 C336 250 304 263 271 274 C153 315 138 352 138 390 C138 406 145 425 154 434 C183 418 219 402 256 389 L256 389 Z " />
<glyph glyph-name="dieresis" unicode="&#xa8;" horiz-adv-x="320" d="M254 492 C283 492 299 510 299 539 C299 568 283 584 254 584 C225 584 210 568 210 539 C210 510 225 492 254 492 L254 492 Z M109 492 C139 492 154 510 154 539 C154 568 139 584 109 584 C80 584 65 568 65 539 C65 510 80 492 109 492 L109 492 Z " />
<glyph glyph-name="copyright" unicode="&#xa9;" horiz-adv-x="646" d="M335 171 C501 171 609 284 609 444 C609 605 501 718 335 718 C169 718 61 605 61 444 C61 284 169 171 335 171 L335 171 Z M335 667 C472 667 557 577 557 444 C557 311 472 222 335 222 C198 222 114 311 114 444 C114 577 198 667 335 667 L335 667 Z M432 520 L469 555 C432 600 387 616 340 616 C236 616 175 538 175 445 C175 352 236 276 340 276 C384 276 432 291 468 330 L440 366 C407 333 376 324 340 324 C266 324 226 377 226 446 C226 514 266 568 340 568 C375 568 405 556 432 520 L432 520 Z " />
<glyph glyph-name="ordfeminine" unicode="&#xaa;" horiz-adv-x="427" d="M312 294 L358 294 L358 576 L311 576 L311 545 C284 570 250 581 213 581 C124 581 65 523 65 434 C65 346 127 288 214 288 C250 288 287 302 312 330 L312 294 Z M214 540 C283 540 314 499 314 433 C314 372 272 330 214 330 C151 330 111 371 111 435 C111 498 151 540 214 540 L214 540 Z " />
<glyph glyph-name="guillemotleft" unicode="&#xab;" horiz-adv-x="449" d="M364 88 L451 88 L305 274 L451 460 L364 460 L217 274 L364 88 Z M194 88 L280 88 L133 274 L280 460 L194 460 L47 274 L194 88 Z " />
<glyph glyph-name="logicalnot" unicode="&#xac;" horiz-adv-x="589" d="M56 313 L540 313 L540 381 L56 381 L56 313 Z " />
<glyph glyph-name="registered" unicode="&#xae;" horiz-adv-x="646" d="M335 171 C501 171 609 284 609 444 C609 605 501 718 335 718 C169 718 61 605 61 444 C61 284 169 171 335 171 L335 171 Z M335 667 C472 667 556 577 556 444 C556 311 472 222 335 222 C198 222 114 311 114 444 C114 577 198 667 335 667 L335 667 Z M414 289 L470 289 L385 426 C424 442 449 474 449 519 C449 584 398 617 338 617 L309 617 C265 617 228 591 228 546 L228 289 L278 289 L278 420 L315 420 C331 420 336 416 346 401 C371 360 414 289 414 289 L414 289 Z M338 573 C371 573 399 554 399 518 C399 480 375 464 336 464 L278 464 L278 545 C278 564 288 573 310 573 L338 573 Z " />
<glyph glyph-name="macron" unicode="&#xaf;" horiz-adv-x="360" d="M298 534 L298 582 L62 582 L62 534 L298 534 Z " />
<glyph glyph-name="degree" unicode="&#xb0;" horiz-adv-x="320" d="M160 516 C221 516 270 565 270 626 C270 687 221 736 160 736 C99 736 50 687 50 626 C50 565 99 516 160 516 L160 516 Z M160 690 C196 690 224 662 224 626 C224 590 196 562 160 562 C124 562 96 590 96 626 C96 662 124 690 160 690 L160 690 Z " />
<glyph glyph-name="plusminus" unicode="&#xb1;" horiz-adv-x="489" d="M278 365 L430 365 L430 431 L278 431 L278 584 L215 584 L215 431 L66 431 L66 365 L215 365 L215 212 L278 212 L278 365 Z M65 113 L427 113 L427 178 L65 178 L65 113 Z " />
<glyph glyph-name="twosuperior" unicode="&#xb2;" horiz-adv-x="400" d="M199 644 C245 644 272 625 272 576 C272 533 221 502 188 484 C129 452 83 401 83 330 L84 264 L314 264 L314 307 L130 307 L130 344 C130 388 173 429 204 445 C274 482 319 522 319 578 C319 656 272 688 199 688 C136 688 95 659 77 594 L119 578 C131 625 156 644 199 644 L199 644 Z " />
<glyph glyph-name="threesuperior" unicode="&#xb3;" horiz-adv-x="434" d="M218 255 C292 255 357 306 357 392 C357 446 329 488 285 507 C314 528 329 557 329 589 C329 656 275 694 217 694 C160 694 119 665 97 598 L146 582 C160 627 180 645 217 645 C251 645 274 624 274 590 C274 554 251 522 207 522 L178 522 L178 475 L210 475 C266 475 302 444 302 393 C302 338 268 304 218 304 C169 304 141 321 124 391 L74 377 C96 284 146 255 218 255 L218 255 Z " />
<glyph glyph-name="acute" unicode="&#xb4;" horiz-adv-x="268" d="M116 488 L237 618 L151 618 L56 488 L116 488 Z " />
<glyph glyph-name="mu1" unicode="&#xb5;" horiz-adv-x="512" d="M380 167 L380 385 L344 385 L344 156 C344 118 334 86 312 62 C302 51 292 42 279 36 C276 35 272 33 269 31 C255 26 240 23 222 23 C185 23 155 36 132 62 C111 86 100 118 100 156 L100 385 L99 385 L99 386 L65 386 L65 -180 L99 -180 L99 51 C127 12 169 -7 222 -7 L238 -7 C236 -13 236 -20 236 -26 C236 -74 315 -98 375 -98 L375 -72 C330 -70 274 -57 270 -28 C269 -21 268 -15 271 -10 C274 -2 279 0 286 4 C307 12 325 25 340 43 C366 74 380 116 380 167 L380 167 Z " />
<glyph glyph-name="paragraph" unicode="&#xb6;" horiz-adv-x="487" d="M225 298 L225 -52 L285 -52 L285 548 L309 548 C329 545 335 536 335 520 L335 -52 L395 -52 L395 519 C395 571 363 607 306 607 L215 607 C128 607 65 544 65 452 C65 349 140 300 225 298 L225 298 Z " />
<glyph glyph-name="periodcentered" unicode="&#xb7;" horiz-adv-x="189" d="M148 293 C148 324 132 340 100 340 C70 340 52 324 52 293 C52 262 69 244 100 244 C132 244 148 262 148 293 L148 293 Z " />
<glyph glyph-name="cedilla" unicode="&#xb8;" horiz-adv-x="346" d="M127 -88 C139 -84 155 -82 168 -82 C197 -82 219 -91 219 -115 C219 -138 204 -151 171 -151 C143 -151 118 -146 81 -125 L66 -168 C106 -193 140 -199 171 -200 C225 -201 279 -173 279 -111 C279 -69 251 -41 211 -37 C198 -36 187 -30 190 -13 L199 37 L150 39 C150 39 134 -45 127 -88 L127 -88 Z " />
<glyph glyph-name="onesuperior" unicode="&#xb9;" horiz-adv-x="246" d="M168 262 L168 633 C168 669 151 677 122 657 L79 628 L79 584 L129 617 L129 262 L168 262 Z " />
<glyph glyph-name="ordmasculine" unicode="&#xba;" horiz-adv-x="363" d="M325 436 C325 523 270 580 182 580 C97 580 38 520 38 436 C38 352 97 291 182 291 C268 291 325 350 325 436 L325 436 Z M282 437 C282 378 242 333 182 333 C122 333 83 379 83 437 C83 494 123 541 182 541 C242 541 282 496 282 437 L282 437 Z " />
<glyph glyph-name="guillemotright" unicode="&#xbb;" horiz-adv-x="449" d="M296 88 L444 274 L296 460 L212 460 L358 274 L212 88 L296 88 Z M127 88 L274 274 L127 460 L40 460 L186 274 L40 88 L127 88 Z " />
<glyph glyph-name="onequarter" unicode="&#xbc;" horiz-adv-x="806" d="M727 111 L727 156 L672 156 L672 425 L625 425 L447 179 C440 169 435 159 435 146 C435 121 458 111 484 111 L624 111 L624 0 L672 0 L672 111 L727 111 Z M606 695 L564 695 L103 -12 L145 -12 L606 695 Z M624 156 L490 156 L489 156 L624 344 L624 156 Z M168 262 L168 633 C168 669 151 677 122 657 L79 628 L79 584 L129 617 L129 262 L168 262 Z " />
<glyph glyph-name="onehalf" unicode="&#xbd;" horiz-adv-x="812" d="M612 380 C658 380 685 361 685 312 C685 269 634 238 601 220 C542 188 496 137 496 66 L497 0 L728 0 L728 43 L543 43 L543 80 C543 124 586 165 617 181 C687 218 732 258 732 314 C732 392 685 424 612 424 C549 424 508 395 490 330 L532 314 C544 361 569 380 612 380 L612 380 Z M606 695 L564 695 L103 -12 L145 -12 L606 695 Z M168 262 L168 633 C168 669 151 677 122 657 L79 628 L79 584 L129 617 L129 262 L168 262 Z " />
<glyph glyph-name="threequarters" unicode="&#xbe;" horiz-adv-x="839" d="M762 111 L762 156 L707 156 L707 425 L660 425 L481 179 C474 169 469 159 469 146 C469 121 492 111 519 111 L658 111 L658 0 L707 0 L707 111 L762 111 Z M698 695 L657 695 L197 -12 L237 -12 L698 695 Z M658 156 L524 156 L522 156 L658 344 L658 156 Z M218 255 C292 255 357 306 357 392 C357 446 329 488 285 507 C314 528 329 557 329 589 C329 656 275 694 217 694 C160 694 119 665 97 598 L146 582 C160 627 180 645 217 645 C251 645 274 624 274 590 C274 554 251 522 207 522 L178 522 L178 475 L210 475 C266 475 302 444 302 393 C302 338 268 304 218 304 C169 304 141 321 124 391 L74 377 C96 284 146 255 218 255 L218 255 Z " />
<glyph glyph-name="questiondown" unicode="&#xbf;" horiz-adv-x="453" d="M144 310 C100 257 47 210 47 127 C47 31 113 -29 229 -29 C301 -29 384 -7 428 84 C406 93 384 103 362 113 C333 58 289 41 230 41 C156 41 123 74 123 126 C123 168 146 206 173 237 C182 248 192 259 200 269 C244 320 282 376 282 462 L282 513 L209 513 L209 456 C209 397 186 361 144 310 L144 310 Z M246 692 C212 692 195 671 195 641 C195 610 213 590 246 590 C277 590 296 608 296 641 C296 672 278 692 246 692 L246 692 Z " />
<glyph glyph-name="Agrave" unicode="&#xc0;" horiz-adv-x="640" d="M390 772 L282 919 L191 919 C237 870 284 821 329 772 L390 772 Z M535 0 L617 0 C617 0 428 560 402 636 C390 671 369 704 320 704 C273 704 250 672 238 636 C167 424 22 0 22 0 L104 0 L194 272 L445 272 L535 0 L535 0 Z M320 629 C326 629 328 622 334 604 C356 537 421 342 421 342 L217 342 C217 342 278 524 305 604 C311 622 314 629 320 629 L320 629 Z " />
<glyph glyph-name="Aacute" unicode="&#xc1;" horiz-adv-x="640" d="M307 772 C353 821 400 870 445 919 L354 919 C318 870 283 821 247 772 L307 772 Z M535 0 L617 0 C617 0 428 560 402 636 C390 671 369 704 320 704 C273 704 250 672 238 636 C167 424 22 0 22 0 L104 0 L194 272 L445 272 L535 0 Z M320 629 C326 629 328 622 334 604 C356 537 421 342 421 342 L217 342 C217 342 278 524 305 604 C311 622 314 629 320 629 L320 629 Z " />
<glyph glyph-name="Acircumflex" unicode="&#xc2;" horiz-adv-x="640" d="M535 0 L617 0 C617 0 428 560 402 636 C390 671 369 704 320 704 C273 704 250 672 238 636 C167 424 22 0 22 0 L104 0 L194 272 L445 272 L535 0 L535 0 Z M320 629 C326 629 328 622 334 604 C356 537 421 342 421 342 L217 342 C217 342 278 524 305 604 C311 622 314 629 320 629 L320 629 Z M411 771 L474 771 L371 895 C342 929 300 930 272 897 L167 771 L229 771 L320 863 L411 771 Z " />
<glyph glyph-name="Atilde" unicode="&#xc3;" horiz-adv-x="640" d="M535 0 L617 0 C617 0 428 560 402 636 C390 671 369 704 320 704 C273 704 250 672 238 636 C167 424 22 0 22 0 L104 0 L194 272 L445 272 L535 0 L535 0 Z M320 629 C326 629 328 622 334 604 C356 537 421 342 421 342 L217 342 C217 342 278 524 305 604 C311 622 314 629 320 629 L320 629 Z M400 769 C436 774 463 795 487 831 C476 842 464 853 453 864 C428 827 400 821 386 821 C342 821 307 870 245 862 C212 858 180 833 159 798 C171 788 185 776 198 766 C217 795 238 808 259 808 C298 808 338 760 400 769 L400 769 Z " />
<glyph glyph-name="Adieresis" unicode="&#xc4;" horiz-adv-x="640" d="M453 815 C453 847 439 862 407 862 C376 862 359 847 359 815 C359 784 376 767 407 767 C439 767 453 784 453 815 L453 815 Z M280 815 C280 847 265 862 234 862 C202 862 186 847 186 815 C186 784 202 767 234 767 C265 767 280 784 280 815 L280 815 Z M535 0 L617 0 C617 0 428 560 402 636 C390 671 369 704 320 704 C273 704 250 672 238 636 C167 424 22 0 22 0 L104 0 L194 272 L445 272 L535 0 Z M320 629 C326 629 328 622 334 604 C356 537 421 342 421 342 L217 342 C217 342 278 524 305 604 C311 622 314 629 320 629 L320 629 Z " />
<glyph glyph-name="Aring" unicode="&#xc5;" horiz-adv-x="640" d="M320 763 C378 763 420 805 420 862 C420 921 378 961 320 961 C262 961 221 920 221 862 C221 805 262 763 320 763 L320 763 Z M320 916 C350 916 373 892 373 862 C373 831 352 809 320 809 C289 809 267 830 267 862 C267 893 290 916 320 916 L320 916 Z M535 0 L617 0 C617 0 428 560 402 636 C390 671 369 704 320 704 C273 704 250 672 238 636 C167 424 22 0 22 0 L104 0 L194 272 L445 272 L535 0 Z M320 629 C326 629 328 622 334 604 C356 537 421 342 421 342 L217 342 C217 342 278 524 305 604 C311 622 314 629 320 629 L320 629 Z " />
<glyph glyph-name="AE" unicode="&#xc6;" horiz-adv-x="927" d="M583 0 L898 0 L898 70 L581 70 C564 70 559 80 559 92 L559 320 L859 320 L859 388 L559 388 L559 632 L898 632 L898 703 L536 703 C474 703 451 670 422 625 C286 416 150 208 14 0 L98 0 C167 106 237 212 306 318 L481 318 L481 94 C481 35 517 0 583 0 L583 0 Z M481 590 L481 388 L351 388 C360 401 457 554 481 590 L481 590 Z " />
<glyph glyph-name="Ccedilla" unicode="&#xc7;" horiz-adv-x="704" d="M515 -119 C515 -79 487 -56 449 -49 C434 -46 428 -42 430 -30 C432 -18 433 -12 433 -12 C516 -9 605 21 677 91 C661 112 646 133 631 154 C567 86 493 61 420 61 C261 61 164 183 164 348 C164 513 259 635 416 635 C489 635 556 604 617 537 C635 556 652 575 670 594 C593 675 511 709 419 709 C213 709 80 553 80 346 C80 153 195 6 380 -11 C374 -40 368 -70 362 -100 C377 -94 399 -92 413 -92 C440 -92 455 -103 455 -124 C455 -144 440 -158 409 -158 C390 -158 357 -154 320 -135 C315 -150 309 -166 303 -181 C346 -204 378 -208 410 -208 C462 -208 515 -181 515 -119 L515 -119 Z " />
<glyph glyph-name="Egrave" unicode="&#xc8;" horiz-adv-x="545" d="M327 772 L387 772 L280 920 L189 920 L327 772 Z M99 0 L510 0 L510 69 L175 69 L175 330 L457 330 L457 401 L175 401 L175 547 C175 609 207 634 263 634 L492 634 L492 704 L286 704 C268 704 246 703 230 701 C162 694 114 649 102 586 C100 577 99 555 99 541 L99 0 Z " />
<glyph glyph-name="Eacute" unicode="&#xc9;" horiz-adv-x="545" d="M436 920 L345 920 L238 772 L298 772 L436 920 Z M99 0 L510 0 L510 69 L175 69 L175 330 L457 330 L457 401 L175 401 L175 547 C175 609 207 634 263 634 L492 634 L492 704 L284 704 C259 704 236 702 230 701 C162 694 114 647 102 584 C100 575 99 560 99 546 L99 0 Z " />
<glyph glyph-name="Ecircumflex" unicode="&#xca;" horiz-adv-x="545" d="M399 771 L463 771 L359 895 C331 929 289 930 260 897 L156 771 L218 771 L308 862 L399 771 Z M99 0 L510 0 L510 69 L175 69 L175 330 L457 330 L457 401 L175 401 L175 547 C175 609 207 634 263 634 L492 634 L492 704 L286 704 C268 704 246 703 230 701 C162 694 114 649 102 586 C100 577 99 555 99 541 L99 0 Z " />
<glyph glyph-name="Edieresis" unicode="&#xcb;" horiz-adv-x="545" d="M274 818 C274 849 260 864 228 864 C197 864 180 849 180 818 C180 786 197 769 228 769 C260 769 274 786 274 818 L274 818 Z M448 818 C448 849 433 864 402 864 C370 864 354 849 354 818 C354 786 370 769 402 769 C433 769 448 786 448 818 L448 818 Z M99 0 L510 0 L510 69 L175 69 L175 330 L457 330 L457 401 L175 401 L175 547 C175 609 207 634 263 634 L492 634 L492 704 L286 704 C268 704 246 703 230 701 C162 694 114 649 102 586 C100 577 99 555 99 541 L99 0 Z " />
<glyph glyph-name="Igrave" unicode="&#xcc;" horiz-adv-x="257" d="M156 772 L217 772 L109 920 L17 920 L156 772 Z M89 0 L169 0 L169 704 L89 704 L89 0 Z " />
<glyph glyph-name="Iacute" unicode="&#xcd;" horiz-adv-x="259" d="M248 920 L157 920 L49 772 L110 772 L248 920 Z M89 0 L169 0 L169 704 L89 704 L89 0 Z " />
<glyph glyph-name="Icircumflex" unicode="&#xce;" horiz-adv-x="258" d="M219 771 L282 771 L180 895 C151 929 109 930 80 897 L-24 771 L38 771 L129 862 L219 771 Z M89 0 L169 0 L169 704 L89 704 L89 0 Z " />
<glyph glyph-name="Idieresis" unicode="&#xcf;" horiz-adv-x="257" d="M88 817 C88 848 72 864 41 864 C10 864 -6 848 -6 817 C-6 785 10 769 41 769 C72 769 88 785 88 817 L88 817 Z M89 0 L168 0 L168 704 L89 704 L89 0 Z M262 817 C262 848 246 864 215 864 C184 864 168 848 168 817 C168 785 184 769 215 769 C246 769 262 785 262 817 L262 817 Z " />
<glyph glyph-name="Eth" unicode="&#xd0;" horiz-adv-x="599" d="M535 290 C535 372 513 441 470 496 C423 555 360 585 280 585 L183 585 C162 585 144 579 131 566 C118 554 112 538 112 517 L112 317 L65 317 L65 284 L112 284 L113 68 C113 47 120 29 138 17 C152 7 167 1 184 1 L294 1 C375 1 436 31 478 88 C516 139 535 206 535 290 L535 290 Z M497 290 C497 216 482 157 451 112 C415 61 363 33 292 34 L180 35 C160 38 149 50 149 68 L149 284 L326 284 L326 317 L149 317 L148 517 C148 536 159 547 179 551 L278 551 C349 551 403 524 443 471 C478 424 497 365 497 290 L497 290 Z " />
<glyph glyph-name="Ntilde" unicode="&#xd1;" horiz-adv-x="721" d="M445 769 C481 774 508 795 532 831 C521 842 509 853 498 864 C473 827 445 821 431 821 C387 821 352 870 290 862 C257 858 225 833 204 798 C216 788 230 776 243 766 C262 795 283 808 304 808 C343 808 383 760 445 769 L445 769 Z M554 -7 C600 -7 627 25 627 74 L627 704 L552 704 L552 83 C552 75 550 72 546 72 C542 72 539 76 535 84 L259 641 C239 680 213 710 168 710 C120 710 94 675 94 631 L94 0 L169 0 L169 621 C169 629 171 632 175 632 C179 632 183 628 188 618 C278 439 373 244 463 62 C488 11 517 -7 554 -7 L554 -7 Z " />
<glyph glyph-name="Ograve" unicode="&#xd2;" horiz-adv-x="764" d="M417 772 L478 772 L370 920 L279 920 L417 772 Z M387 -12 C598 -12 707 162 707 351 C707 546 599 713 386 713 C165 713 64 546 64 351 C64 156 169 -12 387 -12 L387 -12 Z M386 642 C548 642 626 513 626 352 C626 194 554 59 387 59 C218 59 143 192 143 352 C143 512 218 642 386 642 L386 642 Z " />
<glyph glyph-name="Oacute" unicode="&#xd3;" horiz-adv-x="764" d="M507 920 L415 920 L308 772 L368 772 L507 920 Z M387 -12 C598 -12 707 162 707 351 C707 546 599 713 386 713 C165 713 62 546 62 351 C62 156 169 -12 387 -12 L387 -12 Z M386 642 C548 642 626 513 626 352 C626 194 554 59 387 59 C218 59 143 192 143 352 C143 512 218 642 386 642 L386 642 Z " />
<glyph glyph-name="Ocircumflex" unicode="&#xd4;" horiz-adv-x="764" d="M475 771 L538 771 L436 895 C407 929 365 930 336 897 L232 771 L294 771 L384 862 L475 771 Z M387 -12 C598 -12 707 162 707 351 C707 546 599 713 386 713 C165 713 64 546 64 351 C64 156 169 -12 387 -12 L387 -12 Z M386 642 C548 642 626 513 626 352 C626 194 554 59 387 59 C218 59 143 192 143 352 C143 512 218 642 386 642 L386 642 Z " />
<glyph glyph-name="Otilde" unicode="&#xd5;" horiz-adv-x="764" d="M387 -12 C598 -12 707 162 707 351 C707 546 599 713 386 713 C165 713 62 546 62 351 C62 156 169 -12 387 -12 L387 -12 Z M386 642 C548 642 626 513 626 352 C626 194 554 59 387 59 C218 59 143 192 143 352 C143 512 218 642 386 642 L386 642 Z M461 769 C497 774 524 795 548 831 C537 842 525 853 514 864 C489 827 461 821 447 821 C403 821 368 870 306 862 C273 858 241 833 220 798 C232 788 246 776 259 766 C278 795 299 808 320 808 C359 808 399 760 461 769 L461 769 Z " />
<glyph glyph-name="Odieresis" unicode="&#xd6;" horiz-adv-x="764" d="M345 816 C345 847 329 863 298 863 C267 863 251 847 251 816 C251 784 267 767 298 767 C329 767 345 784 345 816 L345 816 Z M518 816 C518 847 503 863 472 863 C440 863 424 847 424 816 C424 784 440 767 472 767 C503 767 518 784 518 816 L518 816 Z M387 -12 C598 -12 707 162 707 351 C707 546 599 713 386 713 C165 713 62 546 62 351 C62 156 169 -12 387 -12 L387 -12 Z M386 642 C548 642 626 513 626 352 C626 194 554 59 387 59 C218 59 143 192 143 352 C143 512 218 642 386 642 L386 642 Z " />
<glyph glyph-name="multiply" unicode="&#xd7;" horiz-adv-x="520" d="M456 -4 L482 23 L285 220 L480 416 L454 442 L258 246 L63 442 L37 416 L233 221 L38 25 L63 -2 L259 194 L456 -4 Z " />
<glyph glyph-name="Oslash" unicode="&#xd8;" horiz-adv-x="764" d="M236 110 C168 160 137 250 137 352 C137 512 212 642 382 642 C411 642 436 638 460 630 L236 110 Z M522 596 C591 547 624 456 624 352 C624 194 552 60 383 60 C351 60 323 65 298 75 L522 596 Z M519 757 L490 696 C458 707 422 713 382 713 C159 713 56 546 56 351 C56 220 106 103 204 42 L155 -58 L236 -58 L267 9 C301 -4 340 -12 383 -12 C595 -12 704 162 704 351 C704 483 654 603 554 664 L599 757 L519 757 Z " />
<glyph glyph-name="Ugrave" unicode="&#xd9;" horiz-adv-x="689" d="M367 772 L428 772 L320 920 L229 920 L367 772 Z M354 -12 C437 -12 518 7 590 32 L590 704 L510 704 L510 86 C472 73 404 61 359 61 C240 61 186 113 173 180 C170 192 168 213 168 238 L168 704 L88 704 L88 235 C88 197 92 164 100 139 C130 44 219 -12 354 -12 L354 -12 Z " />
<glyph glyph-name="Uacute" unicode="&#xda;" horiz-adv-x="689" d="M468 920 L377 920 L269 772 L330 772 L468 920 Z M354 -12 C437 -12 518 7 590 32 L590 704 L510 704 L510 86 C472 73 404 61 359 61 C240 61 186 113 173 180 C170 192 168 213 168 238 L168 704 L88 704 L88 235 C88 197 92 164 100 139 C130 44 219 -12 354 -12 L354 -12 Z " />
<glyph glyph-name="Ucircumflex" unicode="&#xdb;" horiz-adv-x="689" d="M427 771 L491 771 L388 895 C360 929 317 930 288 897 L184 771 L246 771 L337 862 L427 771 Z M354 -12 C437 -12 518 7 590 32 L590 704 L510 704 L510 86 C472 73 404 61 359 61 C240 61 186 113 173 180 C170 192 168 213 168 238 L168 704 L88 704 L88 235 C88 197 92 164 100 139 C130 44 219 -12 354 -12 L354 -12 Z " />
<glyph glyph-name="Udieresis" unicode="&#xdc;" horiz-adv-x="689" d="M309 815 C309 846 294 863 262 863 C231 863 215 846 215 815 C215 783 231 767 262 767 C294 767 309 783 309 815 L309 815 Z M482 815 C482 846 468 863 436 863 C404 863 388 846 388 815 C388 783 404 767 436 767 C468 767 482 783 482 815 L482 815 Z M364 -12 C447 -12 528 7 600 32 L600 704 L520 704 L520 86 C482 73 414 61 369 61 C250 61 197 113 184 180 C181 196 179 214 179 239 L179 704 L98 704 L98 235 C98 197 102 164 110 139 C140 44 229 -12 364 -12 L364 -12 Z " />
<glyph glyph-name="Thorn" unicode="&#xde;" horiz-adv-x="488" d="M424 302 C424 354 407 397 374 432 C342 466 298 482 246 482 C192 482 148 466 116 432 C109 426 105 419 100 413 L100 581 L65 581 L65 313 L65 0 L100 0 L100 192 C105 185 110 179 116 173 C149 139 192 122 246 122 C298 122 341 139 374 173 C406 207 424 250 424 302 L424 302 Z M383 301 C383 259 370 225 345 198 C319 171 285 157 242 157 C198 157 162 170 137 198 C112 225 100 259 100 301 C100 343 112 378 138 405 C164 432 198 446 242 446 C285 446 319 433 345 405 C370 378 383 344 383 301 L383 301 Z " />
<glyph glyph-name="germandbls" unicode="&#xdf;" horiz-adv-x="551" d="M313 -81 C473 -81 527 13 527 101 C527 185 495 245 403 298 C324 344 306 351 306 370 C306 389 326 403 382 445 C422 476 452 514 452 571 C452 666 390 712 284 712 C147 712 88 623 88 492 L88 0 L164 0 L164 482 C164 580 189 646 287 646 C334 646 374 623 374 569 C374 517 329 492 292 462 C261 437 229 413 229 365 C229 240 448 258 448 100 C448 38 409 -12 316 -12 L232 -12 L232 -81 L313 -81 Z " />
<glyph glyph-name="agrave" unicode="&#xe0;" horiz-adv-x="611" d="M364 555 L256 702 L165 702 L303 555 L364 555 Z M313 425 C391 425 457 371 457 281 L457 97 C418 77 365 58 311 58 C196 58 137 131 137 236 C137 340 195 425 313 425 L313 425 Z M462 478 L462 431 C428 469 375 490 310 490 C152 490 60 374 60 234 C60 86 156 -7 304 -7 C330 -7 352 -3 373 2 C396 7 429 22 445 22 C456 22 461 15 465 0 L531 0 L531 478 L462 478 Z " />
<glyph glyph-name="aacute" unicode="&#xe1;" horiz-adv-x="611" d="M303 555 C348 604 395 653 441 702 L350 702 L242 555 L303 555 Z M313 425 C391 425 457 371 457 281 L457 97 C418 77 365 58 311 58 C196 58 137 131 137 236 C137 340 195 425 313 425 L313 425 Z M462 478 L462 431 C428 469 375 490 310 490 C152 490 60 374 60 234 C60 86 156 -7 304 -7 C330 -7 352 -3 373 2 C396 7 429 22 445 22 C456 22 461 15 465 0 L531 0 L531 478 L462 478 Z " />
<glyph glyph-name="acircumflex" unicode="&#xe2;" horiz-adv-x="611" d="M398 554 L462 554 C462 554 392 637 359 677 C344 695 327 704 308 704 C290 704 273 696 259 679 C227 642 155 554 155 554 L217 554 L308 645 L398 554 L398 554 Z M313 425 C391 425 457 371 457 281 L457 97 C418 77 365 58 311 58 C196 58 137 131 137 236 C137 340 195 425 313 425 L313 425 Z M462 478 L462 431 C428 469 375 490 310 490 C152 490 60 374 60 234 C60 86 156 -7 304 -7 C330 -7 352 -3 373 2 C396 7 429 22 445 22 C456 22 461 15 465 0 L531 0 L531 478 L462 478 Z " />
<glyph glyph-name="atilde" unicode="&#xe3;" horiz-adv-x="611" d="M313 425 C391 425 457 371 457 281 L457 97 C418 77 365 58 311 58 C196 58 137 131 137 236 C137 340 195 425 313 425 L313 425 Z M462 478 L462 431 C428 469 375 490 310 490 C152 490 60 374 60 234 C60 86 156 -7 304 -7 C330 -7 352 -3 373 2 C396 7 429 22 445 22 C456 22 461 15 465 0 L531 0 L531 478 L462 478 Z M392 569 C428 574 455 595 479 631 C468 642 456 653 445 664 C420 627 392 621 378 621 C334 621 299 670 237 662 C204 658 172 633 151 598 C163 588 177 576 190 566 C209 595 230 608 251 608 C290 608 330 560 392 569 L392 569 Z " />
<glyph glyph-name="adieresis" unicode="&#xe4;" horiz-adv-x="611" d="M269 614 C269 646 254 662 223 662 C192 662 176 646 176 614 C176 583 192 567 223 567 C254 567 269 583 269 614 L269 614 Z M443 614 C443 646 428 662 396 662 C365 662 349 646 349 614 C349 583 365 567 396 567 C428 567 443 583 443 614 L443 614 Z M313 425 C391 425 457 371 457 281 L457 97 C418 77 365 58 311 58 C196 58 137 131 137 236 C137 340 195 425 313 425 L313 425 Z M462 478 L462 431 C428 469 375 490 310 490 C152 490 60 374 60 234 C60 86 156 -7 304 -7 C330 -7 352 -3 373 2 C396 7 429 22 445 22 C456 22 461 15 465 0 L531 0 L531 478 L462 478 Z " />
<glyph glyph-name="aring" unicode="&#xe5;" horiz-adv-x="611" d="M310 560 C368 560 410 602 410 660 C410 718 368 759 310 759 C252 759 211 717 211 660 C211 602 252 560 310 560 L310 560 Z M311 714 C341 714 364 690 364 660 C364 628 343 606 311 606 C279 606 258 628 258 660 C258 690 280 714 311 714 L311 714 Z M313 425 C391 425 457 371 457 281 L457 97 C418 77 365 58 311 58 C196 58 137 131 137 236 C137 340 195 425 313 425 L313 425 Z M462 478 L462 431 C428 469 375 490 310 490 C152 490 60 374 60 234 C60 86 156 -7 304 -7 C330 -7 352 -3 373 2 C396 7 429 22 445 22 C456 22 461 15 465 0 L531 0 L531 478 L462 478 Z " />
<glyph glyph-name="ae" unicode="&#xe6;" horiz-adv-x="978" d="M451 19 C463 19 464 5 465 0 L531 0 L531 54 C573 15 632 -6 703 -6 C781 -6 839 14 903 62 C891 80 878 99 866 117 C810 77 761 59 705 59 C605 59 541 118 534 217 L915 217 C915 217 914 248 912 268 C900 391 821 482 690 482 C611 482 544 448 503 390 C470 441 408 479 311 479 C154 479 64 361 64 229 C64 87 158 -8 307 -8 C350 -8 386 0 422 12 C431 15 443 19 451 19 L451 19 Z M690 416 C770 416 819 366 833 281 L536 281 C551 367 610 416 690 416 L690 416 Z M456 268 L456 95 C419 77 362 59 312 59 C199 59 139 129 139 230 C139 329 198 412 315 412 C387 412 438 378 452 317 C455 306 456 287 456 268 L456 268 Z " />
<glyph glyph-name="ccedilla" unicode="&#xe7;" horiz-adv-x="541" d="M318 -8 C388 -7 446 14 503 69 L461 120 C413 77 361 56 307 56 C203 56 138 126 138 243 C138 337 202 418 301 418 C360 418 402 400 446 353 C465 369 483 383 502 398 C444 460 396 485 301 485 C158 485 61 376 61 238 C61 107 135 7 267 -7 C262 -36 256 -66 250 -96 C263 -91 283 -88 297 -88 C322 -88 338 -100 338 -121 C338 -141 322 -157 290 -157 C269 -157 244 -153 205 -135 C200 -149 195 -164 190 -177 C228 -197 259 -204 289 -204 C345 -204 397 -178 397 -118 C397 -81 374 -57 338 -49 C327 -47 313 -44 315 -28 C316 -21 318 -8 318 -8 L318 -8 Z " />
<glyph glyph-name="egrave" unicode="&#xe8;" horiz-adv-x="574" d="M302 555 L363 555 L255 702 L164 702 L302 555 Z M137 225 L523 225 C522 257 520 275 520 276 C510 403 427 491 294 491 C155 491 59 381 59 241 C59 97 148 -9 305 -9 C387 -9 445 9 506 53 L473 110 C422 74 372 57 310 57 C201 57 142 125 137 225 L137 225 Z M294 427 C383 427 429 369 441 288 L139 288 C152 365 210 427 294 427 L294 427 Z " />
<glyph glyph-name="eacute" unicode="&#xe9;" horiz-adv-x="574" d="M439 702 L348 702 L240 555 L301 555 L439 702 Z M137 225 L523 225 C522 257 520 275 520 276 C510 403 427 491 294 491 C155 491 59 381 59 241 C59 97 148 -9 305 -9 C387 -9 445 9 506 53 L473 110 C422 74 372 57 310 57 C201 57 142 125 137 225 L137 225 Z M294 427 C383 427 429 369 441 288 L139 288 C152 365 210 427 294 427 L294 427 Z " />
<glyph glyph-name="ecircumflex" unicode="&#xea;" horiz-adv-x="574" d="M384 554 L447 554 L344 678 C315 712 273 713 245 680 L140 554 L202 554 L293 646 L384 554 Z M137 225 L523 225 C522 257 520 275 520 276 C510 403 427 491 294 491 C155 491 59 381 59 241 C59 97 148 -9 305 -9 C387 -9 445 9 506 53 L473 110 C422 74 372 57 310 57 C201 57 142 125 137 225 L137 225 Z M294 427 C383 427 429 369 441 288 L139 288 C152 365 210 427 294 427 L294 427 Z " />
<glyph glyph-name="edieresis" unicode="&#xeb;" horiz-adv-x="574" d="M255 615 C255 646 240 663 208 663 C177 663 162 646 162 615 C162 584 177 567 208 567 C240 567 255 584 255 615 L255 615 Z M428 615 C428 646 414 663 382 663 C351 663 335 646 335 615 C335 584 351 567 382 567 C414 567 428 584 428 615 L428 615 Z M137 225 L523 225 C522 257 520 275 520 276 C510 403 427 491 294 491 C155 491 59 381 59 241 C59 97 148 -9 305 -9 C387 -9 445 9 506 53 L473 110 C422 74 372 57 310 57 C201 57 142 125 137 225 L137 225 Z M294 427 C383 427 429 369 441 288 L139 288 C152 365 210 427 294 427 L294 427 Z " />
<glyph glyph-name="igrave" unicode="&#xec;" horiz-adv-x="252" d="M89 0 L164 0 L164 477 L89 477 L89 0 Z M155 555 L216 555 L109 702 L17 702 L155 555 Z " />
<glyph glyph-name="iacute" unicode="&#xed;" horiz-adv-x="252" d="M88 0 L163 0 L163 477 L88 477 L88 0 Z M238 702 L147 702 L39 555 L100 555 L238 702 Z " />
<glyph glyph-name="icircumflex" unicode="&#xee;" horiz-adv-x="271" d="M98 0 L173 0 L173 477 L98 477 L98 0 Z M222 554 L285 554 L182 678 C154 712 112 713 83 680 L-21 554 L41 554 L131 645 L222 554 Z " />
<glyph glyph-name="idieresis" unicode="&#xef;" horiz-adv-x="259" d="M264 615 C264 646 249 663 217 663 C186 663 170 646 170 615 C170 584 186 567 217 567 C249 567 264 584 264 615 L264 615 Z M90 615 C90 646 75 663 44 663 C13 663 -4 646 -4 615 C-4 584 13 567 44 567 C75 567 90 584 90 615 L90 615 Z M168 0 L168 477 L93 477 L93 0 L168 0 Z " />
<glyph glyph-name="eth" unicode="&#xf0;" horiz-adv-x="517" d="M453 160 L453 571 L418 571 L418 529 C402 508 387 498 371 496 C353 493 336 495 318 506 L310 511 L301 515 C275 530 248 535 219 530 C189 524 165 507 144 478 L176 459 C193 482 208 492 226 496 C243 499 259 494 278 485 L286 481 L294 475 C320 459 348 456 378 461 C392 464 406 470 418 478 L418 316 C413 323 407 329 401 335 C365 373 318 392 259 392 C202 392 156 373 120 335 C84 298 65 250 65 193 C65 135 83 87 120 49 C155 12 202 -7 259 -7 C318 -7 363 11 400 49 C436 87 453 118 453 160 L453 160 Z M418 194 C418 145 403 106 375 74 C345 41 308 25 259 25 C210 25 171 41 143 73 C114 105 101 144 101 194 C101 242 114 282 143 314 C170 345 210 361 259 361 C308 361 347 346 376 314 C403 283 418 242 418 194 L418 194 Z " />
<glyph glyph-name="ntilde" unicode="&#xf1;" horiz-adv-x="556" d="M426 0 L505 0 L505 305 C505 431 424 488 290 488 C219 488 139 463 80 421 L80 0 L157 0 L157 385 C186 404 240 421 286 421 C381 421 426 379 426 292 L426 0 Z M363 570 C399 575 426 596 450 632 C439 643 427 654 416 665 C391 628 363 622 349 622 C305 622 270 671 208 663 C175 659 143 634 122 599 C134 589 148 577 161 567 C180 596 201 609 222 609 C261 609 301 561 363 570 L363 570 Z " />
<glyph glyph-name="ograve" unicode="&#xf2;" horiz-adv-x="598" d="M303 555 L364 555 L256 702 L165 702 L303 555 Z M302 491 C158 491 56 379 56 242 C56 103 157 -8 302 -8 C449 -8 550 100 550 242 C550 383 449 491 302 491 L302 491 Z M302 58 C195 58 132 142 132 243 C132 343 196 426 302 426 C404 426 474 340 474 243 C474 137 405 58 302 58 L302 58 Z " />
<glyph glyph-name="oacute" unicode="&#xf3;" horiz-adv-x="598" d="M442 702 L350 702 L242 555 L303 555 L442 702 Z M302 491 C158 491 56 379 56 242 C56 103 157 -8 302 -8 C449 -8 550 100 550 242 C550 383 449 491 302 491 L302 491 Z M302 58 C195 58 132 142 132 243 C132 343 196 426 302 426 C404 426 474 340 474 243 C474 137 405 58 302 58 L302 58 Z " />
<glyph glyph-name="ocircumflex" unicode="&#xf4;" horiz-adv-x="598" d="M387 554 L451 554 L348 678 C319 712 277 713 248 680 L144 554 L206 554 L297 645 L387 554 Z M302 491 C158 491 56 379 56 242 C56 103 157 -8 302 -8 C449 -8 550 100 550 242 C550 383 449 491 302 491 L302 491 Z M302 58 C195 58 132 142 132 243 C132 343 196 426 302 426 C404 426 474 340 474 243 C474 137 405 58 302 58 L302 58 Z " />
<glyph glyph-name="otilde" unicode="&#xf5;" horiz-adv-x="598" d="M302 491 C158 491 56 379 56 242 C56 103 157 -8 302 -8 C449 -8 550 100 550 242 C550 383 449 491 302 491 L302 491 Z M302 58 C195 58 132 142 132 243 C132 343 196 426 302 426 C404 426 474 340 474 243 C474 137 405 58 302 58 L302 58 Z M381 570 C417 575 444 596 468 632 C457 643 445 654 434 665 C409 628 381 622 367 622 C323 622 288 671 226 663 C193 659 161 634 140 599 C152 589 166 577 179 567 C198 596 219 609 240 609 C279 609 319 561 381 570 L381 570 Z " />
<glyph glyph-name="odieresis" unicode="&#xf6;" horiz-adv-x="598" d="M258 615 C258 646 243 663 212 663 C180 663 164 646 164 615 C164 584 180 567 212 567 C243 567 258 584 258 615 L258 615 Z M432 615 C432 646 416 663 385 663 C354 663 338 646 338 615 C338 584 354 567 385 567 C416 567 432 584 432 615 L432 615 Z M302 491 C158 491 56 379 56 242 C56 103 157 -8 302 -8 C449 -8 550 100 550 242 C550 383 449 491 302 491 L302 491 Z M302 58 C195 58 132 142 132 243 C132 343 196 426 302 426 C404 426 474 340 474 243 C474 137 405 58 302 58 L302 58 Z " />
<glyph glyph-name="divide" unicode="&#xf7;" horiz-adv-x="589" d="M298 447 C332 447 349 468 349 499 C349 531 332 551 298 551 C265 551 247 530 247 499 C247 468 264 447 298 447 L298 447 Z M56 313 L539 313 L539 381 L56 381 L56 313 Z M298 141 C332 141 349 162 349 193 C349 225 332 245 298 245 C265 245 247 224 247 193 C247 162 264 141 298 141 L298 141 Z " />
<glyph glyph-name="oslash" unicode="&#xf8;" horiz-adv-x="598" d="M202 92 C157 124 132 180 132 243 C132 343 197 426 302 426 C316 426 330 424 344 421 L202 92 Z M400 393 C446 361 474 304 474 243 C474 137 406 58 302 58 C286 58 272 60 258 64 L400 393 Z M467 537 L397 537 L372 482 C351 488 327 491 302 491 C159 491 56 379 56 242 C56 150 101 71 173 29 L131 -58 L201 -58 L230 3 C252 -4 277 -8 302 -8 C449 -8 550 100 550 242 C550 337 505 416 430 458 L467 537 Z " />
<glyph glyph-name="ugrave" unicode="&#xf9;" horiz-adv-x="575" d="M305 555 L366 555 L258 702 L167 702 L305 555 Z M308 56 C192 56 156 110 156 183 L156 478 L80 478 L80 182 C80 57 152 -12 304 -12 C373 -12 438 0 495 22 L495 478 L419 478 L419 71 C389 62 337 56 308 56 L308 56 Z " />
<glyph glyph-name="uacute" unicode="&#xfa;" horiz-adv-x="575" d="M429 702 L338 702 L230 555 L291 555 L429 702 Z M308 56 C192 56 156 110 156 183 L156 478 L80 478 L80 182 C80 57 152 -12 304 -12 C373 -12 438 0 495 22 L495 478 L419 478 L419 71 C389 62 337 56 308 56 L308 56 Z " />
<glyph glyph-name="ucircumflex" unicode="&#xfb;" horiz-adv-x="575" d="M378 554 L442 554 L339 678 C311 712 268 713 240 680 L135 554 L198 554 L288 645 L378 554 Z M308 56 C192 56 156 110 156 183 L156 478 L80 478 L80 182 C80 57 152 -12 304 -12 C373 -12 438 0 495 22 L495 478 L419 478 L419 71 C389 62 337 56 308 56 L308 56 Z " />
<glyph glyph-name="udieresis" unicode="&#xfc;" horiz-adv-x="575" d="M247 615 C247 646 233 663 201 663 C170 663 154 646 154 615 C154 584 170 567 201 567 C233 567 247 584 247 615 L247 615 Z M421 615 C421 646 406 663 374 663 C343 663 327 646 327 615 C327 584 343 567 374 567 C406 567 421 584 421 615 L421 615 Z M308 56 C192 56 156 110 156 183 L156 478 L80 478 L80 182 C80 57 152 -12 304 -12 C373 -12 438 0 495 22 L495 478 L419 478 L419 71 C389 62 337 56 308 56 L308 56 Z " />
<glyph glyph-name="yacute" unicode="&#xfd;" horiz-adv-x="446" d="M289 570 L239 570 L152 449 L181 449 L289 570 Z M382 -18 L382 385 L347 385 L347 156 C347 118 336 86 315 62 C293 37 263 23 225 23 C187 23 157 36 135 62 C113 87 103 117 103 156 L103 385 L69 385 L69 167 C69 115 82 74 108 43 C135 10 174 -7 225 -7 C278 -7 319 11 347 50 L347 -18 C347 -67 334 -105 308 -135 C282 -165 245 -181 195 -181 C182 -181 166 -179 149 -175 C123 -169 100 -158 77 -142 L65 -177 C105 -202 148 -215 194 -215 C252 -215 299 -196 333 -160 C366 -124 382 -77 382 -18 L382 -18 Z " />
<glyph glyph-name="thorn" unicode="&#xfe;" horiz-adv-x="517" d="M453 193 C453 250 434 298 398 336 C363 373 316 392 258 392 C200 392 154 373 118 336 C111 329 105 323 100 315 L100 590 L65 590 L65 215 L65 -215 L100 -215 L100 69 C105 63 111 56 117 50 C153 12 200 -7 258 -7 C316 -7 362 12 398 50 C433 87 453 135 453 193 L453 193 Z M417 192 C417 143 403 103 375 71 C346 39 307 24 258 24 C209 24 169 39 142 71 C114 103 100 143 100 192 C100 240 114 279 143 311 C172 344 209 360 258 360 C307 360 346 344 375 312 C403 280 417 241 417 192 L417 192 Z " />
<glyph glyph-name="ydieresis" unicode="&#xff;" horiz-adv-x="588" d="M298 58 C197 58 158 120 158 194 L158 477 L84 477 L84 191 C84 60 167 -9 296 -9 C351 -9 400 2 440 19 L440 -10 C440 -114 385 -181 279 -181 C230 -181 187 -171 142 -148 L124 -213 C172 -237 224 -248 281 -248 C433 -248 514 -153 514 -2 L514 477 L440 477 L440 88 C393 66 339 58 298 58 L298 58 Z M260 615 C260 646 245 663 214 663 C182 663 166 646 166 615 C166 584 182 567 214 567 C245 567 260 584 260 615 L260 615 Z M434 615 C434 646 418 663 387 663 C355 663 340 646 340 615 C340 584 355 567 387 567 C418 567 434 584 434 615 L434 615 Z " />
<glyph glyph-name="dotlessi" unicode="&#x131;" horiz-adv-x="223" d="M80 0 L155 0 L155 477 L80 477 L80 0 Z " />
<glyph glyph-name="OE" unicode="&#x152;" horiz-adv-x="897" d="M470 0 L875 0 L875 73 L529 73 L529 336 L820 336 L820 409 L529 409 L529 632 L856 632 L856 704 L484 704 C472 704 437 707 393 707 C172 707 66 544 66 351 C66 158 173 -6 391 -6 C413 -6 453 -1 470 0 L470 0 Z M451 637 L451 65 C433 61 420 60 401 60 C223 60 148 190 148 352 C148 513 221 640 398 640 C418 640 434 639 451 637 L451 637 Z " />
<glyph glyph-name="oe" unicode="&#x153;" horiz-adv-x="886" d="M456 219 L843 219 C843 219 841 250 839 270 C828 395 747 486 614 486 C555 486 502 467 462 435 C420 467 366 485 305 485 C163 485 58 377 58 238 C58 98 162 -9 305 -9 C367 -9 422 10 464 43 C506 11 561 -6 626 -6 C702 -6 769 14 832 62 L793 117 C737 77 687 60 631 60 C528 60 464 120 456 219 L456 219 Z M615 419 C696 419 743 369 758 286 L458 286 C474 369 533 419 615 419 L615 419 Z M377 242 C377 187 390 138 414 98 C385 74 347 59 305 59 C201 59 134 137 134 239 C134 341 202 419 305 419 C347 419 384 404 413 380 C390 341 377 295 377 242 L377 242 Z " />
<glyph glyph-name="scaron" unicode="&#x161;" horiz-adv-x="1356" d="" />
<glyph glyph-name="Ydieresis" unicode="&#x178;" horiz-adv-x="565" d="M243 810 C243 841 228 857 197 857 C166 857 149 841 149 810 C149 779 166 762 197 762 C228 762 243 779 243 810 L243 810 Z M417 810 C417 841 401 857 370 857 C339 857 323 841 323 810 C323 779 339 762 370 762 C401 762 417 779 417 810 L417 810 Z M352 356 L553 704 L466 704 L283 382 L100 704 L12 704 L212 356 C233 320 244 297 244 256 L244 0 L322 0 L322 256 C322 298 332 320 352 356 L352 356 Z " />
<glyph glyph-name="Zcaron" unicode="&#x17d;" horiz-adv-x="5668" d="" />
<glyph glyph-name="zcaron" unicode="&#x17e;" horiz-adv-x="590" d="" />
<glyph glyph-name="florin" unicode="&#x192;" horiz-adv-x="592" d="M554 535 C557 557 560 579 563 600 C537 607 506 614 478 614 C435 614 396 600 367 570 C328 529 318 471 310 417 L228 417 L228 350 L299 350 C280 228 262 111 243 -14 C233 -80 203 -113 152 -113 C127 -113 99 -107 73 -100 L64 -161 C91 -170 124 -175 150 -175 C242 -175 298 -114 311 -30 C330 96 351 224 370 351 L474 351 L474 418 L380 418 C384 440 391 475 396 490 C407 524 431 549 476 549 C501 549 532 541 554 535 L554 535 Z " />
<glyph glyph-name="circumflex" unicode="&#x2c6;" horiz-adv-x="390" d="M295 554 L358 554 L255 678 C227 712 184 713 156 680 L52 554 L114 554 L204 645 L295 554 Z " />
<glyph glyph-name="caron" unicode="&#x2c7;" horiz-adv-x="388" d="M115 707 L52 707 L154 584 C183 549 226 547 254 582 L358 707 L296 707 L206 615 L115 707 Z " />
<glyph glyph-name="tilde" unicode="&#x2dc;" horiz-adv-x="442" d="M300 570 C336 575 363 596 387 632 C376 643 364 654 353 665 C328 628 300 622 286 622 C242 622 207 671 145 663 C112 659 80 634 59 599 C71 589 85 577 98 567 C117 596 138 609 159 609 C198 609 238 561 300 570 L300 570 Z " />
<glyph glyph-name="pi" unicode="&#x3c0;" horiz-adv-x="571" d="M464 120 L509 167 L332 343 L507 518 L462 564 L286 389 L110 564 L65 519 L240 343 L65 168 L110 121 L286 297 L464 120 Z " />
<glyph glyph-name="endash" unicode="&#x2013;" horiz-adv-x="547" d="M21 229 L524 229 L524 295 L21 295 L21 229 Z " />
<glyph glyph-name="emdash" unicode="&#x2014;" horiz-adv-x="848" d="M23 229 L825 229 L825 295 L23 295 L23 229 Z " />
<glyph glyph-name="quoteleft" unicode="&#x2018;" horiz-adv-x="198" d="M54 575 C54 539 71 515 105 515 C132 515 154 531 154 567 C154 588 141 606 113 613 C117 649 131 677 151 715 L126 725 C92 686 54 624 54 575 L54 575 Z " />
<glyph glyph-name="quoteright" unicode="&#x2019;" horiz-adv-x="198" d="M154 661 C154 696 137 720 103 720 C76 720 54 704 54 669 C54 648 67 629 96 623 C91 587 77 559 57 520 L83 510 C117 549 154 611 154 661 L154 661 Z " />
<glyph glyph-name="quotesinglbase" unicode="&#x201a;" horiz-adv-x="198" d="M154 31 C154 66 136 90 102 90 C76 90 53 75 53 39 C53 18 66 -1 95 -7 C91 -43 76 -71 56 -109 L82 -119 C116 -81 154 -18 154 31 L154 31 Z " />
<glyph glyph-name="quotedblleft" unicode="&#x201c;" horiz-adv-x="329" d="M205 575 C205 539 223 515 257 515 C284 515 306 531 306 567 C306 588 293 606 264 613 C268 643 283 677 303 715 L277 725 C244 686 205 624 205 575 L205 575 Z M54 575 C54 539 71 515 105 515 C132 515 154 531 154 567 C154 588 141 606 113 613 C117 643 131 677 151 715 L126 725 C92 686 54 624 54 575 L54 575 Z " />
<glyph glyph-name="quotedblright" unicode="&#x201d;" horiz-adv-x="329" d="M155 661 C155 696 138 720 103 720 C77 720 54 704 54 669 C54 648 68 629 96 623 C92 587 77 559 57 520 L83 510 C117 549 155 612 155 661 L155 661 Z M306 661 C306 696 289 720 255 720 C228 720 206 704 206 669 C206 648 219 629 247 623 C243 587 229 559 209 520 L234 510 C268 549 306 612 306 661 L306 661 Z " />
<glyph glyph-name="quotedblbase" unicode="&#x201e;" horiz-adv-x="318" d="M149 31 C149 66 132 90 97 90 C71 90 49 75 49 39 C49 18 62 -1 90 -7 C86 -43 72 -71 51 -109 L77 -119 C111 -81 149 -18 149 31 L149 31 Z M301 31 C301 66 284 90 249 90 C223 90 201 75 201 39 C201 18 214 -1 242 -7 C238 -43 224 -71 203 -109 L229 -119 C263 -81 301 -18 301 31 L301 31 Z " />
<glyph glyph-name="dagger" unicode="&#x2020;" horiz-adv-x="348" d="M214 409 L299 409 L299 474 L214 474 L214 572 L145 572 L145 474 L65 474 L65 409 L145 409 L145 -40 L214 -40 L214 409 Z " />
<glyph glyph-name="daggerdbl" unicode="&#x2021;" horiz-adv-x="348" d="M213 77 L298 77 L298 143 L213 143 L213 409 L298 409 L298 474 L213 474 L213 572 L145 572 L145 474 L65 474 L65 409 L145 409 L145 143 L65 143 L65 77 L145 77 L145 -40 L213 -40 L213 77 Z " />
<glyph glyph-name="bullet" unicode="&#x2022;" horiz-adv-x="349" d="M176 194 C250 194 285 227 285 303 C285 379 252 413 177 413 C99 413 65 378 65 303 C65 227 99 194 176 194 L176 194 Z " />
<glyph glyph-name="ellipsis" unicode="&#x2026;" horiz-adv-x="595" d="M159 41 C159 72 143 88 112 88 C81 88 64 72 64 41 C64 10 81 -8 112 -8 C143 -8 159 10 159 41 L159 41 Z M547 41 C547 72 531 88 499 88 C468 88 451 72 451 41 C451 10 468 -8 499 -8 C531 -8 547 10 547 41 L547 41 Z M354 41 C354 72 338 88 307 88 C276 88 259 72 259 41 C259 10 276 -8 307 -8 C338 -8 354 10 354 41 L354 41 Z " />
<glyph glyph-name="perthousand" unicode="&#x2030;" horiz-adv-x="1089" d="M194 403 C285 403 354 464 354 560 C354 654 283 717 194 717 C105 717 32 654 32 560 C32 465 103 403 194 403 L194 403 Z M163 -10 L627 705 L548 705 L78 -10 L163 -10 Z M527 -9 C616 -9 689 56 689 147 C689 237 617 305 527 305 C436 305 367 239 367 147 C367 56 438 -9 527 -9 L527 -9 Z M194 652 C249 652 285 616 285 560 C285 506 247 466 194 466 C140 466 102 506 102 560 C102 616 138 652 194 652 L194 652 Z M527 241 C583 241 618 203 618 147 C618 93 582 55 527 55 C474 55 435 94 435 147 C435 203 471 241 527 241 L527 241 Z M901 -9 C989 -9 1062 56 1062 147 C1062 237 990 305 901 305 C809 305 740 239 740 147 C740 56 812 -9 901 -9 L901 -9 Z M901 241 C956 241 992 203 992 147 C992 93 955 55 901 55 C848 55 808 94 808 147 C808 203 844 241 901 241 L901 241 Z " />
<glyph glyph-name="guilsinglleft" unicode="&#x2039;" horiz-adv-x="272" d="M154 68 L217 68 L126 195 L217 322 L154 322 L62 195 L154 68 Z " />
<glyph glyph-name="guilsinglright" unicode="&#x203a;" horiz-adv-x="272" d="M118 68 L210 195 L118 322 L55 322 L146 195 L55 68 L118 68 Z " />
<glyph glyph-name="zerosuperior" unicode="&#x2070;" horiz-adv-x="371" d="M304 386 C304 480 288 563 187 563 C81 563 68 470 68 386 C68 302 81 209 187 209 C287 209 304 296 304 386 L304 386 Z M264 387 C264 313 260 244 187 244 C115 244 108 315 108 387 C108 460 114 528 187 528 C260 528 264 461 264 387 L264 387 Z " />
<glyph glyph-name="foursuperior" unicode="&#x2074;" horiz-adv-x="372" d="M305 306 L305 343 L260 343 L260 563 L223 563 L78 362 C71 352 64 341 64 331 C64 313 78 306 99 306 L221 306 L221 215 L260 215 L260 306 L305 306 Z M221 343 L111 343 L221 496 L221 343 Z " />
<glyph glyph-name="fivesuperior" unicode="&#x2075;" horiz-adv-x="340" d="M274 340 C274 411 229 456 159 456 C142 456 126 453 113 449 L113 520 L249 520 L249 557 L75 557 L75 392 C106 416 134 421 158 421 C206 421 234 388 234 339 C234 290 209 251 157 251 C123 251 99 267 80 293 L50 269 C76 234 112 215 156 215 C229 215 274 271 274 340 L274 340 Z " />
<glyph glyph-name="sixsuperior" unicode="&#x2076;" horiz-adv-x="341" d="M68 318 C68 259 107 215 170 215 C233 215 274 259 274 318 C274 380 233 419 172 419 C161 419 146 417 136 414 L213 562 L172 562 L94 407 C76 371 68 348 68 318 L68 318 Z M106 318 C106 351 125 385 171 385 C212 385 235 359 235 318 C235 278 211 249 171 249 C130 249 106 276 106 318 L106 318 Z " />
<glyph glyph-name="sevensuperior" unicode="&#x2077;" horiz-adv-x="348" d="M281 528 C281 549 267 557 245 557 L68 557 L68 521 L242 521 C242 520 241 518 112 215 L152 215 L275 504 C279 514 281 522 281 528 L281 528 Z " />
<glyph glyph-name="eightsuperior" unicode="&#x2078;" horiz-adv-x="361" d="M294 320 C294 364 271 398 234 417 C253 434 263 454 263 480 C263 529 227 562 178 562 C130 562 93 527 93 479 C93 454 105 430 125 414 C90 395 68 361 68 320 C68 253 113 208 180 208 C248 208 294 253 294 320 L294 320 Z M223 479 C223 453 206 431 178 431 C150 431 134 452 134 479 C134 505 150 527 178 527 C208 527 223 506 223 479 L223 479 Z M253 319 C253 275 225 243 180 243 C135 243 108 273 108 319 C108 364 136 394 180 394 C224 394 253 364 253 319 L253 319 Z " />
<glyph glyph-name="ninesuperior" unicode="&#x2079;" horiz-adv-x="341" d="M274 459 C274 518 235 562 172 562 C109 562 69 518 69 459 C69 397 109 358 170 358 C181 358 196 360 206 363 L129 215 L170 215 L248 370 C266 406 274 429 274 459 L274 459 Z M236 459 C236 426 217 392 171 392 C130 392 107 418 107 459 C107 499 131 528 171 528 C212 528 236 501 236 459 L236 459 Z " />
<glyph glyph-name="zeroinferior" unicode="&#x2080;" horiz-adv-x="371" d="M304 171 C304 265 288 348 187 348 C81 348 68 255 68 171 C68 87 81 -6 187 -6 C287 -6 304 81 304 171 L304 171 Z M264 172 C264 98 260 30 187 30 C115 30 108 100 108 172 C108 245 114 313 187 313 C260 313 264 246 264 172 L264 172 Z " />
<glyph glyph-name="oneinferior" unicode="&#x2081;" horiz-adv-x="207" d="M140 0 L140 316 C140 335 132 341 121 341 C114 341 104 337 93 330 C81 322 59 308 59 308 L59 267 C59 267 87 286 102 295 L102 0 L140 0 Z " />
<glyph glyph-name="twoinferior" unicode="&#x2082;" horiz-adv-x="334" d="M266 259 C266 317 228 347 172 347 C113 347 69 306 71 239 L108 239 C110 288 130 312 171 312 C201 312 227 297 227 258 C227 225 202 206 155 179 C101 147 74 115 74 56 L74 0 L262 0 L262 38 L112 38 L112 61 C112 93 126 119 171 147 C233 183 265 213 266 259 L266 259 Z " />
<glyph glyph-name="threeinferior" unicode="&#x2083;" horiz-adv-x="361" d="M294 108 C294 150 273 186 235 201 C256 217 267 241 267 264 C267 313 232 348 179 348 C127 348 90 314 89 257 L128 257 C128 291 150 312 179 312 C206 312 226 290 226 264 C226 238 211 214 178 214 L143 214 L143 178 L175 178 C220 178 252 152 252 107 C252 63 228 31 180 31 C131 31 106 60 106 117 L67 117 C64 43 107 -7 180 -7 C249 -7 294 42 294 108 L294 108 Z " />
<glyph glyph-name="fourinferior" unicode="&#x2084;" horiz-adv-x="372" d="M304 92 L304 128 L259 128 L259 348 L223 348 L78 147 C71 137 64 126 64 116 C64 98 77 92 97 92 L221 92 L221 0 L259 0 L259 92 L304 92 Z M221 128 L108 128 L221 285 L221 128 Z " />
<glyph glyph-name="fiveinferior" unicode="&#x2085;" horiz-adv-x="340" d="M274 125 C274 196 229 241 159 241 C142 241 126 238 113 234 L113 305 L249 305 L249 342 L75 342 L75 177 C106 201 134 206 158 206 C206 206 234 173 234 124 C234 75 209 36 157 36 C123 36 99 52 80 78 L50 54 C76 19 112 0 156 0 C229 0 274 56 274 125 L274 125 Z " />
<glyph glyph-name="sixinferior" unicode="&#x2086;" horiz-adv-x="341" d="M68 98 C68 39 107 -5 170 -5 C233 -5 274 39 274 98 C274 160 233 199 172 199 C161 199 146 197 136 194 L213 342 L172 342 L94 187 C76 151 68 128 68 98 L68 98 Z M106 98 C106 131 125 165 171 165 C212 165 235 139 235 98 C235 58 211 29 171 29 C130 29 106 56 106 98 L106 98 Z " />
<glyph glyph-name="seveninferior" unicode="&#x2087;" horiz-adv-x="348" d="M281 313 C281 334 267 342 245 342 L68 342 L68 306 L242 306 C242 305 241 303 112 0 L152 0 L275 289 C279 299 281 307 281 313 L281 313 Z " />
<glyph glyph-name="eightinferior" unicode="&#x2088;" horiz-adv-x="361" d="M294 106 C294 150 271 184 234 203 C253 220 263 240 263 266 C263 315 227 348 178 348 C130 348 93 313 93 265 C93 240 105 216 125 200 C90 181 68 147 68 106 C68 39 113 -6 180 -6 C248 -6 294 39 294 106 L294 106 Z M223 265 C223 239 206 217 178 217 C150 217 134 238 134 265 C134 291 150 313 178 313 C208 313 223 292 223 265 L223 265 Z M253 105 C253 61 225 29 180 29 C135 29 108 59 108 105 C108 150 136 180 180 180 C224 180 253 150 253 105 L253 105 Z " />
<glyph glyph-name="nineinferior" unicode="&#x2089;" horiz-adv-x="341" d="M274 244 C274 303 235 347 172 347 C109 347 69 303 69 244 C69 182 109 143 170 143 C181 143 196 145 206 148 L129 0 L170 0 L248 155 C266 191 274 214 274 244 L274 244 Z M236 244 C236 211 217 177 171 177 C130 177 107 203 107 244 C107 284 131 313 171 313 C212 313 236 286 236 244 L236 244 Z " />
<glyph glyph-name="Euro" unicode="&#x20ac;" horiz-adv-x="672" d="M585 438 L635 487 C568 559 492 582 412 582 C281 582 168 504 134 381 L89 381 L80 318 L122 318 C120 303 119 279 120 263 L51 263 L41 200 L130 200 C163 66 279 -10 414 -10 C498 -10 573 16 640 80 L599 133 C549 82 483 58 416 58 C319 58 236 107 208 200 L489 200 L499 263 L196 263 C194 281 195 300 198 318 L527 318 L537 381 L212 381 C241 463 318 514 413 514 C476 514 530 493 585 438 L585 438 Z " />
<glyph glyph-name="trademark" unicode="&#x2122;" horiz-adv-x="808" d="M220 659 L331 659 L331 704 L59 704 L59 659 L170 659 L170 351 L220 351 L220 659 Z M419 655 L522 428 L563 428 L666 656 L666 350 L714 350 L714 661 C714 685 704 707 675 707 C644 707 630 687 616 655 C592 602 544 491 544 491 C544 491 495 602 471 655 C455 689 441 707 414 707 C384 707 373 685 373 661 L373 350 L419 350 L419 655 Z " />
<glyph glyph-name="product" unicode="&#x220f;" horiz-adv-x="992" d="M353 597 L376 661 C329 689 290 695 254 695 C146 695 90 618 90 515 L90 0 L166 0 L166 393 L331 393 L331 463 L166 463 L166 516 C166 586 194 627 259 627 C285 627 310 621 353 597 L353 597 Z M841 0 L916 0 L916 704 L841 704 L841 0 Z M726 597 L749 661 C702 689 663 695 627 695 C518 695 463 618 463 515 L463 0 L539 0 L539 393 L704 393 L704 463 L539 463 L539 516 C539 586 567 627 632 627 C658 627 683 621 726 597 L726 597 Z " />
<glyph glyph-name="summation" unicode="&#x2211;" horiz-adv-x="747" d="M353 597 L377 661 C329 689 290 695 254 695 C146 695 90 618 90 515 L90 0 L166 0 L166 393 L332 393 L332 463 L166 463 L166 516 C166 586 194 627 259 627 C285 627 310 621 353 597 L353 597 Z M732 597 L755 661 C707 689 669 695 632 695 C524 695 468 618 468 515 L468 0 L544 0 L544 393 L710 393 L710 463 L544 463 L544 516 C544 586 573 627 637 627 C664 627 689 621 732 597 L732 597 Z " />
<glyph glyph-name="minus" unicode="&#x2212;" horiz-adv-x="496" d="M432 200 L432 237 L65 237 L65 200 L432 200 Z " />
<glyph glyph-name="notequal" unicode="&#x2260;" horiz-adv-x="631" d="M572 164 L572 231 L335 231 L407 332 L572 332 L572 399 L453 399 L531 510 L442 510 L365 399 L68 399 L68 332 L318 332 L246 231 L68 231 L68 164 L199 164 L107 32 L196 32 L288 164 L572 164 Z " />
<glyph glyph-name="fi" unicode="&#xfb01;" horiz-adv-x="606" d="M353 598 L376 661 C335 688 290 695 253 695 C145 695 90 618 90 515 L90 0 L165 0 L165 393 L331 393 L331 463 L165 463 L165 516 C165 586 193 628 258 628 C284 628 317 621 353 598 L353 598 Z M447 0 L522 0 L522 481 L447 481 L447 0 Z M485 657 C457 657 440 638 440 612 C440 587 457 568 485 568 C513 568 530 587 530 612 C530 638 513 657 485 657 L485 657 Z " />
<glyph glyph-name="fl" unicode="&#xfb02;" horiz-adv-x="606" d="M353 598 L377 661 C329 689 290 695 254 695 C146 695 90 618 90 515 L90 0 L166 0 L166 393 L332 393 L332 463 L166 463 L166 516 C166 586 194 627 259 627 C285 627 320 620 353 598 L353 598 Z M444 0 L519 0 L519 704 L444 704 L444 0 Z " />
</font>
</svg>
