<?xml version="1.0" encoding="UTF-8"?>
<svg xmlns="http://www.w3.org/2000/svg" xmlns:xlink="http://www.w3.org/1999/xlink" version="1.2" >
<font id="BellSlim SemiBold">
<font-face  font-family="BellSlim" units-per-em="1000" ascent="759" descent="-241" font-style="normal" font-weight="600" font-stretch="normal" cap-height="700" x-height="500" underline-position="-75" underline-thickness="50" />
<missing-glyph  horiz-adv-x="388" d="M327 733 L223 879 L165 879 L61 733 L96 733 L193 844 L291 733 L327 733 Z " />
<glyph glyph-name="NULL" d="" />
<glyph glyph-name="CR" unicode="&#xd;" horiz-adv-x="250" d="" />
<glyph glyph-name="space" unicode="&#x20;" horiz-adv-x="262" d="" />
<glyph glyph-name="exclam" unicode="&#x21;" horiz-adv-x="235" d="M88 177 L147 177 L147 714 L88 714 L88 177 Z M119 -7 C148 -7 162 11 162 39 C162 66 147 83 119 83 C91 83 73 67 73 39 C73 10 90 -7 119 -7 L119 -7 Z " />
<glyph glyph-name="quotedbl" unicode="&#x22;" horiz-adv-x="276" d="M214 541 L217 703 L158 703 L162 541 L214 541 Z M114 541 L118 703 L59 703 L63 541 L114 541 Z " />
<glyph glyph-name="numbersign" unicode="&#x23;" horiz-adv-x="686" d="M605 428 L614 484 L478 484 L502 630 L447 630 L423 484 L313 484 L337 630 L282 630 L258 484 L121 484 L112 428 L249 428 L230 316 L93 316 L84 261 L221 261 L196 106 L251 106 L277 261 L386 261 L361 106 L417 106 L442 261 L578 261 L587 316 L451 316 L469 428 L605 428 Z M304 428 L414 428 L395 316 L286 316 L304 428 Z " />
<glyph glyph-name="dollar" unicode="&#x24;" horiz-adv-x="578" d="M313 -4 C469 7 510 87 510 181 C510 310 425 354 313 390 L313 646 C366 642 406 623 443 564 L494 598 C449 676 376 699 313 704 L313 766 L252 766 L252 704 C140 694 76 631 76 534 C76 433 131 385 252 343 L252 55 C179 60 132 83 97 143 L41 110 C84 31 166 0 252 -5 L252 -65 L313 -65 L313 -4 Z M252 646 L252 412 C152 450 139 482 139 537 C139 615 195 640 252 646 L252 646 Z M313 322 C395 295 446 267 446 172 C446 103 416 62 313 55 L313 322 Z " />
<glyph glyph-name="percent" unicode="&#x25;" horiz-adv-x="755" d="M630 705 L564 705 L104 -10 L175 -10 L630 705 Z M217 408 C306 408 374 469 374 564 C374 657 305 719 217 719 C130 719 59 656 59 564 C59 469 129 408 217 408 L217 408 Z M534 -11 C621 -11 692 53 692 143 C692 232 622 299 534 299 C445 299 378 234 378 143 C378 53 447 -11 534 -11 L534 -11 Z M217 664 C276 664 315 623 315 564 C315 506 275 461 217 461 C159 461 118 506 118 564 C118 624 157 664 217 664 L217 664 Z M534 246 C594 246 633 203 633 143 C633 85 592 43 534 43 C477 43 435 86 435 143 C435 204 474 246 534 246 L534 246 Z " />
<glyph glyph-name="ampersand" unicode="&#x26;" horiz-adv-x="630" d="M214 360 C276 290 346 217 408 152 L404 146 C364 93 308 52 246 52 C166 52 106 95 106 179 C106 248 149 310 214 360 L214 360 Z M454 106 C489 70 526 34 563 0 L657 0 C598 51 544 106 489 161 C512 201 529 238 548 285 L489 310 C475 272 460 241 443 209 C373 281 304 354 238 429 C205 465 185 497 185 547 C185 607 221 641 281 641 C338 641 365 610 378 557 L435 582 C418 656 355 699 281 699 C190 699 120 636 120 543 C120 491 140 447 172 407 C102 350 42 273 42 179 C42 55 123 -9 243 -9 C334 -9 402 38 454 106 L454 106 Z " />
<glyph glyph-name="quotesingle" unicode="&#x27;" horiz-adv-x="172" d="M112 541 L115 703 L56 703 L60 541 L112 541 Z " />
<glyph glyph-name="parenleft" unicode="&#x28;" horiz-adv-x="270" d="M119 323 C119 481 149 633 217 798 L154 798 C91 639 59 485 59 321 C59 155 90 4 150 -138 L215 -138 C149 7 119 153 119 323 L119 323 Z " />
<glyph glyph-name="parenright" unicode="&#x29;" horiz-adv-x="271" d="M119 -138 C180 4 212 156 212 323 C212 487 179 639 116 798 L53 798 C119 633 150 481 150 323 C150 153 120 7 54 -138 L119 -138 Z " />
<glyph glyph-name="asterisk" unicode="&#x2a;" horiz-adv-x="463" d="M263 527 L411 518 L411 573 L262 563 L344 687 L297 715 L232 582 L169 716 L121 687 L202 563 L52 575 L52 520 L201 527 L116 406 L163 378 L232 511 L299 377 L346 406 L263 527 Z " />
<glyph glyph-name="plus" unicode="&#x2b;" horiz-adv-x="540" d="M299 318 L485 318 L485 377 L299 377 L299 566 L240 566 L240 377 L55 377 L55 318 L240 318 L240 127 L299 127 L299 318 Z " />
<glyph glyph-name="comma" unicode="&#x2c;" horiz-adv-x="198" d="M144 26 C144 57 128 81 97 81 C73 81 53 66 53 34 C53 15 65 -2 92 -8 C89 -43 76 -68 57 -108 L79 -115 C108 -78 144 -21 144 26 L144 26 Z " />
<glyph glyph-name="hyphen" unicode="&#x2d;" horiz-adv-x="476" d="M79 229 L397 229 L397 285 L79 285 L79 229 Z " />
<glyph glyph-name="period" unicode="&#x2e;" horiz-adv-x="212" d="M149 36 C149 64 135 78 107 78 C79 78 64 64 64 36 C64 7 79 -8 107 -8 C135 -8 149 7 149 36 L149 36 Z " />
<glyph glyph-name="slash" unicode="&#x2f;" horiz-adv-x="423" d="M406 720 L342 720 L35 0 L100 0 L406 720 Z " />
<glyph glyph-name="zero" unicode="0" horiz-adv-x="661" d="M333 -6 C548 -6 586 191 586 353 C586 520 554 712 333 712 C113 712 74 522 74 353 C74 185 114 -6 333 -6 L333 -6 Z M333 654 C500 654 517 496 517 354 C517 213 499 53 333 53 C165 53 143 211 143 354 C143 499 162 654 333 654 L333 654 Z " />
<glyph glyph-name="one" unicode="1" horiz-adv-x="335" d="M156 0 L220 0 L220 661 C220 686 208 711 180 711 C164 711 145 702 132 691 C106 671 77 645 55 626 L55 552 L156 638 L156 0 Z " />
<glyph glyph-name="two" unicode="2" horiz-adv-x="534" d="M70 0 L468 0 L468 61 L140 61 L141 104 C144 201 228 270 325 334 C442 412 465 467 465 541 C465 662 372 713 278 713 C151 713 75 638 72 517 L137 517 C143 608 186 654 278 654 C339 654 397 621 397 541 C397 475 369 444 321 409 C258 364 190 323 140 264 C65 177 71 106 70 0 L70 0 Z " />
<glyph glyph-name="three" unicode="3" horiz-adv-x="576" d="M267 -8 C388 -8 495 74 495 212 C495 306 445 374 362 403 C416 437 442 489 442 546 C442 650 363 710 268 710 C174 710 108 669 76 575 L136 550 C160 617 198 650 267 650 C330 650 376 612 376 546 C376 479 325 426 242 426 L209 426 L209 364 L247 364 C347 364 427 307 427 213 C427 114 359 52 268 52 C184 52 124 86 101 196 L36 176 C63 41 150 -8 267 -8 L267 -8 Z " />
<glyph glyph-name="four" unicode="4" horiz-adv-x="559" d="M379 0 L443 0 L443 637 C443 692 414 713 378 713 C343 713 317 692 294 660 L19 266 L19 209 L379 209 L379 0 Z M371 655 C375 655 379 649 379 644 L379 268 L95 268 L353 640 C361 651 366 655 371 655 L371 655 Z " />
<glyph glyph-name="five" unicode="5" horiz-adv-x="579" d="M273 463 C230 463 194 456 166 449 C166 449 166 615 166 617 C166 643 175 646 198 646 L469 646 L469 704 L178 704 C128 704 104 668 104 630 L104 363 C155 390 215 402 271 402 C381 402 445 335 445 230 C445 125 379 51 274 51 C182 51 136 101 104 156 L51 121 C94 44 162 -7 274 -7 C420 -7 513 97 513 231 C513 376 419 463 273 463 L273 463 Z " />
<glyph glyph-name="six" unicode="6" horiz-adv-x="620" d="M315 -11 C453 -11 551 93 551 229 C551 367 462 463 321 463 C276 463 237 450 200 429 C239 510 302 606 382 704 L304 704 C250 636 200 558 176 516 C140 453 83 346 83 229 C83 82 181 -11 315 -11 L315 -11 Z M321 404 C422 404 487 334 487 227 C487 123 417 48 318 48 C218 48 148 118 148 227 C148 332 217 404 321 404 L321 404 Z " />
<glyph glyph-name="seven" unicode="7" horiz-adv-x="482" d="M181 0 C181 0 344 384 425 576 C434 598 442 619 442 641 C442 674 423 703 375 703 L16 703 L16 645 L360 645 C380 645 379 632 375 619 C373 613 114 0 114 0 L181 0 Z " />
<glyph glyph-name="eight" unicode="8" horiz-adv-x="597" d="M298 -12 C430 -12 534 77 534 211 C534 303 484 370 406 408 C453 439 482 484 482 548 C482 645 414 716 294 716 C173 716 107 641 107 543 C107 480 136 433 186 404 C113 365 63 299 63 211 C63 76 163 -12 298 -12 L298 -12 Z M294 660 C369 660 417 619 417 547 C417 475 369 430 294 430 C218 430 171 475 171 547 C171 616 217 660 294 660 L294 660 Z M298 369 C397 369 468 303 468 209 C468 115 396 47 298 47 C197 47 129 113 129 209 C129 302 199 369 298 369 L298 369 Z " />
<glyph glyph-name="nine" unicode="9" horiz-adv-x="605" d="M425 184 C478 268 529 356 529 481 C529 625 428 714 300 714 C170 714 68 617 68 483 C68 352 155 257 294 257 C334 257 382 269 417 288 C372 202 297 100 215 0 L294 0 C346 67 400 144 425 184 L425 184 Z M300 657 C400 657 465 587 465 481 C465 373 402 314 294 314 C194 314 131 380 131 486 C131 582 197 657 300 657 L300 657 Z " />
<glyph glyph-name="colon" unicode="&#x3a;" horiz-adv-x="193" d="M139 36 C139 64 126 78 97 78 C69 78 55 64 55 36 C55 7 69 -8 97 -8 C126 -8 139 7 139 36 L139 36 Z M139 342 C139 370 126 384 97 384 C69 384 55 370 55 342 C55 313 69 298 97 298 C126 298 139 313 139 342 L139 342 Z " />
<glyph glyph-name="semicolon" unicode="&#x3b;" horiz-adv-x="198" d="M147 26 C147 57 132 81 100 81 C77 81 57 66 57 34 C57 15 69 -2 96 -8 C92 -43 80 -68 60 -108 L82 -115 C112 -78 147 -21 147 26 L147 26 Z M141 342 C141 370 127 384 99 384 C71 384 56 370 56 342 C56 313 71 298 99 298 C127 298 141 313 141 342 L141 342 Z " />
<glyph glyph-name="less" unicode="&#x3c;" horiz-adv-x="470" d="M67 294 L437 77 L437 145 L111 336 L437 527 L437 594 L66 376 C25 352 32 314 67 294 L67 294 Z " />
<glyph glyph-name="equal" unicode="&#x3d;" horiz-adv-x="631" d="M68 395 L562 395 L562 450 L68 450 L68 395 Z M68 234 L562 234 L562 289 L68 289 L68 234 Z " />
<glyph glyph-name="greater" unicode="&#x3e;" horiz-adv-x="470" d="M33 78 L404 294 C438 314 446 353 404 377 L33 595 L33 528 L359 336 L33 145 L33 78 Z " />
<glyph glyph-name="question" unicode="&#x3f;" horiz-adv-x="453" d="M382 465 C398 492 409 522 409 560 C409 654 346 712 232 712 C161 712 80 692 40 607 L96 582 C124 635 169 653 230 653 C312 653 345 614 345 561 C345 517 323 486 297 455 C238 385 185 337 185 232 L185 177 L248 177 L248 234 C248 344 334 386 382 465 L382 465 Z M220 -7 C249 -7 263 11 263 39 C263 66 248 83 220 83 C192 83 174 67 174 39 C174 10 191 -7 220 -7 L220 -7 Z " />
<glyph glyph-name="at" unicode="&#x40;" horiz-adv-x="828" d="M562 130 C666 130 731 246 731 365 C731 534 601 628 443 628 C237 628 85 477 85 272 C85 82 220 -31 403 -31 C526 -31 635 -2 730 85 L698 122 C615 45 516 18 405 18 C249 18 136 111 136 272 C136 448 266 580 444 580 C577 580 680 503 680 366 C680 296 646 176 563 176 C542 176 531 188 531 209 C531 227 536 244 540 262 L576 425 C536 470 490 489 433 489 C317 489 232 389 232 278 C232 191 283 128 375 128 C414 128 458 141 492 162 C508 139 535 130 562 130 L562 130 Z M433 444 C468 444 496 433 520 409 L475 207 C450 187 412 175 381 175 C316 175 283 217 283 280 C283 363 348 444 433 444 L433 444 Z " />
<glyph glyph-name="A" unicode="A" horiz-adv-x="640" d="M539 0 L610 0 L396 639 C384 674 366 704 320 704 C276 704 255 674 243 639 L29 0 L100 0 L193 285 L446 285 L539 0 Z M335 619 L426 345 L212 345 L305 619 C309 632 310 643 320 643 C330 643 331 631 335 619 L335 619 Z " />
<glyph glyph-name="B" unicode="B" horiz-adv-x="613" d="M377 5 C472 22 542 90 542 197 C542 287 495 348 419 379 C473 413 501 473 501 531 C501 627 437 690 349 703 C336 704 315 706 301 706 L263 706 C247 706 226 705 215 703 C147 692 99 641 99 565 L99 0 L310 0 C332 0 362 2 377 5 L377 5 Z M334 643 C397 635 435 595 435 529 C435 463 390 414 329 403 C319 401 303 400 282 400 L163 400 L163 563 C163 623 201 646 251 646 L291 646 C303 646 323 645 334 643 L334 643 Z M302 340 C412 340 475 286 475 197 C475 116 427 60 319 60 L163 60 L163 340 L302 340 Z " />
<glyph glyph-name="C" unicode="C" horiz-adv-x="677" d="M395 -7 C481 -7 570 21 643 92 L606 142 C541 75 470 55 396 55 C233 55 132 184 132 352 C132 520 231 648 392 648 C467 648 533 619 595 553 L639 601 C570 681 485 709 393 709 C191 709 64 556 64 351 C64 143 191 -7 395 -7 L395 -7 Z " />
<glyph glyph-name="D" unicode="D" horiz-adv-x="699" d="M320 0 C529 0 636 160 636 349 C636 537 525 706 304 706 L261 706 C177 706 99 662 99 564 L99 0 L320 0 Z M305 645 C487 645 569 499 569 349 C569 186 489 77 359 62 C348 60 327 60 309 60 L165 60 L165 561 C165 625 208 645 260 645 L305 645 Z " />
<glyph glyph-name="E" unicode="E" horiz-adv-x="545" d="M99 0 L500 0 L500 59 L164 59 L164 335 L447 335 L447 396 L164 396 L164 553 C164 619 198 644 258 644 L482 644 L482 704 L268 704 C250 704 232 702 226 701 C160 694 114 648 102 587 C100 578 99 563 99 549 L99 0 Z " />
<glyph glyph-name="F" unicode="F" horiz-adv-x="516" d="M239 645 L465 645 L465 704 L247 704 C234 704 214 702 208 701 C142 694 96 648 84 587 C83 578 81 563 81 549 L82 0 L147 0 L147 340 L424 340 L424 399 L147 399 L147 554 C147 620 180 645 239 645 L239 645 Z " />
<glyph glyph-name="G" unicode="G" horiz-adv-x="732" d="M559 15 C625 41 652 75 652 125 L652 348 L422 348 L422 286 L584 286 L584 131 C584 99 574 89 553 79 C510 59 459 50 401 50 C222 50 127 173 127 347 C127 520 228 649 394 649 C471 649 541 621 604 563 L646 614 C573 684 491 710 394 710 C193 710 60 552 60 345 C60 142 178 -10 401 -10 C452 -10 515 -2 559 15 L559 15 Z " />
<glyph glyph-name="H" unicode="H" horiz-adv-x="705" d="M538 0 L605 0 L605 704 L538 704 L538 401 L167 401 L167 704 L100 704 L100 0 L167 0 L167 338 L538 338 L538 0 Z " />
<glyph glyph-name="I" unicode="I" horiz-adv-x="268" d="M100 0 L168 0 L168 704 L100 704 L100 0 Z " />
<glyph glyph-name="J" unicode="J" horiz-adv-x="492" d="M391 155 C392 164 393 180 393 202 L393 704 L326 704 L326 205 C326 185 325 170 324 163 C318 97 278 54 203 54 C161 54 122 63 69 92 L69 24 C110 1 159 -8 201 -8 C309 -8 379 57 391 155 L391 155 Z " />
<glyph glyph-name="K" unicode="K" horiz-adv-x="616" d="M519 1 L597 1 L365 368 C409 394 437 432 455 473 L554 704 L484 704 L397 499 C362 418 308 397 224 397 L165 397 L165 704 L99 704 L99 1 L165 1 L165 338 L230 338 C295 338 308 336 337 291 L519 1 Z " />
<glyph glyph-name="L" unicode="L" horiz-adv-x="539" d="M193 0 L495 0 L495 62 L191 62 C173 66 166 75 166 91 L166 704 L99 704 L99 92 C99 36 141 0 193 0 L193 0 Z " />
<glyph glyph-name="M" unicode="M" horiz-adv-x="840" d="M676 0 L741 0 L741 635 C741 678 718 710 673 710 C629 710 605 678 591 647 L420 251 L249 647 C233 685 209 710 169 710 C128 710 99 680 99 637 L99 0 L164 0 L164 637 C164 646 167 649 171 649 C178 649 183 637 187 628 L390 163 L450 163 L653 628 C660 646 665 649 670 649 C673 649 676 643 676 636 L676 0 Z " />
<glyph glyph-name="N" unicode="N" horiz-adv-x="721" d="M554 -7 C596 -7 622 23 622 68 L622 704 L558 704 L558 75 C558 59 556 56 550 56 C545 56 537 66 533 74 L253 643 C234 683 209 710 167 710 C123 710 99 679 99 637 L99 0 L163 0 L163 633 C163 642 167 648 171 648 C179 648 183 642 193 622 C290 429 382 234 478 40 C494 8 520 -7 554 -7 L554 -7 Z " />
<glyph glyph-name="O" unicode="O" horiz-adv-x="764" d="M384 -12 C592 -12 700 164 700 351 C700 547 593 713 383 713 C164 713 64 547 64 351 C64 155 167 -12 384 -12 L384 -12 Z M383 652 C551 652 631 517 631 352 C631 191 558 50 384 50 C208 50 131 188 131 352 C131 516 208 652 383 652 L383 652 Z " />
<glyph glyph-name="P" unicode="P" horiz-adv-x="570" d="M355 277 C454 300 527 375 527 495 C527 608 455 685 352 702 C339 704 316 705 301 705 L260 705 C244 705 222 704 210 702 C143 688 99 639 99 565 L99 0 L165 0 L165 269 L275 269 C298 269 333 272 355 277 L355 277 Z M348 643 C417 629 462 567 462 494 C462 405 413 349 338 335 C325 332 301 331 282 331 L165 331 L165 568 C165 607 183 632 216 642 C225 645 241 646 259 646 L305 646 C318 646 337 645 348 643 L348 643 Z " />
<glyph glyph-name="Q" unicode="Q" horiz-adv-x="763" d="M661 -124 L721 -124 L721 -60 L658 -60 C602 -60 560 -15 514 13 C635 69 698 202 698 349 C698 549 588 712 381 712 C170 712 63 555 63 349 C63 145 173 -15 382 -15 L388 -15 C503 -15 534 -124 661 -124 L661 -124 Z M382 650 C548 650 629 517 629 350 C629 182 550 47 382 47 C212 47 130 179 130 350 C130 521 212 650 382 650 L382 650 Z " />
<glyph glyph-name="R" unicode="R" horiz-adv-x="597" d="M499 0 L577 0 L383 318 C467 345 526 409 526 510 C526 621 453 685 361 701 C345 704 320 706 300 706 L259 706 C239 706 217 704 201 700 C131 682 99 628 99 560 L99 0 L165 0 L165 309 L265 309 C302 309 322 294 346 253 L499 0 Z M360 639 C417 624 459 577 459 509 C459 414 392 369 303 369 L165 369 L165 562 C165 616 194 645 251 645 L308 645 C326 645 346 643 360 639 L360 639 Z " />
<glyph glyph-name="S" unicode="S" horiz-adv-x="590" d="M290 -4 C467 -4 531 87 531 188 C531 313 435 361 318 398 C180 442 157 485 157 546 C157 606 196 645 297 645 C360 645 420 632 460 567 L516 602 C460 696 371 706 301 706 C156 706 90 638 90 544 C90 286 463 378 463 183 C463 112 418 59 296 59 C209 59 152 79 113 147 L56 109 C102 24 195 -4 290 -4 L290 -4 Z " />
<glyph glyph-name="T" unicode="T" horiz-adv-x="522" d="M295 645 L502 645 L502 704 L21 704 L21 645 L227 645 L227 0 L295 0 L295 645 Z " />
<glyph glyph-name="U" unicode="U" horiz-adv-x="689" d="M357 -12 C439 -12 519 10 586 32 L586 704 L518 704 L518 79 C480 65 408 52 360 52 C239 52 185 106 171 177 C168 190 166 211 166 237 L166 704 L98 704 L98 233 C98 195 102 162 110 137 C139 44 223 -12 357 -12 L357 -12 Z " />
<glyph glyph-name="V" unicode="V" horiz-adv-x="638" d="M404 64 L613 704 L543 704 C350 106 341 79 341 79 C334 58 330 58 325 58 C320 58 315 59 309 79 L99 704 L25 704 L244 64 C259 20 282 -6 324 -6 C367 -6 391 23 404 64 L404 64 Z " />
<glyph glyph-name="W" unicode="W" horiz-adv-x="932" d="M749 74 L892 704 L825 704 L683 82 C678 61 674 56 669 56 C663 56 659 62 652 80 L497 533 L434 533 L279 78 C275 66 271 56 264 56 C257 56 253 65 250 78 L108 704 L40 704 L186 62 C196 17 222 -5 262 -5 C310 -5 329 28 343 69 L466 428 L589 67 C602 27 621 -5 669 -5 C715 -5 738 27 749 74 L749 74 Z " />
<glyph glyph-name="X" unicode="X" horiz-adv-x="623" d="M514 0 L592 0 L375 337 C358 364 357 376 373 402 L565 704 L491 704 L314 425 L137 704 L58 704 L254 401 C268 378 269 362 250 333 L35 0 L113 0 L313 313 L514 0 Z " />
<glyph glyph-name="Y" unicode="Y" horiz-adv-x="565" d="M346 357 L546 704 L471 704 L282 369 L93 704 L18 704 L216 357 C230 331 248 297 248 267 L248 0 L315 0 L315 267 C315 301 336 339 346 357 L346 357 Z " />
<glyph glyph-name="Z" unicode="Z" horiz-adv-x="597" d="M121 0 L538 0 L538 62 L129 62 C124 62 126 66 130 72 C185 148 390 433 497 583 C523 619 527 634 527 651 C527 688 497 704 461 704 L101 704 L101 642 L450 642 C456 642 458 641 453 634 L82 117 C68 97 55 78 55 54 C55 23 77 0 121 0 L121 0 Z " />
<glyph glyph-name="bracketleft" unicode="&#x5b;" horiz-adv-x="244" d="M143 -101 L195 -101 L195 -43 L137 -43 C120 -39 115 -31 115 -14 L115 725 C115 742 120 750 136 753 L195 753 L195 812 L143 812 C96 812 60 776 60 721 L60 -9 C60 -65 96 -101 143 -101 L143 -101 Z " />
<glyph glyph-name="backslash" unicode="&#x5c;" horiz-adv-x="413" d="M311 -1 L378 -1 L84 719 L17 719 L311 -1 Z " />
<glyph glyph-name="bracketright" unicode="&#x5d;" horiz-adv-x="255" d="M168 -83 C190 -66 199 -41 199 -10 L199 720 C199 776 163 812 116 812 L64 812 L64 752 L122 752 C139 749 144 741 144 725 L144 -14 C144 -30 138 -39 122 -43 L64 -43 L64 -101 L116 -101 C135 -101 152 -95 168 -83 L168 -83 Z " />
<glyph glyph-name="asciicircum" unicode="&#x5e;" horiz-adv-x="1033" d="M933 485 C884 485 834 468 804 424 L802 424 L802 474 L673 474 L673 -3 L802 -3 L802 224 C802 296 825 370 926 370 C946 370 977 365 996 357 L996 473 C979 480 952 485 933 485 L933 485 Z M321 489 C179 489 72 387 71 237 C71 60 195 -16 323 -16 C411 -16 479 8 523 48 L454 127 C423 103 382 89 336 89 C247 89 206 145 202 199 C324 199 422 199 556 199 C569 289 541 355 541 355 C506 435 433 489 321 489 L321 489 Z M208 296 C220 352 262 389 320 389 C379 389 414 355 425 296 L208 296 Z " />
<glyph glyph-name="underscore" unicode="&#x5f;" horiz-adv-x="536" d="M65 -193 L472 -193 L472 -160 L65 -160 L65 -193 Z " />
<glyph glyph-name="grave" unicode="&#x60;" horiz-adv-x="875" d="M683 344 C737 344 783 359 824 398 L802 430 C765 395 731 383 683 383 C598 383 544 445 544 527 C544 609 599 670 683 670 C726 670 760 653 791 619 L822 647 C783 690 738 709 682 709 C574 709 501 631 501 526 C501 421 573 344 683 344 L683 344 Z M149 663 C149 668 150 666 152 662 L256 430 L293 430 L397 662 C399 665 400 664 400 661 L400 350 L442 350 L442 669 C442 692 424 708 402 708 C379 708 365 692 358 676 L275 489 L191 676 C184 692 170 708 147 708 C125 708 107 692 107 669 L107 350 L149 350 L149 663 Z " />
<glyph glyph-name="a" unicode="a" horiz-adv-x="611" d="M459 284 L459 92 C420 70 364 49 307 49 C188 49 126 127 126 237 C126 346 187 437 310 437 C391 437 459 380 459 284 L459 284 Z M462 480 L462 430 C428 469 376 493 307 493 C152 493 60 376 60 235 C60 87 155 -7 301 -7 C327 -7 349 -3 370 2 C391 8 411 15 432 21 C445 25 461 25 465 4 L466 0 L523 0 L523 480 L462 480 Z " />
<glyph glyph-name="b" unicode="b" horiz-adv-x="610" d="M317 -6 C460 -6 553 105 553 247 C553 391 465 491 326 491 C254 491 191 464 150 408 L150 712 L88 712 L88 0 L150 0 L150 10 C150 27 160 36 181 26 C223 6 258 -6 317 -6 L317 -6 Z M322 433 C434 433 487 349 487 247 C487 138 430 49 312 49 C245 49 191 76 150 105 L150 254 C150 361 225 433 322 433 L322 433 Z " />
<glyph glyph-name="c" unicode="c" horiz-adv-x="529" d="M299 -6 C374 -6 439 15 496 68 L460 113 C415 72 360 50 304 50 C196 50 126 126 126 248 C126 347 194 435 298 435 C360 435 404 415 447 370 L493 409 C441 467 387 491 298 491 C157 491 60 382 60 243 C60 100 148 -6 299 -6 L299 -6 Z " />
<glyph glyph-name="d" unicode="d" horiz-adv-x="609" d="M522 713 L462 713 L462 429 C426 465 375 490 299 490 C156 490 60 382 60 242 C60 100 143 -6 295 -6 C343 -6 393 8 430 25 C444 31 462 35 462 13 L462 0 L522 0 L522 713 Z M457 291 L457 102 C417 73 370 49 299 49 C181 49 125 137 125 243 C125 350 189 434 302 434 C394 434 457 373 457 291 L457 291 Z " />
<glyph glyph-name="e" unicode="e" horiz-adv-x="574" d="M127 232 L519 232 C519 240 516 278 516 278 C509 406 423 493 293 493 C156 493 60 383 60 242 C60 97 149 -9 304 -9 C385 -9 448 13 504 56 L474 104 C425 68 373 48 309 48 C194 48 130 124 127 232 L127 232 Z M293 438 C386 438 437 375 448 287 L129 287 C142 370 204 438 293 438 L293 438 Z " />
<glyph glyph-name="f" unicode="f" horiz-adv-x="366" d="M347 612 L368 665 C326 692 285 702 249 702 C144 702 91 625 91 521 L91 0 L155 0 L155 404 L325 404 L325 464 L155 464 L155 524 C155 597 183 644 252 644 C275 644 299 640 347 612 L347 612 Z " />
<glyph glyph-name="g" unicode="g" horiz-adv-x="607" d="M59 241 C59 99 143 -8 294 -8 C335 -8 374 1 421 19 C438 26 456 28 456 -1 L456 -12 C456 -122 400 -198 289 -198 C238 -198 190 -186 149 -166 L135 -222 C178 -245 234 -255 290 -255 C441 -255 525 -154 519 -3 C519 -3 519 -59 519 302 C519 410 442 490 306 490 C151 490 59 380 59 241 L59 241 Z M454 95 C415 71 362 48 301 48 C178 48 127 136 127 242 C127 347 190 434 301 434 C390 434 454 383 454 294 L454 95 Z " />
<glyph glyph-name="h" unicode="h" horiz-adv-x="573" d="M433 0 L500 0 L500 293 C500 416 430 492 308 492 C247 492 188 470 154 428 L154 711 L88 711 L88 0 L154 0 L154 281 C154 379 219 433 304 433 C394 433 433 375 433 289 L433 0 Z " />
<glyph glyph-name="i" unicode="i" horiz-adv-x="260" d="M98 0 L163 0 L163 480 L98 480 L98 0 Z M173 619 C173 648 160 662 131 662 C102 662 88 648 88 619 C88 590 102 575 131 575 C160 575 173 590 173 619 L173 619 Z " />
<glyph glyph-name="j" unicode="j" horiz-adv-x="259" d="M-51 -175 C99 -192 103 -106 103 -46 L103 480 L166 480 L166 -49 C166 -152 124 -254 -56 -235 L-51 -175 Z M177 619 C177 648 163 662 135 662 C106 662 92 648 92 619 C92 590 106 575 135 575 C163 575 177 590 177 619 L177 619 Z " />
<glyph glyph-name="k" unicode="k" horiz-adv-x="527" d="M427 0 L506 0 L337 265 C370 286 395 316 414 358 L471 480 L401 480 L364 398 C318 296 278 292 195 292 L152 292 L152 711 L88 711 L88 0 L152 0 L152 235 L238 235 C276 235 287 224 311 186 L427 0 Z " />
<glyph glyph-name="l" unicode="l" horiz-adv-x="240" d="M88 0 L153 0 L153 711 L88 711 L88 0 Z " />
<glyph glyph-name="m" unicode="m" horiz-adv-x="873" d="M730 0 L797 0 L797 306 C797 432 733 488 615 488 C544 488 485 464 448 428 C418 467 365 488 289 488 C213 488 149 461 91 424 L91 0 L156 0 L156 393 C188 412 240 431 288 431 C376 431 411 399 411 321 L411 0 L477 0 L477 346 C477 392 534 431 610 431 C708 431 730 384 730 298 L730 0 Z " />
<glyph glyph-name="n" unicode="n" horiz-adv-x="585" d="M443 0 L510 0 L510 309 C510 434 430 490 297 490 C227 490 147 464 91 424 L91 0 L156 0 L156 393 C186 413 245 432 294 432 C392 432 443 388 443 296 L443 0 Z " />
<glyph glyph-name="o" unicode="o" horiz-adv-x="598" d="M298 493 C157 493 56 381 56 243 C56 103 156 -8 298 -8 C443 -8 542 100 542 243 C542 385 443 493 298 493 L298 493 Z M298 48 C187 48 121 138 121 244 C121 349 188 437 298 437 C405 437 477 346 477 244 C477 133 406 48 298 48 L298 48 Z " />
<glyph glyph-name="p" unicode="p" horiz-adv-x="590" d="M285 -7 C455 -7 530 116 530 246 C530 401 433 491 295 491 C152 491 69 399 69 273 L69 -201 L134 -201 C134 7 134 2 134 2 C134 20 148 23 163 17 C206 -1 241 -7 285 -7 L285 -7 Z M294 431 C404 431 462 349 462 246 C462 138 408 51 288 51 C233 51 189 64 135 95 L135 266 C135 365 188 431 294 431 L294 431 Z " />
<glyph glyph-name="q" unicode="q" horiz-adv-x="606" d="M546 -204 L574 -204 L574 -149 L551 -149 C531 -149 520 -139 520 -121 L520 289 C520 422 428 489 304 490 C160 490 60 380 60 239 C60 91 149 -9 296 -9 C345 -9 392 2 428 16 C441 21 455 18 455 0 L455 -117 C455 -172 487 -204 546 -204 L546 -204 Z M454 286 L454 86 C401 63 357 50 298 50 C179 50 126 137 126 242 C126 346 192 431 302 431 C397 431 454 378 454 286 L454 286 Z " />
<glyph glyph-name="r" unicode="r" horiz-adv-x="417" d="M265 492 C196 492 83 469 83 382 L83 0 L148 0 L148 358 C148 392 156 407 189 421 C213 431 239 434 265 434 C300 434 345 424 367 394 L415 433 C381 481 320 492 265 492 L265 492 Z " />
<glyph glyph-name="s" unicode="s" horiz-adv-x="477" d="M127 373 C127 424 186 437 234 437 C289 437 338 427 362 383 L415 410 C377 486 297 490 238 490 C131 490 63 451 63 368 C63 283 130 246 242 215 C314 195 368 167 368 114 C368 72 336 42 235 42 C160 42 121 57 97 103 L41 75 C72 9 148 -12 230 -12 C389 -12 430 45 430 121 C430 214 347 252 258 276 C146 307 127 335 127 373 L127 373 Z " />
<glyph glyph-name="t" unicode="t" horiz-adv-x="364" d="M85 146 C85 52 139 -5 233 -5 C269 -5 313 2 345 17 L345 73 C314 62 277 53 243 53 C181 53 150 89 150 150 L150 419 L310 419 L310 480 L150 480 L150 609 L85 609 L85 146 L85 146 Z " />
<glyph glyph-name="u" unicode="u" horiz-adv-x="575" d="M305 47 C185 47 144 104 144 183 L144 479 L80 479 L80 181 C80 57 151 -12 302 -12 C370 -12 433 -1 486 17 L486 479 L421 479 L421 62 C392 52 336 47 305 47 L305 47 Z " />
<glyph glyph-name="v" unicode="v" horiz-adv-x="537" d="M361 77 L511 480 L443 480 L302 96 C293 72 285 53 274 53 C265 53 256 73 247 96 L101 480 L30 480 L187 78 C205 33 224 -6 274 -6 C323 -6 345 36 361 77 L361 77 Z " />
<glyph glyph-name="w" unicode="w" horiz-adv-x="813" d="M649 59 L782 481 L716 481 L590 75 C586 63 580 52 573 52 C566 52 560 62 556 75 L438 480 C402 481 417 481 380 480 L256 75 C253 63 247 52 240 52 C232 52 228 63 224 74 L98 481 L30 481 L162 61 C174 21 196 -8 239 -8 C284 -8 306 27 317 64 L407 361 L493 64 C506 18 528 -7 570 -7 C614 -7 636 18 649 59 L649 59 Z " />
<glyph glyph-name="x" unicode="x" horiz-adv-x="557" d="M426 0 L504 0 L342 221 C322 249 321 263 338 286 L482 480 L406 480 L275 303 L144 480 L66 480 L211 286 C229 263 229 250 208 221 L47 0 L123 0 L273 207 L426 0 Z " />
<glyph glyph-name="y" unicode="y" horiz-adv-x="609" d="M296 49 C190 49 149 116 149 195 L149 480 L85 480 L85 192 C85 61 167 -9 296 -9 C355 -9 404 3 445 21 L445 -9 C445 -119 393 -195 281 -195 C230 -195 193 -184 152 -163 L138 -219 C181 -243 227 -252 282 -252 C433 -252 509 -152 509 0 L509 480 L445 480 L445 83 C396 59 339 49 296 49 L296 49 Z " />
<glyph glyph-name="z" unicode="z" horiz-adv-x="474" d="M132 60 C132 60 304 283 375 376 C395 401 401 417 401 435 C401 463 378 480 348 480 L88 480 L88 420 L330 420 L90 110 C74 90 59 69 59 45 C59 15 83 0 112 0 L410 0 L410 60 L132 60 Z " />
<glyph glyph-name="braceleft" unicode="&#x7b;" horiz-adv-x="359" d="M155 46 C155 -54 225 -111 322 -111 L322 -51 C257 -51 219 -26 219 43 L219 235 C219 289 193 333 155 354 C191 374 219 419 219 473 L219 666 C219 734 258 759 322 759 L322 817 C225 817 155 762 155 661 L155 474 C155 408 114 381 52 381 L52 326 C113 326 155 297 155 233 L155 46 Z " />
<glyph glyph-name="bar" unicode="&#x7c;" horiz-adv-x="222" d="M80 -52 L141 -52 L141 805 L80 805 L80 -52 Z " />
<glyph glyph-name="braceright" unicode="&#x7d;" horiz-adv-x="381" d="M227 233 C227 297 269 326 330 326 L330 381 C268 381 227 408 227 474 L227 661 C227 762 157 817 60 817 L60 759 C124 759 163 734 163 666 L163 473 C163 419 191 374 227 354 C189 333 163 289 163 235 L163 43 C163 -26 125 -51 60 -51 L60 -111 C157 -111 227 -54 227 46 L227 233 Z " />
<glyph glyph-name="asciitilde" unicode="&#x7e;" horiz-adv-x="867" d="M655 350 C763 350 818 432 818 526 C818 622 760 705 653 705 L601 705 C554 705 520 678 520 632 L520 482 L520 401 C520 370 544 350 573 350 L655 350 Z M652 668 C733 668 772 602 772 525 C772 450 735 388 653 388 C627 388 601 388 575 388 C569 388 564 393 564 398 C564 476 564 555 564 634 C564 656 581 668 605 668 L652 668 Z M149 663 C149 668 150 666 152 662 L256 430 L293 430 L397 662 C399 665 400 664 400 661 L400 350 L442 350 L442 669 C442 692 424 708 402 708 C379 708 365 692 358 676 L275 489 L191 676 C184 692 170 708 147 708 C125 708 107 692 107 669 L107 350 L149 350 L149 663 Z " />
<glyph glyph-name="nbspace" unicode="&#xa0;" horiz-adv-x="333" d="" />
<glyph glyph-name="exclamdown" unicode="&#xa1;" horiz-adv-x="189" d="M125 521 L64 521 L64 -32 L125 -32 L125 521 Z M93 694 C63 694 49 675 49 647 C49 618 64 601 93 601 C122 601 140 617 140 647 C140 676 123 694 93 694 L93 694 Z " />
<glyph glyph-name="cent" unicode="&#xa2;" horiz-adv-x="504" d="M242 424 L242 55 C159 72 107 139 107 245 C107 332 159 407 242 424 L242 424 Z M242 -6 L242 -72 L302 -72 L302 -8 C367 -3 429 24 479 70 L444 115 C399 74 352 56 302 52 L302 427 C353 422 395 399 430 361 L473 402 C425 454 375 481 302 486 L302 542 L242 542 L242 484 C123 466 44 366 44 240 C44 109 116 11 242 -6 L242 -6 Z " />
<glyph glyph-name="sterling" unicode="&#xa3;" horiz-adv-x="465" d="M79 0 L460 0 L460 59 L142 59 L142 310 L322 310 L322 369 L143 369 C143 395 143 457 142 485 C140 568 189 623 269 623 C332 623 370 591 393 526 L447 556 C415 637 355 682 269 682 C151 682 78 604 79 484 C79 366 79 0 79 0 L79 0 Z " />
<glyph glyph-name="currency" unicode="&#xa4;" horiz-adv-x="410" d="M346 220 L301 266 C318 286 326 312 326 341 C326 369 318 393 303 413 L343 454 L321 477 L281 436 C260 452 236 459 209 459 C180 459 155 451 133 434 L87 479 L65 457 L112 411 C98 391 91 368 91 341 C91 314 98 289 114 270 L68 224 L91 200 L136 246 C157 231 181 223 209 223 C235 223 258 230 278 244 L324 197 L346 220 Z M296 342 C296 315 289 293 273 276 C257 259 236 250 209 250 C181 250 160 259 144 276 C128 293 121 315 121 342 C121 369 129 392 144 408 C160 425 181 433 209 433 C236 433 256 425 272 408 C288 390 296 369 296 342 L296 342 Z " />
<glyph glyph-name="yen" unicode="&#xa5;" horiz-adv-x="570" d="M359 368 L526 702 L459 702 L295 381 C290 371 285 369 284 369 C280 369 279 375 275 381 L113 702 L44 702 L211 368 L70 368 L70 310 L252 310 L252 203 L70 203 L70 143 L252 143 L252 0 L318 0 L318 143 L500 143 L500 203 L318 203 L318 310 L500 310 L500 368 L359 368 Z " />
<glyph glyph-name="brokenbar" unicode="&#xa6;" horiz-adv-x="165" d="M101 324 L101 626 L65 626 L65 324 L101 324 Z M101 -71 L101 227 L65 227 L65 -71 L101 -71 Z " />
<glyph glyph-name="section" unicode="&#xa7;" horiz-adv-x="498" d="M236 -62 C409 -62 452 11 452 92 C452 132 437 163 412 190 C437 217 449 249 449 284 C449 384 366 421 270 455 C150 498 128 533 128 577 C128 636 195 652 247 652 C306 652 359 640 385 592 L437 622 C396 701 314 707 250 707 C134 707 65 658 65 570 C65 532 76 503 100 476 C75 453 62 426 62 389 C62 298 120 251 240 209 C321 181 389 145 389 85 C389 36 353 -6 242 -6 C161 -6 116 14 88 64 L32 34 C66 -35 148 -62 236 -62 L236 -62 Z M250 395 C327 368 383 340 383 280 C383 261 378 242 362 227 C331 244 297 257 263 269 C143 312 126 350 126 393 C126 412 133 427 148 440 C177 423 211 409 250 395 L250 395 Z " />
<glyph glyph-name="dieresis" unicode="&#xa8;" horiz-adv-x="320" d="M217 452 C242 452 256 468 256 493 C256 517 242 532 217 532 C192 532 179 517 179 493 C179 468 192 452 217 452 L217 452 Z M102 452 C128 452 142 468 142 493 C142 517 128 532 102 532 C78 532 65 517 65 493 C65 468 78 452 102 452 L102 452 Z " />
<glyph glyph-name="copyright" unicode="&#xa9;" horiz-adv-x="646" d="M323 180 C482 180 585 289 585 444 C585 600 482 709 323 709 C164 709 61 600 61 444 C61 289 164 180 323 180 L323 180 Z M323 665 C457 665 540 576 540 444 C540 312 457 224 323 224 C189 224 106 312 106 444 C106 576 189 665 323 665 L323 665 Z M420 525 L453 556 C418 598 375 616 328 616 C226 616 167 538 167 445 C167 352 226 277 328 277 C372 277 416 291 452 328 L427 361 C394 328 365 319 328 319 C252 319 212 375 212 446 C212 516 253 573 328 573 C364 573 393 560 420 525 L420 525 Z " />
<glyph glyph-name="ordfeminine" unicode="&#xaa;" horiz-adv-x="427" d="M320 294 L358 294 L358 576 L319 576 L319 540 C290 568 254 581 213 581 C124 581 65 523 65 434 C65 346 127 288 214 288 C254 288 294 305 320 336 L320 294 Z M214 548 C288 548 322 504 322 433 C322 367 276 322 214 322 C145 322 101 366 101 435 C101 503 145 548 214 548 L214 548 Z " />
<glyph glyph-name="guillemotleft" unicode="&#xab;" horiz-adv-x="449" d="M336 89 L409 89 L267 275 L409 461 L336 461 L193 275 L336 89 Z M191 89 L262 89 L120 275 L262 461 L191 461 L47 275 L191 89 Z " />
<glyph glyph-name="logicalnot" unicode="&#xac;" horiz-adv-x="589" d="M56 318 L534 318 L534 376 L56 376 L56 318 Z " />
<glyph glyph-name="registered" unicode="&#xae;" horiz-adv-x="646" d="M323 180 C482 180 585 289 585 444 C585 600 482 709 323 709 C164 709 61 600 61 444 C61 289 164 180 323 180 L323 180 Z M323 665 C457 665 540 576 540 444 C540 312 457 224 323 224 C189 224 106 312 106 444 C106 576 189 665 323 665 L323 665 Z M403 290 L453 290 L369 428 C409 443 434 475 434 520 C434 584 385 616 326 616 L297 616 C257 616 219 591 219 547 L219 290 L263 290 L263 423 L303 423 C320 423 326 418 336 402 C361 361 403 290 403 290 L403 290 Z M326 576 C360 576 390 557 390 519 C390 479 364 463 324 463 L263 463 L263 545 C263 566 276 577 298 576 L326 576 Z " />
<glyph glyph-name="macron" unicode="&#xaf;" horiz-adv-x="360" d="M298 534 L298 582 L62 582 L62 534 L298 534 Z " />
<glyph glyph-name="degree" unicode="&#xb0;" horiz-adv-x="320" d="M160 491 C221 491 270 540 270 601 C270 662 221 711 160 711 C99 711 50 662 50 601 C50 540 99 491 160 491 L160 491 Z M160 671 C199 671 230 640 230 601 C230 562 199 531 160 531 C121 531 90 562 90 601 C90 640 121 671 160 671 L160 671 Z " />
<glyph glyph-name="plusminus" unicode="&#xb1;" horiz-adv-x="489" d="M271 363 L425 363 L425 418 L271 418 L271 575 L218 575 L218 418 L67 418 L67 363 L218 363 L218 206 L271 206 L271 363 Z M65 121 L421 121 L421 175 L65 175 L65 121 Z " />
<glyph glyph-name="twosuperior" unicode="&#xb2;" horiz-adv-x="400" d="M199 644 C245 644 272 625 272 576 C272 533 221 502 188 484 C129 452 83 401 83 330 L84 264 L314 264 L314 307 L130 307 L130 344 C130 388 173 429 204 445 C274 482 319 522 319 578 C319 656 272 688 199 688 C136 688 95 659 77 594 L119 578 C131 625 156 644 199 644 L199 644 Z " />
<glyph glyph-name="threesuperior" unicode="&#xb3;" horiz-adv-x="434" d="M218 255 C292 255 357 306 357 392 C357 446 329 488 285 507 C314 528 329 557 329 589 C329 656 275 694 217 694 C160 694 119 665 97 598 L146 582 C160 627 180 645 217 645 C251 645 274 624 274 590 C274 554 251 522 207 522 L178 522 L178 475 L210 475 C266 475 302 444 302 393 C302 338 268 304 218 304 C169 304 141 321 124 391 L74 377 C96 284 146 255 218 255 L218 255 Z " />
<glyph glyph-name="acute" unicode="&#xb4;" horiz-adv-x="268" d="M106 450 L215 570 L144 570 L56 450 L106 450 Z " />
<glyph glyph-name="mu1" unicode="&#xb5;" horiz-adv-x="512" d="M380 167 L380 385 L344 385 L344 156 C344 118 334 86 312 62 C302 51 292 42 279 36 C276 35 272 33 269 31 C255 26 240 23 222 23 C185 23 155 36 132 62 C111 86 100 118 100 156 L100 385 L99 385 L99 386 L65 386 L65 -180 L99 -180 L99 51 C127 12 169 -7 222 -7 L238 -7 C236 -13 236 -20 236 -26 C236 -74 315 -98 375 -98 L375 -72 C330 -70 274 -57 270 -28 C269 -21 268 -15 271 -10 C274 -2 279 0 286 4 C307 12 325 25 340 43 C366 74 380 116 380 167 L380 167 Z " />
<glyph glyph-name="paragraph" unicode="&#xb6;" horiz-adv-x="487" d="M228 300 L228 -52 L283 -52 L283 551 L301 551 C323 548 329 539 329 521 L329 -52 L385 -52 L385 520 C385 572 354 607 297 607 L215 607 C128 607 65 545 65 453 C65 350 141 301 228 300 L228 300 Z " />
<glyph glyph-name="periodcentered" unicode="&#xb7;" horiz-adv-x="189" d="M137 296 C137 324 123 338 95 338 C67 338 52 324 52 296 C52 267 67 252 95 252 C123 252 137 267 137 296 L137 296 Z " />
<glyph glyph-name="cedilla" unicode="&#xb8;" horiz-adv-x="346" d="M168 -186 C222 -188 269 -160 269 -103 C269 -60 240 -32 197 -30 C189 -30 177 -25 179 -13 L187 43 L146 44 L127 -78 C143 -74 160 -72 176 -73 C204 -74 217 -85 217 -106 C218 -127 202 -145 166 -144 C143 -144 116 -138 80 -115 L66 -153 C101 -179 136 -185 168 -186 L168 -186 Z " />
<glyph glyph-name="onesuperior" unicode="&#xb9;" horiz-adv-x="246" d="M168 262 L168 633 C168 669 151 677 122 657 L79 628 L79 584 L129 617 L129 262 L168 262 Z " />
<glyph glyph-name="ordmasculine" unicode="&#xba;" horiz-adv-x="363" d="M325 436 C325 523 270 580 182 580 C97 580 38 520 38 436 C38 352 97 291 182 291 C268 291 325 350 325 436 L325 436 Z M291 437 C291 373 247 324 182 324 C117 324 74 374 74 437 C74 499 118 550 182 550 C247 550 291 501 291 437 L291 437 Z " />
<glyph glyph-name="guillemotright" unicode="&#xbb;" horiz-adv-x="449" d="M257 89 L401 275 L257 461 L187 461 L329 275 L187 89 L257 89 Z M112 89 L255 275 L112 461 L40 461 L181 275 L40 89 L112 89 Z " />
<glyph glyph-name="onequarter" unicode="&#xbc;" horiz-adv-x="806" d="M727 111 L727 156 L672 156 L672 425 L625 425 L447 179 C440 169 435 159 435 146 C435 121 458 111 484 111 L624 111 L624 0 L672 0 L672 111 L727 111 Z M606 695 L564 695 L103 -12 L145 -12 L606 695 Z M624 156 L490 156 L489 156 L624 344 L624 156 Z M168 262 L168 633 C168 669 151 677 122 657 L79 628 L79 584 L129 617 L129 262 L168 262 Z " />
<glyph glyph-name="onehalf" unicode="&#xbd;" horiz-adv-x="812" d="M612 380 C569 380 544 361 532 314 L490 330 C508 395 549 424 612 424 C685 424 732 392 732 314 C732 258 687 218 617 181 C586 165 543 124 543 80 L543 43 L728 43 L728 0 L497 0 L496 66 C496 137 542 188 601 220 C634 238 685 269 685 312 C685 361 658 380 612 380 L612 380 Z M606 695 L564 695 L103 -12 L145 -12 L606 695 Z M168 262 L168 633 C168 669 151 677 122 657 L79 628 L79 584 L129 617 L129 262 L168 262 Z " />
<glyph glyph-name="threequarters" unicode="&#xbe;" horiz-adv-x="839" d="M762 111 L762 156 L707 156 L707 425 L660 425 L481 179 C474 169 469 159 469 146 C469 121 492 111 519 111 L658 111 L658 0 L707 0 L707 111 L762 111 Z M698 695 L657 695 L197 -12 L237 -12 L698 695 Z M658 156 L524 156 L522 156 L658 344 L658 156 Z M218 255 C292 255 357 306 357 392 C357 446 329 488 285 507 C314 528 329 557 329 589 C329 656 275 694 217 694 C160 694 119 665 97 598 L146 582 C160 627 180 645 217 645 C251 645 274 624 274 590 C274 554 251 522 207 522 L178 522 L178 475 L210 475 C266 475 302 444 302 393 C302 338 268 304 218 304 C169 304 141 321 124 391 L74 377 C96 284 146 255 218 255 L218 255 Z " />
<glyph glyph-name="questiondown" unicode="&#xbf;" horiz-adv-x="453" d="M223 -23 C295 -23 375 1 415 86 L359 111 C331 57 284 39 224 39 C143 39 111 78 111 132 C111 175 133 207 159 238 C218 308 271 356 271 461 L271 521 L208 521 L208 459 C208 312 48 279 48 133 C48 39 109 -23 223 -23 L223 -23 Z M239 694 C209 694 195 675 195 647 C195 618 210 601 239 601 C268 601 286 617 286 647 C286 676 269 694 239 694 L239 694 Z " />
<glyph glyph-name="Agrave" unicode="&#xc0;" horiz-adv-x="640" d="M328 772 L378 772 L271 920 L192 920 L328 772 Z M539 0 L610 0 L396 639 C384 674 366 704 320 704 C276 704 255 674 243 639 L29 0 L100 0 L193 285 L446 285 L539 0 Z M335 619 L426 345 L212 345 L305 619 C309 632 310 643 320 643 C330 643 331 631 335 619 L335 619 Z " />
<glyph glyph-name="Aacute" unicode="&#xc1;" horiz-adv-x="640" d="M427 920 L348 920 L241 772 L291 772 L427 920 Z M539 0 L610 0 L396 639 C384 674 366 704 320 704 C276 704 255 674 243 639 L29 0 L100 0 L193 285 L446 285 L539 0 Z M335 619 L426 345 L212 345 L305 619 C309 632 310 643 320 643 C330 643 331 631 335 619 L335 619 Z " />
<glyph glyph-name="Acircumflex" unicode="&#xc2;" horiz-adv-x="640" d="M413 771 L466 771 L369 895 C343 929 304 930 278 897 L180 771 L231 771 L322 868 L413 771 Z M539 0 L610 0 L396 639 C384 674 366 704 320 704 C276 704 255 674 243 639 L29 0 L100 0 L193 285 L446 285 L539 0 Z M335 619 L426 345 L212 345 L305 619 C309 632 310 643 320 643 C330 643 331 631 335 619 L335 619 Z " />
<glyph glyph-name="Atilde" unicode="&#xc3;" horiz-adv-x="640" d="M402 771 C438 775 464 795 488 831 L455 858 C435 829 415 820 399 817 C346 806 330 869 253 856 C213 849 195 827 168 791 L204 768 C222 796 242 806 259 809 C312 819 318 760 402 771 L402 771 Z M539 0 L610 0 L396 639 C384 674 366 704 320 704 C276 704 255 674 243 639 L29 0 L100 0 L193 285 L446 285 L539 0 Z M335 619 L426 345 L212 345 L305 619 C309 632 310 643 320 643 C330 643 331 631 335 619 L335 619 Z " />
<glyph glyph-name="Adieresis" unicode="&#xc4;" horiz-adv-x="640" d="M285 812 C285 840 272 854 243 854 C215 854 200 840 200 812 C200 783 215 768 243 768 C272 768 285 783 285 812 L285 812 Z M444 812 C444 840 431 854 402 854 C374 854 359 840 359 812 C359 783 374 768 402 768 C431 768 444 783 444 812 L444 812 Z M539 0 L610 0 L396 639 C384 674 366 704 320 704 C276 704 255 674 243 639 L29 0 L100 0 L193 285 L446 285 L539 0 Z M335 619 L426 345 L212 345 L305 619 C309 632 310 643 320 643 C330 643 331 631 335 619 L335 619 Z " />
<glyph glyph-name="Aring" unicode="&#xc5;" horiz-adv-x="640" d="M322 767 C378 767 416 805 416 861 C416 918 379 954 322 954 C266 954 229 917 229 861 C229 806 266 767 322 767 L322 767 Z M323 915 C353 915 375 891 375 861 C375 829 356 808 323 808 C290 808 270 828 270 861 C270 892 293 915 323 915 L323 915 Z M539 0 L610 0 L396 639 C384 674 366 704 320 704 C276 704 255 674 243 639 L29 0 L100 0 L193 285 L446 285 L539 0 Z M335 619 L426 345 L212 345 L305 619 C309 632 310 643 320 643 C330 643 331 631 335 619 L335 619 Z " />
<glyph glyph-name="AE" unicode="&#xc6;" horiz-adv-x="927" d="M573 0 L883 0 L883 60 L571 60 C551 64 544 73 544 88 L544 326 L844 326 L844 383 L544 383 L544 643 L883 643 L883 703 L526 703 C468 703 446 673 417 627 L14 0 L85 0 L293 324 L478 324 L478 91 C478 38 520 0 573 0 L573 0 Z M478 614 L478 383 L331 383 C331 383 458 584 478 614 L478 614 Z " />
<glyph glyph-name="Ccedilla" unicode="&#xc7;" horiz-adv-x="704" d="M425 -12 C507 -9 593 22 663 89 L625 144 C559 77 489 53 415 53 C251 53 151 180 151 350 C151 519 249 646 410 646 C485 646 552 615 613 549 L658 597 C584 673 504 709 413 709 C211 709 83 555 83 348 C83 152 196 6 379 -10 L362 -95 C380 -88 399 -88 413 -88 C437 -88 451 -102 451 -120 C451 -137 437 -152 405 -152 C386 -153 351 -147 322 -128 L305 -169 C345 -192 375 -197 406 -197 C458 -197 505 -171 505 -114 C505 -70 477 -46 436 -47 C425 -48 421 -43 422 -34 C424 -24 425 -12 425 -12 L425 -12 Z " />
<glyph glyph-name="Egrave" unicode="&#xc8;" horiz-adv-x="545" d="M335 772 L385 772 L278 920 L199 920 L335 772 Z M99 0 L500 0 L500 59 L164 59 L164 335 L447 335 L447 396 L164 396 L164 553 C164 619 198 644 258 644 L482 644 L482 704 L268 704 C250 704 232 702 226 701 C160 694 114 648 102 587 C100 578 99 563 99 549 L99 0 Z " />
<glyph glyph-name="Eacute" unicode="&#xc9;" horiz-adv-x="545" d="M427 920 L348 920 L241 772 L291 772 L427 920 Z M99 0 L500 0 L500 59 L164 59 L164 335 L447 335 L447 396 L164 396 L164 553 C164 619 198 644 258 644 L482 644 L482 704 L268 704 C250 704 232 702 226 701 C160 694 114 648 102 587 C100 578 99 563 99 549 L99 0 Z " />
<glyph glyph-name="Ecircumflex" unicode="&#xca;" horiz-adv-x="545" d="M397 771 L450 771 L353 895 C327 929 288 930 262 897 L164 771 L215 771 L306 868 L397 771 Z M99 0 L500 0 L500 59 L164 59 L164 335 L447 335 L447 396 L164 396 L164 553 C164 619 198 644 258 644 L482 644 L482 704 L268 704 C250 704 232 702 226 701 C160 694 114 648 102 587 C100 578 99 563 99 549 L99 0 Z " />
<glyph glyph-name="Edieresis" unicode="&#xcb;" horiz-adv-x="545" d="M277 812 C277 840 264 854 235 854 C207 854 192 840 192 812 C192 783 207 768 235 768 C264 768 277 783 277 812 L277 812 Z M436 812 C436 840 423 854 394 854 C366 854 351 840 351 812 C351 783 366 768 394 768 C423 768 436 783 436 812 L436 812 Z M99 0 L500 0 L500 59 L164 59 L164 335 L447 335 L447 396 L164 396 L164 553 C164 619 198 644 258 644 L482 644 L482 704 L268 704 C250 704 232 702 226 701 C160 694 114 648 102 587 C100 578 99 563 99 549 L99 0 Z " />
<glyph glyph-name="Igrave" unicode="&#xcc;" horiz-adv-x="257" d="M178 772 L228 772 L120 920 L41 920 L178 772 Z M95 0 L163 0 L163 704 L95 704 L95 0 Z " />
<glyph glyph-name="Iacute" unicode="&#xcd;" horiz-adv-x="259" d="M236 920 L157 920 L49 772 L100 772 L236 920 Z M96 0 L164 0 L164 704 L96 704 L96 0 Z " />
<glyph glyph-name="Icircumflex" unicode="&#xce;" horiz-adv-x="258" d="M220 771 L272 771 L176 895 C149 929 110 930 84 897 L-14 771 L37 771 L129 868 L220 771 Z M95 0 L163 0 L163 704 L95 704 L95 0 Z " />
<glyph glyph-name="Idieresis" unicode="&#xcf;" horiz-adv-x="257" d="M92 812 C92 840 78 854 50 854 C21 854 7 840 7 812 C7 783 21 768 50 768 C78 768 92 783 92 812 L92 812 Z M251 812 C251 840 237 854 209 854 C180 854 166 840 166 812 C166 783 180 768 209 768 C237 768 251 783 251 812 L251 812 Z M96 0 L164 0 L164 704 L96 704 L96 0 Z " />
<glyph glyph-name="Eth" unicode="&#xd0;" horiz-adv-x="599" d="M535 290 C535 372 513 441 470 496 C423 555 360 585 280 585 L183 585 C162 585 144 579 131 566 C118 554 112 538 112 517 L112 317 L65 317 L65 284 L112 284 L113 68 C113 47 120 29 138 17 C152 7 167 1 184 1 L294 1 C375 1 436 31 478 88 C516 139 535 206 535 290 L535 290 Z M497 290 C497 216 482 157 451 112 C415 61 363 33 292 34 L180 35 C160 38 149 50 149 68 L149 284 L326 284 L326 317 L149 317 L148 517 C148 536 159 547 179 551 L278 551 C349 551 403 524 443 471 C478 424 497 365 497 290 L497 290 Z " />
<glyph glyph-name="Ntilde" unicode="&#xd1;" horiz-adv-x="721" d="M622 68 L622 704 L558 704 L558 75 C558 59 556 56 550 56 C545 56 537 66 533 74 L253 643 C234 683 209 710 167 710 C123 710 99 679 99 637 L99 0 L163 0 L163 633 C163 642 167 648 171 648 C179 648 183 642 193 622 C290 429 382 234 478 40 C494 8 520 -7 554 -7 C596 -7 622 23 622 68 L622 68 Z M439 771 C475 775 501 795 525 831 L492 858 C472 829 452 820 436 817 C384 806 367 869 290 856 C250 849 232 827 206 791 L241 768 C260 796 279 806 296 809 C349 819 356 760 439 771 L439 771 Z " />
<glyph glyph-name="Ograve" unicode="&#xd2;" horiz-adv-x="764" d="M423 772 L473 772 L366 920 L287 920 L423 772 Z M384 -12 C592 -12 700 164 700 351 C700 547 593 713 383 713 C164 713 64 547 64 351 C64 155 167 -12 384 -12 L384 -12 Z M383 652 C551 652 631 517 631 352 C631 191 558 50 384 50 C208 50 131 188 131 352 C131 516 208 652 383 652 L383 652 Z " />
<glyph glyph-name="Oacute" unicode="&#xd3;" horiz-adv-x="764" d="M488 920 L409 920 L302 772 L352 772 L488 920 Z M384 -12 C592 -12 700 164 700 351 C700 547 593 713 383 713 C164 713 64 547 64 351 C64 155 167 -12 384 -12 L384 -12 Z M383 652 C551 652 631 517 631 352 C631 191 558 50 384 50 C208 50 131 188 131 352 C131 516 208 652 383 652 L383 652 Z " />
<glyph glyph-name="Ocircumflex" unicode="&#xd4;" horiz-adv-x="764" d="M473 771 L525 771 L429 895 C402 929 363 930 337 897 L239 771 L290 771 L381 868 L473 771 Z M384 -12 C592 -12 700 164 700 351 C700 547 593 713 383 713 C164 713 64 547 64 351 C64 155 167 -12 384 -12 L384 -12 Z M383 652 C551 652 631 517 631 352 C631 191 558 50 384 50 C208 50 131 188 131 352 C131 516 208 652 383 652 L383 652 Z " />
<glyph glyph-name="Otilde" unicode="&#xd5;" horiz-adv-x="764" d="M468 771 C504 775 530 795 554 831 L521 858 C501 829 481 820 465 817 C412 806 396 869 319 856 C279 849 261 827 234 791 L270 768 C288 796 308 806 325 809 C378 819 384 760 468 771 L468 771 Z M384 -12 C592 -12 700 164 700 351 C700 547 593 713 383 713 C164 713 64 547 64 351 C64 155 167 -12 384 -12 L384 -12 Z M383 652 C551 652 631 517 631 352 C631 191 558 50 384 50 C208 50 131 188 131 352 C131 516 208 652 383 652 L383 652 Z " />
<glyph glyph-name="Odieresis" unicode="&#xd6;" horiz-adv-x="764" d="M344 812 C344 840 330 854 302 854 C274 854 259 840 259 812 C259 783 274 768 302 768 C330 768 344 783 344 812 L344 812 Z M503 812 C503 840 489 854 461 854 C433 854 418 840 418 812 C418 783 433 768 461 768 C489 768 503 783 503 812 L503 812 Z M384 -12 C592 -12 700 164 700 351 C700 547 593 713 383 713 C164 713 64 547 64 351 C64 155 167 -12 384 -12 L384 -12 Z M383 652 C551 652 631 517 631 352 C631 191 558 50 384 50 C208 50 131 188 131 352 C131 516 208 652 383 652 L383 652 Z " />
<glyph glyph-name="multiply" unicode="&#xd7;" horiz-adv-x="520" d="M456 -4 L482 23 L285 220 L480 416 L454 442 L258 246 L63 442 L37 416 L233 221 L38 25 L63 -2 L259 194 L456 -4 Z " />
<glyph glyph-name="Oslash" unicode="&#xd8;" horiz-adv-x="764" d="M258 80 C171 130 131 234 131 352 C131 516 208 652 383 652 C407 652 430 650 451 644 L258 80 Z M507 621 C591 571 631 469 631 352 C631 191 558 50 384 50 C359 50 336 52 315 58 L507 621 Z M488 754 L470 703 C444 710 414 713 383 713 C164 713 64 547 64 351 C64 206 120 77 237 20 L211 -57 L276 -57 L295 -1 C322 -8 352 -12 384 -12 C592 -12 700 164 700 351 C700 495 642 623 528 681 L553 754 L488 754 Z " />
<glyph glyph-name="Ugrave" unicode="&#xd9;" horiz-adv-x="689" d="M367 772 L417 772 L310 920 L231 920 L367 772 Z M357 -12 C439 -12 519 10 586 32 L586 704 L518 704 L518 79 C480 65 408 52 360 52 C239 52 185 106 171 177 C168 190 166 211 166 237 L166 704 L98 704 L98 233 C98 195 102 162 110 137 C139 44 223 -12 357 -12 L357 -12 Z " />
<glyph glyph-name="Uacute" unicode="&#xda;" horiz-adv-x="689" d="M454 920 L375 920 L268 772 L318 772 L454 920 Z M357 -12 C439 -12 519 10 586 32 L586 704 L518 704 L518 79 C480 65 408 52 360 52 C239 52 185 106 171 177 C168 190 166 211 166 237 L166 704 L98 704 L98 233 C98 195 102 162 110 137 C139 44 223 -12 357 -12 L357 -12 Z " />
<glyph glyph-name="Ucircumflex" unicode="&#xdb;" horiz-adv-x="689" d="M434 771 L487 771 L390 895 C364 929 325 930 299 897 L201 771 L252 771 L343 868 L434 771 Z M357 -12 C439 -12 519 10 586 32 L586 704 L518 704 L518 79 C480 65 408 52 360 52 C239 52 185 106 171 177 C168 190 166 211 166 237 L166 704 L98 704 L98 233 C98 195 102 162 110 137 C139 44 223 -12 357 -12 L357 -12 Z " />
<glyph glyph-name="Udieresis" unicode="&#xdc;" horiz-adv-x="689" d="M305 812 C305 840 292 854 263 854 C235 854 220 840 220 812 C220 783 235 768 263 768 C292 768 305 783 305 812 L305 812 Z M464 812 C464 840 451 854 422 854 C394 854 379 840 379 812 C379 783 394 768 422 768 C451 768 464 783 464 812 L464 812 Z M357 -12 C439 -12 519 10 586 32 L586 704 L518 704 L518 79 C480 65 408 52 360 52 C239 52 185 106 171 177 C168 190 166 211 166 237 L166 704 L98 704 L98 233 C98 195 102 162 110 137 C139 44 223 -12 357 -12 L357 -12 Z " />
<glyph glyph-name="Thorn" unicode="&#xde;" horiz-adv-x="488" d="M424 302 C424 354 407 397 374 432 C342 466 298 482 246 482 C192 482 148 466 116 432 C109 426 105 419 100 413 L100 581 L65 581 L65 313 L65 0 L100 0 L100 192 C105 185 110 179 116 173 C149 139 192 122 246 122 C298 122 341 139 374 173 C406 207 424 250 424 302 L424 302 Z M383 301 C383 259 370 225 345 198 C319 171 285 157 242 157 C198 157 162 170 137 198 C112 225 100 259 100 301 C100 343 112 378 138 405 C164 432 198 446 242 446 C285 446 319 433 345 405 C370 378 383 344 383 301 L383 301 Z " />
<glyph glyph-name="germandbls" unicode="&#xdf;" horiz-adv-x="551" d="M312 -78 C466 -78 514 12 514 99 C514 182 480 246 388 296 C367 307 291 344 291 369 C291 390 318 410 370 447 C414 479 442 517 442 575 C442 668 384 712 280 712 C146 712 88 625 88 494 L88 338 L88 1 L152 1 L152 486 C152 586 180 655 283 655 C331 655 374 632 374 573 C374 512 329 494 284 460 C253 437 223 416 223 367 C223 330 243 310 267 291 C342 233 447 221 447 98 C447 32 406 -20 321 -20 L233 -20 L233 -78 L312 -78 Z " />
<glyph glyph-name="agrave" unicode="&#xe0;" horiz-adv-x="611" d="M304 555 L355 555 L247 702 L168 702 L304 555 Z M459 284 L459 92 C420 70 364 49 307 49 C188 49 126 127 126 237 C126 346 187 437 310 437 C391 437 459 380 459 284 L459 284 Z M462 480 L462 430 C428 469 376 493 307 493 C152 493 60 376 60 235 C60 87 155 -7 301 -7 C327 -7 349 -3 370 2 C391 8 411 15 432 21 C445 25 461 25 465 4 L466 0 L523 0 L523 480 L462 480 Z " />
<glyph glyph-name="aacute" unicode="&#xe1;" horiz-adv-x="611" d="M431 702 L352 702 L244 555 L295 555 L431 702 Z M459 284 L459 92 C420 70 364 49 307 49 C188 49 126 127 126 237 C126 346 187 437 310 437 C391 437 459 380 459 284 L459 284 Z M462 480 L462 430 C428 469 376 493 307 493 C152 493 60 376 60 235 C60 87 155 -7 301 -7 C327 -7 349 -3 370 2 C391 8 411 15 432 21 C445 25 461 25 465 4 L466 0 L523 0 L523 480 L462 480 Z " />
<glyph glyph-name="acircumflex" unicode="&#xe2;" horiz-adv-x="611" d="M394 554 L447 554 L350 678 C324 712 285 713 259 680 L161 554 L212 554 L303 651 L394 554 Z M459 284 L459 92 C420 70 364 49 307 49 C188 49 126 127 126 237 C126 346 187 437 310 437 C391 437 459 380 459 284 L459 284 Z M462 480 L462 430 C428 469 376 493 307 493 C152 493 60 376 60 235 C60 87 155 -7 301 -7 C327 -7 349 -3 370 2 C391 8 411 15 432 21 C445 25 461 25 465 4 L466 0 L523 0 L523 480 L462 480 Z " />
<glyph glyph-name="atilde" unicode="&#xe3;" horiz-adv-x="611" d="M385 573 C421 577 447 597 471 633 L438 660 C418 631 398 622 382 619 C329 608 313 671 236 658 C196 651 178 629 151 593 L187 570 C205 598 225 608 242 611 C295 621 301 562 385 573 L385 573 Z M459 284 L459 92 C420 70 364 49 307 49 C188 49 126 127 126 237 C126 346 187 437 310 437 C391 437 459 380 459 284 L459 284 Z M462 480 L462 430 C428 469 376 493 307 493 C152 493 60 376 60 235 C60 87 155 -7 301 -7 C327 -7 349 -3 370 2 C391 8 411 15 432 21 C445 25 461 25 465 4 L466 0 L523 0 L523 480 L462 480 Z " />
<glyph glyph-name="adieresis" unicode="&#xe4;" horiz-adv-x="611" d="M266 613 C266 641 253 655 224 655 C196 655 182 641 182 613 C182 585 196 569 224 569 C253 569 266 585 266 613 L266 613 Z M425 613 C425 641 412 655 383 655 C355 655 341 641 341 613 C341 585 355 569 383 569 C412 569 425 585 425 613 L425 613 Z M459 284 L459 92 C420 70 364 49 307 49 C188 49 126 127 126 237 C126 346 187 437 310 437 C391 437 459 380 459 284 L459 284 Z M462 480 L462 430 C428 469 376 493 307 493 C152 493 60 376 60 235 C60 87 155 -7 301 -7 C327 -7 349 -3 370 2 C391 8 411 15 432 21 C445 25 461 25 465 4 L466 0 L523 0 L523 480 L462 480 Z " />
<glyph glyph-name="aring" unicode="&#xe5;" horiz-adv-x="611" d="M307 560 C363 560 401 598 401 654 C401 711 363 747 307 747 C251 747 214 710 214 654 C214 599 251 560 307 560 L307 560 Z M308 708 C338 708 360 684 360 654 C360 621 341 601 308 601 C275 601 255 621 255 654 C255 684 277 708 308 708 L308 708 Z M459 284 L459 92 C420 70 364 49 307 49 C188 49 126 127 126 237 C126 346 187 437 310 437 C391 437 459 380 459 284 L459 284 Z M462 480 L462 430 C428 469 376 493 307 493 C152 493 60 376 60 235 C60 87 155 -7 301 -7 C327 -7 349 -3 370 2 C391 8 411 15 432 21 C445 25 461 25 465 4 L466 0 L523 0 L523 480 L462 480 Z " />
<glyph glyph-name="ae" unicode="&#xe6;" horiz-adv-x="978" d="M529 223 L916 223 C916 223 914 248 912 268 C900 392 822 482 693 482 C612 482 543 446 503 384 C472 438 410 479 309 479 C154 479 64 362 64 229 C64 87 157 -8 305 -8 C356 -8 396 2 438 17 C444 19 453 23 459 23 C467 23 469 3 470 0 L526 0 L526 62 C568 18 630 -6 706 -6 C781 -6 836 15 900 57 L872 107 C817 72 766 50 708 50 C601 50 535 116 529 223 L529 223 Z M693 426 C780 426 830 370 845 279 L530 279 C545 370 607 426 693 426 L693 426 Z M461 269 L461 89 C423 70 363 50 310 50 C192 50 129 124 129 230 C129 334 191 422 313 422 C388 422 442 386 457 321 C460 309 461 289 461 269 L461 269 Z " />
<glyph glyph-name="ccedilla" unicode="&#xe7;" horiz-adv-x="541" d="M386 -112 C386 -74 358 -47 319 -47 C308 -47 304 -42 305 -35 L310 -6 C381 -5 436 17 491 68 L456 112 C411 71 357 49 301 49 C194 49 125 124 125 245 C125 343 192 429 295 429 C357 429 400 409 442 365 L490 403 C437 461 389 485 296 485 C155 485 59 378 59 240 C59 107 135 7 268 -5 L253 -89 C265 -84 282 -82 297 -82 C324 -82 335 -94 335 -115 C335 -136 320 -151 286 -151 C265 -152 240 -146 207 -129 L193 -166 C225 -184 256 -192 285 -192 C336 -192 386 -167 386 -112 L386 -112 Z " />
<glyph glyph-name="egrave" unicode="&#xe8;" horiz-adv-x="574" d="M303 555 L354 555 L246 702 L167 702 L303 555 Z M126 232 L518 232 C518 240 515 278 515 278 C508 406 422 493 292 493 C155 493 59 383 59 242 C59 97 148 -9 303 -9 C384 -9 447 13 503 56 L473 104 C424 68 372 48 308 48 C193 48 129 124 126 232 L126 232 Z M292 438 C385 438 436 375 447 287 L128 287 C141 370 203 438 292 438 L292 438 Z " />
<glyph glyph-name="eacute" unicode="&#xe9;" horiz-adv-x="574" d="M428 702 L349 702 L241 555 L292 555 L428 702 Z M126 232 L518 232 C518 240 515 278 515 278 C508 406 422 493 292 493 C155 493 59 383 59 242 C59 97 148 -9 303 -9 C384 -9 447 13 503 56 L473 104 C424 68 372 48 308 48 C193 48 129 124 126 232 L126 232 Z M292 438 C385 438 436 375 447 287 L128 287 C141 370 203 438 292 438 L292 438 Z " />
<glyph glyph-name="ecircumflex" unicode="&#xea;" horiz-adv-x="574" d="M379 554 L432 554 L335 678 C309 712 270 713 244 680 L146 554 L197 554 L288 651 L379 554 Z M126 232 L518 232 C518 240 515 278 515 278 C508 406 422 493 292 493 C155 493 59 383 59 242 C59 97 148 -9 303 -9 C384 -9 447 13 503 56 L473 104 C424 68 372 48 308 48 C193 48 129 124 126 232 L126 232 Z M292 438 C385 438 436 375 447 287 L128 287 C141 370 203 438 292 438 L292 438 Z " />
<glyph glyph-name="edieresis" unicode="&#xeb;" horiz-adv-x="574" d="M253 613 C253 641 240 655 211 655 C183 655 169 641 169 613 C169 585 183 569 211 569 C240 569 253 585 253 613 L253 613 Z M412 613 C412 641 399 655 370 655 C342 655 328 641 328 613 C328 585 342 569 370 569 C399 569 412 585 412 613 L412 613 Z M126 232 L518 232 C518 240 515 278 515 278 C508 406 422 493 292 493 C155 493 59 383 59 242 C59 97 148 -9 303 -9 C384 -9 447 13 503 56 L473 104 C424 68 372 48 308 48 C193 48 129 124 126 232 L126 232 Z M292 438 C385 438 436 375 447 287 L128 287 C141 370 203 438 292 438 L292 438 Z " />
<glyph glyph-name="igrave" unicode="&#xec;" horiz-adv-x="252" d="M95 0 L159 0 L159 477 L95 477 L95 0 Z M163 555 L213 555 L106 702 L27 702 L163 555 Z " />
<glyph glyph-name="iacute" unicode="&#xed;" horiz-adv-x="252" d="M93 0 L157 0 L157 477 L93 477 L93 0 Z M226 702 L147 702 L39 555 L89 555 L226 702 Z " />
<glyph glyph-name="icircumflex" unicode="&#xee;" horiz-adv-x="264" d="M100 0 L164 0 L164 477 L100 477 L100 0 Z M222 554 L275 554 L178 678 C152 712 113 713 87 680 L-11 554 L40 554 L131 651 L222 554 Z " />
<glyph glyph-name="idieresis" unicode="&#xef;" horiz-adv-x="259" d="M251 613 C251 641 238 655 209 655 C181 655 166 641 166 613 C166 585 181 569 209 569 C238 569 251 585 251 613 L251 613 Z M92 613 C92 641 79 655 50 655 C22 655 7 641 7 613 C7 585 22 569 50 569 C79 569 92 585 92 613 L92 613 Z M161 0 L161 477 L98 477 L98 0 L161 0 Z " />
<glyph glyph-name="eth" unicode="&#xf0;" horiz-adv-x="517" d="M453 160 L453 571 L418 571 L418 529 C402 508 387 498 371 496 C353 493 336 495 318 506 L310 511 L301 515 C275 530 248 535 219 530 C189 524 165 507 144 478 L176 459 C193 482 208 492 226 496 C243 499 259 494 278 485 L286 481 L294 475 C320 459 348 456 378 461 C392 464 406 470 418 478 L418 316 C413 323 407 329 401 335 C365 373 318 392 259 392 C202 392 156 373 120 335 C84 298 65 250 65 193 C65 135 83 87 120 49 C155 12 202 -7 259 -7 C318 -7 363 11 400 49 C436 87 453 118 453 160 L453 160 Z M418 194 C418 145 403 106 375 74 C345 41 308 25 259 25 C210 25 171 41 143 73 C114 105 101 144 101 194 C101 242 114 282 143 314 C170 345 210 361 259 361 C308 361 347 346 376 314 C403 283 418 242 418 194 L418 194 Z " />
<glyph glyph-name="ntilde" unicode="&#xf1;" horiz-adv-x="556" d="M354 573 C390 577 416 597 440 633 L407 660 C387 631 367 622 350 619 C298 608 281 671 205 658 C165 651 146 629 120 593 L156 570 C174 598 193 608 210 611 C264 621 270 562 354 573 L354 573 Z M431 0 L499 0 L499 309 C499 434 419 490 286 490 C216 490 136 464 80 424 L80 0 L145 0 L145 393 C175 413 234 432 283 432 C381 432 431 388 431 296 L431 0 Z " />
<glyph glyph-name="ograve" unicode="&#xf2;" horiz-adv-x="598" d="M305 555 L356 555 L248 702 L169 702 L305 555 Z M298 493 C443 493 542 385 542 243 C542 100 443 -8 298 -8 C156 -8 56 103 56 243 C56 381 157 493 298 493 L298 493 Z M298 48 C406 48 477 133 477 244 C477 346 405 437 298 437 C188 437 121 349 121 244 C121 138 187 48 298 48 L298 48 Z " />
<glyph glyph-name="oacute" unicode="&#xf3;" horiz-adv-x="598" d="M429 702 L350 702 L242 555 L293 555 L429 702 Z M298 493 C157 493 56 381 56 243 C56 103 156 -8 298 -8 C443 -8 542 100 542 243 C542 385 443 493 298 493 L298 493 Z M298 48 C187 48 121 138 121 244 C121 349 188 437 298 437 C405 437 477 346 477 244 C477 133 406 48 298 48 L298 48 Z " />
<glyph glyph-name="ocircumflex" unicode="&#xf4;" horiz-adv-x="598" d="M383 554 L436 554 L339 678 C313 712 274 713 248 680 L150 554 L201 554 L292 651 L383 554 Z M298 493 C443 493 542 385 542 243 C542 100 443 -8 298 -8 C156 -8 56 103 56 243 C56 381 157 493 298 493 L298 493 Z M298 48 C406 48 477 133 477 244 C477 346 405 437 298 437 C188 437 121 349 121 244 C121 138 187 48 298 48 L298 48 Z " />
<glyph glyph-name="otilde" unicode="&#xf5;" horiz-adv-x="598" d="M372 573 C408 577 434 597 458 633 L425 660 C405 631 385 622 369 619 C316 608 300 671 223 658 C183 651 165 629 138 593 L174 570 C192 598 212 608 229 611 C282 621 288 562 372 573 L372 573 Z M298 493 C443 493 542 385 542 243 C542 100 443 -8 298 -8 C156 -8 56 103 56 243 C56 381 157 493 298 493 L298 493 Z M298 48 C406 48 477 133 477 244 C477 346 405 437 298 437 C188 437 121 349 121 244 C121 138 187 48 298 48 L298 48 Z " />
<glyph glyph-name="odieresis" unicode="&#xf6;" horiz-adv-x="598" d="M256 613 C256 641 242 655 214 655 C186 655 171 641 171 613 C171 585 186 569 214 569 C242 569 256 585 256 613 L256 613 Z M415 613 C415 641 401 655 373 655 C345 655 330 641 330 613 C330 585 345 569 373 569 C401 569 415 585 415 613 L415 613 Z M298 493 C443 493 542 385 542 243 C542 100 443 -8 298 -8 C156 -8 56 103 56 243 C56 381 157 493 298 493 L298 493 Z M298 48 C406 48 477 133 477 244 C477 346 405 437 298 437 C188 437 121 349 121 244 C121 138 187 48 298 48 L298 48 Z " />
<glyph glyph-name="divide" unicode="&#xf7;" horiz-adv-x="589" d="M295 451 C324 451 344 473 344 501 C344 531 327 550 295 550 C265 550 246 529 246 501 C246 473 266 451 295 451 L295 451 Z M56 318 L533 318 L533 376 L56 376 L56 318 Z M295 142 C327 142 344 160 344 191 C344 218 324 241 295 241 C265 241 246 218 246 191 C246 160 262 142 295 142 L295 142 Z " />
<glyph glyph-name="oslash" unicode="&#xf8;" horiz-adv-x="598" d="M210 71 C153 104 121 170 121 244 C121 349 188 437 298 437 C311 437 324 436 336 433 L210 71 Z M388 412 C443 378 477 313 477 244 C477 133 406 48 298 48 C286 48 275 50 264 52 L388 412 Z M432 538 L372 538 L354 487 C337 491 318 493 298 493 C157 493 56 381 56 243 C56 142 109 56 191 16 L166 -57 L226 -57 L245 -2 C262 -6 280 -8 298 -8 C443 -8 542 100 542 243 C542 345 491 429 408 469 L432 538 Z " />
<glyph glyph-name="ugrave" unicode="&#xf9;" horiz-adv-x="575" d="M304 555 L355 555 L247 702 L168 702 L304 555 Z M305 47 C336 47 392 52 421 62 L421 479 L486 479 L486 17 C433 -1 370 -12 302 -12 C151 -12 80 57 80 181 L80 479 L144 479 L144 183 C144 104 185 47 305 47 L305 47 Z " />
<glyph glyph-name="uacute" unicode="&#xfa;" horiz-adv-x="575" d="M414 702 L335 702 L227 555 L278 555 L414 702 Z M305 47 C185 47 144 104 144 183 L144 479 L80 479 L80 181 C80 57 151 -12 302 -12 C370 -12 433 -1 486 17 L486 479 L421 479 L421 62 C392 52 336 47 305 47 L305 47 Z " />
<glyph glyph-name="ucircumflex" unicode="&#xfb;" horiz-adv-x="575" d="M372 554 L425 554 L328 678 C302 712 263 713 237 680 L139 554 L190 554 L281 651 L372 554 Z M305 47 C336 47 392 52 421 62 L421 479 L486 479 L486 17 C433 -1 370 -12 302 -12 C151 -12 80 57 80 181 L80 479 L144 479 L144 183 C144 104 185 47 305 47 L305 47 Z " />
<glyph glyph-name="udieresis" unicode="&#xfc;" horiz-adv-x="575" d="M244 613 C244 641 231 655 202 655 C174 655 160 641 160 613 C160 585 174 569 202 569 C231 569 244 585 244 613 L244 613 Z M403 613 C403 641 390 655 361 655 C333 655 319 641 319 613 C319 585 333 569 361 569 C390 569 403 585 403 613 L403 613 Z M305 47 C336 47 392 52 421 62 L421 479 L486 479 L486 17 C433 -1 370 -12 302 -12 C151 -12 80 57 80 181 L80 479 L144 479 L144 183 C144 104 185 47 305 47 L305 47 Z " />
<glyph glyph-name="yacute" unicode="&#xfd;" horiz-adv-x="446" d="M289 570 L239 570 L152 449 L181 449 L289 570 Z M382 -18 L382 385 L347 385 L347 156 C347 118 336 86 315 62 C293 37 263 23 225 23 C187 23 157 36 135 62 C113 87 103 117 103 156 L103 385 L69 385 L69 167 C69 115 82 74 108 43 C135 10 174 -7 225 -7 C278 -7 319 11 347 50 L347 -18 C347 -67 334 -105 308 -135 C282 -165 245 -181 195 -181 C182 -181 166 -179 149 -175 C123 -169 100 -158 77 -142 L65 -177 C105 -202 148 -215 194 -215 C252 -215 299 -196 333 -160 C366 -124 382 -77 382 -18 L382 -18 Z " />
<glyph glyph-name="thorn" unicode="&#xfe;" horiz-adv-x="517" d="M453 193 C453 250 434 298 398 336 C363 373 316 392 258 392 C200 392 154 373 118 336 C111 329 105 323 100 315 L100 590 L65 590 L65 215 L65 -215 L100 -215 L100 69 C105 63 111 56 117 50 C153 12 200 -7 258 -7 C316 -7 362 12 398 50 C433 87 453 135 453 193 L453 193 Z M417 192 C417 143 403 103 375 71 C346 39 307 24 258 24 C209 24 169 39 142 71 C114 103 100 143 100 192 C100 240 114 279 143 311 C172 344 209 360 258 360 C307 360 346 344 375 312 C403 280 417 241 417 192 L417 192 Z " />
<glyph glyph-name="ydieresis" unicode="&#xff;" horiz-adv-x="588" d="M293 49 C336 49 392 58 441 82 L441 477 L504 477 L504 0 C504 -150 429 -250 280 -250 C224 -250 180 -240 137 -217 L151 -162 C191 -182 228 -193 278 -193 C389 -193 441 -117 441 -9 L441 21 C400 3 351 -9 293 -9 C166 -9 84 60 84 190 L84 477 L147 477 L147 193 C147 115 188 49 293 49 L293 49 Z M257 613 C257 641 243 655 215 655 C186 655 172 641 172 613 C172 585 186 569 215 569 C243 569 257 585 257 613 L257 613 Z M416 613 C416 641 402 655 374 655 C345 655 331 641 331 613 C331 585 345 569 374 569 C402 569 416 585 416 613 L416 613 Z " />
<glyph glyph-name="dotlessi" unicode="&#x131;" horiz-adv-x="223" d="M80 0 L143 0 L143 477 L80 477 L80 0 Z " />
<glyph glyph-name="OE" unicode="&#x152;" horiz-adv-x="897" d="M451 704 C451 703 398 707 389 707 C172 707 66 545 66 351 C66 157 177 -6 391 -6 C413 -6 432 -4 451 0 L864 0 L864 63 L518 63 L518 342 L809 342 L809 405 L518 405 L518 643 L845 643 L845 704 L495 704 L451 704 Z M451 56 C431 52 416 50 395 50 C213 50 136 186 136 352 C136 517 211 651 392 651 C414 651 432 650 451 646 L451 56 Z " />
<glyph glyph-name="oe" unicode="&#x153;" horiz-adv-x="886" d="M445 224 L833 224 C833 224 831 250 829 270 C818 396 739 486 609 486 C550 486 497 466 457 432 C415 466 361 485 300 485 C161 485 58 377 58 238 C58 98 160 -9 300 -9 C362 -9 417 11 459 46 C500 12 555 -6 621 -6 C696 -6 753 15 818 57 L789 108 C734 72 684 51 626 51 C518 51 451 117 445 224 L445 224 Z M610 428 C697 428 747 373 761 281 L446 281 C461 373 523 428 610 428 L610 428 Z M377 242 C377 184 391 134 416 94 C386 66 345 49 300 49 C192 49 123 132 123 239 C123 346 193 428 300 428 C345 428 385 412 416 384 C391 345 377 297 377 242 L377 242 Z " />
<glyph glyph-name="scaron" unicode="&#x161;" horiz-adv-x="1356" d="M1857 78 C1797 49 1712 49 1712 49 C1606 49 1567 115 1567 193 L1567 480 L1506 480 L1506 190 C1506 60 1584 -9 1711 -9 C1764 -9 1814 3 1857 20 L1857 -9 C1857 -117 1805 -193 1695 -193 C1644 -193 1607 -182 1567 -162 L1553 -217 C1596 -240 1641 -250 1696 -250 C1845 -250 1919 -150 1919 0 L1919 480 L1857 480 L1857 78 Z M3678 147 C3678 49 3734 -2 3823 -3 C3823 -3 3886 -3 3933 18 L3933 75 C3881 55 3833 55 3833 55 C3774 55 3739 87 3739 151 L3739 417 L3899 417 L3899 477 L3739 477 L3739 603 L3678 603 L3678 147 Z M6032 147 C6032 49 6088 -2 6177 -3 C6177 -3 6239 -3 6287 18 L6287 75 C6235 55 6187 55 6187 55 C6128 55 6093 87 6093 151 L6093 417 L6253 417 L6253 477 L6093 477 L6093 603 L6032 603 L6032 147 Z M2396 -43 C2396 -103 2393 -188 2245 -171 L2239 -230 C2417 -248 2459 -148 2459 -47 L2459 480 L2396 480 L2396 -43 Z M-45 489 C-181 489 -283 380 -283 240 C-283 99 -183 -9 -45 -9 C96 -9 195 97 195 240 C195 384 96 489 -45 489 L-45 489 Z M-45 49 C-151 49 -220 132 -220 241 C-220 350 -150 433 -45 433 C56 433 132 348 132 241 C132 133 56 49 -45 49 L-45 49 Z M2965 69 C2937 54 2850 54 2850 54 C2731 54 2691 107 2691 185 L2691 480 L2630 480 L2630 187 C2630 65 2698 -3 2847 -3 C2915 -3 2975 8 3027 26 L3027 480 L2965 480 L2965 69 Z M4519 487 C4366 487 4276 379 4276 240 C4276 100 4357 -5 4506 -5 C4547 -5 4585 4 4630 24 C4647 32 4666 33 4666 4 L4666 -9 C4666 -117 4610 -193 4500 -193 C4450 -193 4402 -182 4362 -161 L4348 -217 C4391 -240 4446 -250 4501 -250 C4650 -250 4734 -150 4728 0 L4728 0 L4728 301 C4728 408 4654 487 4519 487 L4519 487 Z M4664 104 C4616 71 4575 53 4509 53 C4393 53 4343 137 4343 241 C4343 346 4404 430 4514 430 C4602 430 4664 381 4664 293 L4664 104 Z M1353 0 L1353 301 C1353 392 1289 487 1138 487 C984 487 892 371 892 232 C892 83 986 -7 1132 -7 C1183 -7 1220 8 1262 21 C1274 25 1289 24 1293 5 L1294 0 L1353 0 L1353 0 Z M1287 285 L1287 93 C1249 72 1194 51 1138 51 C1021 51 960 126 960 234 C960 341 1020 429 1141 429 C1220 429 1287 379 1287 285 L1287 285 Z M6594 490 C6552 490 6517 481 6487 470 C6433 451 6410 423 6410 380 C6410 380 6410 339 6410 0 L6472 0 C6472 205 6472 356 6472 356 C6472 388 6479 405 6514 419 C6538 428 6565 433 6593 433 C6633 433 6679 420 6699 393 L6747 432 C6719 471 6666 490 6594 490 L6594 490 Z M5510 228 L5900 228 C5900 235 5897 274 5897 274 C5890 400 5805 487 5676 487 C5541 487 5446 378 5446 240 C5446 97 5534 -7 5688 -7 C5767 -7 5826 17 5884 56 L5855 105 C5806 71 5755 50 5692 50 C5580 50 5517 125 5510 222 L5510 228 Z M5511 286 L5831 286 C5819 371 5768 431 5676 431 C5585 431 5526 366 5511 280 L5511 286 Z M-609 147 C-609 49 -554 -2 -464 -3 C-464 -3 -402 -3 -354 18 L-354 75 C-406 55 -454 55 -454 55 C-513 55 -548 87 -548 151 L-548 417 L-389 417 L-389 477 L-548 477 L-548 603 L-609 603 L-609 147 Z M697 706 L697 428 C663 461 612 487 538 487 C394 487 299 379 299 240 C299 100 386 -6 533 -6 C581 -6 630 8 668 25 C680 30 697 34 697 15 L697 0 L760 0 L760 706 L697 706 Z M692 103 C653 75 607 51 538 51 C421 51 366 137 366 241 C366 346 429 427 540 427 C631 427 692 369 692 289 L692 103 Z M3371 277 C3263 307 3244 334 3244 371 C3244 420 3301 433 3348 433 C3401 433 3449 423 3472 380 L3524 407 C3487 480 3410 484 3352 484 C3248 484 3182 446 3182 366 C3182 284 3247 247 3356 217 C3426 198 3478 170 3478 119 C3478 79 3447 49 3349 49 C3276 49 3239 64 3215 109 L3161 81 C3191 18 3264 -4 3344 -4 C3498 -4 3538 53 3538 126 C3538 216 3458 253 3371 277 L3371 277 Z M2427 656 C2405 656 2388 639 2388 617 C2388 596 2405 578 2427 578 C2449 578 2467 596 2467 617 C2467 639 2449 656 2427 656 L2427 656 Z M4882 0 L4944 0 L4944 10 C4944 26 4954 36 4975 26 C5016 6 5051 -6 5109 -6 C5252 -6 5344 104 5344 244 C5344 388 5256 487 5119 487 C5047 487 4985 454 4944 403 L4944 706 L4882 706 L4882 0 Z M5103 52 C5037 52 4994 75 4947 107 L4947 251 C4947 358 5019 428 5114 428 C5225 428 5276 342 5276 245 C5276 141 5220 52 5103 52 L5103 52 Z M5510 228 L5900 228 C5900 235 5897 274 5897 274 C5890 400 5805 487 5676 487 C5541 487 5446 378 5446 240 C5446 97 5534 -7 5688 -7 C5767 -7 5826 17 5884 56 L5855 105 C5806 71 5755 50 5692 50 C5580 50 5517 125 5510 222 L5510 228 Z M5511 286 L5831 286 C5819 371 5768 431 5676 431 C5585 431 5526 366 5511 280 L5511 286 Z " />
<glyph glyph-name="Ydieresis" unicode="&#x178;" horiz-adv-x="565" d="M248 803 C248 831 234 845 206 845 C178 845 163 831 163 803 C163 775 178 759 206 759 C234 759 248 775 248 803 L248 803 Z M407 803 C407 831 393 845 365 845 C337 845 322 831 322 803 C322 775 337 759 365 759 C393 759 407 775 407 803 L407 803 Z M347 357 L546 704 L472 704 L283 369 L94 704 L19 704 L216 357 C231 331 249 297 249 267 L249 0 L316 0 L316 267 C316 301 337 339 347 357 L347 357 Z " />
<glyph glyph-name="Zcaron" unicode="&#x17d;" horiz-adv-x="5668" d="" />
<glyph glyph-name="zcaron" unicode="&#x17e;" horiz-adv-x="590" d="" />
<glyph glyph-name="florin" unicode="&#x192;" horiz-adv-x="592" d="M521 505 L528 560 C506 565 477 574 452 574 C412 574 378 559 351 531 C312 490 307 443 299 390 L220 390 L220 334 L290 334 L234 -31 L233 -39 C225 -104 189 -133 142 -133 C135 -133 128 -131 121 -130 L72 -121 L63 -176 C83 -180 117 -190 139 -190 C222 -190 276 -125 288 -46 L346 335 L446 335 L446 391 L354 391 C364 451 373 518 450 518 C473 518 504 508 521 505 L521 505 Z " />
<glyph glyph-name="circumflex" unicode="&#x2c6;" horiz-adv-x="390" d="M285 554 L338 554 L241 678 C215 712 176 713 150 680 L52 554 L103 554 L194 651 L285 554 Z " />
<glyph glyph-name="caron" unicode="&#x2c7;" horiz-adv-x="388" d="M104 707 L52 707 L148 583 C175 549 214 547 240 581 L338 707 L287 707 L196 609 L104 707 Z " />
<glyph glyph-name="tilde" unicode="&#x2dc;" horiz-adv-x="442" d="M383 635 L350 658 C333 629 316 619 297 615 C280 612 261 614 242 626 L233 633 L225 638 C196 654 168 663 137 656 C106 649 81 628 59 592 L93 571 C110 598 126 610 144 614 C162 617 179 612 200 601 L208 596 L216 590 C244 570 274 565 304 572 C335 578 360 601 383 635 L383 635 Z " />
<glyph glyph-name="pi" unicode="&#x3c0;" horiz-adv-x="571" d="M466 121 L507 163 L326 343 L505 522 L465 563 L285 384 L105 563 L65 523 L244 343 L65 164 L105 122 L285 302 L466 121 Z " />
<glyph glyph-name="endash" unicode="&#x2013;" horiz-adv-x="547" d="M25 229 L522 229 L522 285 L25 285 L25 229 Z " />
<glyph glyph-name="emdash" unicode="&#x2014;" horiz-adv-x="848" d="M26 229 L822 229 L822 285 L26 285 L26 229 Z " />
<glyph glyph-name="quoteleft" unicode="&#x2018;" horiz-adv-x="198" d="M54 587 C54 556 70 532 101 532 C125 532 145 547 145 579 C145 598 133 615 106 622 C109 656 122 682 141 721 L120 728 C90 691 54 634 54 587 L54 587 Z " />
<glyph glyph-name="quoteright" unicode="&#x2019;" horiz-adv-x="198" d="M145 665 C145 696 130 720 98 720 C75 720 54 705 54 673 C54 654 67 637 94 631 C90 596 78 571 58 531 L80 524 C110 561 145 618 145 665 L145 665 Z " />
<glyph glyph-name="quotesinglbase" unicode="&#x201a;" horiz-adv-x="198" d="M144 26 C144 57 128 81 97 81 C73 81 53 66 53 34 C53 15 65 -2 92 -8 C89 -43 76 -68 57 -108 L79 -115 C108 -78 144 -21 144 26 L144 26 Z " />
<glyph glyph-name="quotedblleft" unicode="&#x201c;" horiz-adv-x="329" d="M191 587 C191 556 207 532 238 532 C262 532 282 547 282 579 C282 598 270 615 243 622 C246 656 259 682 278 721 L257 728 C227 691 191 634 191 587 L191 587 Z M54 587 C54 556 70 532 101 532 C125 532 145 547 145 579 C145 598 133 615 106 622 C109 656 122 682 141 721 L120 728 C90 691 54 634 54 587 L54 587 Z " />
<glyph glyph-name="quotedblright" unicode="&#x201d;" horiz-adv-x="327" d="M139 665 C139 696 124 720 92 720 C69 720 48 705 48 673 C48 654 61 637 87 631 C84 596 71 571 52 531 L74 524 C104 561 139 618 139 665 L139 665 Z M276 665 C276 696 261 720 229 720 C206 720 185 705 185 673 C185 654 198 637 224 631 C221 596 208 571 189 531 L211 524 C241 561 276 618 276 665 L276 665 Z " />
<glyph glyph-name="quotedblbase" unicode="&#x201e;" horiz-adv-x="318" d="M139 26 C139 57 124 81 92 81 C69 81 49 66 49 34 C49 15 61 -2 88 -8 C84 -43 72 -68 52 -108 L74 -115 C104 -78 139 -21 139 26 L139 26 Z M277 26 C277 57 262 81 230 81 C207 81 187 66 187 34 C187 15 199 -2 226 -8 C222 -43 210 -68 190 -108 L212 -115 C242 -78 277 -21 277 26 L277 26 Z " />
<glyph glyph-name="dagger" unicode="&#x2020;" horiz-adv-x="348" d="M199 416 L284 416 L284 470 L199 470 L199 570 L145 570 L145 470 L65 470 L65 416 L145 416 L145 -40 L199 -40 L199 416 Z " />
<glyph glyph-name="daggerdbl" unicode="&#x2021;" horiz-adv-x="348" d="M199 79 L284 79 L284 133 L199 133 L199 416 L284 416 L284 470 L199 470 L199 570 L145 570 L145 470 L65 470 L65 416 L145 416 L145 133 L65 133 L65 79 L145 79 L145 -40 L199 -40 L199 79 Z " />
<glyph glyph-name="bullet" unicode="&#x2022;" horiz-adv-x="349" d="M258 220 C276 238 285 267 285 303 C285 379 250 413 175 413 C97 413 65 381 65 303 C65 226 97 194 174 194 C210 194 239 200 258 220 L258 220 Z " />
<glyph glyph-name="ellipsis" unicode="&#x2026;" horiz-adv-x="595" d="M149 36 C149 64 135 78 107 78 C79 78 64 64 64 36 C64 7 79 -8 107 -8 C135 -8 149 7 149 36 L149 36 Z M529 36 C529 64 515 78 487 78 C459 78 444 64 444 36 C444 7 459 -8 487 -8 C515 -8 529 7 529 36 L529 36 Z M341 36 C341 64 327 78 299 78 C271 78 256 64 256 36 C256 7 271 -8 299 -8 C327 -8 341 7 341 36 L341 36 Z " />
<glyph glyph-name="perthousand" unicode="&#x2030;" horiz-adv-x="1089" d="M218 410 C306 410 372 469 372 563 C372 654 304 716 218 716 C132 716 62 654 62 563 C62 470 131 410 218 410 L218 410 Z M175 -10 L630 705 L564 705 L104 -10 L175 -10 Z M533 -8 C618 -8 688 56 688 144 C688 232 619 298 533 298 C444 298 378 234 378 144 C378 55 447 -8 533 -8 L533 -8 Z M218 661 C276 661 314 622 314 563 C314 506 275 462 218 462 C161 462 121 506 121 563 C121 622 159 661 218 661 L218 661 Z M533 244 C591 244 629 203 629 144 C629 87 590 46 533 46 C477 46 435 88 435 144 C435 204 473 244 533 244 L533 244 Z M897 -8 C982 -8 1052 56 1052 144 C1052 232 983 298 897 298 C808 298 742 234 742 144 C742 55 811 -8 897 -8 L897 -8 Z M897 244 C955 244 993 203 993 144 C993 87 954 46 897 46 C841 46 799 88 799 144 C799 204 837 244 897 244 L897 244 Z " />
<glyph glyph-name="guilsinglleft" unicode="&#x2039;" horiz-adv-x="272" d="M154 68 L217 68 L126 195 L217 322 L154 322 L62 195 L154 68 Z " />
<glyph glyph-name="guilsinglright" unicode="&#x203a;" horiz-adv-x="272" d="M118 68 L210 195 L118 322 L55 322 L146 195 L55 68 L118 68 Z " />
<glyph glyph-name="zerosuperior" unicode="&#x2070;" horiz-adv-x="365" d="M301 386 C301 441 294 482 281 508 C262 545 230 563 184 563 C78 563 65 470 65 386 C65 302 78 209 184 209 C229 209 261 228 280 264 C294 292 301 333 301 386 L301 386 Z M261 387 C261 337 257 304 250 286 C239 261 218 248 184 248 C150 248 129 261 119 285 C110 305 105 338 105 387 C105 436 110 469 118 488 C128 512 150 525 184 525 C218 525 239 512 250 487 C257 469 261 437 261 387 L261 387 Z " />
<glyph glyph-name="foursuperior" unicode="&#x2074;" horiz-adv-x="366" d="M302 306 L302 343 L257 343 L257 563 L220 563 L75 362 C68 354 65 345 65 335 C65 314 83 306 104 306 L218 306 L218 215 L257 215 L257 306 L302 306 Z M218 343 L110 343 L108 343 L218 496 L218 343 Z " />
<glyph glyph-name="fivesuperior" unicode="&#x2075;" horiz-adv-x="334" d="M270 338 C270 409 225 460 155 460 C138 460 123 457 110 453 L110 520 L246 520 L246 557 L72 557 L72 369 C109 413 131 423 155 423 C203 423 232 386 232 337 C232 288 203 252 155 252 C130 252 112 260 91 283 L65 258 C92 227 121 215 155 215 C188 215 217 227 238 250 C260 274 270 303 270 338 L270 338 Z " />
<glyph glyph-name="sixsuperior" unicode="&#x2076;" horiz-adv-x="335" d="M271 319 C271 348 262 373 244 392 C224 412 200 421 168 421 C157 421 147 420 137 417 L196 562 L156 562 L77 369 C69 355 65 337 65 319 C65 288 75 264 94 244 C112 225 137 215 168 215 C200 215 224 225 243 244 C261 263 271 287 271 319 L271 319 Z M233 319 C233 298 225 282 215 271 C202 258 190 252 168 252 C127 252 104 277 104 319 C104 328 105 336 107 343 L112 355 C121 377 143 385 168 385 C190 385 205 379 215 368 C226 356 233 340 233 319 L233 319 Z " />
<glyph glyph-name="sevensuperior" unicode="&#x2077;" horiz-adv-x="342" d="M278 526 C278 548 259 557 239 557 L65 557 L65 520 L238 520 C238 519 237 518 237 516 L108 215 L149 215 L272 504 C275 512 278 520 278 526 L278 526 Z " />
<glyph glyph-name="eightsuperior" unicode="&#x2078;" horiz-adv-x="355" d="M291 324 C291 366 271 405 234 424 C249 440 255 460 255 482 C255 531 222 563 175 563 C129 563 95 530 95 482 C95 459 103 438 119 422 C84 403 65 365 65 324 C65 290 75 262 96 240 C117 218 145 208 177 208 C210 208 238 219 259 240 C280 262 291 290 291 324 L291 324 Z M216 482 C216 456 200 439 175 439 C150 439 135 456 135 482 C135 508 150 525 175 525 C189 525 199 521 206 513 C212 505 216 496 216 482 L216 482 Z M250 324 C250 301 242 283 230 269 C217 254 201 247 177 247 C132 247 105 278 105 324 C105 369 133 400 177 400 C201 400 217 393 231 378 C242 365 250 347 250 324 L250 324 Z " />
<glyph glyph-name="ninesuperior" unicode="&#x2079;" horiz-adv-x="335" d="M271 459 C271 489 262 514 243 534 C225 553 199 562 168 562 C136 562 111 553 93 534 C74 514 65 490 65 459 C65 429 74 403 92 385 C111 365 136 356 168 356 C179 356 189 357 199 360 L140 215 L180 215 L259 408 C265 424 271 440 271 459 L271 459 Z M233 458 C233 449 231 441 229 434 L225 423 C213 401 193 392 168 392 C127 392 104 417 104 458 C104 479 110 495 121 506 C133 519 146 526 168 526 C209 526 233 500 233 458 L233 458 Z " />
<glyph glyph-name="zeroinferior" unicode="&#x2080;" horiz-adv-x="365" d="M301 171 C301 226 294 267 281 293 C262 330 230 348 184 348 C78 348 65 255 65 171 C65 87 78 -6 184 -6 C229 -6 261 13 280 49 C294 77 301 118 301 171 L301 171 Z M261 172 C261 122 257 89 250 71 C239 46 218 33 184 33 C150 33 129 46 119 70 C110 90 105 123 105 172 C105 221 110 254 118 273 C128 297 150 310 184 310 C218 310 239 297 250 272 C257 254 261 222 261 172 L261 172 Z " />
<glyph glyph-name="oneinferior" unicode="&#x2081;" horiz-adv-x="201" d="M137 0 L137 349 L65 300 L65 257 L105 283 L105 0 L137 0 Z " />
<glyph glyph-name="twoinferior" unicode="&#x2082;" horiz-adv-x="328" d="M264 244 C264 307 226 348 165 348 C106 348 71 307 65 239 L102 239 C108 288 126 310 165 310 C203 310 225 285 225 245 C225 225 220 211 206 199 C191 186 173 185 156 181 C136 177 116 172 99 152 C80 131 72 106 72 78 L72 0 L254 0 L254 38 L110 38 L110 91 C110 103 120 120 129 128 C142 139 152 142 168 145 C235 155 263 198 264 244 L264 244 Z " />
<glyph glyph-name="threeinferior" unicode="&#x2083;" horiz-adv-x="355" d="M291 109 C291 151 271 190 234 209 C249 225 255 245 255 267 C255 316 222 348 175 348 C153 348 133 341 118 325 C103 310 95 289 95 257 L135 257 C135 291 147 310 175 310 C201 310 216 293 216 267 C216 241 200 224 175 224 L140 224 L140 185 L177 185 C222 185 250 154 250 109 C250 86 242 68 230 54 C217 39 201 32 177 32 C155 32 137 39 124 53 C112 66 105 85 105 118 L65 117 C65 75 75 47 96 25 C117 3 145 -7 177 -7 C210 -7 238 4 259 25 C280 47 291 75 291 109 L291 109 Z " />
<glyph glyph-name="fourinferior" unicode="&#x2084;" horiz-adv-x="366" d="M302 91 L302 128 L257 128 L257 348 L220 348 L75 147 C68 139 65 130 65 120 C65 99 83 91 104 91 L218 91 L218 0 L257 0 L257 91 L302 91 Z M218 128 L110 128 L108 128 L218 281 L218 128 Z " />
<glyph glyph-name="fiveinferior" unicode="&#x2085;" horiz-adv-x="334" d="M270 123 C270 194 225 245 155 245 C138 245 123 242 110 238 L110 305 L246 305 L246 342 L72 342 L72 154 C109 198 131 208 155 208 C203 208 232 171 232 122 C232 73 203 37 155 37 C130 37 112 45 91 68 L65 43 C92 12 121 0 155 0 C188 0 217 12 238 35 C260 59 270 88 270 123 L270 123 Z " />
<glyph glyph-name="sixinferior" unicode="&#x2086;" horiz-adv-x="335" d="M271 104 C271 133 263 158 244 177 C224 197 200 206 168 206 C157 206 147 205 137 202 L196 347 L156 347 L77 154 C69 140 65 122 65 104 C65 73 75 49 94 29 C112 10 137 0 168 0 C200 0 224 10 243 29 C261 48 271 72 271 104 L271 104 Z M233 104 C233 83 225 67 215 56 C202 43 190 37 168 37 C127 37 104 62 104 104 C104 113 105 121 107 128 L112 140 C121 162 143 170 168 170 C190 170 205 164 215 152 C226 141 233 125 233 104 L233 104 Z " />
<glyph glyph-name="seveninferior" unicode="&#x2087;" horiz-adv-x="342" d="M278 311 C278 333 259 342 239 342 L65 342 L65 305 L238 305 C238 304 237 303 237 301 L108 0 L149 0 L272 289 C275 297 278 305 278 311 L278 311 Z " />
<glyph glyph-name="eightinferior" unicode="&#x2088;" horiz-adv-x="355" d="M291 109 C291 151 271 190 234 209 C249 225 255 245 255 267 C255 316 222 348 175 348 C129 348 95 315 95 267 C95 244 103 223 119 207 C84 188 65 150 65 109 C65 75 75 47 96 25 C117 3 145 -7 177 -7 C210 -7 238 4 259 25 C280 47 291 75 291 109 L291 109 Z M216 267 C216 241 200 224 175 224 C150 224 135 240 135 267 C135 293 150 310 175 310 C189 310 199 306 206 298 C212 290 216 281 216 267 L216 267 Z M250 109 C250 86 242 68 230 54 C217 39 201 32 177 32 C132 32 105 63 105 109 C105 154 133 185 177 185 C201 185 217 178 231 163 C242 150 250 132 250 109 L250 109 Z " />
<glyph glyph-name="nineinferior" unicode="&#x2089;" horiz-adv-x="335" d="M271 244 C271 274 262 299 243 319 C225 338 199 347 168 347 C136 347 110 337 93 319 C73 299 65 275 65 244 C65 214 74 188 92 170 C111 150 136 141 168 141 C179 141 189 142 199 145 L140 0 L180 0 L259 193 C265 209 271 225 271 244 L271 244 Z M233 243 C233 234 231 226 229 219 L225 208 C213 186 193 177 168 177 C127 177 104 202 104 243 C104 264 110 280 121 291 C133 304 146 311 168 311 C209 311 233 285 233 243 L233 243 Z " />
<glyph glyph-name="Euro" unicode="&#x20ac;" horiz-adv-x="672" d="M567 446 L612 487 C546 553 477 582 399 582 C314 582 246 552 193 497 C160 462 138 423 126 378 L82 378 L82 323 L115 323 C114 311 113 298 113 285 C113 277 113 268 114 260 L44 260 L44 204 L122 204 C133 154 156 110 191 73 C245 17 315 -10 400 -10 C474 -10 539 17 603 77 L565 125 C518 76 459 48 400 48 C298 48 214 107 185 204 L479 204 L479 260 L175 260 C174 268 174 277 174 286 C174 299 174 311 176 323 L516 323 L516 378 L188 378 C199 407 215 433 236 455 C279 501 331 523 400 523 C464 523 514 500 567 446 L567 446 Z " />
<glyph glyph-name="trademark" unicode="&#x2122;" horiz-adv-x="808" d="M215 664 L326 664 L326 704 L59 704 L59 664 L170 664 L170 351 L215 351 L215 664 Z M408 663 C408 668 409 666 411 662 L515 430 L552 430 L656 662 C658 665 659 664 659 661 L659 350 L701 350 L701 669 C701 692 683 708 661 708 C638 708 624 692 617 676 L534 489 L450 676 C443 692 429 708 406 708 C384 708 366 692 366 669 L366 350 L408 350 L408 663 Z " />
<glyph glyph-name="product" unicode="&#x220f;" horiz-adv-x="992" d="M343 604 L364 659 C323 686 282 695 247 695 C142 695 90 619 90 516 L90 0 L154 0 L154 398 L321 398 L321 459 L154 459 L154 517 C154 589 181 636 250 636 C271 636 296 632 343 604 L343 604 Z M842 0 L906 0 L906 704 L842 704 L842 0 Z M717 604 L738 659 C697 686 656 695 621 695 C516 695 464 619 464 516 L464 0 L528 0 L528 398 L695 398 L695 459 L528 459 L528 517 C528 589 555 636 624 636 C645 636 670 632 717 604 L717 604 Z " />
<glyph glyph-name="summation" unicode="&#x2211;" horiz-adv-x="747" d="M343 604 L365 659 C323 686 282 695 247 695 C142 695 90 619 90 516 L90 0 L154 0 L154 398 L322 398 L322 459 L154 459 L154 517 C154 589 181 636 250 636 C272 636 296 632 343 604 L343 604 Z M722 604 L744 659 C702 686 661 695 626 695 C521 695 469 619 469 516 L469 0 L533 0 L533 398 L701 398 L701 459 L533 459 L533 517 C533 589 560 636 629 636 C651 636 675 632 722 604 L722 604 Z " />
<glyph glyph-name="minus" unicode="&#x2212;" horiz-adv-x="496" d="M432 200 L432 237 L65 237 L65 200 L432 200 Z " />
<glyph glyph-name="notequal" unicode="&#x2260;" horiz-adv-x="631" d="M562 134 L562 192 L322 192 L399 304 L562 304 L562 362 L438 362 L516 475 L439 475 L362 362 L68 362 L68 304 L322 304 L245 192 L68 192 L68 134 L205 134 L114 0 L190 0 L282 134 L562 134 Z " />
<glyph glyph-name="fi" unicode="&#xfb01;" horiz-adv-x="607" d="M344 604 L365 659 C323 686 283 695 247 695 C143 695 91 619 91 516 L91 0 L154 0 L154 398 L322 398 L322 459 L154 459 L154 517 C154 589 181 636 250 636 C272 636 296 632 344 604 L344 604 Z M449 0 L513 0 L513 477 L449 477 L449 0 Z M481 656 C503 656 521 638 521 616 C521 595 503 577 481 577 C460 577 442 595 442 616 C442 638 460 656 481 656 L481 656 Z " />
<glyph glyph-name="fl" unicode="&#xfb02;" horiz-adv-x="597" d="M343 604 L365 659 C323 686 282 695 247 695 C142 695 90 619 90 516 L90 0 L154 0 L154 398 L322 398 L322 459 L154 459 L154 517 C154 589 181 636 250 636 C272 636 296 632 343 604 L343 604 Z M445 0 L509 0 L509 704 L445 704 L445 0 Z " />
</font>
</svg>
