<?xml version="1.0" encoding="UTF-8"?>
<svg xmlns="http://www.w3.org/2000/svg" xmlns:xlink="http://www.w3.org/1999/xlink" version="1.2" >
<font id="BellSlim Heavy">
<font-face  font-family="BellSlim" units-per-em="1000" ascent="759" descent="-241" font-style="normal" font-weight="900" font-stretch="normal" cap-height="700" x-height="500" underline-position="-75" underline-thickness="50" />
<missing-glyph  horiz-adv-x="388" d="M327 733 L223 879 L165 879 L61 733 L96 733 L193 844 L291 733 L327 733 Z " />
<glyph glyph-name="NULL" d="" />
<glyph glyph-name="CR" unicode="&#xd;" horiz-adv-x="250" d="" />
<glyph glyph-name="space" unicode="&#x20;" horiz-adv-x="262" d="" />
<glyph glyph-name="exclam" unicode="&#x21;" horiz-adv-x="235" d="M74 170 L161 170 L161 714 L74 714 L74 170 Z M119 -7 C157 -7 176 18 176 50 C176 84 156 107 119 107 C84 107 59 86 59 50 C59 16 82 -7 119 -7 L119 -7 Z " />
<glyph glyph-name="quotedbl" unicode="&#x22;" horiz-adv-x="276" d="M221 541 L225 703 L151 703 L155 541 L221 541 Z M121 541 L126 703 L52 703 L56 541 L121 541 Z " />
<glyph glyph-name="numbersign" unicode="&#x23;" horiz-adv-x="686" d="M612 419 L623 488 L487 488 L511 630 L440 630 L416 488 L322 488 L346 630 L275 630 L251 488 L114 488 L103 419 L240 419 L224 325 L87 325 L75 257 L212 257 L187 106 L258 106 L283 257 L378 257 L352 106 L423 106 L448 257 L584 257 L596 325 L460 325 L476 419 L612 419 Z M310 419 L405 419 L389 325 L295 325 L310 419 Z " />
<glyph glyph-name="dollar" unicode="&#x24;" horiz-adv-x="578" d="M328 -5 C481 10 525 92 525 186 C525 318 435 364 328 399 L328 619 C369 613 400 594 437 536 L513 584 C461 671 391 697 328 705 L328 766 L237 766 L237 705 C127 691 56 631 56 528 C56 419 121 374 237 333 L237 81 C177 88 139 110 103 170 L22 124 C73 34 153 2 237 -6 L237 -65 L328 -65 L328 -5 Z M237 619 L237 431 C161 463 151 489 151 530 C151 588 190 611 237 619 L237 619 Z M328 303 C396 279 431 252 431 178 C431 124 411 90 328 81 L328 303 Z " />
<glyph glyph-name="percent" unicode="&#x25;" horiz-adv-x="760" d="M195 391 C292 391 367 455 367 555 C367 653 290 719 195 719 C101 719 22 653 22 555 C22 455 99 391 195 391 L195 391 Z M186 -10 L667 706 L563 706 L77 -10 L186 -10 Z M562 -11 C657 -11 735 57 735 152 C735 246 658 317 562 317 C465 317 391 248 391 152 C391 57 467 -11 562 -11 L562 -11 Z M195 635 C245 635 277 604 277 555 C277 507 243 472 195 472 C147 472 113 507 113 555 C113 604 144 635 195 635 L195 635 Z M562 235 C613 235 644 202 644 152 C644 105 611 72 562 72 C514 72 479 106 479 152 C479 202 512 235 562 235 L562 235 Z " />
<glyph glyph-name="ampersand" unicode="&#x26;" horiz-adv-x="656" d="M552 -1 L684 -1 C613 65 559 117 510 167 C532 202 552 239 577 294 L490 330 C472 287 456 260 443 236 C381 300 316 372 265 435 C236 471 217 497 217 539 C217 584 248 613 296 613 C343 613 368 596 396 547 L468 603 C420 681 376 699 296 699 C198 699 119 633 119 535 C119 486 140 446 168 409 C101 354 35 278 35 186 C35 57 123 -9 249 -9 C340 -9 401 31 455 91 C486 61 516 32 552 -1 L552 -1 Z M224 338 C292 259 336 214 390 157 C351 111 305 80 252 80 C179 80 131 117 131 186 C130 241 168 294 224 338 L224 338 Z " />
<glyph glyph-name="quotesingle" unicode="&#x27;" horiz-adv-x="172" d="M119 541 L123 703 L49 703 L53 541 L119 541 Z " />
<glyph glyph-name="parenleft" unicode="&#x28;" horiz-adv-x="270" d="M133 323 C133 475 162 621 238 798 L144 798 C77 634 45 482 45 322 C45 158 76 10 141 -138 L236 -138 C162 20 133 160 133 323 L133 323 Z " />
<glyph glyph-name="parenright" unicode="&#x29;" horiz-adv-x="271" d="M128 -138 C194 10 226 160 226 324 C226 484 193 634 126 798 L33 798 C106 621 136 475 136 323 C136 160 107 20 33 -138 L128 -138 Z " />
<glyph glyph-name="asterisk" unicode="&#x2a;" horiz-adv-x="463" d="M284 517 L419 509 L419 583 L282 574 L357 682 L291 719 L232 603 L175 720 L108 682 L183 574 L45 584 L45 511 L181 518 L103 411 L168 374 L232 492 L294 373 L359 411 L284 517 Z " />
<glyph glyph-name="plus" unicode="&#x2b;" horiz-adv-x="540" d="M492 305 L492 389 L314 389 L314 565 L225 565 L225 389 L47 389 L47 305 L225 305 L225 127 L314 127 L314 305 L492 305 Z " />
<glyph glyph-name="comma" unicode="&#x2c;" horiz-adv-x="198" d="M77 -127 C118 -85 160 -14 160 40 C160 83 140 107 101 107 C69 107 43 90 43 48 C43 24 58 2 89 -5 C84 -43 66 -76 44 -112 L77 -127 Z " />
<glyph glyph-name="hyphen" unicode="&#x2d;" horiz-adv-x="476" d="M71 243 L404 243 L404 327 L71 327 L71 243 Z " />
<glyph glyph-name="period" unicode="&#x2e;" horiz-adv-x="219" d="M110 -8 C147 -8 167 15 167 50 C167 86 147 106 110 106 C74 106 52 86 52 50 C52 14 73 -8 110 -8 L110 -8 Z " />
<glyph glyph-name="slash" unicode="&#x2f;" horiz-adv-x="423" d="M111 0 L428 720 L330 720 L13 0 L111 0 Z " />
<glyph glyph-name="zero" unicode="0" horiz-adv-x="661" d="M333 -6 C563 -6 600 200 600 353 C600 511 569 712 333 712 C98 712 60 513 60 353 C60 194 99 -6 333 -6 L333 -6 Z M333 626 C481 626 500 494 500 354 C500 215 481 81 333 81 C183 81 160 214 160 354 C160 496 181 626 333 626 L333 626 Z " />
<glyph glyph-name="one" unicode="1" horiz-adv-x="339" d="M140 0 L240 0 L240 652 C240 685 225 711 184 711 C163 711 140 700 126 689 C101 669 72 644 45 622 L45 510 L140 589 L140 0 Z " />
<glyph glyph-name="two" unicode="2" horiz-adv-x="534" d="M55 0 L482 0 L482 89 L164 89 L165 120 C170 204 240 257 335 321 C453 400 480 456 480 534 C480 662 376 713 278 713 C138 713 61 638 56 501 L154 501 C162 586 196 627 277 627 C332 627 377 600 377 534 C377 478 356 450 310 417 C247 373 180 335 129 277 C73 214 59 158 56 77 C56 54 56 29 55 0 L55 0 Z " />
<glyph glyph-name="three" unicode="3" horiz-adv-x="576" d="M268 -8 C395 -8 509 73 509 215 C509 302 465 366 393 400 C435 435 461 479 461 534 C461 653 370 710 269 710 C175 710 103 681 53 576 L137 532 C166 599 207 623 267 623 C322 623 358 588 358 535 C358 480 317 433 242 433 L193 433 L193 345 L247 345 C342 345 405 293 405 215 C405 129 350 82 268 82 C192 82 134 112 107 211 L15 174 C52 43 146 -8 268 -8 L268 -8 Z " />
<glyph glyph-name="four" unicode="4" horiz-adv-x="559" d="M362 0 L457 0 L457 625 C457 686 422 713 377 713 C335 713 305 688 281 656 L5 275 L5 200 L362 200 L362 0 Z M362 615 L362 288 L126 288 L362 615 Z " />
<glyph glyph-name="five" unicode="5" horiz-adv-x="579" d="M278 -9 C432 -9 527 100 527 236 C527 384 426 473 273 473 C238 473 206 469 183 462 L183 598 C183 610 190 618 202 618 L483 618 L483 704 L179 704 C119 704 89 662 89 618 L89 340 C156 373 218 385 271 385 C371 385 428 327 428 235 C428 142 373 80 278 80 C191 80 142 123 106 180 L32 121 C86 36 160 -9 278 -9 L278 -9 Z " />
<glyph glyph-name="six" unicode="6" horiz-adv-x="620" d="M315 -11 C461 -11 565 96 565 234 C565 374 470 473 321 473 C290 473 263 468 236 458 C275 526 331 605 414 704 L296 704 C193 579 69 398 69 234 C69 85 173 -11 315 -11 L315 -11 Z M321 386 C411 386 469 327 469 232 C469 140 406 76 318 76 C228 76 165 136 165 232 C165 325 227 386 321 386 L321 386 Z " />
<glyph glyph-name="seven" unicode="7" horiz-adv-x="500" d="M446 560 C455 582 463 604 463 628 C463 668 438 704 380 704 L9 704 L9 618 L368 618 L98 0 L201 0 C201 0 365 376 446 560 L446 560 Z " />
<glyph glyph-name="eight" unicode="8" horiz-adv-x="597" d="M298 -12 C434 -12 543 79 543 217 C543 303 500 367 432 408 C470 439 492 483 492 540 C492 642 418 716 294 716 C168 716 97 637 97 535 C97 478 120 433 160 403 C96 362 54 299 54 217 C54 78 159 -12 298 -12 L298 -12 Z M294 632 C360 632 397 598 397 537 C397 476 358 438 294 438 C229 438 191 476 191 537 C191 595 227 632 294 632 L294 632 Z M298 358 C385 358 446 300 446 218 C446 136 385 76 298 76 C209 76 150 134 150 218 C150 299 211 358 298 358 L298 358 Z " />
<glyph glyph-name="nine" unicode="9" horiz-adv-x="605" d="M438 183 C490 264 543 351 543 476 C543 623 436 714 300 714 C162 714 54 615 54 477 C54 344 147 246 294 246 C321 246 352 251 380 260 C335 187 269 102 182 0 L301 0 C359 71 413 145 438 183 L438 183 Z M300 629 C389 629 448 570 448 476 C448 381 393 331 294 331 C205 331 149 387 149 480 C149 565 207 629 300 629 L300 629 Z " />
<glyph glyph-name="colon" unicode="&#x3a;" horiz-adv-x="219" d="M110 -8 C147 -8 167 15 167 50 C167 86 147 106 110 106 C74 106 52 86 52 50 C52 14 73 -8 110 -8 L110 -8 Z M110 279 C147 279 167 302 167 337 C167 373 147 393 110 393 C74 393 52 373 52 337 C52 301 73 279 110 279 L110 279 Z " />
<glyph glyph-name="semicolon" unicode="&#x3b;" horiz-adv-x="223" d="M88 -127 C129 -85 171 -14 171 40 C171 83 151 107 112 107 C80 107 54 90 54 48 C54 24 69 2 100 -5 C95 -43 77 -76 55 -112 L88 -127 Z M113 279 C151 279 170 302 170 337 C170 373 150 393 113 393 C77 393 55 373 55 337 C55 301 76 279 113 279 L113 279 Z " />
<glyph glyph-name="less" unicode="&#x3c;" horiz-adv-x="470" d="M445 82 L445 176 L141 350 L445 524 L445 617 L65 399 C13 370 25 321 65 298 L445 82 Z " />
<glyph glyph-name="equal" unicode="&#x3d;" horiz-adv-x="631" d="M570 384 L570 466 L61 466 L61 384 L570 384 Z M570 218 L570 299 L61 299 L61 218 L570 218 Z " />
<glyph glyph-name="greater" unicode="&#x3e;" horiz-adv-x="470" d="M406 298 C445 320 457 369 406 399 L25 617 L25 523 L330 349 L25 175 L25 81 L406 298 Z " />
<glyph glyph-name="question" unicode="&#x3f;" horiz-adv-x="453" d="M311 354 C364 417 423 460 423 551 C423 652 351 712 232 712 C159 712 71 692 21 588 L105 553 C136 609 174 625 230 625 C304 625 328 593 328 552 C328 499 282 458 249 421 C210 376 170 322 170 237 L170 169 L264 169 L264 239 C264 287 284 322 311 354 L311 354 Z M220 -7 C259 -7 278 19 278 52 C278 86 258 110 220 110 C184 110 159 89 159 52 C159 16 183 -7 220 -7 L220 -7 Z " />
<glyph glyph-name="at" unicode="&#x40;" horiz-adv-x="828" d="M402 -38 C530 -38 632 -15 742 54 L706 115 C607 51 516 31 405 31 C250 31 135 126 135 283 C135 456 264 580 440 580 C572 580 670 506 670 377 C670 306 636 196 565 196 C550 196 541 204 541 219 C541 231 545 252 549 268 L589 437 C547 480 506 500 433 500 C311 500 223 398 223 285 C223 197 274 130 375 130 C413 130 455 141 488 160 C507 139 535 132 560 132 C673 132 743 256 743 376 C743 551 604 648 440 648 C224 648 60 497 60 283 C60 79 215 -38 402 -38 L402 -38 Z M430 435 C460 435 489 428 509 411 L464 221 C441 205 407 195 380 195 C323 195 297 231 297 288 C297 354 346 435 430 435 L430 435 Z " />
<glyph glyph-name="A" unicode="A" horiz-adv-x="640" d="M527 0 L629 0 L410 632 C398 668 372 704 319 704 C265 704 242 667 229 632 L9 0 L110 0 L194 249 L443 249 L527 0 Z M319 609 L411 338 L225 338 L319 609 Z " />
<glyph glyph-name="B" unicode="B" horiz-adv-x="598" d="M382 5 C482 23 558 93 558 204 C558 286 509 355 439 382 C489 413 518 467 518 524 C518 624 444 692 350 706 C314 710 250 712 214 706 C138 694 85 639 85 558 L85 0 L312 0 C335 0 366 2 382 5 L382 5 Z M328 619 C383 613 418 577 418 522 C418 467 380 424 326 415 C317 413 302 412 282 412 L180 412 L180 557 C180 603 208 623 251 623 C278 623 302 622 328 619 L328 619 Z M302 327 C405 327 457 278 457 204 C457 136 418 86 318 86 L180 86 L180 327 L302 327 Z " />
<glyph glyph-name="C" unicode="C" horiz-adv-x="668" d="M383 -7 C471 -7 566 15 648 93 L601 168 C543 111 462 83 388 83 C236 83 144 197 144 352 C144 506 235 620 381 620 C458 620 525 581 581 522 L641 593 C560 679 474 709 381 709 C174 709 45 554 45 351 C45 145 174 -7 383 -7 L383 -7 Z " />
<glyph glyph-name="D" unicode="D" horiz-adv-x="704" d="M325 0 C544 0 655 164 655 351 C655 537 540 710 309 710 L266 710 C178 710 90 665 90 558 L90 0 L325 0 Z M310 621 C479 621 557 490 557 351 C557 201 480 104 362 90 C351 88 331 88 314 88 L188 88 L188 556 C188 605 219 621 267 621 L310 621 Z " />
<glyph glyph-name="E" unicode="E" horiz-adv-x="559" d="M85 0 L514 0 L514 88 L182 88 L182 321 L461 321 L461 409 L182 409 L182 537 C182 590 208 616 259 616 L496 616 L496 704 L268 704 C249 704 230 702 224 701 C153 693 101 645 88 580 C86 570 85 555 85 541 L85 0 Z " />
<glyph glyph-name="F" unicode="F" horiz-adv-x="528" d="M254 617 L491 617 L491 704 L259 704 C246 704 225 702 219 701 C147 693 96 645 83 580 C81 570 80 555 80 541 L80 0 L178 0 L178 325 L450 325 L450 413 L178 413 L178 537 C178 590 203 617 254 617 L254 617 Z " />
<glyph glyph-name="G" unicode="G" horiz-adv-x="719" d="M550 16 C622 43 654 79 654 144 L654 362 L394 362 L394 276 L553 276 L553 150 C553 126 545 111 522 101 C488 86 448 77 396 77 C229 77 147 187 147 347 C147 506 233 622 387 622 C459 622 520 599 587 531 L652 596 C571 682 486 710 385 710 C171 710 45 550 45 346 C45 144 161 -10 393 -10 C445 -10 504 -1 550 16 L550 16 Z " />
<glyph glyph-name="H" unicode="H" horiz-adv-x="719" d="M525 0 L626 0 L626 704 L525 704 L525 414 L194 414 L194 704 L93 704 L93 0 L194 0 L194 325 L525 325 L525 0 Z " />
<glyph glyph-name="I" unicode="I" horiz-adv-x="286" d="M93 0 L193 0 L193 704 L93 704 L93 0 Z " />
<glyph glyph-name="J" unicode="J" horiz-adv-x="492" d="M404 161 C406 171 407 186 407 208 L407 704 L309 704 L309 204 C309 134 287 82 197 82 C165 82 118 86 50 119 L50 24 C101 -1 157 -8 200 -8 C315 -8 392 59 404 161 L404 161 Z " />
<glyph glyph-name="K" unicode="K" horiz-adv-x="618" d="M497 0 L610 0 L387 368 C415 385 436 407 452 431 C459 442 469 462 474 473 L577 704 L472 704 L391 519 C387 509 376 488 370 480 C338 431 292 410 224 410 L182 410 L182 704 L85 704 L85 0 L182 0 L182 328 L231 328 C286 328 302 320 323 285 L497 0 Z " />
<glyph glyph-name="L" unicode="L" horiz-adv-x="529" d="M194 0 L509 0 L509 90 L206 90 C190 90 185 101 185 112 L185 704 L85 704 L85 103 C85 40 135 0 194 0 L194 0 Z " />
<glyph glyph-name="M" unicode="M" horiz-adv-x="850" d="M665 0 L760 0 L760 624 C760 671 732 710 677 710 C624 710 596 673 582 641 L425 291 L268 641 C251 680 223 710 174 710 C125 710 90 675 90 625 L90 0 L185 0 L185 599 L385 157 L465 157 L665 599 L665 0 Z " />
<glyph glyph-name="N" unicode="N" horiz-adv-x="731" d="M559 -7 C610 -7 641 35 641 85 L641 705 L546 705 L546 103 L273 638 C253 677 224 710 173 710 C119 710 90 668 90 621 L90 0 L185 0 L185 604 C282 419 370 236 466 51 C485 14 517 -7 559 -7 L559 -7 Z " />
<glyph glyph-name="O" unicode="O" horiz-adv-x="744" d="M374 -12 C589 -12 699 159 699 351 C699 544 589 713 373 713 C148 713 45 544 45 351 C45 158 154 -12 374 -12 L374 -12 Z M373 625 C522 625 599 506 599 352 C599 200 528 76 374 76 C217 76 145 199 145 352 C145 504 217 625 373 625 L373 625 Z " />
<glyph glyph-name="P" unicode="P" horiz-adv-x="570" d="M360 271 C465 295 541 370 541 493 C541 608 463 689 355 706 C340 708 317 709 301 709 L260 709 C244 709 222 708 207 705 C134 691 85 638 85 560 L85 0 L182 0 L182 264 L277 264 C305 264 336 266 360 271 L360 271 Z M345 621 C404 609 445 555 445 492 C445 414 400 365 334 352 C321 350 301 348 277 348 L182 348 L182 564 C182 615 217 624 260 624 L305 624 C317 624 334 623 345 621 L345 621 Z " />
<glyph glyph-name="Q" unicode="Q" horiz-adv-x="763" d="M662 -124 L735 -124 L735 -31 L668 -31 C616 -31 577 -1 545 22 C656 85 712 211 712 347 C712 545 599 712 381 712 C159 712 49 551 49 347 C49 145 163 -19 383 -19 L388 -19 C424 -19 452 -34 481 -53 C543 -92 583 -124 662 -124 L662 -124 Z M382 622 C534 622 611 504 611 348 C611 190 536 72 382 72 C226 72 148 188 148 348 C148 508 225 622 382 622 L382 622 Z " />
<glyph glyph-name="R" unicode="R" horiz-adv-x="625" d="M486 0 L601 0 L415 306 C493 336 549 405 549 501 C549 616 469 687 372 703 C356 706 331 708 310 708 L261 708 C241 708 217 705 200 702 C120 685 85 627 85 556 L85 0 L182 0 L182 289 L274 289 C302 289 318 281 341 243 L486 0 Z M364 617 C414 604 450 558 450 500 C450 420 394 374 311 374 L182 374 L182 557 C182 600 203 622 252 622 L316 622 C333 622 352 620 364 617 L364 617 Z " />
<glyph glyph-name="S" unicode="S" horiz-adv-x="551" d="M269 -8 C451 -8 520 86 520 193 C520 327 414 374 301 411 C175 453 154 489 154 539 C154 584 183 626 278 626 C337 626 390 617 439 559 L505 623 C433 701 382 710 277 710 C134 710 56 636 56 534 C56 419 131 372 225 336 C255 324 287 313 317 302 C370 281 420 252 420 187 C420 130 391 78 278 78 C195 78 142 100 92 172 L21 114 C82 12 178 -8 269 -8 L269 -8 Z " />
<glyph glyph-name="T" unicode="T" horiz-adv-x="525" d="M312 619 L517 619 L517 704 L8 704 L8 619 L213 619 L213 0 L312 0 L312 619 Z " />
<glyph glyph-name="U" unicode="U" horiz-adv-x="699" d="M362 -11 C447 -11 530 3 610 33 L610 704 L510 704 L510 99 C472 87 412 78 371 78 C256 78 203 126 190 185 C188 196 186 217 186 241 L186 704 L85 704 L85 238 C85 201 88 168 97 142 C129 44 225 -11 362 -11 L362 -11 Z " />
<glyph glyph-name="V" unicode="V" horiz-adv-x="650" d="M331 93 C331 94 331 95 330 96 L118 704 L11 704 L236 71 C252 26 279 -6 330 -6 C383 -6 411 29 425 71 L639 704 L536 704 C341 122 332 96 332 96 C332 95 331 94 331 93 L331 93 Z " />
<glyph glyph-name="W" unicode="W" horiz-adv-x="917" d="M660 89 L501 540 L416 540 L259 90 L113 704 L15 704 L165 71 C177 23 208 -4 256 -4 C315 -4 338 35 352 76 L459 385 L566 74 C580 35 602 -4 661 -4 C718 -4 743 34 754 82 L902 704 L806 704 L660 89 Z " />
<glyph glyph-name="X" unicode="X" horiz-adv-x="623" d="M504 0 L619 0 L388 346 C374 368 374 372 386 391 L592 704 L481 704 L314 450 L147 704 L30 704 L241 390 C252 374 253 366 237 342 L8 0 L123 0 L313 287 L504 0 Z " />
<glyph glyph-name="Y" unicode="Y" horiz-adv-x="571" d="M363 354 L569 704 L458 704 L286 405 L113 704 L2 704 L206 354 C221 329 236 300 236 276 L236 0 L335 0 L335 276 C335 303 353 336 363 354 L363 354 Z " />
<glyph glyph-name="Z" unicode="Z" horiz-adv-x="597" d="M123 0 L552 0 L552 90 L156 90 C223 180 409 429 509 564 C535 599 541 617 541 638 C541 686 498 704 459 704 L87 704 L87 614 L426 614 L71 136 C57 117 41 95 41 67 C41 27 72 0 123 0 L123 0 Z " />
<glyph glyph-name="bracketleft" unicode="&#x5b;" horiz-adv-x="244" d="M142 -101 L209 -101 L209 -14 L138 -14 C132 -12 131 -11 131 -2 L131 713 C131 722 132 723 138 724 L209 724 L209 812 L142 812 C88 812 46 769 46 708 L46 3 C46 -58 88 -101 142 -101 L142 -101 Z " />
<glyph glyph-name="backslash" unicode="&#x5c;" horiz-adv-x="413" d="M299 -1 L400 -1 L95 719 L-5 719 L299 -1 Z " />
<glyph glyph-name="bracketright" unicode="&#x5d;" horiz-adv-x="255" d="M176 -81 C203 -61 213 -30 213 3 L213 708 C213 769 172 812 117 812 L50 812 L50 723 L121 723 C128 722 128 721 128 712 L128 -2 C128 -10 127 -12 121 -14 L50 -14 L50 -101 L117 -101 C139 -101 159 -94 176 -81 L176 -81 Z " />
<glyph glyph-name="asciicircum" unicode="&#x5e;" horiz-adv-x="1033" d="M933 485 C884 485 834 468 804 424 L802 424 L802 474 L673 474 L673 -3 L802 -3 L802 224 C802 296 825 370 926 370 C946 370 977 365 996 357 L996 473 C979 480 952 485 933 485 L933 485 Z M321 489 C179 489 72 387 71 237 C71 60 195 -16 323 -16 C411 -16 479 8 523 48 L454 127 C423 103 382 89 336 89 C247 89 206 145 202 199 C324 199 422 199 556 199 C569 289 541 355 541 355 C506 435 433 489 321 489 L321 489 Z M208 296 C220 352 262 389 320 389 C379 389 414 355 425 296 L208 296 Z " />
<glyph glyph-name="underscore" unicode="&#x5f;" horiz-adv-x="536" d="M65 -193 L472 -193 L472 -160 L65 -160 L65 -193 Z " />
<glyph glyph-name="grave" unicode="&#x60;" horiz-adv-x="906" d="M703 344 C759 344 806 359 854 402 L823 445 C781 407 750 396 703 396 C622 396 571 452 571 527 C571 602 623 657 703 657 C743 657 775 642 810 605 L853 642 C807 690 760 709 702 709 C589 709 514 630 514 526 C514 421 589 344 703 344 L703 344 Z M157 628 L252 427 L298 427 L392 628 L392 350 L449 350 L449 663 C449 713 377 728 351 673 L275 508 L198 673 C172 728 100 713 100 663 L100 350 L157 350 L157 628 Z " />
<glyph glyph-name="a" unicode="a" horiz-adv-x="600" d="M300 406 C373 406 434 356 434 277 L434 107 C397 90 349 74 301 74 C193 74 138 140 138 235 C138 331 190 406 300 406 L300 406 Z M443 477 L443 435 C409 470 356 486 296 486 C135 486 42 371 42 233 C42 85 139 -7 292 -7 C341 -7 383 7 424 21 C442 27 441 11 444 0 L528 0 C528 321 528 231 528 477 L443 477 Z " />
<glyph glyph-name="b" unicode="b" horiz-adv-x="600" d="M312 -6 C463 -6 558 107 558 249 C558 393 467 496 321 496 C261 496 203 475 165 437 L165 705 L73 705 L73 0 L165 0 L165 10 C165 31 183 21 194 17 C229 3 260 -6 312 -6 L312 -6 Z M317 410 C415 410 461 340 461 249 C461 151 411 77 307 77 C249 77 213 94 166 116 L166 255 C166 349 230 410 317 410 L317 410 Z " />
<glyph glyph-name="c" unicode="c" horiz-adv-x="523" d="M292 -9 C368 -9 434 9 497 70 L444 137 C390 90 349 74 298 74 C202 74 141 137 141 244 C141 329 201 402 293 402 C349 402 384 384 427 338 L494 394 C438 461 384 485 293 485 C145 485 42 376 42 239 C42 98 134 -9 292 -9 L292 -9 Z " />
<glyph glyph-name="d" unicode="d" horiz-adv-x="598" d="M432 0 L523 0 L523 706 L432 706 L432 454 C396 479 353 495 291 495 C140 495 42 384 42 244 C42 103 125 -6 284 -6 C314 -6 367 4 403 17 C413 21 432 30 432 10 L432 0 Z M429 292 L429 117 C394 92 353 77 291 77 C186 77 139 150 139 246 C139 340 193 411 294 411 C377 411 429 360 429 292 L429 292 Z " />
<glyph glyph-name="e" unicode="e" horiz-adv-x="549" d="M141 213 L515 213 C516 236 513 269 513 272 C505 398 419 488 283 488 C138 488 42 378 42 240 C42 98 132 -9 294 -9 C376 -9 425 2 496 49 L457 120 C403 85 357 73 299 73 C200 73 149 126 141 213 L141 213 Z M283 408 C363 408 401 358 414 289 L144 289 C157 357 207 408 283 408 L283 408 Z " />
<glyph glyph-name="f" unicode="f" horiz-adv-x="365" d="M358 585 L384 665 C325 693 291 695 253 695 C138 695 76 616 76 513 L76 0 L173 0 L173 383 L336 383 L336 470 L173 470 L173 515 C173 580 204 610 260 610 C295 610 322 602 358 585 L358 585 Z " />
<glyph glyph-name="g" unicode="g" horiz-adv-x="598" d="M522 -9 L522 18 L522 291 C522 402 440 484 298 484 C137 484 42 372 42 232 C42 86 125 -16 283 -16 C327 -16 369 -7 415 13 C428 18 428 16 428 8 L428 -14 C428 -112 365 -160 267 -160 C219 -160 162 -147 107 -119 L84 -202 C140 -233 211 -246 268 -246 C426 -246 522 -157 522 -9 L522 -9 Z M426 283 L426 111 C384 85 345 70 287 70 C184 70 140 138 140 233 C140 327 195 399 294 399 C374 399 426 357 426 283 L426 283 Z " />
<glyph glyph-name="h" unicode="h" horiz-adv-x="575" d="M517 0 L517 293 C517 417 442 497 313 497 C264 497 210 481 169 447 L169 704 L73 704 L73 0 L169 0 L169 281 C169 365 229 410 305 410 C381 410 419 364 419 289 L419 0 L517 0 Z " />
<glyph glyph-name="i" unicode="i" horiz-adv-x="263" d="M83 0 L178 0 L178 477 L83 477 L83 0 Z M131 571 C168 571 188 594 188 629 C188 665 168 685 131 685 C94 685 73 665 73 629 C73 593 94 571 131 571 L131 571 Z " />
<glyph glyph-name="j" unicode="j" horiz-adv-x="257" d="M132 571 C170 571 190 594 190 629 C190 665 169 685 132 685 C96 685 74 665 74 629 C74 593 95 571 132 571 L132 571 Z M-69 -238 C135 -251 179 -144 179 -40 L179 477 L84 477 L84 -36 C84 -92 84 -160 -64 -149 L-69 -238 Z " />
<glyph glyph-name="k" unicode="k" horiz-adv-x="522" d="M413 0 L528 0 L355 262 C384 283 406 311 424 348 L486 477 L381 477 L345 399 C304 309 272 307 194 307 L168 307 L168 704 L73 704 L73 0 L168 0 L168 222 L236 222 C265 222 272 217 294 183 L413 0 Z " />
<glyph glyph-name="l" unicode="l" horiz-adv-x="241" d="M73 0 L166 0 L166 703 L73 703 L73 0 Z " />
<glyph glyph-name="m" unicode="m" horiz-adv-x="864" d="M706 0 L803 0 L803 301 C803 427 732 485 608 485 C542 485 485 467 445 436 C410 469 356 485 287 485 C208 485 142 459 76 419 L76 0 L172 0 L172 373 C202 388 246 402 286 402 C366 402 391 378 391 315 L391 0 L488 0 L488 338 C488 367 530 402 603 402 C688 402 706 368 706 294 L706 0 Z " />
<glyph glyph-name="n" unicode="n" horiz-adv-x="562" d="M407 0 L504 0 L504 298 C504 426 422 485 286 485 C214 485 134 460 70 417 L70 0 L166 0 L166 371 C194 387 239 401 281 401 C370 401 407 362 407 286 L407 0 Z " />
<glyph glyph-name="o" unicode="o" horiz-adv-x="597" d="M298 -8 C449 -8 553 100 553 240 C553 380 449 488 298 488 C150 488 44 376 44 240 C44 103 149 -8 298 -8 L298 -8 Z M298 406 C392 406 457 329 457 241 C457 145 393 75 298 75 C199 75 140 149 140 241 C140 333 200 406 298 406 L298 406 Z " />
<glyph glyph-name="p" unicode="p" horiz-adv-x="585" d="M282 -14 C460 -14 539 110 539 239 C539 394 436 486 293 486 C143 486 54 392 54 265 L54 -199 L151 -199 L151 13 C195 -7 238 -14 282 -14 L282 -14 Z M292 399 C388 399 440 331 440 239 C440 142 391 70 286 70 C237 70 198 79 151 104 L151 258 C151 345 197 399 292 399 L292 399 Z " />
<glyph glyph-name="q" unicode="q" horiz-adv-x="600" d="M530 -202 L579 -202 L579 -122 L549 -122 C532 -122 526 -112 526 -97 L526 280 C526 416 426 484 298 485 C147 485 42 376 42 234 C42 87 135 -13 289 -13 C339 -13 389 -2 429 15 C429 -7 429 -67 429 -104 C429 -166 464 -202 530 -202 L530 -202 Z M296 399 C381 399 429 355 429 277 L429 101 C383 82 343 72 292 72 C186 72 139 143 139 237 C139 329 198 399 296 399 L296 399 Z " />
<glyph glyph-name="r" unicode="r" horiz-adv-x="413" d="M370 368 L427 430 C373 485 317 487 262 487 C189 487 68 460 68 370 L68 0 L164 0 L164 345 C164 372 172 384 197 394 C218 402 241 407 265 407 C298 407 338 398 370 368 L370 368 Z " />
<glyph glyph-name="s" unicode="s" horiz-adv-x="484" d="M234 -12 C395 -12 446 45 446 127 C446 226 352 263 265 286 C156 314 149 339 149 362 C149 400 197 410 238 410 C291 410 331 400 356 353 L437 392 C387 485 299 489 242 489 C135 489 55 448 55 358 C55 268 131 235 205 211 C224 205 242 200 260 194 C277 189 294 183 308 176 C335 163 353 146 353 121 C353 95 336 68 239 68 C170 68 137 83 110 132 L28 91 C69 8 152 -12 234 -12 L234 -12 Z " />
<glyph glyph-name="t" unicode="t" horiz-adv-x="370" d="M236 -5 C272 -5 316 -1 359 18 L359 98 C311 82 276 80 247 80 C195 80 165 113 165 163 L165 391 L324 391 L324 477 L165 477 L165 603 L70 603 L70 156 C70 59 134 -5 236 -5 L236 -5 Z " />
<glyph glyph-name="u" unicode="u" horiz-adv-x="558" d="M286 -12 C355 -12 426 3 488 30 L488 477 L393 477 L393 88 C362 79 317 72 292 72 C182 72 154 121 154 184 L154 477 L58 477 L58 183 C58 57 131 -12 286 -12 L286 -12 Z " />
<glyph glyph-name="v" unicode="v" horiz-adv-x="526" d="M367 81 L522 477 L422 477 L280 100 C273 81 263 82 256 100 L108 477 L4 477 L167 82 C184 40 209 -6 267 -6 C327 -6 352 43 367 81 L367 81 Z " />
<glyph glyph-name="w" unicode="w" horiz-adv-x="798" d="M652 65 L790 477 L693 477 L570 93 C567 82 558 83 555 93 L441 477 L362 477 L243 92 C240 82 232 82 228 92 L106 477 L8 477 L143 66 C156 27 182 -6 234 -6 C288 -6 314 33 325 70 L399 301 L470 69 C483 24 509 -6 560 -6 C612 -6 638 23 652 65 L652 65 Z " />
<glyph glyph-name="x" unicode="x" horiz-adv-x="551" d="M412 0 L529 0 L351 229 C334 251 336 257 347 272 L507 477 L393 477 L272 322 L151 477 L35 477 L197 272 C209 256 211 251 194 229 L16 0 L131 0 L271 182 L412 0 Z " />
<glyph glyph-name="y" unicode="y" horiz-adv-x="588" d="M266 -245 C424 -245 516 -157 516 -6 L516 477 L421 477 L421 99 C378 81 328 73 290 73 C196 73 163 124 163 192 L163 477 L68 477 L68 189 C68 55 152 -9 286 -9 C336 -9 384 0 421 16 L421 -11 C421 -110 362 -160 264 -160 C217 -160 164 -151 108 -124 L84 -205 C141 -233 209 -245 266 -245 L266 -245 Z " />
<glyph glyph-name="z" unicode="z" horiz-adv-x="469" d="M112 0 L420 0 L420 79 L155 79 C155 79 328 288 382 356 C403 381 411 399 411 420 C411 458 378 477 343 477 L73 477 L73 398 L302 398 L78 127 C63 109 44 85 44 57 C44 17 78 0 112 0 L112 0 Z " />
<glyph glyph-name="braceleft" unicode="&#x7b;" horiz-adv-x="359" d="M140 56 C140 -51 218 -111 336 -111 L336 -22 C262 -22 234 -2 234 53 L234 248 C234 311 197 340 165 354 C195 368 234 393 234 459 L234 655 C234 710 263 730 336 730 L336 817 C218 817 140 759 140 651 L140 470 C140 418 110 396 38 396 L38 311 C108 311 140 288 140 237 L140 56 Z " />
<glyph glyph-name="bar" unicode="&#x7c;" horiz-adv-x="222" d="M66 -52 L155 -52 L155 805 L66 805 L66 -52 Z " />
<glyph glyph-name="braceright" unicode="&#x7d;" horiz-adv-x="381" d="M242 237 C242 288 274 311 344 311 L344 396 C273 396 242 418 242 470 L242 651 C242 759 164 817 46 817 L46 730 C120 730 148 710 148 655 L148 459 C148 393 187 368 218 354 C186 340 148 311 148 248 L148 53 C148 -2 120 -22 46 -22 L46 -111 C165 -111 242 -51 242 56 L242 237 Z " />
<glyph glyph-name="asciitilde" unicode="&#x7e;" horiz-adv-x="903" d="M672 350 C785 350 842 433 842 526 C842 621 782 705 670 705 L612 705 C562 705 524 677 524 628 C524 456 524 498 524 406 C524 372 551 350 584 350 L672 350 Z M157 628 L252 427 L298 427 L392 628 L392 350 L449 350 L449 663 C449 718 377 728 351 673 L275 508 L198 673 C172 728 100 717 100 663 L100 350 L157 350 L157 628 Z M670 656 C746 656 783 597 783 526 C783 455 747 401 671 401 C644 401 611 401 584 401 C584 401 584 554 584 629 C584 646 596 656 617 656 L670 656 Z " />
<glyph glyph-name="nbspace" unicode="&#xa0;" horiz-adv-x="333" d="" />
<glyph glyph-name="exclamdown" unicode="&#xa1;" horiz-adv-x="235" d="M161 500 L74 500 L74 -43 L161 -43 L161 500 Z M116 688 C78 688 59 662 59 630 C59 597 79 574 116 574 C151 574 176 594 176 630 C176 665 152 688 116 688 L116 688 Z " />
<glyph glyph-name="cent" unicode="&#xa2;" horiz-adv-x="504" d="M316 -10 C387 -4 438 23 491 80 L439 143 C393 98 358 81 316 76 L316 402 C356 395 384 375 420 334 L484 392 C431 453 391 480 316 487 L316 542 L228 542 L228 484 C108 462 29 362 29 239 C29 113 101 14 228 -7 L228 -72 L316 -72 L316 -10 Z M228 399 L228 80 C163 100 122 156 122 244 C122 317 163 378 228 399 L228 399 Z " />
<glyph glyph-name="sterling" unicode="&#xa3;" horiz-adv-x="478" d="M65 0 L468 0 L468 87 L160 87 L160 296 L337 296 L337 383 L160 383 C160 412 160 456 160 479 C157 551 199 595 269 595 C332 595 374 567 409 523 L469 592 C405 664 361 682 269 682 C143 682 64 600 65 477 C65 365 65 0 65 0 L65 0 Z " />
<glyph glyph-name="currency" unicode="&#xa4;" horiz-adv-x="410" d="M346 220 L301 266 C318 286 326 312 326 341 C326 369 318 393 303 413 L343 454 L321 477 L281 436 C260 452 236 459 209 459 C180 459 155 451 133 434 L87 479 L65 457 L112 411 C98 391 91 368 91 341 C91 314 98 289 114 270 L68 224 L91 200 L136 246 C157 231 181 223 209 223 C235 223 258 230 278 244 L324 197 L346 220 Z M296 342 C296 315 289 293 273 276 C257 259 236 250 209 250 C181 250 160 259 144 276 C128 293 121 315 121 342 C121 369 129 392 144 408 C160 425 181 433 209 433 C236 433 256 425 272 408 C288 390 296 369 296 342 L296 342 Z " />
<glyph glyph-name="yen" unicode="&#xa5;" horiz-adv-x="570" d="M285 391 L121 702 L21 702 L189 381 L56 381 L56 298 L238 298 L238 222 L56 222 L56 138 L238 138 L238 0 L332 0 L332 138 L514 138 L514 222 L332 222 L332 298 L514 298 L514 381 L382 381 L548 702 L451 702 L285 391 Z " />
<glyph glyph-name="brokenbar" unicode="&#xa6;" horiz-adv-x="165" d="M101 324 L101 626 L65 626 L65 324 L101 324 Z M101 -71 L101 227 L65 227 L65 -71 L101 -71 Z " />
<glyph glyph-name="section" unicode="&#xa7;" horiz-adv-x="498" d="M235 -65 C413 -65 463 10 463 98 C463 136 450 166 428 192 C450 219 463 253 463 286 C463 411 335 442 244 476 C226 483 208 491 194 499 C164 516 145 532 145 567 C145 609 186 630 249 630 C307 630 353 612 383 560 L457 604 C404 702 314 707 250 707 C131 707 51 657 51 560 C51 525 60 496 80 471 C59 448 45 417 45 383 C45 285 112 237 232 196 C336 161 369 136 369 91 C369 42 336 18 242 18 C164 18 123 40 86 91 L11 41 C64 -41 146 -65 235 -65 L235 -65 Z M247 380 C326 353 366 327 366 282 C366 270 361 257 354 247 C325 262 295 273 265 283 C149 323 139 356 139 387 C139 397 147 414 153 422 C181 408 212 392 247 380 L247 380 Z " />
<glyph glyph-name="dieresis" unicode="&#xa8;" horiz-adv-x="335" d="M123 621 C123 658 105 676 69 676 C32 676 13 658 13 621 C13 584 32 564 69 564 C105 564 123 584 123 621 L123 621 Z M322 621 C322 658 304 676 268 676 C231 676 212 658 212 621 C212 584 231 564 268 564 C304 564 322 584 322 621 L322 621 Z " />
<glyph glyph-name="copyright" unicode="&#xa9;" horiz-adv-x="647" d="M324 155 C502 155 618 275 618 444 C618 614 502 733 324 733 C145 733 29 614 29 444 C29 275 145 155 324 155 L324 155 Z M324 670 C465 670 553 580 553 444 C553 308 465 218 324 218 C182 218 95 308 95 444 C95 580 182 670 324 670 L324 670 Z M421 512 L463 552 C423 603 376 616 327 616 C220 616 157 538 157 445 C157 351 220 275 327 275 C372 275 426 292 463 334 L430 375 C396 341 363 332 328 332 C257 332 218 380 218 446 C218 511 257 560 327 560 C360 560 392 548 421 512 L421 512 Z " />
<glyph glyph-name="ordfeminine" unicode="&#xaa;" horiz-adv-x="427" d="M298 293 L358 293 L358 577 L297 577 L297 555 C274 573 243 581 213 581 C125 581 65 522 65 434 C65 346 128 288 213 288 C243 288 274 297 298 318 L298 293 Z M215 526 C273 526 300 491 300 433 C300 381 264 344 215 344 C161 344 128 380 128 435 C128 489 161 526 215 526 L215 526 Z " />
<glyph glyph-name="guillemotleft" unicode="&#xab;" horiz-adv-x="556" d="M294 86 L140 272 L294 458 L184 458 L29 272 L184 86 L294 86 Z M510 86 L355 272 L510 458 L397 458 L243 272 L397 86 L510 86 Z " />
<glyph glyph-name="logicalnot" unicode="&#xac;" horiz-adv-x="589" d="M542 305 L542 389 L49 389 L49 305 L542 305 Z " />
<glyph glyph-name="registered" unicode="&#xae;" horiz-adv-x="646" d="M323 155 C501 155 617 275 617 444 C617 614 501 733 323 733 C144 733 29 614 29 444 C29 275 144 155 323 155 L323 155 Z M323 670 C464 670 552 580 552 444 C552 309 464 218 323 218 C181 218 94 308 94 444 C94 580 181 670 323 670 L323 670 Z M399 287 L466 287 L380 422 C418 439 443 473 443 517 C443 585 387 619 326 619 L297 619 C254 619 211 592 211 544 L211 287 L270 287 L270 416 L303 416 C317 416 321 413 330 398 C355 358 399 287 399 287 L399 287 Z M327 568 C358 568 383 550 383 516 C383 483 361 465 323 465 L270 465 L270 544 C270 560 280 569 299 569 L327 568 Z " />
<glyph glyph-name="macron" unicode="&#xaf;" horiz-adv-x="360" d="M298 534 L298 582 L62 582 L62 534 L298 534 Z " />
<glyph glyph-name="degree" unicode="&#xb0;" horiz-adv-x="320" d="M160 561 C221 561 270 610 270 671 C270 732 221 781 160 781 C99 781 50 732 50 671 C50 610 99 561 160 561 L160 561 Z M160 725 C190 725 214 701 214 671 C214 641 190 617 160 617 C130 617 106 641 106 671 C106 701 130 725 160 725 L160 725 Z " />
<glyph glyph-name="plusminus" unicode="&#xb1;" horiz-adv-x="489" d="M432 368 L432 453 L286 453 L286 599 L204 599 L204 453 L59 453 L59 368 L204 368 L204 222 L286 222 L286 368 L432 368 Z M432 100 L432 183 L60 183 L60 100 L432 100 Z " />
<glyph glyph-name="twosuperior" unicode="&#xb2;" horiz-adv-x="400" d="M199 644 C245 644 272 625 272 576 C272 533 221 502 188 484 C129 452 83 401 83 330 L84 264 L314 264 L314 307 L130 307 L130 344 C130 388 173 429 204 445 C274 482 319 522 319 578 C319 656 272 688 199 688 C136 688 95 659 77 594 L119 578 C131 625 156 644 199 644 L199 644 Z " />
<glyph glyph-name="threesuperior" unicode="&#xb3;" horiz-adv-x="434" d="M218 255 C292 255 357 306 357 392 C357 446 329 488 285 507 C314 528 329 557 329 589 C329 656 275 694 217 694 C160 694 119 665 97 598 L146 582 C160 627 180 645 217 645 C251 645 274 624 274 590 C274 554 251 522 207 522 L178 522 L178 475 L210 475 C266 475 302 444 302 393 C302 338 268 304 218 304 C169 304 141 321 124 391 L74 377 C96 284 146 255 218 255 L218 255 Z " />
<glyph glyph-name="acute" unicode="&#xb4;" horiz-adv-x="306" d="M129 555 L271 702 L158 702 L50 555 L129 555 Z " />
<glyph glyph-name="mu1" unicode="&#xb5;" horiz-adv-x="512" d="M380 167 L380 385 L344 385 L344 156 C344 118 334 86 312 62 C302 51 292 42 279 36 C276 35 272 33 269 31 C255 26 240 23 222 23 C185 23 155 36 132 62 C111 86 100 118 100 156 L100 385 L99 385 L99 386 L65 386 L65 -180 L99 -180 L99 51 C127 12 169 -7 222 -7 L238 -7 C236 -13 236 -20 236 -26 C236 -74 315 -98 375 -98 L375 -72 C330 -70 274 -57 270 -28 C269 -21 268 -15 271 -10 C274 -2 279 0 286 4 C307 12 325 25 340 43 C366 74 380 116 380 167 L380 167 Z " />
<glyph glyph-name="paragraph" unicode="&#xb6;" horiz-adv-x="487" d="M331 -52 L398 -52 L398 516 C398 570 366 607 308 607 L201 607 C113 607 50 543 50 451 C50 348 123 298 207 295 L207 -52 L274 -52 L274 542 L308 542 C327 539 331 532 331 517 L331 -52 Z " />
<glyph glyph-name="periodcentered" unicode="&#xb7;" horiz-adv-x="219" d="M110 229 C147 229 167 252 167 287 C167 323 147 344 110 344 C74 344 52 323 52 287 C52 252 73 229 110 229 L110 229 Z " />
<glyph glyph-name="cedilla" unicode="&#xb8;" horiz-adv-x="346" d="M102 -107 C127 -97 150 -98 164 -98 C184 -98 202 -111 202 -131 C202 -148 183 -166 155 -166 C137 -167 106 -166 58 -145 L43 -197 C90 -220 123 -225 154 -225 C208 -225 273 -197 273 -127 C273 -76 232 -46 182 -47 L198 29 L133 32 L102 -107 L102 -107 Z " />
<glyph glyph-name="onesuperior" unicode="&#xb9;" horiz-adv-x="246" d="M168 262 L168 633 C168 669 151 677 122 657 L79 628 L79 584 L129 617 L129 262 L168 262 Z " />
<glyph glyph-name="ordmasculine" unicode="&#xba;" horiz-adv-x="363" d="M182 291 C267 291 326 351 326 436 C326 522 269 580 182 580 C97 580 37 519 37 436 C37 352 97 291 182 291 L182 291 Z M182 525 C232 525 265 488 265 437 C265 386 232 349 182 349 C132 349 99 387 99 437 C99 486 133 525 182 525 L182 525 Z " />
<glyph glyph-name="guillemotright" unicode="&#xbb;" horiz-adv-x="556" d="M371 86 L527 272 L371 458 L261 458 L416 272 L261 86 L371 86 Z M159 86 L313 272 L159 458 L46 458 L201 272 L46 86 L159 86 Z " />
<glyph glyph-name="onequarter" unicode="&#xbc;" horiz-adv-x="806" d="M727 111 L727 156 L672 156 L672 425 L625 425 L447 179 C440 169 435 159 435 146 C435 121 458 111 484 111 L624 111 L624 0 L672 0 L672 111 L727 111 Z M606 695 L564 695 L103 -12 L145 -12 L606 695 Z M624 156 L490 156 L489 156 L624 344 L624 156 Z M168 262 L168 633 C168 669 151 677 122 657 L79 628 L79 584 L129 617 L129 262 L168 262 Z " />
<glyph glyph-name="onehalf" unicode="&#xbd;" horiz-adv-x="812" d="M612 380 C569 380 544 361 532 314 L490 330 C508 395 549 424 612 424 C685 424 732 392 732 314 C732 258 687 218 617 181 C586 165 543 124 543 80 L543 43 L728 43 L728 0 L497 0 L496 66 C496 137 542 188 601 220 C634 238 685 269 685 312 C685 361 658 380 612 380 L612 380 Z M606 695 L564 695 L103 -12 L145 -12 L606 695 Z M168 262 L168 633 C168 669 151 677 122 657 L79 628 L79 584 L129 617 L129 262 L168 262 Z " />
<glyph glyph-name="threequarters" unicode="&#xbe;" horiz-adv-x="839" d="M762 111 L762 156 L707 156 L707 425 L660 425 L481 179 C474 169 469 159 469 146 C469 121 492 111 519 111 L658 111 L658 0 L707 0 L707 111 L762 111 Z M698 695 L657 695 L197 -12 L237 -12 L698 695 Z M658 156 L524 156 L522 156 L658 344 L658 156 Z M218 255 C292 255 357 306 357 392 C357 446 329 488 285 507 C314 528 329 557 329 589 C329 656 275 694 217 694 C160 694 119 665 97 598 L146 582 C160 627 180 645 217 645 C251 645 274 624 274 590 C274 554 251 522 207 522 L178 522 L178 475 L210 475 C266 475 302 444 302 393 C302 338 268 304 218 304 C169 304 141 321 124 391 L74 377 C96 284 146 255 218 255 L218 255 Z " />
<glyph glyph-name="questiondown" unicode="&#xbf;" horiz-adv-x="453" d="M137 316 C84 253 25 209 25 119 C25 17 97 -42 216 -42 C289 -42 377 -23 427 81 L343 117 C312 60 274 45 218 45 C144 45 120 77 120 118 C120 171 166 212 199 249 C238 293 278 347 278 433 L278 500 L184 500 L184 431 C184 382 164 348 137 316 L137 316 Z M228 690 C189 690 170 664 170 631 C170 596 190 573 228 573 C264 573 289 594 289 631 C289 666 265 690 228 690 L228 690 Z " />
<glyph glyph-name="Agrave" unicode="&#xc0;" horiz-adv-x="640" d="M390 772 L282 919 L169 919 L311 772 L390 772 Z M527 0 L629 0 L410 632 C398 668 372 704 319 704 C265 704 242 667 229 632 L9 0 L110 0 L194 249 L443 249 L527 0 Z M319 609 L411 338 L225 338 L319 609 Z " />
<glyph glyph-name="Aacute" unicode="&#xc1;" horiz-adv-x="640" d="M315 772 L457 919 L344 919 L236 772 L315 772 Z M527 0 L629 0 L410 632 C398 668 372 704 319 704 C265 704 242 667 229 632 L9 0 L110 0 L194 249 L443 249 L527 0 Z M319 609 L411 338 L225 338 L319 609 Z " />
<glyph glyph-name="Acircumflex" unicode="&#xc2;" horiz-adv-x="640" d="M408 771 L491 771 L377 894 C345 929 296 931 263 896 L148 771 L230 771 L319 852 L408 771 Z M527 0 L629 0 L410 632 C398 668 372 704 319 704 C265 704 242 667 229 632 L9 0 L110 0 L194 249 L443 249 L527 0 Z M319 609 L411 338 L225 338 L319 609 Z " />
<glyph glyph-name="Atilde" unicode="&#xc3;" horiz-adv-x="640" d="M403 768 C439 772 472 796 496 832 L459 872 C439 843 412 833 398 830 C352 820 322 882 245 869 C205 862 180 842 154 806 L193 767 C212 795 237 803 252 806 C302 815 319 757 403 768 L403 768 Z M527 0 L629 0 L410 632 C398 668 372 704 319 704 C265 704 242 667 229 632 L9 0 L110 0 L194 249 L443 249 L527 0 Z M319 609 L411 338 L225 338 L319 609 Z " />
<glyph glyph-name="Adieresis" unicode="&#xc4;" horiz-adv-x="640" d="M474 823 C474 860 457 878 420 878 C383 878 364 860 364 823 C364 786 383 766 420 766 C457 766 474 786 474 823 L474 823 Z M275 823 C275 860 258 878 221 878 C184 878 165 860 165 823 C165 786 184 766 221 766 C258 766 275 786 275 823 L275 823 Z M527 0 L629 0 L410 632 C398 668 372 704 319 704 C265 704 242 667 229 632 L9 0 L110 0 L194 249 L443 249 L527 0 Z M319 609 L411 338 L225 338 L319 609 Z " />
<glyph glyph-name="Aring" unicode="&#xc5;" horiz-adv-x="640" d="M320 756 C381 756 430 805 430 866 C430 927 381 976 320 976 C259 976 210 927 210 866 C210 805 259 756 320 756 L320 756 Z M320 920 C350 920 374 896 374 866 C374 836 350 812 320 812 C290 812 266 836 266 866 C266 896 290 920 320 920 L320 920 Z M527 0 L629 0 L410 632 C398 668 372 704 319 704 C265 704 242 667 229 632 L9 0 L110 0 L194 249 L443 249 L527 0 Z M319 609 L411 338 L225 338 L319 609 Z " />
<glyph glyph-name="AE" unicode="&#xc6;" horiz-adv-x="927" d="M573 0 L897 0 L897 88 L572 88 C559 91 559 94 559 100 L559 312 L858 312 L858 397 L559 397 L559 615 L897 615 L897 703 L526 703 C458 703 433 667 404 623 L-13 0 L95 0 L303 310 L461 310 L461 102 C461 42 513 0 573 0 L573 0 Z M461 550 L461 397 L360 397 C384 434 430 503 461 550 L461 550 Z " />
<glyph glyph-name="Ccedilla" unicode="&#xc7;" horiz-adv-x="704" d="M517 -130 C517 -79 476 -49 426 -50 L433 -13 C517 -10 611 20 686 95 L625 172 C565 103 484 76 414 76 C263 76 171 190 171 347 C171 504 261 617 410 617 C480 617 548 585 610 517 L676 590 C594 681 508 709 413 709 C201 709 67 551 67 345 C67 156 178 6 367 -13 L346 -110 C371 -100 395 -100 409 -100 C429 -100 446 -114 446 -134 C446 -151 427 -169 399 -169 C381 -170 350 -169 302 -148 L287 -200 C334 -223 366 -228 398 -228 C452 -228 517 -200 517 -130 L517 -130 Z " />
<glyph glyph-name="Egrave" unicode="&#xc8;" horiz-adv-x="559" d="M377 772 L269 919 L156 919 L298 772 L377 772 Z M85 0 L514 0 L514 88 L182 88 L182 321 L461 321 L461 409 L182 409 L182 537 C182 590 208 616 259 616 L496 616 L496 704 L268 704 C249 704 230 702 224 701 C153 693 101 645 88 580 C86 570 85 555 85 541 L85 0 Z " />
<glyph glyph-name="Eacute" unicode="&#xc9;" horiz-adv-x="559" d="M297 772 L439 919 L326 919 L218 772 L297 772 Z M85 0 L514 0 L514 88 L182 88 L182 321 L461 321 L461 409 L182 409 L182 537 C182 590 208 616 259 616 L496 616 L496 704 L268 704 C249 704 230 702 224 701 C153 693 101 645 88 580 C86 570 85 555 85 541 L85 0 Z " />
<glyph glyph-name="Ecircumflex" unicode="&#xca;" horiz-adv-x="559" d="M388 771 L471 771 L357 894 C325 929 276 931 243 896 L128 771 L210 771 L299 852 L388 771 Z M85 0 L514 0 L514 88 L182 88 L182 321 L461 321 L461 409 L182 409 L182 537 C182 590 208 616 259 616 L496 616 L496 704 L268 704 C249 704 230 702 224 701 C153 693 101 645 88 580 C86 570 85 555 85 541 L85 0 Z " />
<glyph glyph-name="Edieresis" unicode="&#xcb;" horiz-adv-x="559" d="M256 828 C256 865 239 883 202 883 C165 883 146 865 146 828 C146 791 165 771 202 771 C239 771 256 791 256 828 L256 828 Z M455 828 C455 865 438 883 401 883 C364 883 345 865 345 828 C345 791 364 771 401 771 C438 771 455 791 455 828 L455 828 Z M85 0 L514 0 L514 88 L182 88 L182 321 L461 321 L461 409 L182 409 L182 537 C182 590 208 616 259 616 L496 616 L496 704 L268 704 C249 704 230 702 224 701 C153 693 101 645 88 580 C86 570 85 555 85 541 L85 0 Z " />
<glyph glyph-name="Igrave" unicode="&#xcc;" horiz-adv-x="287" d="M210 772 L102 919 L-11 919 L131 772 L210 772 Z M93 0 L193 0 L193 704 L93 704 L93 0 Z " />
<glyph glyph-name="Iacute" unicode="&#xcd;" horiz-adv-x="291" d="M149 772 L291 919 L178 919 L70 772 L149 772 Z M96 0 L196 0 L196 704 L96 704 L96 0 Z " />
<glyph glyph-name="Icircumflex" unicode="&#xce;" horiz-adv-x="290" d="M232 771 L315 771 L201 894 C169 929 120 931 87 896 L-28 771 L54 771 L143 852 L232 771 Z M93 0 L193 0 L193 704 L93 704 L93 0 Z " />
<glyph glyph-name="Idieresis" unicode="&#xcf;" horiz-adv-x="285" d="M297 828 C297 865 279 883 243 883 C206 883 187 865 187 828 C187 791 206 771 243 771 C279 771 297 791 297 828 L297 828 Z M98 828 C98 865 80 883 44 883 C7 883 -12 865 -12 828 C-12 791 7 771 44 771 C80 771 98 791 98 828 L98 828 Z M92 0 L193 0 L193 704 L92 704 L92 0 Z " />
<glyph glyph-name="Eth" unicode="&#xd0;" horiz-adv-x="599" d="M535 290 C535 372 513 441 470 496 C423 555 360 585 280 585 L183 585 C162 585 144 579 131 566 C118 554 112 538 112 517 L112 317 L65 317 L65 284 L112 284 L113 68 C113 47 120 29 138 17 C152 7 167 1 184 1 L294 1 C375 1 436 31 478 88 C516 139 535 206 535 290 L535 290 Z M497 290 C497 216 482 157 451 112 C415 61 363 33 292 34 L180 35 C160 38 149 50 149 68 L149 284 L326 284 L326 317 L149 317 L148 517 C148 536 159 547 179 551 L278 551 C349 551 403 524 443 471 C478 424 497 365 497 290 L497 290 Z " />
<glyph glyph-name="Ntilde" unicode="&#xd1;" horiz-adv-x="731" d="M558 -7 C609 -7 641 30 641 80 L641 705 L546 705 L546 103 L273 638 C253 677 224 710 173 710 C119 710 90 671 90 624 L90 0 L185 0 L185 604 C282 419 372 232 468 47 C487 10 518 -7 558 -7 L558 -7 Z M443 768 C479 772 512 796 536 832 L498 875 C478 846 451 836 437 833 C391 823 361 885 284 872 C244 865 219 845 193 809 L233 767 C252 795 277 803 292 806 C342 815 359 757 443 768 L443 768 Z " />
<glyph glyph-name="Ograve" unicode="&#xd2;" horiz-adv-x="744" d="M467 772 L359 919 L246 919 L388 772 L467 772 Z M374 -12 C589 -12 699 159 699 351 C699 544 589 713 373 713 C148 713 45 544 45 351 C45 158 154 -12 374 -12 L374 -12 Z M373 625 C522 625 599 506 599 352 C599 200 528 76 374 76 C217 76 145 199 145 352 C145 504 217 625 373 625 L373 625 Z " />
<glyph glyph-name="Oacute" unicode="&#xd3;" horiz-adv-x="744" d="M378 772 L520 919 L407 919 L299 772 L378 772 Z M374 -12 C589 -12 699 159 699 351 C699 544 589 713 373 713 C148 713 45 544 45 351 C45 158 154 -12 374 -12 L374 -12 Z M373 625 C522 625 599 506 599 352 C599 200 528 76 374 76 C217 76 145 199 145 352 C145 504 217 625 373 625 L373 625 Z " />
<glyph glyph-name="Ocircumflex" unicode="&#xd4;" horiz-adv-x="744" d="M460 771 L543 771 L429 894 C397 929 348 931 315 896 L200 771 L282 771 L371 852 L460 771 Z M374 -12 C589 -12 699 159 699 351 C699 544 589 713 373 713 C148 713 45 544 45 351 C45 158 154 -12 374 -12 L374 -12 Z M373 625 C522 625 599 506 599 352 C599 200 528 76 374 76 C217 76 145 199 145 352 C145 504 217 625 373 625 L373 625 Z " />
<glyph glyph-name="Otilde" unicode="&#xd5;" horiz-adv-x="744" d="M458 768 C494 772 527 796 551 832 L514 872 C494 843 467 833 453 830 C407 820 377 882 300 869 C260 862 235 842 209 806 L248 767 C267 795 292 803 307 806 C357 815 374 757 458 768 L458 768 Z M374 -12 C589 -12 699 159 699 351 C699 544 589 713 373 713 C148 713 45 544 45 351 C45 158 154 -12 374 -12 L374 -12 Z M373 625 C522 625 599 506 599 352 C599 200 528 76 374 76 C217 76 145 199 145 352 C145 504 217 625 373 625 L373 625 Z " />
<glyph glyph-name="Odieresis" unicode="&#xd6;" horiz-adv-x="744" d="M326 823 C326 860 309 878 272 878 C235 878 216 860 216 823 C216 786 235 766 272 766 C309 766 326 786 326 823 L326 823 Z M525 823 C525 860 508 878 471 878 C434 878 415 860 415 823 C415 786 434 766 471 766 C508 766 525 786 525 823 L525 823 Z M374 -12 C589 -12 699 159 699 351 C699 544 589 713 373 713 C148 713 45 544 45 351 C45 158 154 -12 374 -12 L374 -12 Z M373 625 C522 625 599 506 599 352 C599 200 528 76 374 76 C217 76 145 199 145 352 C145 504 217 625 373 625 L373 625 Z " />
<glyph glyph-name="multiply" unicode="&#xd7;" horiz-adv-x="520" d="M456 -4 L482 23 L285 220 L480 416 L454 442 L258 246 L63 442 L37 416 L233 221 L38 25 L63 -2 L259 194 L456 -4 Z " />
<glyph glyph-name="Oslash" unicode="&#xd8;" horiz-adv-x="754" d="M195 164 C160 213 144 279 144 352 C144 504 216 624 378 624 C414 624 445 618 473 606 L195 164 Z M546 552 C588 503 609 432 609 352 C609 200 539 78 379 78 C334 78 296 87 264 104 L546 552 Z M571 763 L522 684 C481 703 433 713 378 713 C148 713 45 544 45 351 C45 246 77 149 143 81 L54 -60 L161 -60 L215 26 C261 2 315 -12 379 -12 C598 -12 709 159 709 351 C709 463 672 567 597 635 L678 763 L571 763 Z " />
<glyph glyph-name="Ugrave" unicode="&#xd9;" horiz-adv-x="699" d="M433 772 L325 919 L212 919 L354 772 L433 772 Z M362 -11 C447 -11 530 3 610 33 L610 704 L510 704 L510 99 C472 87 412 78 371 78 C256 78 203 126 190 185 C188 196 186 217 186 241 L186 704 L85 704 L85 238 C85 201 88 168 97 142 C129 44 225 -11 362 -11 L362 -11 Z " />
<glyph glyph-name="Uacute" unicode="&#xda;" horiz-adv-x="699" d="M337 772 L479 919 L366 919 L258 772 L337 772 Z M362 -11 C447 -11 530 3 610 33 L610 704 L510 704 L510 99 C472 87 412 78 371 78 C256 78 203 126 190 185 C188 196 186 217 186 241 L186 704 L85 704 L85 238 C85 201 88 168 97 142 C129 44 225 -11 362 -11 L362 -11 Z " />
<glyph glyph-name="Ucircumflex" unicode="&#xdb;" horiz-adv-x="699" d="M434 771 L517 771 L403 894 C371 929 322 931 289 896 L174 771 L256 771 L345 852 L434 771 Z M362 -11 C447 -11 530 3 610 33 L610 704 L510 704 L510 99 C472 87 412 78 371 78 C256 78 203 126 190 185 C188 196 186 217 186 241 L186 704 L85 704 L85 238 C85 201 88 168 97 142 C129 44 225 -11 362 -11 L362 -11 Z " />
<glyph glyph-name="Udieresis" unicode="&#xdc;" horiz-adv-x="699" d="M301 823 C301 860 284 878 247 878 C210 878 191 860 191 823 C191 786 210 766 247 766 C284 766 301 786 301 823 L301 823 Z M500 823 C500 860 483 878 446 878 C409 878 390 860 390 823 C390 786 409 766 446 766 C483 766 500 786 500 823 L500 823 Z M362 -11 C447 -11 530 3 610 33 L610 704 L510 704 L510 99 C472 87 412 78 371 78 C256 78 203 126 190 185 C188 196 186 217 186 241 L186 704 L85 704 L85 238 C85 201 88 168 97 142 C129 44 225 -11 362 -11 L362 -11 Z " />
<glyph glyph-name="Thorn" unicode="&#xde;" horiz-adv-x="488" d="M424 302 C424 354 407 397 374 432 C342 466 298 482 246 482 C192 482 148 466 116 432 C109 426 105 419 100 413 L100 581 L65 581 L65 313 L65 0 L100 0 L100 192 C105 185 110 179 116 173 C149 139 192 122 246 122 C298 122 341 139 374 173 C406 207 424 250 424 302 L424 302 Z M383 301 C383 259 370 225 345 198 C319 171 285 157 242 157 C198 157 162 170 137 198 C112 225 100 259 100 301 C100 343 112 378 138 405 C164 432 198 446 242 446 C285 446 319 433 345 405 C370 378 383 344 383 301 L383 301 Z " />
<glyph glyph-name="germandbls" unicode="&#xdf;" horiz-adv-x="551" d="M296 -88 C468 -88 531 16 531 107 C531 192 500 259 404 309 C333 346 323 358 323 372 C323 415 453 453 453 565 C453 663 383 712 274 712 C130 712 70 621 70 489 L70 0 L166 0 L166 477 C166 572 186 630 277 630 C320 630 355 609 355 563 C355 538 343 522 329 508 C281 464 221 431 221 364 C221 324 245 300 268 281 C333 228 433 210 433 106 C433 49 393 0 303 0 L213 0 L213 -88 L296 -88 Z " />
<glyph glyph-name="agrave" unicode="&#xe0;" horiz-adv-x="599" d="M362 555 L254 702 L141 702 L283 555 L362 555 Z M299 406 C372 406 433 356 433 277 L433 107 C396 90 348 74 300 74 C192 74 137 140 137 235 C137 331 189 406 299 406 L299 406 Z M442 477 L442 435 C408 470 355 486 295 486 C134 486 41 371 41 233 C41 85 138 -7 291 -7 C340 -7 382 7 423 21 C441 27 440 11 443 0 L527 0 C527 321 527 231 527 477 L442 477 Z " />
<glyph glyph-name="aacute" unicode="&#xe1;" horiz-adv-x="599" d="M298 555 L440 702 L327 702 L219 555 L298 555 Z M299 406 C372 406 433 356 433 277 L433 107 C396 90 348 74 300 74 C192 74 137 140 137 235 C137 331 189 406 299 406 L299 406 Z M442 477 L442 435 C408 470 355 486 295 486 C134 486 41 371 41 233 C41 85 138 -7 291 -7 C340 -7 382 7 423 21 C441 27 440 11 443 0 L527 0 C527 321 527 231 527 477 L442 477 Z " />
<glyph glyph-name="acircumflex" unicode="&#xe2;" horiz-adv-x="599" d="M387 554 L470 554 L356 677 C324 712 275 714 242 679 L127 554 L209 554 L298 635 L387 554 Z M299 406 C372 406 433 356 433 277 L433 107 C396 90 348 74 300 74 C192 74 137 140 137 235 C137 331 189 406 299 406 L299 406 Z M442 477 L442 435 C408 470 355 486 295 486 C134 486 41 371 41 233 C41 85 138 -7 291 -7 C340 -7 382 7 423 21 C441 27 440 11 443 0 L527 0 C527 321 527 231 527 477 L442 477 Z " />
<glyph glyph-name="atilde" unicode="&#xe3;" horiz-adv-x="599" d="M383 568 C419 572 452 596 476 632 L439 672 C419 643 392 633 378 630 C332 620 302 682 225 669 C185 662 160 642 134 606 L173 567 C191 595 217 603 232 606 C282 615 299 557 383 568 L383 568 Z M299 406 C372 406 433 356 433 277 L433 107 C396 90 348 74 300 74 C192 74 137 140 137 235 C137 331 189 406 299 406 L299 406 Z M442 477 L442 435 C408 470 355 486 295 486 C134 486 41 371 41 233 C41 85 138 -7 291 -7 C340 -7 382 7 423 21 C441 27 440 11 443 0 L527 0 C527 321 527 231 527 477 L442 477 Z " />
<glyph glyph-name="adieresis" unicode="&#xe4;" horiz-adv-x="599" d="M257 621 C257 658 239 676 203 676 C166 676 147 658 147 621 C147 584 166 564 203 564 C239 564 257 584 257 621 L257 621 Z M456 621 C456 658 438 676 402 676 C365 676 346 658 346 621 C346 584 365 564 402 564 C438 564 456 584 456 621 L456 621 Z M299 406 C372 406 433 356 433 277 L433 107 C396 90 348 74 300 74 C192 74 137 140 137 235 C137 331 189 406 299 406 L299 406 Z M442 477 L442 435 C408 470 355 486 295 486 C134 486 41 371 41 233 C41 85 138 -7 291 -7 C340 -7 382 7 423 21 C441 27 440 11 443 0 L527 0 C527 321 527 231 527 477 L442 477 Z " />
<glyph glyph-name="aring" unicode="&#xe5;" horiz-adv-x="599" d="M298 561 C359 561 408 610 408 671 C408 732 359 781 298 781 C237 781 188 732 188 671 C188 610 237 561 298 561 L298 561 Z M298 725 C328 725 352 701 352 671 C352 641 328 617 298 617 C268 617 244 641 244 671 C244 701 268 725 298 725 L298 725 Z M299 406 C372 406 433 356 433 277 L433 107 C396 90 348 74 300 74 C192 74 137 140 137 235 C137 331 189 406 299 406 L299 406 Z M442 477 L442 435 C408 470 355 486 295 486 C134 486 41 371 41 233 C41 85 138 -7 291 -7 C340 -7 382 7 423 21 C441 27 440 11 443 0 L527 0 C527 321 527 231 527 477 L442 477 Z " />
<glyph glyph-name="ae" unicode="&#xe6;" horiz-adv-x="940" d="M417 17 C434 23 437 8 439 -1 L521 -1 L521 40 C563 10 617 -6 679 -6 C764 -6 825 14 890 72 L838 136 C779 87 733 77 682 77 C593 77 533 124 526 209 L894 209 C894 209 895 249 893 268 C882 390 800 482 667 482 C592 482 527 452 484 401 C448 448 387 479 297 479 C137 479 45 361 45 229 C45 87 142 -8 293 -8 C336 -8 375 2 417 17 L417 17 Z M667 399 C735 399 782 361 794 287 L528 287 C543 363 598 399 667 399 L667 399 Z M428 267 L428 108 C393 92 342 77 297 77 C193 77 139 139 139 230 C139 322 193 396 300 396 C367 396 412 365 424 312 C427 303 428 286 428 267 L428 267 Z " />
<glyph glyph-name="ccedilla" unicode="&#xe7;" horiz-adv-x="531" d="M316 -14 C385 -11 449 10 510 73 L454 136 C400 88 352 69 301 69 C205 69 145 132 145 241 C145 327 204 401 295 401 C351 401 389 384 438 334 L508 390 C442 460 392 485 295 485 C147 485 45 375 45 236 C45 108 120 7 251 -11 L229 -109 C254 -99 277 -100 291 -100 C311 -100 329 -113 329 -133 C329 -150 310 -168 282 -168 C264 -169 233 -168 185 -147 L170 -199 C217 -222 250 -227 281 -227 C335 -227 400 -199 400 -129 C400 -78 359 -48 309 -49 L316 -14 Z " />
<glyph glyph-name="egrave" unicode="&#xe8;" horiz-adv-x="549" d="M362 555 L254 702 L141 702 L283 555 L362 555 Z M140 213 L514 213 C515 236 512 269 512 272 C504 398 418 488 282 488 C137 488 41 378 41 240 C41 98 131 -9 293 -9 C375 -9 424 2 495 49 L456 120 C402 85 356 73 298 73 C199 73 148 126 140 213 L140 213 Z M282 408 C362 408 400 358 413 289 L143 289 C156 357 206 408 282 408 L282 408 Z " />
<glyph glyph-name="eacute" unicode="&#xe9;" horiz-adv-x="549" d="M301 555 L443 702 L330 702 L222 555 L301 555 Z M140 213 L514 213 C515 236 512 269 512 272 C504 398 418 488 282 488 C137 488 41 378 41 240 C41 98 131 -9 293 -9 C375 -9 424 2 495 49 L456 120 C402 85 356 73 298 73 C199 73 148 126 140 213 L140 213 Z M282 408 C362 408 400 358 413 289 L143 289 C156 357 206 408 282 408 L282 408 Z " />
<glyph glyph-name="ecircumflex" unicode="&#xea;" horiz-adv-x="549" d="M375 554 L457 554 L343 677 C311 712 262 714 229 679 L114 554 L195 554 L285 636 L375 554 Z M140 213 L514 213 C515 236 512 269 512 272 C504 398 418 488 282 488 C137 488 41 378 41 240 C41 98 131 -9 293 -9 C375 -9 424 2 495 49 L456 120 C402 85 356 73 298 73 C199 73 148 126 140 213 L140 213 Z M282 408 C362 408 400 358 413 289 L143 289 C156 357 206 408 282 408 L282 408 Z " />
<glyph glyph-name="edieresis" unicode="&#xeb;" horiz-adv-x="549" d="M242 621 C242 658 224 676 187 676 C151 676 132 658 132 621 C132 584 151 564 187 564 C224 564 242 584 242 621 L242 621 Z M441 621 C441 658 423 676 386 676 C350 676 331 658 331 621 C331 584 350 564 386 564 C423 564 441 584 441 621 L441 621 Z M140 213 L514 213 C515 236 512 269 512 272 C504 398 418 488 282 488 C137 488 41 378 41 240 C41 98 131 -9 293 -9 C375 -9 424 2 495 49 L456 120 C402 85 356 73 298 73 C199 73 148 126 140 213 L140 213 Z M282 408 C362 408 400 358 413 289 L143 289 C156 357 206 408 282 408 L282 408 Z " />
<glyph glyph-name="igrave" unicode="&#xec;" horiz-adv-x="252" d="M82 0 L177 0 L177 476 L82 476 L82 0 Z M196 555 L88 702 L-25 702 L117 555 L196 555 Z " />
<glyph glyph-name="iacute" unicode="&#xed;" horiz-adv-x="252" d="M177 0 L177 476 L82 476 L82 0 L177 0 Z M121 555 L263 702 L150 702 L42 555 L121 555 Z " />
<glyph glyph-name="icircumflex" unicode="&#xee;" horiz-adv-x="264" d="M82 0 L177 0 L177 476 L82 476 L82 0 Z M221 554 L304 554 L190 677 C158 712 109 714 76 679 L-39 554 L43 554 L132 635 L221 554 Z " />
<glyph glyph-name="idieresis" unicode="&#xef;" horiz-adv-x="259" d="M84 621 C84 658 66 676 30 676 C-7 676 -26 658 -26 621 C-26 584 -7 564 30 564 C66 564 84 584 84 621 L84 621 Z M283 621 C283 658 265 676 229 676 C192 676 173 658 173 621 C173 584 192 564 229 564 C265 564 283 584 283 621 L283 621 Z M82 0 L177 0 L177 476 L82 476 L82 0 Z " />
<glyph glyph-name="eth" unicode="&#xf0;" horiz-adv-x="517" d="M453 160 L453 571 L418 571 L418 529 C402 508 387 498 371 496 C353 493 336 495 318 506 L310 511 L301 515 C275 530 248 535 219 530 C189 524 165 507 144 478 L176 459 C193 482 208 492 226 496 C243 499 259 494 278 485 L286 481 L294 475 C320 459 348 456 378 461 C392 464 406 470 418 478 L418 316 C413 323 407 329 401 335 C365 373 318 392 259 392 C202 392 156 373 120 335 C84 298 65 250 65 193 C65 135 83 87 120 49 C155 12 202 -7 259 -7 C318 -7 363 11 400 49 C436 87 453 118 453 160 L453 160 Z M418 194 C418 145 403 106 375 74 C345 41 308 25 259 25 C210 25 171 41 143 73 C114 105 101 144 101 194 C101 242 114 282 143 314 C170 345 210 361 259 361 C308 361 347 346 376 314 C403 283 418 242 418 194 L418 194 Z " />
<glyph glyph-name="ntilde" unicode="&#xf1;" horiz-adv-x="556" d="M351 568 C387 572 420 596 444 632 L407 672 C387 643 360 633 346 630 C300 620 270 682 193 669 C153 662 128 642 102 606 L141 567 C159 595 185 603 200 606 C250 615 267 557 351 568 L351 568 Z M396 0 L493 0 L493 298 C493 426 411 485 275 485 C203 485 123 460 59 417 L59 0 L155 0 L155 371 C183 387 228 401 270 401 C359 401 396 362 396 286 L396 0 Z " />
<glyph glyph-name="ograve" unicode="&#xf2;" horiz-adv-x="597" d="M367 555 L259 702 L146 702 L288 555 L367 555 Z M298 -8 C449 -8 553 100 553 240 C553 380 449 488 298 488 C150 488 44 376 44 240 C44 103 149 -8 298 -8 L298 -8 Z M298 406 C392 406 457 329 457 241 C457 145 393 75 298 75 C199 75 140 149 140 241 C140 333 200 406 298 406 L298 406 Z " />
<glyph glyph-name="oacute" unicode="&#xf3;" horiz-adv-x="597" d="M311 555 L453 702 L340 702 L232 555 L311 555 Z M298 -8 C449 -8 553 100 553 240 C553 380 449 488 298 488 C150 488 44 376 44 240 C44 103 149 -8 298 -8 L298 -8 Z M298 406 C392 406 457 329 457 241 C457 145 393 75 298 75 C199 75 140 149 140 241 C140 333 200 406 298 406 L298 406 Z " />
<glyph glyph-name="ocircumflex" unicode="&#xf4;" horiz-adv-x="597" d="M383 554 L466 554 L352 677 C320 712 271 714 238 679 L123 554 L205 554 L294 635 L383 554 Z M298 -8 C449 -8 553 100 553 240 C553 380 449 488 298 488 C150 488 44 376 44 240 C44 103 149 -8 298 -8 L298 -8 Z M298 406 C392 406 457 329 457 241 C457 145 393 75 298 75 C199 75 140 149 140 241 C140 333 200 406 298 406 L298 406 Z " />
<glyph glyph-name="otilde" unicode="&#xf5;" horiz-adv-x="597" d="M383 568 C419 572 452 596 476 632 L439 672 C419 643 392 633 378 630 C332 620 302 682 225 669 C185 662 160 642 134 606 L173 567 C191 595 217 603 232 606 C282 615 299 557 383 568 L383 568 Z M298 -8 C449 -8 553 100 553 240 C553 380 449 488 298 488 C150 488 44 376 44 240 C44 103 149 -8 298 -8 L298 -8 Z M298 406 C392 406 457 329 457 241 C457 145 393 75 298 75 C199 75 140 149 140 241 C140 333 200 406 298 406 L298 406 Z " />
<glyph glyph-name="odieresis" unicode="&#xf6;" horiz-adv-x="597" d="M251 621 C251 658 233 676 196 676 C159 676 141 658 141 621 C141 584 159 564 196 564 C233 564 251 584 251 621 L251 621 Z M450 621 C450 658 432 676 395 676 C358 676 340 658 340 621 C340 584 358 564 395 564 C432 564 450 584 450 621 L450 621 Z M298 -8 C449 -8 553 100 553 240 C553 380 449 488 298 488 C150 488 44 376 44 240 C44 103 149 -8 298 -8 L298 -8 Z M298 406 C392 406 457 329 457 241 C457 145 393 75 298 75 C199 75 140 149 140 241 C140 333 200 406 298 406 L298 406 Z " />
<glyph glyph-name="divide" unicode="&#xf7;" horiz-adv-x="589" d="M349 497 C349 534 332 552 295 552 C258 552 240 534 240 497 C240 461 258 441 295 441 C332 441 349 461 349 497 L349 497 Z M541 305 L541 389 L48 389 L48 305 L541 305 Z M349 196 C349 233 332 251 295 251 C258 251 240 233 240 196 C240 160 258 140 295 140 C332 140 349 160 349 196 L349 196 Z " />
<glyph glyph-name="oslash" unicode="&#xf8;" horiz-adv-x="592" d="M174 130 C150 159 138 198 138 241 C138 333 198 406 295 406 C312 406 328 403 343 399 L174 130 Z M407 360 C437 330 455 287 455 241 C455 145 391 75 295 75 C273 75 253 79 234 86 L407 360 Z M428 535 L389 473 C361 483 329 488 295 488 C148 488 42 376 42 240 C42 165 73 98 126 53 L55 -60 L143 -60 L189 13 C221 0 257 -8 295 -8 C447 -8 550 100 550 240 C550 322 515 393 455 438 L516 535 L428 535 Z " />
<glyph glyph-name="ugrave" unicode="&#xf9;" horiz-adv-x="558" d="M363 555 L255 702 L142 702 L284 555 L363 555 Z M286 -12 C355 -12 426 3 488 30 L488 477 L393 477 L393 88 C362 79 317 72 292 72 C182 72 154 121 154 184 L154 477 L58 477 L58 183 C58 57 131 -12 286 -12 L286 -12 Z " />
<glyph glyph-name="uacute" unicode="&#xfa;" horiz-adv-x="558" d="M291 555 L433 702 L320 702 L212 555 L291 555 Z M286 -12 C355 -12 426 3 488 30 L488 477 L393 477 L393 88 C362 79 317 72 292 72 C182 72 154 121 154 184 L154 477 L58 477 L58 183 C58 57 131 -12 286 -12 L286 -12 Z " />
<glyph glyph-name="ucircumflex" unicode="&#xfb;" horiz-adv-x="558" d="M367 554 L450 554 L336 677 C304 712 255 714 222 679 L107 554 L189 554 L278 635 L367 554 Z M286 -12 C355 -12 426 3 488 30 L488 477 L393 477 L393 88 C362 79 317 72 292 72 C182 72 154 121 154 184 L154 477 L58 477 L58 183 C58 57 131 -12 286 -12 L286 -12 Z " />
<glyph glyph-name="udieresis" unicode="&#xfc;" horiz-adv-x="558" d="M231 621 C231 658 213 676 176 676 C140 676 121 658 121 621 C121 584 140 564 176 564 C213 564 231 584 231 621 L231 621 Z M430 621 C430 658 412 676 375 676 C339 676 320 658 320 621 C320 584 339 564 375 564 C412 564 430 584 430 621 L430 621 Z M286 -12 C355 -12 426 3 488 30 L488 477 L393 477 L393 88 C362 79 317 72 292 72 C182 72 154 121 154 184 L154 477 L58 477 L58 183 C58 57 131 -12 286 -12 L286 -12 Z " />
<glyph glyph-name="yacute" unicode="&#xfd;" horiz-adv-x="446" d="M289 570 L239 570 L152 449 L181 449 L289 570 Z M382 -18 L382 385 L347 385 L347 156 C347 118 336 86 315 62 C293 37 263 23 225 23 C187 23 157 36 135 62 C113 87 103 117 103 156 L103 385 L69 385 L69 167 C69 115 82 74 108 43 C135 10 174 -7 225 -7 C278 -7 319 11 347 50 L347 -18 C347 -67 334 -105 308 -135 C282 -165 245 -181 195 -181 C182 -181 166 -179 149 -175 C123 -169 100 -158 77 -142 L65 -177 C105 -202 148 -215 194 -215 C252 -215 299 -196 333 -160 C366 -124 382 -77 382 -18 L382 -18 Z " />
<glyph glyph-name="thorn" unicode="&#xfe;" horiz-adv-x="517" d="M453 193 C453 250 434 298 398 336 C363 373 316 392 258 392 C200 392 154 373 118 336 C111 329 105 323 100 315 L100 590 L65 590 L65 215 L65 -215 L100 -215 L100 69 C105 63 111 56 117 50 C153 12 200 -7 258 -7 C316 -7 362 12 398 50 C433 87 453 135 453 193 L453 193 Z M417 192 C417 143 403 103 375 71 C346 39 307 24 258 24 C209 24 169 39 142 71 C114 103 100 143 100 192 C100 240 114 279 143 311 C172 344 209 360 258 360 C307 360 346 344 375 312 C403 280 417 241 417 192 L417 192 Z " />
<glyph glyph-name="ydieresis" unicode="&#xff;" horiz-adv-x="603" d="M451 621 C451 658 433 676 397 676 C360 676 341 658 341 621 C341 584 360 564 397 564 C433 564 451 584 451 621 L451 621 Z M252 621 C252 658 234 676 198 676 C161 676 142 658 142 621 C142 584 161 564 198 564 C234 564 252 584 252 621 L252 621 Z M268 -245 C426 -245 518 -157 518 -6 L518 477 L424 477 L424 99 C380 81 330 73 292 73 C198 73 164 128 164 196 L164 477 L70 477 L70 193 C70 59 154 -9 288 -9 C338 -9 386 0 424 16 L424 -11 C424 -110 364 -160 267 -160 C219 -160 167 -151 111 -124 L86 -205 C143 -233 211 -245 268 -245 L268 -245 Z " />
<glyph glyph-name="dotlessi" unicode="&#x131;" horiz-adv-x="261" d="M83 0 L178 0 L178 477 L83 477 L83 0 Z " />
<glyph glyph-name="OE" unicode="&#x152;" horiz-adv-x="897" d="M453 -1 L878 -1 L878 91 L534 91 L534 327 L824 327 L824 418 L534 418 L534 615 L859 615 L859 704 L495 704 L450 705 L446 700 L446 700 L445 702 L445 702 L443 704 C425 705 407 707 389 707 C162 707 52 543 52 351 C52 160 167 -6 391 -6 C414 -6 433 -4 453 -1 L453 -1 Z M435 621 L435 81 C422 79 411 78 395 78 C226 78 154 198 154 352 C154 506 224 623 393 623 C409 623 422 622 435 621 L435 621 Z " />
<glyph glyph-name="oe" unicode="&#x153;" horiz-adv-x="886" d="M462 210 L848 210 C848 210 845 251 843 270 C831 394 747 486 609 486 C551 486 498 469 457 439 C414 469 360 485 301 485 C153 485 44 376 44 238 C44 99 152 -9 301 -9 C361 -9 416 8 459 39 C502 9 557 -6 620 -6 C699 -6 758 15 837 63 L793 137 C725 96 678 77 625 77 C532 77 474 126 462 210 L462 210 Z M609 402 C680 402 723 363 740 294 L466 294 C484 362 537 402 609 402 L609 402 Z M362 242 C362 191 373 144 396 106 C370 87 337 76 301 76 C203 76 140 145 140 239 C140 333 204 402 301 402 C337 402 369 391 395 372 C374 335 362 291 362 242 L362 242 Z " />
<glyph glyph-name="scaron" unicode="&#x161;" horiz-adv-x="1356" d="M1857 78 C1797 49 1712 49 1712 49 C1606 49 1567 115 1567 193 L1567 480 L1506 480 L1506 190 C1506 60 1584 -9 1711 -9 C1764 -9 1814 3 1857 20 L1857 -9 C1857 -117 1805 -193 1695 -193 C1644 -193 1607 -182 1567 -162 L1553 -217 C1596 -240 1641 -250 1696 -250 C1845 -250 1919 -150 1919 0 L1919 480 L1857 480 L1857 78 Z M3678 147 C3678 49 3734 -2 3823 -3 C3823 -3 3886 -3 3933 18 L3933 75 C3881 55 3833 55 3833 55 C3774 55 3739 87 3739 151 L3739 417 L3899 417 L3899 477 L3739 477 L3739 603 L3678 603 L3678 147 Z M6032 147 C6032 49 6088 -2 6177 -3 C6177 -3 6239 -3 6287 18 L6287 75 C6235 55 6187 55 6187 55 C6128 55 6093 87 6093 151 L6093 417 L6253 417 L6253 477 L6093 477 L6093 603 L6032 603 L6032 147 Z M2396 -43 C2396 -103 2393 -188 2245 -171 L2239 -230 C2417 -248 2459 -148 2459 -47 L2459 480 L2396 480 L2396 -43 Z M-45 489 C-181 489 -283 380 -283 240 C-283 99 -183 -9 -45 -9 C96 -9 195 97 195 240 C195 384 96 489 -45 489 L-45 489 Z M-45 49 C-151 49 -220 132 -220 241 C-220 350 -150 433 -45 433 C56 433 132 348 132 241 C132 133 56 49 -45 49 L-45 49 Z M2965 69 C2937 54 2850 54 2850 54 C2731 54 2691 107 2691 185 L2691 480 L2630 480 L2630 187 C2630 65 2698 -3 2847 -3 C2915 -3 2975 8 3027 26 L3027 480 L2965 480 L2965 69 Z M4519 487 C4366 487 4276 379 4276 240 C4276 100 4357 -5 4506 -5 C4547 -5 4585 4 4630 24 C4647 32 4666 33 4666 4 L4666 -9 C4666 -117 4610 -193 4500 -193 C4450 -193 4402 -182 4362 -161 L4348 -217 C4391 -240 4446 -250 4501 -250 C4650 -250 4734 -150 4728 0 L4728 0 L4728 301 C4728 408 4654 487 4519 487 L4519 487 Z M4664 104 C4616 71 4575 53 4509 53 C4393 53 4343 137 4343 241 C4343 346 4404 430 4514 430 C4602 430 4664 381 4664 293 L4664 104 Z M1353 0 L1353 301 C1353 392 1289 487 1138 487 C984 487 892 371 892 232 C892 83 986 -7 1132 -7 C1183 -7 1220 8 1262 21 C1274 25 1289 24 1293 5 L1294 0 L1353 0 L1353 0 Z M1287 285 L1287 93 C1249 72 1194 51 1138 51 C1021 51 960 126 960 234 C960 341 1020 429 1141 429 C1220 429 1287 379 1287 285 L1287 285 Z M6594 490 C6552 490 6517 481 6487 470 C6433 451 6410 423 6410 380 C6410 380 6410 339 6410 0 L6472 0 C6472 205 6472 356 6472 356 C6472 388 6479 405 6514 419 C6538 428 6565 433 6593 433 C6633 433 6679 420 6699 393 L6747 432 C6719 471 6666 490 6594 490 L6594 490 Z M5510 228 L5900 228 C5900 235 5897 274 5897 274 C5890 400 5805 487 5676 487 C5541 487 5446 378 5446 240 C5446 97 5534 -7 5688 -7 C5767 -7 5826 17 5884 56 L5855 105 C5806 71 5755 50 5692 50 C5580 50 5517 125 5510 222 L5510 228 Z M5511 286 L5831 286 C5819 371 5768 431 5676 431 C5585 431 5526 366 5511 280 L5511 286 Z M-609 147 C-609 49 -554 -2 -464 -3 C-464 -3 -402 -3 -354 18 L-354 75 C-406 55 -454 55 -454 55 C-513 55 -548 87 -548 151 L-548 417 L-389 417 L-389 477 L-548 477 L-548 603 L-609 603 L-609 147 Z M697 706 L697 428 C663 461 612 487 538 487 C394 487 299 379 299 240 C299 100 386 -6 533 -6 C581 -6 630 8 668 25 C680 30 697 34 697 15 L697 0 L760 0 L760 706 L697 706 Z M692 103 C653 75 607 51 538 51 C421 51 366 137 366 241 C366 346 429 427 540 427 C631 427 692 369 692 289 L692 103 Z M3371 277 C3263 307 3244 334 3244 371 C3244 420 3301 433 3348 433 C3401 433 3449 423 3472 380 L3524 407 C3487 480 3410 484 3352 484 C3248 484 3182 446 3182 366 C3182 284 3247 247 3356 217 C3426 198 3478 170 3478 119 C3478 79 3447 49 3349 49 C3276 49 3239 64 3215 109 L3161 81 C3191 18 3264 -4 3344 -4 C3498 -4 3538 53 3538 126 C3538 216 3458 253 3371 277 L3371 277 Z M2427 656 C2405 656 2388 639 2388 617 C2388 596 2405 578 2427 578 C2449 578 2467 596 2467 617 C2467 639 2449 656 2427 656 L2427 656 Z M4882 0 L4944 0 L4944 10 C4944 26 4954 36 4975 26 C5016 6 5051 -6 5109 -6 C5252 -6 5344 104 5344 244 C5344 388 5256 487 5119 487 C5047 487 4985 454 4944 403 L4944 706 L4882 706 L4882 0 Z M5103 52 C5037 52 4994 75 4947 107 L4947 251 C4947 358 5019 428 5114 428 C5225 428 5276 342 5276 245 C5276 141 5220 52 5103 52 L5103 52 Z M5510 228 L5900 228 C5900 235 5897 274 5897 274 C5890 400 5805 487 5676 487 C5541 487 5446 378 5446 240 C5446 97 5534 -7 5688 -7 C5767 -7 5826 17 5884 56 L5855 105 C5806 71 5755 50 5692 50 C5580 50 5517 125 5510 222 L5510 228 Z M5511 286 L5831 286 C5819 371 5768 431 5676 431 C5585 431 5526 366 5511 280 L5511 286 Z " />
<glyph glyph-name="Ydieresis" unicode="&#x178;" horiz-adv-x="565" d="M241 823 C241 860 223 878 186 878 C150 878 131 860 131 823 C131 786 150 766 186 766 C223 766 241 786 241 823 L241 823 Z M440 823 C440 860 422 878 385 878 C349 878 330 860 330 823 C330 786 349 766 385 766 C422 766 440 786 440 823 L440 823 Z M364 354 L569 704 L459 704 L286 405 L114 704 L3 704 L207 354 C221 329 237 300 237 276 L237 0 L335 0 L335 276 C335 303 354 336 364 354 L364 354 Z " />
<glyph glyph-name="Zcaron" unicode="&#x17d;" horiz-adv-x="5668" d="" />
<glyph glyph-name="zcaron" unicode="&#x17e;" horiz-adv-x="590" d="" />
<glyph glyph-name="florin" unicode="&#x192;" horiz-adv-x="592" d="M569 591 L581 676 C548 686 514 692 480 692 C434 692 384 674 352 641 C312 600 295 522 287 467 L200 467 L200 380 L272 380 L215 16 C206 -36 187 -78 127 -78 C102 -78 59 -71 33 -64 L20 -147 C53 -158 90 -167 123 -167 C219 -167 295 -95 309 -4 L370 381 L481 381 L481 468 L384 468 C387 486 395 524 400 542 C410 578 435 605 478 605 C508 605 538 600 569 591 L569 591 Z " />
<glyph glyph-name="circumflex" unicode="&#x2c6;" horiz-adv-x="390" d="M284 554 L367 554 L253 677 C221 712 171 714 139 679 L24 554 L105 554 L195 635 L284 554 Z " />
<glyph glyph-name="caron" unicode="&#x2c7;" horiz-adv-x="388" d="M107 708 L24 708 L138 585 C169 550 219 548 251 583 L367 708 L285 708 L196 627 L107 708 Z " />
<glyph glyph-name="tilde" unicode="&#x2dc;" horiz-adv-x="442" d="M299 568 C335 572 368 596 392 632 L355 672 C335 643 308 633 294 630 C248 620 218 682 141 669 C101 662 76 642 50 606 L89 567 C107 595 133 603 148 606 C198 615 215 557 299 568 L299 568 Z " />
<glyph glyph-name="pi" unicode="&#x3c0;" horiz-adv-x="571" d="M457 118 L511 174 L340 343 L508 511 L453 565 L285 397 L115 565 L61 512 L230 343 L61 175 L115 120 L285 289 L457 118 Z " />
<glyph glyph-name="endash" unicode="&#x2013;" horiz-adv-x="547" d="M17 229 L529 229 L529 313 L17 313 L17 229 Z " />
<glyph glyph-name="emdash" unicode="&#x2014;" horiz-adv-x="848" d="M19 229 L829 229 L829 313 L19 313 L19 229 Z " />
<glyph glyph-name="quoteleft" unicode="&#x2018;" horiz-adv-x="203" d="M125 720 C84 678 42 607 42 553 C42 510 62 486 101 486 C133 486 159 503 159 545 C159 569 144 591 113 598 C119 636 136 669 158 705 L125 720 Z " />
<glyph glyph-name="quoteright" unicode="&#x2019;" horiz-adv-x="198" d="M76 486 C117 528 159 599 159 653 C159 696 139 720 100 720 C68 720 42 703 42 661 C42 637 57 615 88 608 C83 571 65 537 43 501 L76 486 Z " />
<glyph glyph-name="quotesinglbase" unicode="&#x201a;" horiz-adv-x="198" d="M77 -127 C118 -85 160 -14 160 40 C160 83 140 107 101 107 C69 107 43 90 43 48 C43 24 58 2 89 -5 C84 -43 66 -76 44 -112 L77 -127 Z " />
<glyph glyph-name="quotedblleft" unicode="&#x201c;" horiz-adv-x="376" d="M300 721 C259 678 217 607 217 553 C217 510 237 486 276 486 C308 486 334 503 334 545 C334 569 319 591 288 598 C294 636 311 669 333 705 L300 721 Z M123 721 C82 678 40 607 40 553 C40 510 60 486 99 486 C131 486 157 503 157 545 C157 569 142 591 111 598 C117 636 134 669 156 705 L123 721 Z " />
<glyph glyph-name="quotedblright" unicode="&#x201d;" horiz-adv-x="374" d="M77 486 C118 528 160 600 160 653 C160 696 140 721 101 721 C69 721 43 703 43 661 C43 637 58 615 89 608 C84 571 66 537 44 501 L77 486 Z M254 486 C295 528 337 600 337 653 C337 696 317 721 278 721 C246 721 220 703 220 661 C220 637 235 615 266 608 C261 571 243 537 221 501 L254 486 Z " />
<glyph glyph-name="quotedblbase" unicode="&#x201e;" horiz-adv-x="373" d="M77 -127 C118 -85 160 -14 160 40 C160 83 140 107 101 107 C69 107 43 90 43 48 C43 24 58 2 89 -5 C84 -43 66 -76 44 -112 L77 -127 Z M254 -127 C295 -85 337 -14 337 40 C337 83 317 107 278 107 C246 107 220 90 220 48 C220 24 235 2 266 -5 C261 -43 243 -76 221 -112 L254 -127 Z " />
<glyph glyph-name="dagger" unicode="&#x2020;" horiz-adv-x="348" d="M219 397 L304 397 L304 482 L219 482 L219 578 L125 578 L125 482 L45 482 L45 397 L125 397 L125 -40 L219 -40 L219 397 Z " />
<glyph glyph-name="daggerdbl" unicode="&#x2021;" horiz-adv-x="352" d="M221 76 L304 76 L304 161 L221 161 L221 398 L304 398 L304 483 L221 483 L221 577 L127 577 L127 483 L48 483 L48 398 L127 398 L127 161 L48 161 L48 76 L127 76 L127 -41 L221 -41 L221 76 Z " />
<glyph glyph-name="bullet" unicode="&#x2022;" horiz-adv-x="349" d="M174 194 C250 194 285 226 285 303 C285 379 250 413 175 413 C97 413 65 381 65 303 C65 226 97 194 174 194 L174 194 Z " />
<glyph glyph-name="ellipsis" unicode="&#x2026;" horiz-adv-x="621" d="M110 -8 C147 -8 167 15 167 50 C167 86 147 106 110 106 C74 106 52 86 52 50 C52 14 73 -8 110 -8 L110 -8 Z M310 -8 C347 -8 367 15 367 50 C367 86 347 106 310 106 C274 106 252 86 252 50 C252 14 273 -8 310 -8 L310 -8 Z M510 -8 C547 -8 567 15 567 50 C567 86 547 106 510 106 C474 106 452 86 452 50 C452 14 473 -8 510 -8 L510 -8 Z " />
<glyph glyph-name="perthousand" unicode="&#x2030;" horiz-adv-x="1150" d="M195 391 C292 391 367 455 367 555 C367 653 290 719 195 719 C101 719 22 653 22 555 C22 455 99 391 195 391 L195 391 Z M186 -10 L667 706 L563 706 L77 -10 L186 -10 Z M562 -11 C657 -11 735 57 735 152 C735 246 658 317 562 317 C465 317 391 248 391 152 C391 57 467 -11 562 -11 L562 -11 Z M195 635 C245 635 277 604 277 555 C277 507 243 472 195 472 C147 472 113 507 113 555 C113 604 144 635 195 635 L195 635 Z M562 235 C613 235 644 202 644 152 C644 105 611 72 562 72 C514 72 479 106 479 152 C479 202 512 235 562 235 L562 235 Z M952 -11 C1047 -11 1125 57 1125 152 C1125 246 1048 317 952 317 C855 317 781 248 781 152 C781 57 857 -11 952 -11 L952 -11 Z M952 235 C1003 235 1034 202 1034 152 C1034 105 1001 72 952 72 C904 72 869 106 869 152 C869 202 902 235 952 235 L952 235 Z " />
<glyph glyph-name="guilsinglleft" unicode="&#x2039;" horiz-adv-x="272" d="M154 68 L217 68 L126 195 L217 322 L154 322 L62 195 L154 68 Z " />
<glyph glyph-name="guilsinglright" unicode="&#x203a;" horiz-adv-x="272" d="M118 68 L210 195 L118 322 L55 322 L146 195 L55 68 L118 68 Z " />
<glyph glyph-name="zerosuperior" unicode="&#x2070;" horiz-adv-x="365" d="M301 386 C301 441 294 482 281 508 C262 545 230 563 184 563 C78 563 65 470 65 386 C65 302 78 209 184 209 C229 209 261 228 280 264 C294 292 301 333 301 386 L301 386 Z M261 387 C261 337 257 304 250 286 C239 261 218 248 184 248 C150 248 129 261 119 285 C110 305 105 338 105 387 C105 436 110 469 118 488 C128 512 150 525 184 525 C218 525 239 512 250 487 C257 469 261 437 261 387 L261 387 Z " />
<glyph glyph-name="foursuperior" unicode="&#x2074;" horiz-adv-x="366" d="M302 306 L302 343 L257 343 L257 563 L220 563 L75 362 C68 354 65 345 65 335 C65 314 83 306 104 306 L218 306 L218 215 L257 215 L257 306 L302 306 Z M218 343 L110 343 L108 343 L218 496 L218 343 Z " />
<glyph glyph-name="fivesuperior" unicode="&#x2075;" horiz-adv-x="334" d="M270 338 C270 409 225 460 155 460 C138 460 123 457 110 453 L110 520 L246 520 L246 557 L72 557 L72 369 C109 413 131 423 155 423 C203 423 232 386 232 337 C232 288 203 252 155 252 C130 252 112 260 91 283 L65 258 C92 227 121 215 155 215 C188 215 217 227 238 250 C260 274 270 303 270 338 L270 338 Z " />
<glyph glyph-name="sixsuperior" unicode="&#x2076;" horiz-adv-x="335" d="M271 319 C271 348 262 373 244 392 C224 412 200 421 168 421 C157 421 147 420 137 417 L196 562 L156 562 L77 369 C69 355 65 337 65 319 C65 288 75 264 94 244 C112 225 137 215 168 215 C200 215 224 225 243 244 C261 263 271 287 271 319 L271 319 Z M233 319 C233 298 225 282 215 271 C202 258 190 252 168 252 C127 252 104 277 104 319 C104 328 105 336 107 343 L112 355 C121 377 143 385 168 385 C190 385 205 379 215 368 C226 356 233 340 233 319 L233 319 Z " />
<glyph glyph-name="sevensuperior" unicode="&#x2077;" horiz-adv-x="342" d="M278 526 C278 548 259 557 239 557 L65 557 L65 520 L238 520 C238 519 237 518 237 516 L108 215 L149 215 L272 504 C275 512 278 520 278 526 L278 526 Z " />
<glyph glyph-name="eightsuperior" unicode="&#x2078;" horiz-adv-x="355" d="M291 324 C291 366 271 405 234 424 C249 440 255 460 255 482 C255 531 222 563 175 563 C129 563 95 530 95 482 C95 459 103 438 119 422 C84 403 65 365 65 324 C65 290 75 262 96 240 C117 218 145 208 177 208 C210 208 238 219 259 240 C280 262 291 290 291 324 L291 324 Z M216 482 C216 456 200 439 175 439 C150 439 135 456 135 482 C135 508 150 525 175 525 C189 525 199 521 206 513 C212 505 216 496 216 482 L216 482 Z M250 324 C250 301 242 283 230 269 C217 254 201 247 177 247 C132 247 105 278 105 324 C105 369 133 400 177 400 C201 400 217 393 231 378 C242 365 250 347 250 324 L250 324 Z " />
<glyph glyph-name="ninesuperior" unicode="&#x2079;" horiz-adv-x="335" d="M271 459 C271 489 262 514 243 534 C225 553 199 562 168 562 C136 562 111 553 93 534 C74 514 65 490 65 459 C65 429 74 403 92 385 C111 365 136 356 168 356 C179 356 189 357 199 360 L140 215 L180 215 L259 408 C265 424 271 440 271 459 L271 459 Z M233 458 C233 449 231 441 229 434 L225 423 C213 401 193 392 168 392 C127 392 104 417 104 458 C104 479 110 495 121 506 C133 519 146 526 168 526 C209 526 233 500 233 458 L233 458 Z " />
<glyph glyph-name="zeroinferior" unicode="&#x2080;" horiz-adv-x="365" d="M301 171 C301 226 294 267 281 293 C262 330 230 348 184 348 C78 348 65 255 65 171 C65 87 78 -6 184 -6 C229 -6 261 13 280 49 C294 77 301 118 301 171 L301 171 Z M261 172 C261 122 257 89 250 71 C239 46 218 33 184 33 C150 33 129 46 119 70 C110 90 105 123 105 172 C105 221 110 254 118 273 C128 297 150 310 184 310 C218 310 239 297 250 272 C257 254 261 222 261 172 L261 172 Z " />
<glyph glyph-name="oneinferior" unicode="&#x2081;" horiz-adv-x="201" d="M137 0 L137 349 L65 300 L65 257 L105 283 L105 0 L137 0 Z " />
<glyph glyph-name="twoinferior" unicode="&#x2082;" horiz-adv-x="328" d="M264 244 C264 307 226 348 165 348 C106 348 71 307 65 239 L102 239 C108 288 126 310 165 310 C203 310 225 285 225 245 C225 225 220 211 206 199 C191 186 173 185 156 181 C136 177 116 172 99 152 C80 131 72 106 72 78 L72 0 L254 0 L254 38 L110 38 L110 91 C110 103 120 120 129 128 C142 139 152 142 168 145 C235 155 263 198 264 244 L264 244 Z " />
<glyph glyph-name="threeinferior" unicode="&#x2083;" horiz-adv-x="355" d="M291 109 C291 151 271 190 234 209 C249 225 255 245 255 267 C255 316 222 348 175 348 C153 348 133 341 118 325 C103 310 95 289 95 257 L135 257 C135 291 147 310 175 310 C201 310 216 293 216 267 C216 241 200 224 175 224 L140 224 L140 185 L177 185 C222 185 250 154 250 109 C250 86 242 68 230 54 C217 39 201 32 177 32 C155 32 137 39 124 53 C112 66 105 85 105 118 L65 117 C65 75 75 47 96 25 C117 3 145 -7 177 -7 C210 -7 238 4 259 25 C280 47 291 75 291 109 L291 109 Z " />
<glyph glyph-name="fourinferior" unicode="&#x2084;" horiz-adv-x="366" d="M302 91 L302 128 L257 128 L257 348 L220 348 L75 147 C68 139 65 130 65 120 C65 99 83 91 104 91 L218 91 L218 0 L257 0 L257 91 L302 91 Z M218 128 L110 128 L108 128 L218 281 L218 128 Z " />
<glyph glyph-name="fiveinferior" unicode="&#x2085;" horiz-adv-x="334" d="M270 123 C270 194 225 245 155 245 C138 245 123 242 110 238 L110 305 L246 305 L246 342 L72 342 L72 154 C109 198 131 208 155 208 C203 208 232 171 232 122 C232 73 203 37 155 37 C130 37 112 45 91 68 L65 43 C92 12 121 0 155 0 C188 0 217 12 238 35 C260 59 270 88 270 123 L270 123 Z " />
<glyph glyph-name="sixinferior" unicode="&#x2086;" horiz-adv-x="335" d="M271 104 C271 133 263 158 244 177 C224 197 200 206 168 206 C157 206 147 205 137 202 L196 347 L156 347 L77 154 C69 140 65 122 65 104 C65 73 75 49 94 29 C112 10 137 0 168 0 C200 0 224 10 243 29 C261 48 271 72 271 104 L271 104 Z M233 104 C233 83 225 67 215 56 C202 43 190 37 168 37 C127 37 104 62 104 104 C104 113 105 121 107 128 L112 140 C121 162 143 170 168 170 C190 170 205 164 215 152 C226 141 233 125 233 104 L233 104 Z " />
<glyph glyph-name="seveninferior" unicode="&#x2087;" horiz-adv-x="342" d="M278 311 C278 333 259 342 239 342 L65 342 L65 305 L238 305 C238 304 237 303 237 301 L108 0 L149 0 L272 289 C275 297 278 305 278 311 L278 311 Z " />
<glyph glyph-name="eightinferior" unicode="&#x2088;" horiz-adv-x="355" d="M291 109 C291 151 271 190 234 209 C249 225 255 245 255 267 C255 316 222 348 175 348 C129 348 95 315 95 267 C95 244 103 223 119 207 C84 188 65 150 65 109 C65 75 75 47 96 25 C117 3 145 -7 177 -7 C210 -7 238 4 259 25 C280 47 291 75 291 109 L291 109 Z M216 267 C216 241 200 224 175 224 C150 224 135 240 135 267 C135 293 150 310 175 310 C189 310 199 306 206 298 C212 290 216 281 216 267 L216 267 Z M250 109 C250 86 242 68 230 54 C217 39 201 32 177 32 C132 32 105 63 105 109 C105 154 133 185 177 185 C201 185 217 178 231 163 C242 150 250 132 250 109 L250 109 Z " />
<glyph glyph-name="nineinferior" unicode="&#x2089;" horiz-adv-x="335" d="M271 244 C271 274 262 299 243 319 C225 338 199 347 168 347 C136 347 110 337 93 319 C73 299 65 275 65 244 C65 214 74 188 92 170 C111 150 136 141 168 141 C179 141 189 142 199 145 L140 0 L180 0 L259 193 C265 209 271 225 271 244 L271 244 Z M233 243 C233 234 231 226 229 219 L225 208 C213 186 193 177 168 177 C127 177 104 202 104 243 C104 264 110 280 121 291 C133 304 146 311 168 311 C209 311 233 285 233 243 L233 243 Z " />
<glyph glyph-name="Euro" unicode="&#x20ac;" horiz-adv-x="679" d="M586 426 L643 488 C565 563 492 582 410 582 C277 582 165 506 126 387 L79 387 L53 311 L111 311 C110 303 110 293 110 285 L110 271 L39 271 L13 194 L122 194 C134 149 161 108 195 74 C252 17 323 -10 411 -10 C489 -10 574 16 646 88 L591 149 C536 94 465 72 411 72 C321 72 250 118 218 194 L476 194 L502 271 L202 271 C202 275 202 282 202 286 C202 294 202 304 202 311 L515 311 L541 387 L223 387 C260 459 325 498 411 498 C470 498 526 481 586 426 L586 426 Z " />
<glyph glyph-name="trademark" unicode="&#x2122;" horiz-adv-x="831" d="M440 628 L535 427 L581 427 L675 628 L675 350 L732 350 L732 663 C732 713 660 728 634 673 L558 508 L481 673 C455 728 383 713 383 663 L383 350 L440 350 L440 628 Z M222 651 L334 651 L334 704 L51 704 L51 651 L162 651 L162 351 L222 351 L222 651 Z " />
<glyph glyph-name="product" unicode="&#x220f;" horiz-adv-x="992" d="M824 0 L920 0 L920 704 L824 704 L824 0 Z M358 585 L384 665 C325 693 291 695 253 695 C138 695 76 616 76 513 L76 0 L173 0 L173 383 L336 383 L336 470 L173 470 L173 515 C173 580 204 610 260 610 C295 610 322 602 358 585 L358 585 Z M729 585 L755 665 C696 693 662 695 624 695 C509 695 447 616 447 513 L447 0 L544 0 L544 383 L707 383 L707 470 L544 470 L544 515 C544 580 575 610 631 610 C666 610 693 602 729 585 L729 585 Z " />
<glyph glyph-name="summation" unicode="&#x2211;" horiz-adv-x="748" d="M358 585 L384 665 C325 693 291 695 253 695 C138 695 76 616 76 513 L76 0 L173 0 L173 383 L336 383 L336 470 L173 470 L173 515 C173 580 204 610 260 610 C295 610 322 602 358 585 L358 585 Z M735 585 L761 665 C702 693 668 695 630 695 C515 695 453 616 453 513 L453 0 L550 0 L550 383 L713 383 L713 470 L550 470 L550 515 C550 580 581 610 637 610 C672 610 699 602 735 585 L735 585 Z " />
<glyph glyph-name="minus" unicode="&#x2212;" horiz-adv-x="496" d="M432 200 L432 237 L65 237 L65 200 L432 200 Z " />
<glyph glyph-name="notequal" unicode="&#x2260;" horiz-adv-x="631" d="M284 216 L576 216 L576 299 L345 299 L406 382 L576 382 L576 465 L467 465 L544 572 L434 572 L357 465 L54 465 L54 382 L296 382 L235 299 L54 299 L54 216 L174 216 L82 90 L192 90 L284 216 Z " />
<glyph glyph-name="fi" unicode="&#xfb01;" horiz-adv-x="607" d="M480 552 C510 552 535 575 535 605 C535 634 510 658 480 658 C450 658 425 634 425 605 C425 575 450 552 480 552 L480 552 Z M432 0 L527 0 L527 487 L432 487 L432 0 Z M358 585 L384 665 C325 693 291 695 253 695 C138 695 76 616 76 513 L76 0 L173 0 L173 383 L336 383 L336 470 L173 470 L173 515 C173 580 204 610 260 610 C295 610 322 602 358 585 L358 585 Z " />
<glyph glyph-name="fl" unicode="&#xfb02;" horiz-adv-x="597" d="M427 0 L523 0 L523 704 L427 704 L427 0 Z M358 585 L384 665 C325 693 291 695 253 695 C138 695 76 616 76 513 L76 0 L173 0 L173 383 L336 383 L336 470 L173 470 L173 515 C173 580 204 610 260 610 C295 610 322 602 358 585 L358 585 Z " />
</font>
</svg>
