<?xml version="1.0" standalone="no"?>
<!DOCTYPE svg PUBLIC "-//W3C//DTD SVG 1.1//EN" "http://www.w3.org/Graphics/SVG/1.1/DTD/svg11.dtd">
<svg xmlns="http://www.w3.org/2000/svg">
<metadata>Copyright (C) 2024 by original authors @ fontello.com</metadata>
<defs>
<font id="fontello" horiz-adv-x="1000" >
<font-face font-family="fontello" font-weight="400" font-stretch="normal" units-per-em="1000" ascent="850" descent="-150" />
<missing-glyph horiz-adv-x="1000" />
<glyph glyph-name="datepicker" unicode="&#xe800;" d="M409 126c61 0 115 39 115 107 0 42-21 73-55 89 20 17 32 38 32 64 0 57-43 85-92 85-45 0-80-14-104-64l41-22c14 33 33 44 62 44 27 0 44-17 44-42 0-27-20-49-56-49l-23 0 0-42 26 0c45 0 75-25 75-63 0-41-26-64-65-64-37 0-65 15-78 62l-44-17c18-63 63-88 122-88z m311 714c17 0 30-13 30-30l0 0 0-67 186 0c16 0 30-14 30-30l0-669c0-8-3-15-9-21l-128-131c-6-6-13-9-21-9l-752 0c-17 0-30 13-30 30l0 800c0 16 13 30 30 30l194 0 0 67c0 15 11 28 26 30l4 0c17 0 30-13 30-30l0 0 0-67 380 0 0 67c0 15 11 28 26 30z m186-157l-156 0 0-33c0-15-11-28-26-30l-4 0c-17 0-30 13-30 30l0 0 0 33-380 0 0-33c0-15-11-28-26-30l-4 0c-17 0-30 13-30 30l0 0 0 33-164 0 0-740 709 0 111 113 0 627z m-261-212c20 0 27-12 27-28l0 0 0-313-48 0 0 283-46-38 0 54c13 10 27 22 39 32 7 5 18 10 28 10z" horiz-adv-x="1000" />

<glyph glyph-name="edit" unicode="&#xe801;" d="M50-100l193 54 561 561-141 138-560-560-53-193z m731 871l-76-76 142-137 74 73c39 39 39 102 0 140-39 39-101 39-140 0z" horiz-adv-x="1000" />

<glyph glyph-name="time" unicode="&#xe802;" d="M500 850c276 0 500-224 500-500 0-276-224-500-500-500-276 0-500 224-500 500 0 276 224 500 500 500z m0-79c-232 0-421-188-421-421 0-232 189-421 421-421 233 0 421 189 421 421 0 233-188 421-421 421z m-33-118c20 0 37-15 39-34l1-6 0-256 256 0c20 0 37-15 39-34l1-6c0-20-15-36-34-39l-6 0-296 0c-20 0-36 15-39 34l0 5 0 296c0 22 17 40 39 40z" horiz-adv-x="1000" />

<glyph glyph-name="emo-squint" unicode="&#xe803;" d="M128 607c-30 0-54-24-54-54 0-30 24-54 54-54l267 0c30 0 54 24 54 54 0 30-24 54-54 54l-267 0z m476 0c-29 0-54-24-54-54 0-30 25-54 54-54l267 0c30 0 54 24 54 54 0 30-24 54-54 54l-267 0z m342-406c-13 0-27-5-37-16-4-4-8-8-12-12-111-109-253-164-396-165-142-2-285 50-396 155l-3 3-12 12c-21 21-54 20-75-1-20-21-20-55 1-76 3-4 8-8 14-14l3-3c132-124 301-186 469-184 169 1 337 67 468 195 5 5 9 10 14 14 20 22 20 56-1 77-10 10-23 15-37 15z" horiz-adv-x="999" />

<glyph glyph-name="up-thin" unicode="&#xe804;" d="M563-56h-125v500h-188l250 312 250-312h-187v-500z" horiz-adv-x="1000" />

<glyph glyph-name="dot-1" unicode="&#xe805;" d="M110 460q46 0 78-32t32-78q0-44-32-77t-78-33-78 33-32 77q0 46 32 78t78 32z m350 0q46 0 78-32t32-78q0-44-33-77t-77-33-77 33-33 77q0 46 32 78t78 32z m350 0q46 0 78-32t32-78q0-44-32-77t-78-33-78 33-32 77q0 46 32 78t78 32z" horiz-adv-x="920" />

<glyph glyph-name="replied-forwarded" unicode="&#xe806;" d="M339 256l2-2 126-127c7-7 7-18 2-25l-2-2-126-128c-7-7-19-7-26 0-7 7-8 17-2 25l2 2 93 95-336 0c-11 0-19 9-19 19 0 10 7 18 16 19l3 0 336 0-93 95c-7 7-8 18-2 25l2 2c6 7 17 8 24 2z m-149 507c7 5 18 5 25-2l0 0 2-2c6-8 5-18-2-25l0 0-97-94 241 0c62 0 112-60 115-132l0-7 0-79c0-10-9-19-19-19-10 0-18 7-19 17l-1 2 0 79c0 56-35 99-76 99l-241 0 97-94 2-2c6-8 5-18-2-25-7-8-20-8-28 0l0 0-131 127-2 2c-6 8-5 19 2 25l0 0 131 128z" horiz-adv-x="526" />

<glyph glyph-name="mail-suspicious-1" unicode="&#xe807;" d="M918 330c110-110 110-288 0-398-110-110-288-110-398 0-110 110-110 288 0 398 110 110 288 110 398 0z m-177-301c-12 11-33 11-44 0-6-6-9-14-9-23 0-4 0-8 2-12 2-3 4-7 7-10 6-6 13-9 22-9 8 0 16 3 22 9 6 6 9 14 9 22 0 9-3 17-9 23z m-22 259c-17 0-31-13-31-28l0 0 0-132c0-16 14-28 31-28 17 0 31 12 31 28l0 0 0 132c0 15-14 28-31 28z m142 562c74 0 134-61 139-135l0-11 0-165c0-27-22-49-48-49-25 0-45 19-48 42l-1 7 0 124-384-166c-10-4-20-5-31-2l-7 2-384 166 0-542c0-25 16-45 36-48l6-1 165 0c26 0 48-21 48-48 0-25-18-45-42-49l-6 0-165 0c-74 0-134 61-139 136l0 10 0 583c0 76 56 140 129 146l10 0 722 0z m0-97l-722 0-5-1 366-157 366 158-5 0z" horiz-adv-x="1000" />

<glyph glyph-name="mail-suspicious" unicode="&#xe808;" d="M918 330c110-110 110-288 0-398-110-110-288-110-398 0-110 110-110 288 0 398 110 110 288 110 398 0z m-177-301c-12 11-33 11-44 0-6-6-9-14-9-23 0-4 0-8 2-12 2-3 4-7 7-10 6-6 13-9 22-9 8 0 16 3 22 9 6 6 9 14 9 22 0 9-3 17-9 23z m-22 259c-17 0-31-13-31-28l0 0 0-132c0-16 14-28 31-28 17 0 31 12 31 28l0 0 0 132c0 15-14 28-31 28z m142 562c74 0 134-61 139-135l0-11 0-165c0-27-22-49-48-49-25 0-45 19-48 42l-1 7 0 124-384-166c-10-4-20-5-31-2l-7 2-384 166 0-542c0-25 16-45 36-48l6-1 165 0c26 0 48-21 48-48 0-25-18-45-42-49l-6 0-165 0c-74 0-134 61-139 136l0 10 0 583c0 76 56 140 129 146l10 0 722 0z m0-97l-722 0-5-1 366-157 366 158-5 0z" horiz-adv-x="1000" />

<glyph glyph-name="autocomplete-exceed" unicode="&#xe809;" d="M905 405c127-127 127-333 0-460-127-127-333-127-460 0-127 127-127 333 0 460 127 127 333 127 460 0z m-197-339c-17 17-49 17-66 0-8-8-13-20-13-33 0-6 1-12 3-17 3-6 6-11 10-15 9-9 21-14 33-14 13 0 24 5 33 14 9 8 13 20 13 32 0 13-5 25-13 33z m-33 300c-19 0-35-15-35-34l0 0 0-167c0-19 16-34 35-34 19 0 35 15 35 34l0 0 0 167c0 19-16 34-35 34z m36 484c20 0 36-14 39-33l0-5 0-193c0-21-17-38-39-38-19 0-36 14-38 33l-1 5 0 154-336 0 0-218c0-19-14-35-33-38l-6 0-219 0 0-590 230 0c19 0 36-15 38-33l1-6c0-19-15-35-34-38l-5 0-269 0c-20 0-36 14-39 33l0 5 0 711c0 7 2 15 7 21l4 5 201 213c6 6 15 10 23 12l6 0 470 0z m-452-77l-2 0-170-179 172 0 0 179z" horiz-adv-x="1000" />

<glyph glyph-name="down-thin" unicode="&#xe80a;" d="M563 256h187l-250-312-250 312h188v500h125v-500z" horiz-adv-x="1000" />

<glyph glyph-name="sort-dropdown" unicode="&#xe80b;" d="M758 755c27 0 49-22 49-48l0 0-1-629 111 112 6 5c19 14 46 12 63-5 19-19 19-50 0-69l0 0-194-194-5-5c-6-4-12-7-19-9l-7-1 0 0-6 0c-11 1-23 6-31 15l0 0-194 194c-19 19-19 50 0 69 18 17 44 19 63 5l6-5 111-112 0 629 0 6c3 24 24 42 48 42z m-487 23l5-5 194-194c19-19 19-50 0-69-17-17-44-19-63-5l-6 5-111 112 0-629c0-26-21-48-48-48-25 0-45 18-48 42l0 6 0 629-111-112-6-5c-19-14-46-12-63 5-19 19-19 50 0 69l0 0 194 194 5 5c8 6 17 9 26 10l6 0c9-1 18-4 26-10z m1417-303l-282-312-281 312 563 0z" horiz-adv-x="1688" />

<glyph glyph-name="dot-circled" unicode="&#xe80c;" d="M0 350q0 207 147 354t353 146 354-146 146-354-146-354-354-146-353 146-147 354z m250 0q0-103 73-177t177-73 177 73 73 177-73 177-177 73-177-73-73-177z" horiz-adv-x="1000" />

<glyph glyph-name="intimation" unicode="&#xe80d;" d="M186 36c173-174 455-174 628 0 174 173 174 455 0 628-173 174-455 174-628 0-174-173-174-455 0-628z m-40-40c-195 196-195 512 0 708 196 195 512 195 708 0 195-196 195-512 0-708-196-195-512-195-708 0z m354 258c15 0 28 13 28 28l0 311c0 15-13 28-28 28-15 0-28-13-28-28l0-311c0-15 13-28 28-28z m0-173c23 0 42 19 42 42 0 23-19 42-42 42-23 0-42-19-42-42 0-23 19-42 42-42z" horiz-adv-x="1000" />

<glyph glyph-name="pin-1" unicode="&#xe80e;" d="M717 850c22 0 40-18 40-40l0 0 0-97c0-15-8-28-21-35l0 0-66-37 0-200 119-132c6-6 9-14 11-22l0 0 0-6 0-144c0-23-17-41-39-41l0 0-209 0 0-194c0-29-23-52-52-52-29 0-52 23-52 52l0 194-209 0c-20 0-36 16-39 36l0 5 0 144c0 10 4 20 11 28l0 0 119 132 0 200-66 37c-11 6-18 17-20 30l0 0 0 5 0 97c0 22 17 40 39 40l0 0z m-39-81l-356 0 0-31 66-37c11-6 19-17 20-30l0 0 1-6 0-240c0-10-4-20-11-28l0 0-120-132 0-88 444 0 0 88-120 132c-6 6-9 14-10 22l0 0-1 6 0 240c0 15 8 29 21 36l0 0 66 37 0 31z" horiz-adv-x="1000" />

<glyph glyph-name="squared-checked" unicode="&#xe80f;" d="M875 850c69 0 125-56 125-125v-750c0-69-56-125-125-125h-750c-69 0-125 56-125 125v750c0 69 56 125 125 125z m-125-250l-333-333-125 125-84-84 209-208 416 417z" horiz-adv-x="1000" />

<glyph glyph-name="roadblock" unicode="&#xe810;" d="M425 775c-235 0-425-190-425-425s190-425 425-425c235 0 425 190 425 425s-190 425-425 425z m-275-350l550 0 0-150-550 0 0 150z" horiz-adv-x="850" />

<glyph glyph-name="collapse" unicode="&#xe811;" d="M306 307l388 0c24 0 44 19 44 43 0 24-20 44-44 44l-388 0c-24 0-44-20-44-44 0-24 20-43 44-43z m607 43c0 228-185 413-413 413-228 0-413-185-413-413 0-228 185-413 413-413 228 0 413 185 413 413z m87 0c0-276-224-500-500-500-276 0-500 224-500 500 0 276 224 500 500 500 276 0 500-224 500-500z" horiz-adv-x="1000" />

<glyph glyph-name="expand" unicode="&#xe812;" d="M500 588c24 0 44-20 44-44l0 0 0-150 150 0c22 0 41-17 43-39l1-5c0-24-20-43-44-43l0 0-150 0 0-151c0-22-17-41-39-43l-5-1c-24 0-43 20-43 44l0 0 0 151-151 0c-22 0-41 16-43 38l-1 5c0 24 20 44 44 44l0 0 151 0 0 150c0 23 16 41 38 43z m413-238c0 228-185 413-413 413-228 0-413-185-413-413 0-228 185-413 413-413 228 0 413 185 413 413z m87 0c0-276-224-500-500-500-276 0-500 224-500 500 0 276 224 500 500 500 276 0 500-224 500-500z" horiz-adv-x="1000" />

<glyph glyph-name="upload" unicode="&#xe813;" d="M961 260c20 0 36-15 39-33l0-6 0-257c0-20-15-36-34-39l-5 0-921 0c-20 0-37 14-40 33l0 6 0 257c0 22 18 39 40 39 20 0 36-15 39-33l0-6 0-219 842 0 0 219c0 20 15 36 34 39l6 0z m-484 507c15 12 37 10 51-3l0 0 263-258 4-4c11-15 10-37-4-50l0 0-4-4c-16-11-38-10-52 4l0 0-196 191 1-486-1-5c-2-19-19-34-39-34-22 0-39 18-39 39l0 0 0 486-196-191-5-4c-15-11-37-10-51 4-15 15-15 39 0 54l0 0 263 258z" horiz-adv-x="1000" />

<glyph glyph-name="minus" unicode="&#xe814;" d="M550 400q30 0 30-50t-30-50l-520 0q-30 0-30 50t30 50l520 0z" horiz-adv-x="580" />

<glyph glyph-name="cw" unicode="&#xe815;" d="M857 707v-250q0-14-10-25t-26-11h-250q-23 0-32 23-10 22 7 38l77 77q-82 77-194 77-58 0-111-23t-91-61-61-91-23-111 23-111 61-91 91-61 111-23q66 0 125 29t100 82q4 6 13 7 8 0 14-5l76-77q5-4 6-11t-5-13q-60-74-147-114t-182-41q-87 0-167 34t-136 92-92 137-34 166 34 166 92 137 136 92 167 34q82 0 158-31t137-88l72 72q17 18 39 8 22-9 22-33z" horiz-adv-x="857.1" />

<glyph glyph-name="description" unicode="&#xe816;" d="M0-7h1143v-143h-1143v143z m357 71h786v143h-786v-143z m-357 786v-143h1143v143h-1143z m0-571h1143v142h-1143v-142z m357 214h786v143h-786v-143z" horiz-adv-x="1143" />

<glyph glyph-name="vcard" unicode="&#xe817;" d="M500 850c87 0 153-40 196-116l0 0 267 0c19 0 34-14 37-31l0 0 0-5 0-811c0-21-16-37-37-37l0 0-926 0c-21 0-37 16-37 37l0 0 0 811c0 20 16 36 37 36l0 0 267 0c41 73 103 112 184 116l0 0z m0-73c-65 0-111-30-141-95-6-13-18-21-33-21l0 0-253 0 0-738 854 0 0 738-253 0c-13 0-24 6-31 17l0 0-2 4c-30 65-75 95-141 95z m116-622c79 0 147-44 152-107l0-7 0-39c0-20-16-36-36-36-19 0-34 14-36 31l-1 5 0 39c0 18-29 38-71 41l-8 0-232 0c-43 0-75-20-79-37l0-4 0-39c0-20-16-36-37-36-18 0-33 14-36 31l0 5 0 39c0 64 65 110 143 114l9 0 232 0z m-116 347c84 0 152-68 152-152 0-84-68-152-152-152-84 0-152 68-152 152 0 84 68 152 152 152z m0-73c-44 0-79-35-79-79 0-44 35-79 79-79 44 0 79 35 79 79 0 44-35 79-79 79z m0 269c32 0 58-26 58-58 0-32-26-58-58-58-32 0-58 26-58 58 0 32 26 58 58 58z" horiz-adv-x="1000" />

<glyph glyph-name="cancel-circle" unicode="&#xe818;" d="M1000 349q0-136-67-251t-182-182-251-67-251 67-182 182-67 251 67 251 182 182 251 67 251-67 182-182 67-251z m-339-232l71 71-161 161 161 161-71 71-161-161-161 161-71-71 161-161-161-161 71-71 161 161z" horiz-adv-x="1000" />

<glyph glyph-name="circle2" unicode="&#xe819;" d="M500 788c241 0 438-197 438-438s-197-438-438-438-437 197-437 438 196 438 437 438m0 62c-275 0-500-225-500-500s225-500 500-500 500 225 500 500-225 500-500 500l0 0z m0-153c191 0 347-156 347-347 0-191-156-347-347-347-191 0-347 156-347 347 0 191 156 347 347 347z" horiz-adv-x="1000" />

<glyph glyph-name="dot-circle" unicode="&#xe81a;" d="M500 850c275 0 500-225 500-500 0-275-225-500-500-500-275 0-500 225-500 500 0 275 225 500 500 500z" horiz-adv-x="1000" />

<glyph glyph-name="down-open" unicode="&#xe81b;" d="M571 457q0-14-10-25l-250-250q-11-11-25-11t-25 11l-250 250q-11 11-11 25t11 25 25 11h500q14 0 25-11t10-25z" horiz-adv-x="571.4" />

<glyph glyph-name="square-tickbox-selected" unicode="&#xe81c;" d="M875 850c69 0 125-56 125-125v-750c0-69-56-125-125-125h-750c-69 0-125 56-125 125v750c0 69 56 125 125 125z m-125-250l-333-333-125 125-84-84 209-208 416 417z" horiz-adv-x="1000" />

<glyph glyph-name="ico-cloud-filled" unicode="&#xe81d;" d="M343 181h377c64 0 113 49 113 113 0 53-34 94-86 110-16 45-61 79-114 79-11 0-22 0-34-4-30 45-83 79-143 79-95 0-166-75-170-166-34-19-57-56-57-98 0-64 49-113 114-113z" horiz-adv-x="1042" />

<glyph glyph-name="not-started" unicode="&#xe81e;" d="M500 850c-275 0-500-225-500-500 0-275 225-500 500-500s500 225 500 500c0 275-225 500-500 500z m194-650c12-12 12-31 0-44-6-6-13-6-25-6s-19 0-25 6l-144 150-150-150c-6-6-12-6-25-6s-19 0-25 6c-12 13-12 32 0 44l156 150-150 150c-12 13-12 31 0 44s32 12 44 0l150-150 150 150c13 12 31 12 44 0s12-31 0-44l-150-150 150-150z m-194 650c-275 0-500-225-500-500s225-500 500-500 500 225 500 500-225 500-500 500z m0-950c-250 0-450 200-450 450s200 450 450 450 450-200 450-450-200-450-450-450z" horiz-adv-x="1000" />

<glyph glyph-name="ico-profile" unicode="&#xe81f;" d="M707 232c131 0 237-103 243-232l0-11 0-103c0-20-16-36-36-36-19 0-34 14-37 31l0 5 0 103c0 91-71 165-161 170l-9 0-414 0c-91 0-165-71-170-160l0-10 0-103c0-20-16-36-36-36-19 0-34 14-37 31l0 5 0 103c0 131 103 237 233 243l10 0 414 0z m-207 618c134 0 243-109 243-242 0-134-109-243-243-243-134 0-243 109-243 243 0 133 109 242 243 242z m0-73c-94 0-170-76-170-169 0-94 76-170 170-170 94 0 170 76 170 170 0 93-76 169-170 169z" horiz-adv-x="1042" />

<glyph glyph-name="jpg" unicode="&#xe820;" d="M1007 57h-624a73 73 0 0 0-73 73v234c0 40 33 74 73 74h624c40 0 62-33 62-74v-234c0-40-22-73-62-73z m-497 320h-48v-214c0-15-2-25-7-32-4-6-12-9-22-9-7 0-15 1-23 3v-40c8-3 18-4 28-4 24 0 42 7 54 21 12 14 18 34 18 61v214z m192-18c-14 12-35 18-62 18h-72v-229h48v82h20c28 0 50 6 65 19 15 13 23 32 23 57 0 23-7 41-22 53z m241-82h-90v-41h42v-47c-10-2-20-3-30-3-20 0-34 6-44 19-11 13-16 32-16 57 0 24 7 43 19 57 13 14 29 21 50 21 18 0 36-4 52-13l16 39a170 170 0 0 1-67 14c-37 0-66-10-87-31-20-20-31-49-31-86 0-38 9-67 27-87 18-21 44-31 78-31a251 251 0 0 1 81 13v119z m-311-8h-16v68h22c13 0 22-2 29-8 6-5 9-14 9-25 0-11-4-20-11-26-8-6-19-9-33-9z m-360 94v-212c0-61 49-127 110-127h312v-100c0-41-33-74-73-74h-548a73 73 0 0 0-73 74v852c0 41 32 74 73 74h339v-227c0-41 53-82 93-82h183v-67h-306a110 110 0 0 1-110-111z m175 286v201l241-270h-171c-19 0-70 49-70 69z" horiz-adv-x="1069" />

<glyph glyph-name="png" unicode="&#xe821;" d="M1007 57h-624a73 73 0 0 0-73 73v234c0 40 33 74 73 74h624c40 0 62-33 62-74v-234c0-40-21-73-62-73z m-499 302c-14 12-35 18-62 18h-73v-229h49v82h20c28 0 50 6 65 19 15 13 23 32 23 57 0 23-7 41-22 53z m275 18h-47v-108c0-12 2-33 6-63h-3l-101 171h-65v-229h48v108c0 13-1 35-4 65h2l99-173h65v229z m225-100h-91v-41h43v-47c-10-2-20-3-30-3-20 0-34 6-45 19-10 13-15 32-15 57 0 24 7 43 19 57 13 14 29 21 50 21 18 0 36-4 52-13l16 39a169 169 0 0 1-67 14c-37 0-66-10-87-31-21-20-31-49-31-86 0-38 9-67 27-87 18-21 44-31 77-31a269 269 0 0 1 40 3 255 255 0 0 1 42 10v119z m-571-8h-15v68h22c13 0 22-2 29-8 6-5 9-14 9-25 0-11-4-20-11-26-8-6-19-9-34-9z m-165 94v-212c0-61 49-127 110-127h313v-100c0-41-33-74-73-74h-549a73 73 0 0 0-73 74v852c0 41 33 74 73 74h340v-227c0-41 52-82 93-82h182v-67h-306a110 110 0 0 1-110-111z m175 286v201l241-270h-170c-20 0-71 49-71 69z" horiz-adv-x="1069" />

<glyph glyph-name="ico-contacts" unicode="&#xe822;" d="M707 232c131 0 237-103 243-232l0-11 0-103c0-20-16-36-36-36-19 0-34 14-37 31l0 5 0 103c0 91-71 165-161 170l-9 0-414 0c-91 0-165-71-170-160l0-10 0-103c0-20-16-36-36-36-19 0-34 14-37 31l0 5 0 103c0 131 103 237 233 243l10 0 414 0z m-207 618c134 0 243-109 243-242 0-134-109-243-243-243-134 0-243 109-243 243 0 133 109 242 243 242z m0-73c-94 0-170-76-170-169 0-94 76-170 170-170 94 0 170 76 170 170 0 93-76 169-170 169z" horiz-adv-x="1042" />

<glyph glyph-name="ico-security" unicode="&#xe823;" d="M578 850c104 0 189-81 194-182l0-10 0-346 39 0c20 0 36-15 39-34l0-5 0-385c0-19-15-35-34-38l-5 0-622 0c-20 0-36 14-39 33l0 5 0 385c0 20 15 36 34 38l5 1 39 0 0 346c0 103 81 186 184 192l10 0 156 0z m0-77l-156 0c-61 0-112-47-116-107l0-8 0-346 388 0 0 346c0 61-47 111-108 115l-8 0z" horiz-adv-x="1042" />

<glyph glyph-name="calendar-invite" unicode="&#xe824;" d="M1000 531v-681h-1000v663l494-319 506 337z m-87 319v-281l-425-281-419 275v287h844z m-138-181h-562v-44h562v44z m0 119h-562v-38h562v38z" horiz-adv-x="1000" />

<glyph glyph-name="ico-location" unicode="&#xe825;" d="M500 850c205 0 375-169 375-383 0-152-64-284-214-456l0 0-95-107-35-40c-16-19-46-19-62 0-9 11-20 24-34 40l0 0-96 107c-150 172-214 304-214 456 0 217 167 383 375 383z m0-79c-163 0-295-130-295-304 0-130 57-245 195-405l0 0 59-65 41-47 99 112 15 17c128 151 181 263 181 388 0 171-135 304-295 304z m0-184c78 0 141-62 141-138 0-77-63-138-141-138-78 0-141 61-141 138 0 76 63 138 141 138z m0-79c-33 0-60-27-60-59 0-33 27-59 60-59 33 0 60 26 60 59 0 32-27 59-60 59z" horiz-adv-x="1042" />

<glyph glyph-name="incompleted" unicode="&#xe826;" d="M500 788c241 0 438-197 438-438s-197-438-438-438-437 197-437 438 196 438 437 438m0 62c-275 0-500-225-500-500s225-500 500-500 500 225 500 500-225 500-500 500l0 0z" horiz-adv-x="1000" />

<glyph glyph-name="drag-or-attach" unicode="&#xe827;" d="M1167 562l-120-157c-15-20-40-31-65-31-15 0-30 4-43 12-36 21-45 64-21 96l46 60h-314c-43 0-78 31-78 69 0 38 36 70 81 70h325l-49 62c-25 31-15 74 22 95 36 21 87 12 111-19l109-163c5-5 9-11 12-17 5-9 7-18 7-28 0-19-8-36-23-49z m-6 68a46 46 0 0 1-9 13l-110 164c-18 22-52 27-77 13-26-15-32-44-15-65l75-96h-372c-31 0-57-22-57-48 0-26 24-48 54-48h359l-71-93c-17-22-10-52 14-66 25-15 58-9 75 13l121 158c12 11 18 23 18 36a43 43 0 0 1-5 19z m-501-194c17-12 26-29 31-41 35 14 64 15 85 3 33-20 31-63 31-65l0-294c-75-175-195-189-232-189-6 0-10 1-11 1-2 0-52 1-113 1-31 0-64 0-96-1h-4c-103 0-185 116-226 217-35 89-102 190-103 191-48 83 1 125 3 127 20 18 44 25 70 22 49-5 95-48 123-79l7 338c0 28 8 50 25 66 24 22 55 22 57 22 61-2 84-48 87-72v-208c16 13 38 19 65 18 41-1 69-24 79-61 12 9 30 16 56 19 26 3 49-2 66-15z m-118-47l-30 4c1 32-8 71-54 72-20 1-35-3-45-12-17-15-19-37-19-44l-30 1v271c-1 3-9 45-58 47-5-1-52-3-50-61l-9-425-27 39c-18 26-76 94-128 100-17 3-33-3-47-15-1-1-33-31 3-94 3-3 69-103 105-195 39-97 118-202 201-199a2794 2794 0 0 0 97 2c64 0 115-2 115-2 7-1 133-12 212 169v287c0 9-3 32-18 40-15 9-40 5-73-11l-19-9-3 19c-1 6-7 57-68 51-31-4-51-16-55-35z" horiz-adv-x="1000" />

<glyph glyph-name="ico-arr-line-down" unicode="&#xe828;" d="M688 350l-320-320-56 60 264 260-264 260 56 60 320-320z" horiz-adv-x="1000" />

<glyph glyph-name="download-device" unicode="&#xe829;" d="M744-150l-53 0-531 0-53 0-106 0 0 412 113 0 0-294 623 0 0 294 113 0 0-412-106 0z m-573 529l169 0 0 471 170 0 0-471 170 0-255-235-254 235z" horiz-adv-x="1000" />

<glyph glyph-name="left-open" unicode="&#xe82a;" d="M452-20q26-26 0-48-26-26-48 0l-392 394q-24 24 0 50l392 394q22 26 48 0 26-22 0-48l-358-372z" horiz-adv-x="465" />

<glyph glyph-name="ico-bell-contacts" unicode="&#xe82b;" d="M542 257c110 0 199-88 205-199l0-10 0-87c0-20-16-36-36-36-18 0-33 14-35 31l0 5 0 87c0 72-56 132-126 136l-8 0-337 0c-71 0-129-56-133-128l-1-8 0-87c0-20-16-36-35-36-18 0-33 14-36 31l0 5 0 87c0 112 86 203 195 209l10 0 337 0z m305-7c87-23 148-101 153-192l0-10 0-87c0-20-16-36-36-36-18 0-33 14-35 31l0 5 0 87c0 62-41 116-100 132-19 5-31 25-26 44 5 20 25 31 44 26z m-474 525c113 0 205-94 205-209 0-116-92-209-205-209-113 0-204 93-204 209 0 115 91 209 204 209z m305-7c90-23 154-107 154-202 0-96-64-179-154-203-19-5-39 7-44 26-4 20 7 40 26 45 59 15 100 69 100 132 0 62-41 116-100 132-19 5-30 25-26 44 5 20 25 31 44 26z m-305-66c-73 0-133-61-133-136 0-75 60-136 133-136 74 0 134 61 134 136 0 75-60 136-134 136z" horiz-adv-x="1000" />

<glyph glyph-name="ico-reminders" unicode="&#xe82c;" d="M588 11c18-11 23-34 13-51-21-37-59-60-101-60-42 0-80 23-101 60-10 17-4 40 13 51 16 9 36 5 47-10l3-4c8-14 22-23 38-23 14 0 27 7 35 18l3 5c11 18 33 24 50 14z m-88 789c154 0 279-128 279-285 0-120 21-211 56-276 20-37 38-57 49-65 28-19 17-63-15-67l-5-1-728 0c-35 0-50 48-20 68 11 8 29 28 49 65 33 61 54 145 56 255l0 21c0 157 125 285 279 285z m0-74c-110 0-201-89-206-201l0-10c0-132-24-235-65-312l-6-11-7-11 568 0c-2 3-4 7-6 11l-7 11c-38 72-62 168-65 290l0 22 0 10c-5 112-96 201-206 201z" horiz-adv-x="1042" />

<glyph glyph-name="block" unicode="&#xe82d;" d="M465 797q184 0 315-131t131-316-131-315-315-132-316 132-131 315 131 316 316 131z m-1-112q-138 0-236-98t-98-236q0-107 62-194l466 466q-87 62-194 62z m0-669q138 0 237 97t98 238q0 106-62 193l-466-466q87-62 193-62z" horiz-adv-x="928" />

<glyph glyph-name="ico-users" unicode="&#xe82e;" d="M542 257c110 0 199-88 205-199l0-10 0-87c0-20-16-36-36-36-18 0-33 14-35 31l0 5 0 87c0 72-56 132-126 136l-8 0-337 0c-71 0-129-56-133-128l-1-8 0-87c0-20-16-36-35-36-18 0-33 14-36 31l0 5 0 87c0 112 86 203 195 209l10 0 337 0z m305-7c87-23 148-101 153-192l0-10 0-87c0-20-16-36-36-36-18 0-33 14-35 31l0 5 0 87c0 62-41 116-100 132-19 5-31 25-26 44 5 20 25 31 44 26z m-474 525c113 0 205-94 205-209 0-116-92-209-205-209-113 0-204 93-204 209 0 115 91 209 204 209z m305-7c90-23 154-107 154-202 0-96-64-179-154-203-19-5-39 7-44 26-4 20 7 40 26 45 59 15 100 69 100 132 0 62-41 116-100 132-19 5-30 25-26 44 5 20 25 31 44 26z m-305-66c-73 0-133-61-133-136 0-75 60-136 133-136 74 0 134 61 134 136 0 75-60 136-134 136z" horiz-adv-x="1000" />

<glyph glyph-name="ico-print-email" unicode="&#xe82f;" d="M823 850c26 0 48-22 48-48l0 0 0-210 81 0c24 0 44-18 48-42l0-6 0-387c0-25-18-45-42-48l-6-1-146 0 1-210c0-24-19-44-42-48l-7 0-516 0c-27 0-48 22-48 48l0 0 0 210-146 0c-24 0-44 18-48 42l0 7 0 387c0 24 18 44 42 48l6 0 81 0 0 210c0 24 18 44 42 48l6 0z m-113-613l-420 0 0-290 420 0 0 290z m193 258l-806 0 0-290 97 0 0 81c0 24 18 44 41 47l7 1 516 0c27 0 49-22 49-48l0 0-1-81 97 0 0 290z m-129 258l-548 0 0-161 548 0 0 161z" horiz-adv-x="1000" />

<glyph glyph-name="ico-filter-line" unicode="&#xe830;" d="M620 114h-236c-24 0-40 20-40 40 0 24 20 40 40 40h236c24 0 40-20 40-40 0-20-16-40-40-40m80 200h-396c-24 0-40 20-40 40 0 24 20 40 40 40h396c24 0 40-20 40-40 0-24-16-40-40-40m120 196h-640c-24 0-40 20-40 40 0 24 16 40 40 40h640c28 4 44-16 44-40-4-20-20-40-44-40" horiz-adv-x="1000" />

<glyph glyph-name="exe" unicode="&#xe831;" d="M1006 57h-620c-40 0-72 33-72 73v235c0 40 32 73 72 73h620c39 0 61-33 61-73v-235c0-40-21-73-61-73z m-432 138h-74v53h69v35h-69v45h74v36h-117v-205h117v36z m200 169h-46l-43-74-43 74h-47l62-99-67-106h46l47 77 47-77h49l-68 103 63 102z m147-169h-74v53h69v35h-69v45h74v36h-117v-205h117v36z m-619 168v-212c0-61 48-127 109-127h310v-100c0-41-32-74-72-74h-545c-40 0-72 33-72 74v852c0 41 32 74 72 74h338v-227c0-41 51-82 91-82h182v-67h-304c-60 0-109-50-109-111z m174 286v201l239-270h-169c-20 0-70 49-70 69z" horiz-adv-x="1069" />

<glyph glyph-name="tick" unicode="&#xe832;" d="M388-88c-28 0-55 13-73 35l-234 295c-30 38-22 93 18 122 40 29 97 22 128-17l154-194 387 593c27 41 84 54 126 28 43-25 56-79 30-120l-458-700c-16-25-43-40-74-41-1-1-2-1-4-1" horiz-adv-x="1000" />

<glyph glyph-name="squared-unchecked" unicode="&#xe833;" d="M888-150h-775c-63 0-113 50-113 112v776c0 62 50 112 113 112h768c63 0 113-50 113-112v-769c6-69-44-119-106-119z m-775 938c-32 0-57-25-57-50v-769c0-32 25-57 57-57h768c32 0 57 25 57 57v769c0 31-25 56-57 56h-768z" horiz-adv-x="1000" />

<glyph glyph-name="ico-close-minimize" unicode="&#xe834;" d="M562 350l248-248-62-61-248 247-248-247-61 61 247 248-252 252 62 62 247-247 248 247 62-62-243-252z" horiz-adv-x="1000" />

<glyph glyph-name="download" unicode="&#xe835;" d="M525 144l-256 256h206v425h525v-950h-1000v950h106v-844h794v738h-325v-319h206l-256-256z" horiz-adv-x="1000" />

<glyph glyph-name="ico-maximize" unicode="&#xe836;" d="M835 685v-360l-145 145-125-125-70 65 125 125-145 150c10-5 360 0 360 0z m-330-395l-65 65-125-125-150 145c5-10 0-360 0-360h360l-145 145 125 130z" horiz-adv-x="1000" />

<glyph glyph-name="ico-minimize-line" unicode="&#xe837;" d="M917 421v-138h-834v138h834z" horiz-adv-x="1000" />

<glyph glyph-name="right-open" unicode="&#xe838;" d="M13-20l358 370-358 372q-26 26 0 48 26 26 48 0l392-394q24-26 0-50l-392-394q-22-26-48 0-26 22 0 48z" horiz-adv-x="465" />

<glyph glyph-name="default-image" unicode="&#xe839;" d="M808 671h-616c-59 0-109-50-109-108v-425c0-59 50-109 109-109h616c59 0 109 50 109 109v425c0 58-50 108-109 108z m-616-25h616c46 0 84-38 84-83v-367l-163 129-171-142-229 209-216-188v359c-5 45 33 83 79 83z m616-592h-616c-46 0-84 38-84 84v29l217 187 229-208 175 146 163-129v-25c0-46-38-84-84-84z m-220 313c-55 0-96 41-96 96 0 54 41 95 96 95s95-41 95-95c0-50-41-96-95-96z m0 171c-42 0-75-34-75-75s33-75 75-75c41 0 75 33 75 75s-34 75-75 75z" horiz-adv-x="1000" />

<glyph glyph-name="tag" unicode="&#xe83a;" d="M969 444l0 0c0 0 0 0 0 0 0 6 0 6 0 12 12 69 44 300 25 363 0 6-19 19-25 25-63 25-306-13-369-25 0 0 0 0 0 0 0 0 0 0-6 0l0 0c-13 0-19-6-25-13l-550-556c-25-25-25-62 0-87l300-301c25-25 62-25 87 0l550 551c7 12 13 25 13 31z m-281 94c-44 43-44 112 0 150 43 43 112 43 150 0s43-113 0-150c-44-44-113-44-150 0z" horiz-adv-x="1000" />

<glyph glyph-name="color" unicode="&#xe83b;" d="M969 444l0 0c0 0 0 0 0 0 0 6 0 6 0 12 12 69 44 300 25 363 0 6-19 19-25 25-63 25-306-13-369-25 0 0 0 0 0 0 0 0 0 0-6 0l0 0c-13 0-19-6-25-13l-550-556c-25-25-25-62 0-87l300-301c25-25 62-25 87 0l550 551c7 12 13 25 13 31z m-281 94c-44 43-44 112 0 150 43 43 112 43 150 0s43-113 0-150c-44-44-113-44-150 0z" horiz-adv-x="1000" />

<glyph glyph-name="refresh" unicode="&#xe843;" d="M312 311c20 0 36-16 36-36 0-19-13-34-31-36l-5-1-134 1 108-103c74-73 180-104 281-81 101 23 184 96 218 194 7 19 28 29 46 22 19-6 29-27 23-46-43-121-146-212-271-241-121-27-247 7-337 91l-10 9-113 107 0-142c0-18-14-34-32-36l-5 0c-18 0-33 13-36 31l0 5 0 226c0 1 0 2 0 3l0-3c0 2 0 4 1 6 0 1 0 2 0 3 0 1 1 1 1 2 0 1 0 2 1 3 0 0 0 1 1 1 0 1 0 2 1 2 1 3 3 5 4 7 1 0 1 0 1 1l2 1c0 1 1 1 1 2l-3-3c2 2 4 3 6 5 0 0 1 0 1 1 1 0 2 1 3 1 1 1 1 1 2 1 1 1 2 1 3 1 0 0 1 1 2 1 1 0 2 0 3 0 0 1 1 1 1 1l1 0c1 0 1 0 2 0l2 0 226 0z m442 314l10-9 113-107 1 142c0 19 13 34 31 36l5 0c18 0 33-13 36-31l0-5 0-226 0-1c0 0 0-1 0-2l0 3c0-2 0-4 0-6-1-1-1-2-1-2 0-1 0-2-1-2 0-2 0-3-1-4 0 0 0-1-1-1 0-1 0-2-1-2-1-3-3-5-4-7 0 0-1 0-1-1l-1 0c-1-1-1-2-2-3l3 3c-2-1-3-3-5-4-1-1-2-1-3-2-1 0-1-1-2-1-1-1-2-1-3-1-1-1-1-1-2-1-1-1-2-1-3-1-1 0-2 0-2 0-1-1-1-1-1-1l-3 0c0 0-1 0-2 0l0 0-226 0c-20 0-36 16-36 36 0 19 13 34 31 36l5 1 134 0-108 102c-74 73-180 104-281 81-101-23-183-96-218-194-7-19-27-29-46-22-19 6-29 27-22 46 42 121 145 212 270 241 121 27 248-7 337-91z" horiz-adv-x="1000" />

<glyph glyph-name="search" unicode="&#xe844;" d="M725 188c131 162 119 393-25 543-150 157-412 157-569 7-162-157-162-419-6-582 144-150 369-162 525-43l269-269 69 68-263 276z m-75 12c-131-131-350-131-487 6-132 138-132 357 12 488 131 131 350 131 488-6 131-138 125-350-13-488z" horiz-adv-x="1000" />

<glyph glyph-name="menu" unicode="&#xe845;" d="M0 663h1000v-125h-1000v125z m0-250h1000v-125h-1000v125z m0-250h1000v-125h-1000v125z" horiz-adv-x="1000" />

<glyph glyph-name="attention-circled" unicode="&#xe846;" d="M144 706c-194-193-194-512 0-706l706 706c-194 194-512 194-706 0z m750-50l-700-700c200-156 481-144 662 38 175 181 194 469 38 662z" horiz-adv-x="1000" />

<glyph glyph-name="checkbox-unselected" unicode="&#xe84d;" d="M500 850c-275 0-500-225-500-500s225-500 500-500 500 225 500 500-225 500-500 500z m0-950c-250 0-450 200-450 450s200 450 450 450 450-200 450-450-200-450-450-450z" horiz-adv-x="1000" />

<glyph glyph-name="editor-bold" unicode="&#xe851;" d="M627 373c74-17 126-38 156-63 43-35 65-80 65-136 0-59-24-107-71-146-58-46-142-70-253-70h-397v22c36 0 61 3 73 10 13 7 22 15 27 26 6 11 8 37 8 80v507c0 42-2 69-8 79s-14 20-27 27-37 9-73 9v22h374c90 0 153-8 191-24s66-40 88-72c21-31 32-65 32-101 0-37-14-71-41-100-27-30-75-53-144-70z m-210-30v-250l0-29c0-21 5-36 16-47 10-11 26-16 47-16 30 0 59 7 85 21 25 13 45 33 59 59 14 26 21 55 21 87 0 36-9 69-25 98-17 29-41 49-70 61-30 11-74 17-133 16z m0 45c55 0 95 6 121 19 26 12 46 29 60 52 14 22 20 50 20 85 0 34-6 63-20 85-14 22-33 39-59 50-25 12-66 17-122 17v-308z" horiz-adv-x="1000" />

<glyph glyph-name="editor-bullet-list" unicode="&#xe852;" d="M104 266h156v156h-156v-156z m0 320h156v156h-156v-156z m0-640h156v156h-156v-156z m261 757v-78h531v78h-531z m0-401h531v78h-531v-78z m0-323h531v78h-531v-78z" horiz-adv-x="1000" />

<glyph glyph-name="editor-emoji" unicode="&#xe853;" d="M500 741c-216 0-391-175-391-391 0-216 175-391 391-391 216 0 391 175 391 391 0 216-175 391-391 391z m111-155c35 0 63-28 63-63 0-34-28-62-63-62-34 0-62 28-62 62 0 35 28 63 62 63z m-221 0c34 0 62-28 62-63 0-34-28-62-62-62s-63 28-63 62c0 35 28 63 63 63z m110-499c-135 0-245 110-245 245 0 4 0 8 1 11l489-1c0-3 0-7 0-10 0-135-110-245-245-245z" horiz-adv-x="1000" />

<glyph glyph-name="editor-increase-indent" unicode="&#xe854;" d="M476 66h453v78h-453v-78z m-370 98l234 195-234 196v-391z m-21-259h844v78h-844v-78z m391 484h453v79h-453v-79z m0-161h453v78h-453v-78z m0 323h453v78h-453v-78z m-391 240v-79h844v79h-844z" horiz-adv-x="1000" />

<glyph glyph-name="editor-insert-image" unicode="&#xe855;" d="M757 480l-80 220c-6 16-23 25-39 19l-531-193c-15-6-23-24-17-40l84-232v124c0 56 45 102 100 102h140l168 118 97-118h78z m82-70h-565c-16 0-30-14-30-32v-368c0-17 14-31 30-31h565c17 0 30 14 30 31v368c0 18-13 32-30 32m-43-353h-468v67l72 168 108-134 101 104 131 47 56-126v-126z" horiz-adv-x="1000" />

<glyph glyph-name="editor-italics" unicode="&#xe856;" d="M423 732l6 22h381l-7-22c-35 0-61-7-79-23-19-15-35-47-49-96l-142-500c-11-35-16-59-16-71 0-14 5-24 16-32 14-10 40-16 79-16l-6-22h-388l6 22c39 0 68 7 86 22 18 15 34 47 49 97l144 500c8 31 13 54 13 70 0 14-5 25-16 33-11 8-37 14-77 16z" horiz-adv-x="1000" />

<glyph glyph-name="pdf" unicode="&#xe858;" d="M1000 37h-627a74 74 0 0 0-74 73v259c0 40 33 73 74 73h627c40 0 73-32 73-73v-259a74 74 0 0 0-73-73z m-434 281a56 56 0 0 1-30 21c-8 2-25 3-51 3h-69v-212h43v80h28c19 0 34 1 44 3a62 62 0 0 1 22 10c8 5 14 12 18 21 5 9 7 19 7 33 0 16-4 30-12 41z m219-34a93 93 0 0 1-21 34 71 71 0 0 1-32 20c-9 3-22 4-40 4h-78v-212h80c16 0 29 1 38 4 13 4 23 10 30 17 10 9 18 22 23 37 4 13 7 28 7 46 0 20-3 36-7 50z m189 58h-146v-212h43v90h89v36h-89v50h103v36z m-242-166c-5-4-11-7-18-9-5-1-14-2-26-2h-32v141h20c17 0 29-1 35-2 8-2 14-5 20-10 5-5 9-12 12-21 3-8 4-21 4-37 0-17-1-30-4-39-3-10-7-17-11-21z m-216 73c-6-2-17-3-34-3h-23v60h20c16 0 26-1 31-2a30 30 0 0 0 17-9 27 27 0 0 0 7-19 29 29 0 0 0-5-17 28 28 0 0 0-13-10z m-254 120v-258a110 110 0 0 1 111-111h331v-74a74 74 0 0 0-73-73h-553a74 74 0 0 0-74 74v847c0 41 33 74 74 74h368v-221c0-41 34-74 74-74h184v-74h-331a111 111 0 0 1-111-110z m221 258v221l221-258h-184a37 37 0 0 0-37 37z" horiz-adv-x="1103" />

<glyph glyph-name="doc" unicode="&#xe859;" d="M981 50h-618a73 73 0 0 0-72 73v255c0 39 32 72 72 72h618c40 0 73-32 73-72v-255c0-40-33-73-73-73z m-467 262a105 105 0 0 1-23 38 80 80 0 0 1-36 22c-10 3-25 5-45 5h-89v-239h91c18 0 32 1 43 5 14 4 26 11 34 19 11 11 20 25 26 42 5 14 7 31 7 51 0 22-3 41-8 57z m239 36c-21 22-49 33-84 33-20 0-37-3-52-10a94 94 0 0 1-31-21 114 114 0 0 1-22-33c-7-16-11-37-11-61 0-38 11-68 32-90 21-22 49-32 85-32 35 0 63 10 84 32 21 22 31 52 31 91 0 39-10 69-32 91z m128-27c11 12 25 19 43 19 13 0 24-4 33-11 9-7 14-17 17-29l48 11c-5 19-14 34-24 44-19 17-42 26-72 26-33 0-60-11-81-33-20-22-31-53-31-93 0-38 11-67 31-89 21-22 47-32 78-32 26 0 47 6 64 19 17 12 29 32 36 58l-47 15c-4-18-11-31-20-39a48 48 0 0 0-33-12c-17 0-32 6-43 19-10 13-16 34-16 65 0 28 6 49 17 62z m-212-146a61 61 0 0 0-47 21c-13 14-19 34-19 61 0 28 6 49 18 62 12 14 28 21 48 21 20 0 36-7 48-21 12-13 18-34 18-61 0-28-6-48-18-62-13-14-28-21-48-21z m-214 15a45 45 0 0 0-20-10c-6-1-16-2-29-2h-36v158h21c20 0 33 0 40-2 9-2 17-6 22-11 6-6 11-13 14-23 3-10 5-24 5-43 0-18-2-33-5-44-3-10-7-18-12-23z m-201 187v-254a109 109 0 0 1 110-109h326v-90a73 73 0 0 0-72-73h-545a73 73 0 0 0-73 73v853c0 40 33 73 73 73h363v-218c0-41 33-73 73-73h181v-73h-326a109 109 0 0 1-110-109z m218 255v218l218-255h-182a36 36 0 0 0-36 37z" horiz-adv-x="1069" />

<glyph glyph-name="mp3" unicode="&#xe85a;" d="M1008 58h-626a73 73 0 0 0-73 73v233c0 40 32 73 73 73h626c40 0 62-32 62-73v-233c0-40-22-73-62-73z m-424 310h-69l-41-156-41 156h-69v-228h43v179l45-179h44l45 179v-179h43v228z m207-26a60 60 0 0 1-33 22c-8 2-26 4-54 4h-74v-228h46v86h30c21 0 36 1 47 3a66 66 0 0 1 24 11 62 62 0 0 1 20 22c5 10 7 22 7 36 0 18-4 32-13 44z m181-32c0 14-6 27-16 38-13 14-30 21-52 21a80 80 0 0 1-34-7 58 58 0 0 1-23-20c-6-8-10-19-13-33l40-7c1 10 5 18 10 23a26 26 0 0 0 19 8 25 25 0 0 0 18-7c5-5 7-11 7-18 0-9-3-17-9-22-7-6-16-8-27-8l-5-35c8 2 14 3 20 3 8 0 16-3 21-10 6-6 9-15 9-26 0-11-3-21-9-28a30 30 0 0 0-23-10 30 30 0 0 0-21 9c-6 6-10 14-11 24l-42-5c2-19 10-34 23-46 14-12 31-18 52-18 21 0 40 7 54 21 15 14 22 31 22 51 0 14-4 26-12 36a53 53 0 0 1-31 18c22 12 33 28 33 48z m-235-42c-6-2-18-3-36-3h-25v64h22c17 0 28 0 33-1a32 32 0 0 0 19-11c4-5 7-12 7-20a31 31 0 0 0-5-18 30 30 0 0 0-15-11z m-464 94v-212c0-61 49-127 111-127h313v-100a73 73 0 0 0-73-73h-551a73 73 0 0 0-73 73v851c0 40 33 73 74 73h340v-226c0-41 53-82 93-82h183v-67h-306a110 110 0 0 1-111-110z m176 285v200l241-269h-170c-20 0-71 48-71 69z" horiz-adv-x="1103" />

<glyph glyph-name="cloud" unicode="&#xe85d;" d="M1373 426a315 315 0 0 1-384 191 436 436 0 0 1-806-220 291 291 0 0 1 145-542h968a291 291 0 0 1 291 291 291 291 0 0 1-214 280z m-77-474h-968a194 194 0 0 0-44 382 339 339 0 0 0 659 152 218 218 0 0 0 352-147h1a194 194 0 0 0 194-193 194 194 0 0 0-194-194z" horiz-adv-x="1632" />

<glyph glyph-name="zip" unicode="&#xe85e;" d="M948 77h-597a70 70 0 0 0-70 70v246c0 39 31 70 70 70h597c39 0 70-31 70-70v-246c0-38-31-70-70-70z m-382 111h-152l146 180v42h-195v-45h124l-140-173v-49h217v45z m86 222h-54v-267h54v267z m241-30a70 70 0 0 1-39 26c-10 3-31 4-64 4h-86v-267h54v101h35c24 0 43 1 56 4 9 2 18 6 28 12 9 7 16 15 22 27 6 11 9 25 9 41 0 21-5 39-15 52z m-63-87c-7-2-22-4-43-4h-29v76h26c19 0 32-1 38-2 9-1 16-5 22-12 6-6 9-14 9-24 0-8-2-15-6-21-4-5-10-10-17-13z m-584 100v-246c0-58 47-101 105-101h316v-95a70 70 0 0 0-70-70h-527a70 70 0 0 0-70 70v828c0 39 32 70 71 70h350v-210c0-39 32-70 71-70h175v-71h-316a105 105 0 0 1-105-105z m210 246v210l211-245h-176a35 35 0 0 0-35 35z" horiz-adv-x="1033" />

<glyph glyph-name="eml" unicode="&#xe863;" d="M1007 58h-626a73 73 0 0 0-73 74v234c0 40 33 73 73 73h626c40 0 62-33 62-73v-234c0-41-21-74-62-74z m-514 123h-83v59h77v39h-77v51h83v39h-132v-228h132v40z m298 188h-69l-61-174h-1l-54 174h-66v-228h48v106c0 12-3 37-8 73h2l54-179h49l58 179c0-29 0-47 0-53 0-7 0-13 0-18v-108h48v228z m190-188h-92v188h-48v-228h140v40z m-708 182v-212c0-61 49-127 110-127h313v-100c0-41-32-74-73-74h-550a73 73 0 0 0-73 74v852c0 41 33 74 74 74h340v-227c0-41 52-82 93-82h183v-67h-307a110 110 0 0 1-110-111z m176 286v201l241-270h-171c-19 0-70 49-70 69z" horiz-adv-x="1069" />

<glyph glyph-name="angle-double-down" unicode="&#xe864;" d="M43 368q0 7 6 13l27 28q6 5 13 5t13-5l219-220 220 220q5 5 13 5t12-5l28-28q6-6 6-13t-6-13l-260-260q-5-6-13-6t-12 6l-260 260q-6 6-6 13z m0 214q0 7 6 13l27 28q6 5 13 5t13-5l219-220 220 220q5 5 13 5t12-5l28-28q6-6 6-13t-6-13l-260-260q-5-5-13-5t-12 5l-260 260q-6 6-6 13z" horiz-adv-x="642.9" />

<glyph glyph-name="gif" unicode="&#xe865;" d="M1007 57h-625a73 73 0 0 0-73 73v235c0 40 33 73 73 73h625c40 0 62-33 62-73v-235c0-40-21-73-62-73z m-364 217h-81v-36h39v-43a142 142 0 0 0-28-3c-17 0-30 6-39 18-9 12-14 29-14 51 0 21 6 38 17 51 11 12 26 18 45 18 16 0 32-3 46-11l15 35a152 152 0 0 1-61 13c-33 0-59-10-77-28-19-19-28-44-28-77 0-34 8-60 24-78 16-19 39-28 69-28 13 0 24 1 36 3 12 2 24 5 37 9v106z m93 90h-43v-205h43v205z m168 0h-117v-205h42v81h70v35h-70v53h75v36z m-631-1v-212c0-61 49-127 110-127h313v-100c0-41-33-74-73-74h-550a73 73 0 0 0-73 74v852c0 41 33 74 73 74h341v-227c0-41 52-82 92-82h183v-67h-306a110 110 0 0 1-110-111z m175 286v201l241-270h-170c-20 0-71 49-71 69z" horiz-adv-x="1069" />

<glyph glyph-name="ics" unicode="&#xe866;" d="M1007 57h-627a74 74 0 0 0-74 73v235c0 40 33 73 74 73h627c40 0 62-33 62-73v-235c0-40-22-73-62-73z m-493 305h-49v-229h49v229z m153 3c-22 0-41-5-57-14a92 92 0 0 1-36-41c-9-18-13-39-13-63 0-37 9-66 26-87 17-20 42-30 75-30a162 162 0 0 1 63 12v41c-23-8-42-12-58-12-38 0-58 25-58 76 0 24 5 43 15 57 10 14 24 21 43 21 8 0 16-2 25-5 9-3 17-6 26-10l15 39c-22 11-44 16-66 16z m151-47c5 5 12 7 21 7 8 0 16-1 24-3 8-2 18-6 30-11l16 38a232 232 0 0 1-34 12 134 134 0 0 1-34 4c-24 0-43-6-57-17-14-12-21-28-21-48 0-11 3-20 7-28 4-8 10-15 17-21 7-6 17-12 31-19 15-7 25-12 30-15 4-4 8-7 11-10a20 20 0 0 0 3-12c0-8-3-14-8-18-6-4-14-6-25-6-8 0-18 1-29 4a264 264 0 0 0-39 14v-45c19-9 40-14 65-14 26 0 47 6 62 18 14 12 22 28 22 49 0 15-4 27-12 38-8 10-23 20-44 30-16 8-26 13-31 16a32 32 0 0 0-9 9 21 21 0 0 0-3 12c0 6 3 12 7 16z m-544 45v-212c0-61 49-127 110-127h314v-100c0-41-33-74-73-74h-552a74 74 0 0 0-73 74v852a74 74 0 0 0 74 74h341v-227c0-41 52-82 93-82h184v-67h-308a110 110 0 0 1-110-111z m176 286v201l242-270h-171c-20 0-71 49-71 69z" horiz-adv-x="1069" />

<glyph glyph-name="java" unicode="&#xe867;" d="M1007 57h-625a73 73 0 0 0-73 73v235c0 40 33 73 73 73h625c40 0 62-33 62-73v-235c0-40-21-73-62-73z m-559 307h-43v-192c0-13-2-22-7-28-4-6-10-9-20-9a84 84 0 0 0-20 3v-36c7-2 16-3 25-3 22 0 38 6 48 19 11 12 17 30 17 54v192z m94 0l-69-205h44l14 49h75l14-49h44l-69 205h-53z m258 0l-38-122c-6-22-10-37-11-45a527 527 0 0 1-11 45l-38 122h-43l68-205h48l68 205h-43z m154 0h-53l-68-205h43l15 49h74l15-49h43l-69 205z m-26-31c1-4 2-8 4-14 1-6 9-31 23-75h-53c14 47 23 77 26 89z m-359 0c0-4 2-8 3-14 2-6 10-31 23-75h-53c15 47 24 77 27 89z m-296 30v-212c0-61 49-127 110-127h312v-100c0-41-32-74-73-74h-549a73 73 0 0 0-73 74v852c0 41 33 74 73 74h340v-227c0-41 53-82 93-82h183v-67h-306a110 110 0 0 1-110-111z m175 286v201l241-270h-170c-20 0-71 49-71 69z" horiz-adv-x="1069" />

<glyph glyph-name="mms" unicode="&#xe869;" d="M1007 59h-625a73 73 0 0 0-73 73v235c0 40 33 73 73 73h625c40 0 62-33 62-73v-235c0-40-21-73-62-73z m-423 293h-62l-54-157h-1l-48 157h-59v-205h42v95c0 11-2 33-6 65h1l49-160h43l52 160a3883 3883 0 0 0 0-63v-97h43v205z m269 0h-61l-55-157h-1l-48 157h-59v-205h42v95c0 11-2 33-6 65h1l49-160h43l52 160a3036 3036 0 0 0 0-63v-97h43v205z m84-39c4 4 10 5 18 5 7 0 14 0 21-2 8-2 17-5 27-10l14 34a210 210 0 0 1-30 11 120 120 0 0 1-30 4c-22 0-39-6-51-16-12-10-18-25-18-43 0-9 2-18 5-25 4-7 9-13 15-19 7-5 16-11 28-17 14-6 22-10 27-13 4-3 7-6 10-9a18 18 0 0 0 3-11c0-7-3-13-8-16-5-4-12-6-21-6-8 0-17 2-27 4a239 239 0 0 0-34 13v-40c16-9 35-13 57-13 24 0 42 6 55 16 14 11 20 26 20 44 0 13-3 25-10 34-7 9-20 18-39 27-15 7-24 12-28 15a30 30 0 0 0-8 8 19 19 0 0 0-3 10c0 6 2 11 7 15z m-664 50v-212c0-61 49-127 110-127h313v-100c0-41-33-74-73-74h-550a73 73 0 0 0-73 74v852c0 41 33 74 73 74h341v-227c0-41 52-82 92-82h183v-67h-306a110 110 0 0 1-110-111z m175 286v201l241-270h-170c-20 0-71 49-71 69z" horiz-adv-x="1069" />

<glyph glyph-name="mov" unicode="&#xe86a;" d="M1007 57h-625a73 73 0 0 0-73 73v235c0 40 33 73 73 73h625c40 0 62-33 62-73v-235c0-40-21-73-62-73z m-416 307h-61l-55-157h-1l-48 157h-59v-205h43v95c0 11-3 33-7 66h1l49-161h44l52 160a3045 3045 0 0 0-1-63v-97h43v205z m202-24c-17 18-40 27-71 27-30 0-54-9-70-27-17-18-25-44-25-78 0-34 8-60 25-78 16-19 39-28 70-28 31 0 54 9 70 28 17 18 25 44 25 78 0 34-8 60-24 78z m183 24l-38-122c-6-21-10-36-11-45a282 282 0 0 1-4 20c-2 9-4 18-7 25l-38 122h-43l69-205h47l69 205h-44z m-254-172c-17 0-30 6-39 18-8 11-13 29-13 52 0 22 5 40 13 51 9 12 22 18 39 18 35 0 52-23 52-69 0-47-17-70-52-70z m-449 172v-213c0-61 49-127 110-127h313v-100c0-41-33-74-73-74h-550a73 73 0 0 0-73 74v852c0 41 33 74 73 74h341v-227c0-41 52-82 92-82h183v-67h-306a110 110 0 0 1-110-110z m175 285v201l241-270h-170c-20 0-71 49-71 69z" horiz-adv-x="1069" />

<glyph glyph-name="ppt" unicode="&#xe86c;" d="M1007 57h-627a73 73 0 0 0-73 73v234c0 40 33 74 73 74h627c40 0 62-33 62-74v-234c0-40-22-73-62-73z m-448 302c-15 12-35 18-63 18h-73v-229h49v82h20c28 0 50 6 65 19 16 13 23 32 23 57 0 23-7 41-21 53z m201 0c-15 12-36 18-63 18h-73v-229h48v82h21c28 0 50 6 65 19 16 13 23 32 23 57 0 23-7 41-21 53z m215 18h-173v-40h62v-189h49v189h62v40z m-287-108h-16v68h22c14 0 23-2 30-8 6-5 9-14 9-25 0-11-4-20-11-26-8-6-19-9-34-9z m-200 0h-16v68h22c13 0 23-2 29-8 6-5 9-14 9-25 0-11-4-20-11-26-7-6-19-9-33-9z m-214 94v-212c0-61 49-127 110-127h314v-100c0-41-33-74-73-74h-552a74 74 0 0 0-73 74v852a74 74 0 0 0 74 74h341v-227c0-41 52-82 93-82h184v-67h-308a110 110 0 0 1-110-111z m176 286v201l242-270h-172c-19 0-70 49-70 69z" horiz-adv-x="1069" />

<glyph glyph-name="psd" unicode="&#xe86d;" d="M1007 60h-628a74 74 0 0 0-73 73v234c0 41 33 74 73 74h628c40 0 62-33 62-74v-234c0-40-22-73-62-73z m-462 302c-14 12-35 18-63 18h-73v-228h49v81h20c28 0 50 6 66 19 15 13 22 32 22 57 0 23-7 41-21 53z m109-25c5 4 12 6 21 6 7 0 15-1 23-3 8-2 18-5 30-10l16 37a241 241 0 0 1-34 12 135 135 0 0 1-34 4c-24 0-43-5-57-17-13-12-20-27-20-48 0-10 2-20 6-28 4-8 10-15 17-21 7-6 17-12 31-19 15-7 25-12 30-15 5-3 8-7 11-10a20 20 0 0 0 4-12c0-8-3-14-9-18-6-4-14-6-24-6-9 0-19 1-30 4a263 263 0 0 0-39 15v-46c19-9 41-14 65-14 26 0 47 6 62 18 15 12 22 29 22 49 0 15-4 28-12 38-8 10-22 20-44 31-16 7-26 13-30 16a33 33 0 0 0-10 9 21 21 0 0 0-3 11c0 7 3 12 8 17z m289 14c-20 19-49 29-86 29h-71v-228h64c40 0 71 10 92 30 21 20 32 49 32 86 0 35-10 63-31 83z m-87-159h-21v148h26c43 0 65-24 65-73 0-50-24-75-70-75z m-382 81h-16v67h22c13 0 23-2 29-8 6-5 9-14 9-25 0-11-4-20-11-26-7-5-19-8-33-8z m-200 90v-212c0-61 49-127 110-127h314v-100c0-41-32-74-73-74h-552a74 74 0 0 0-73 74v852a74 74 0 0 0 74 74h341v-227c0-41 53-82 93-82h184v-67h-308a110 110 0 0 1-110-111z m176 286v201l242-270h-171c-20 0-71 49-71 69z" horiz-adv-x="1069" />

<glyph glyph-name="sheets" unicode="&#xe86e;" d="M1004 57h-619c-40 0-73 33-73 73v235c0 40 33 73 73 73h619c40 0 61-33 61-73v-235c0-40-21-73-61-73z m-607 254c3 3 8 4 15 4 5 0 11 0 17-2 6-1 13-4 22-8l11 28a172 172 0 0 1-24 9 95 95 0 0 1-25 3c-17 0-31-4-41-13-10-8-15-20-15-35 0-8 2-14 5-20 3-6 7-11 12-16 5-4 12-9 22-14 11-5 18-8 22-11 3-2 6-5 8-7a15 15 0 0 0 2-9c0-6-2-10-6-13-4-3-10-5-17-5a82 82 0 0 0-21 4 192 192 0 0 0-29 10v-33c14-7 29-10 47-10 19 0 34 4 45 13 10 9 16 21 16 36 0 11-3 20-9 27-5 8-16 15-32 23a207 207 0 0 0-22 11 23 23 0 0 0-6 7 15 15 0 0 0-3 8c0 5 2 9 6 13z m231 31h-35v-65h-66v65h-34v-167h34v72h66v-72h35v167z m136-137h-60v43h56v29h-56v36h60v29h-95v-167h95v30z m130 0h-60v43h56v29h-56v36h60v29h-95v-167h95v30z m142 137h-124v-29h45v-138h35v138h44v29z m-735 21v-212c0-61 48-127 109-127h310v-100c0-41-33-74-73-74h-544c-40 0-73 33-73 74v852c0 41 33 74 73 74h337v-227c0-41 52-82 92-82h181v-67h-303c-60 0-109-50-109-111z m173 286v201l239-270h-169c-19 0-70 49-70 69z" horiz-adv-x="1069" />

<glyph glyph-name="txt" unicode="&#xe86f;" d="M1007 57h-626a73 73 0 0 0-73 73v235a73 73 0 0 0 73 73h626c40 0 62-33 62-73v-235c0-40-21-73-62-73z m-419 307h-154v-36h55v-169h43v169h56v36z m191 0h-47l-43-74-44 74h-47l63-99-68-106h47l47 78 47-78h50l-69 103 64 102z m165 0h-154v-36h55v-169h43v169h56v36z m-671 0v-213c0-61 49-127 110-127h314v-100c0-41-33-74-73-74h-551a73 73 0 0 0-73 74v852c0 41 33 74 74 74h340v-227c0-41 53-82 93-82h183v-67h-307a110 110 0 0 1-110-110z m176 285v201l241-270h-171c-19 0-70 49-70 69z" horiz-adv-x="1069" />

<glyph glyph-name="vcf" unicode="&#xe870;" d="M1007 57h-626a73 73 0 0 0-73 73v235c0 40 33 73 73 73h626c40 0 62-33 62-73v-235c0-40-21-73-62-73z m-437 307l-39-122c-6-21-10-36-11-45a495 495 0 0 1-11 45l-38 122h-43l69-205h47l69 205h-43z m152 3c-20 0-37-5-51-13-14-9-25-21-32-37-8-16-12-35-12-56 0-34 8-60 23-78 16-18 38-27 68-27 20 0 39 4 56 11v36c-21-7-38-11-52-11-34 0-51 23-51 69 0 22 4 39 13 51 9 12 21 19 38 19 7 0 15-2 22-5 8-2 16-5 23-9l14 35c-20 10-39 15-59 15z m213-3h-117v-205h43v81h69v35h-69v53h74v36z m-662 0v-213c0-61 49-127 110-127h314v-100c0-41-33-74-73-74h-551a73 73 0 0 0-73 74v852c0 41 33 74 74 74h340v-227c0-41 53-82 93-82h183v-67h-307a110 110 0 0 1-110-110z m176 285v201l241-270h-171c-19 0-70 49-70 69z" horiz-adv-x="1069" />

<glyph glyph-name="xml" unicode="&#xe871;" d="M1007 57h-625a73 73 0 0 0-73 73v235c0 40 33 73 73 73h625c40 0 62-33 62-73v-235c0-40-21-73-62-73z m-443 307h-46l-43-74-44 74h-48l64-99-68-106h46l48 77 47-77h49l-69 103 64 102z m255 0h-61l-55-157h-1l-48 157h-59v-205h42v95c0 11-2 33-6 66h1l49-161h43l52 160a3045 3045 0 0 0 0-63v-97h43v205z m171-169h-83v169h-43v-205h126v36z m-717 168v-212c0-61 49-127 110-127h312v-100c0-41-32-74-73-74h-549a73 73 0 0 0-73 74v852c0 41 33 74 73 74h340v-227c0-41 53-82 93-82h183v-67h-306a110 110 0 0 1-110-111z m175 286v201l241-270h-170c-20 0-71 49-71 69z" horiz-adv-x="1069" />

<glyph glyph-name="attention" unicode="&#xe873;" d="M571 83v106q0 8-5 13t-12 5h-108q-7 0-12-5t-5-13v-106q0-8 5-13t12-6h108q7 0 12 6t5 13z m-1 208l10 257q0 6-5 10-7 6-14 6h-122q-6 0-14-6-5-4-5-12l9-255q0-5 6-9t13-3h103q8 0 14 3t5 9z m-7 522l428-786q20-35-1-70-9-17-26-26t-35-10h-858q-18 0-35 10t-26 26q-21 35-1 70l429 786q9 17 26 27t36 10 36-10 27-27z" horiz-adv-x="1000" />

<glyph glyph-name="editor-decrease-indent" unicode="&#xe874;" d="M106 359l234-195 0 391-234-196z m-21-454h844v78h-844v-78z m391 161h453v78h-453v-78z m0 162h453v78h-453v-78z m0 323h453v78h-453v-78z m-391 240v-79h844v79h-844z m391-402h453v79h-453v-79z" horiz-adv-x="1000" />

<glyph glyph-name="key" unicode="&#xe876;" d="M464 564q0 45-31 76t-76 31-76-31-31-76q0-23 11-46-23 11-47 11-44 0-76-32t-31-76 31-75 76-32 76 32 31 75q0 24-10 47 23-11 46-11 45 0 76 31t31 76z m475-393q0-9-27-36t-37-28q-5 0-16 9t-20 19-22 22-13 14l-54-53 123-123q15-16 15-38 0-23-21-45t-46-22q-22 0-37 16l-375 374q-98-73-204-73-91 0-148 57t-57 149q0 89 53 174t138 139 175 53q91 0 148-58t57-148q0-105-73-203l198-199 54 54q-2 2-14 14t-23 21-18 21-9 15q0 10 27 37t37 28q7 0 13-6 3-3 26-25t45-44 49-48 40-44 16-23z" horiz-adv-x="1000" />

<glyph glyph-name="doc-remove" unicode="&#xe877;" d="M818 595q16-16 16-36l0-521q0-65-46-111t-110-46l-522 0q-65 0-110 46t-46 111l0 625q0 65 46 110t110 46l417 0q22 0 37-15z m-110-36l-135 134 0-56q0-32 23-55t55-23l57 0z m-30-574q21 0 36 16t15 37l0 469-78 0q-53 0-92 38t-38 92l0 78-365 0q-21 0-37-15t-15-37l0-625q0-21 15-37t37-16l522 0z m-105 262l-313 0q-21 0-36 15t-15 36 15 37 36 15l313 0q21 0 36-15t16-37-16-36-36-15z" horiz-adv-x="834" />

<glyph glyph-name="bullet" unicode="&#xe878;" d="M11 839h975v-978h-975v978z" horiz-adv-x="1000" />

<glyph glyph-name="editor-insert-local" unicode="&#xe879;" d="M500-71c1 16 1 46 0 62h438v433h-713v-157h-65v219h842v-557h-502z m228 571l-59 193-580-162 60-216a4321 4321 0 0 1-67 1l-73 258 704 196 82-270a2960 2960 0 0 1-67 0z m-563-543l312 298 46-43-312-299h191v-62h-302v290h65v-184z" horiz-adv-x="1083" />

<glyph glyph-name="change-profile" unicode="&#xe87a;" d="M590 338a121 121 0 1 0 0 243 121 121 0 0 0 0-243z m182-50c-37 19-87-4-111-52-3-5-5-10-6-15-22-48-36-6-42 22a39 39 0 0 1-26 70 39 39 0 0 1-19-74c-3-27-18-43-18-43-11-12-43 45-43 45a163 163 0 0 1-18 25c-24 28-56 41-84 24a102 102 0 0 1-44-86 247 247 0 0 1 228-153 247 247 0 0 1 229 155c0 57-40 79-46 82z m352 54l-119 169s-124-171-123-169h74a367 367 0 0 0-680-211l-61-83a468 468 0 0 1 846 294h63z m-899-8a367 367 0 0 0 664 197l65 89a467 467 0 0 1-827-286h-72l119-169s124 171 122 169h-71z" horiz-adv-x="1125" />

<glyph glyph-name="hourglass" unicode="&#xe87d;" d="M0-37v70q0 22 12 49t24 46 38 55l24 33t26 36 22 33 18 35 5 30-5 30-18 35-22 33-26 36l-24 32q-26 37-38 55t-24 46-12 49v70q0 34 24 58t59 24h419q35 0 59-24t25-58v-70q0-22-12-49t-24-46-38-55l-24-32t-27-36-22-33-17-35-6-30 6-30 17-35 22-33 27-36l24-33q25-36 38-55t24-46 12-49v-70q0-34-25-58t-59-24h-419q-34 0-59 24t-24 58z m100 35h40q0 9 2 17t9 18 12 16 17 18 19 16 22 17 23 16 25 18 24 17q8-6 26-19t28-19 25-19 25-19 19-19 16-19 10-19 4-20h40v35q0 7-14 31-8 14-42 63-53 75-71 108-34 64-34 115 0 26 7 54t25 57 30 50 36 51l7 10q33 47 42 64 6 9 9 17t4 11l1 2v35h-386v-35q1-8 13-30 10-17 43-64 53-75 71-108 34-63 34-114 0-27-8-54t-25-58-29-49-36-52q-1-1-2-2t-2-2-2-3-1-3q-34-49-43-63-13-24-13-31v-35z" horiz-adv-x="585.9" />

<glyph glyph-name="dragndrop" unicode="&#xe87f;" d="M1167 562l-120-157c-15-20-40-31-65-31-15 0-30 4-43 12-36 21-45 64-21 96l46 60h-314c-43 0-78 31-78 69 0 38 36 70 81 70h325l-49 62c-25 31-15 74 22 95 36 21 87 12 111-19l109-163c5-5 9-11 12-17 5-9 7-18 7-28 0-19-8-36-23-49z m-6 68a46 46 0 0 1-9 13l-110 164c-18 22-52 27-77 13-26-15-32-44-15-65l75-96h-372c-31 0-57-22-57-48 0-26 24-48 54-48h359l-71-93c-17-22-10-52 14-66 25-15 58-9 75 13l121 158c12 11 18 23 18 36a43 43 0 0 1-5 19z m-501-194c17-12 26-29 31-41 35 14 64 15 85 3 33-20 31-63 31-65l0-294c-75-175-195-189-232-189-6 0-10 1-11 1-2 0-52 1-113 1-31 0-64 0-96-1h-4c-103 0-185 116-226 217-35 89-102 190-103 191-48 83 1 125 3 127 20 18 44 25 70 22 49-5 95-48 123-79l7 338c0 28 8 50 25 66 24 22 55 22 57 22 61-2 84-48 87-72v-208c16 13 38 19 65 18 41-1 69-24 79-61 12 9 30 16 56 19 26 3 49-2 66-15z m-118-47l-30 4c1 32-8 71-54 72-20 1-35-3-45-12-17-15-19-37-19-44l-30 1v271c-1 3-9 45-58 47-5-1-52-3-50-61l-9-425-27 39c-18 26-76 94-128 100-17 3-33-3-47-15-1-1-33-31 3-94 3-3 69-103 105-195 39-97 118-202 201-199a2794 2794 0 0 0 97 2c64 0 115-2 115-2 7-1 133-12 212 169v287c0 9-3 32-18 40-15 9-40 5-73-11l-19-9-3 19c-1 6-7 57-68 51-31-4-51-16-55-35z" horiz-adv-x="1190" />

<glyph glyph-name="eye" unicode="&#xe880;" d="M1799 351l0-1-4-4c-42-53-402-487-901-495l-14 0c-308 0-601 166-871 491l-9 7 1 2a6 6 0 0 0 0 1l4 3c25 31 156 189 360 319 13 6 24 14 34 24 14 5 28 12 39 22a131 131 0 0 1 49 23c123 61 264 105 420 107a865 865 0 0 0 353-68l-1 1c7-4 15-6 23-8 5-2 9-5 15-7 1 0 2-1 4-1 10-8 21-14 34-19 4-3 7-6 12-8 154-82 302-209 445-381l8-7a29 29 0 0 1-1-1z m-505 344c-126 63-254 93-386 90-176-2-336-64-468-142a457 457 0 0 1-6-70c0-246 197-447 438-447s439 201 439 447c0 43-7 84-17 122z m73-40c4-27 7-54 7-82 0-282-225-511-502-511-276 0-501 229-501 511 0 10 1 19 1 28a1579 1579 0 0 1-287-250c250-289 517-435 795-435l13 0c403 6 720 320 822 435-113 130-229 232-348 304z m-495-293c-90 0-163 74-163 167 0 92 73 167 163 167s164-75 164-167c0-93-73-167-164-167z" horiz-adv-x="1800" />

<glyph glyph-name="editor-align-centre" unicode="&#xe881;" d="M78 66h844v78h-844v-78z m117-161h610v78h-610v-78z m0 401v-78h610v78h-610z m-117 83h844v79h-844v-79z m117 240v-78h610v78h-610z m-117 162v-79h844v79h-844z" horiz-adv-x="1000" />

<glyph glyph-name="editor-align-left" unicode="&#xe882;" d="M691 306h-609v-78h609v78z m-609-401h609v78h-609v-78z m609 724h-609v-78h609v78z m-609 162v-79h843v79h-843z m0-402h843v79h-843v-79z m0-323h843v78h-843v-78z" horiz-adv-x="1000" />

<glyph glyph-name="editor-align-right" unicode="&#xe883;" d="M78 791v-79h844v79h-844z m0-402h844v79h-844v-79z m0-323h844v78h-844v-78z m235-161h609v78h-609v-78z m0 646h609v78h-609v-78z m0-323h609v78h-609v-78z" horiz-adv-x="1000" />

<glyph glyph-name="editor-justify" unicode="&#xe884;" d="M78 791v-79h844v79h-844z m0-402h844v79h-844v-79z m0-323h844v78h-844v-78z m0-161h844v78h-844v-78z m0 646h844v78h-844v-78z m0-323h844v78h-844v-78z" horiz-adv-x="1000" />

<glyph glyph-name="editor-numbered-list" unicode="&#xe885;" d="M255 52c5 1 9 5 14 10 7 8 10 18 10 30 0 16-6 29-17 39s-27 15-46 15c-11 0-19-1-26-4-7-2-13-6-19-10-6-7-12-14-15-22-3-9-4-18-5-28h37c0 10 2 18 6 23s11 9 20 9c8 0 15-2 19-7s7-11 7-19c0-11-5-19-13-23-5-2-14-3-27-4v-28c13 0 23-1 29-3 10-5 15-13 15-27 0-10-2-17-8-22s-12-8-20-8c-13 0-21 5-26 14-3 5-4 12-4 20h-38c0-16 3-29 9-39 11-18 31-27 59-27 23 0 40 6 52 19s17 28 17 45c0 16-5 28-15 37-6 7-12 10-15 10z m-47 259c3 3 10 8 20 15l15 12c14 9 23 17 29 25 9 11 13 24 13 39 0 19-6 35-19 47-12 11-29 17-50 17-27 0-45-10-56-30-5-10-8-24-9-41h38c1 11 2 20 5 25 4 9 12 13 24 13 9 0 15-3 20-8s7-13 7-21c0-11-4-20-12-29-6-6-17-15-35-28-21-15-34-29-40-42-6-12-9-25-9-39h136v34h-87c3 5 6 8 10 11z m-1 270h40v199h-33c0-2-1-4-2-8-1-6-4-11-7-14-5-6-12-9-19-11-5-1-14-2-26-2v-27h47v-137z m158 122v-78h531v78h-531z m0-401h531v78h-531v-78z m0-323h531v78h-531v-78z" horiz-adv-x="1000" />

<glyph glyph-name="editor-text-colour" unicode="&#xe886;" d="M549 293h-219l-26-60c-9-21-13-37-13-50 0-18 7-31 21-39 8-5 28-8 61-11v-17h-207v17c22 3 41 13 55 28 14 15 32 46 53 94l223 495h8l224-509c22-48 39-79 53-91 10-10 25-15 44-17v-17h-301v17h13c24 0 41 3 51 10 6 5 10 12 10 21 0 6-1 11-3 17-1 3-5 14-14 35l-33 77z m-15 34l-93 214-95-214h188z" horiz-adv-x="1000" />

<glyph glyph-name="editor-underline" unicode="&#xe889;" d="M258 691c4-8 6-31 6-67v-310c0-52 8-94 25-125 17-31 46-57 86-77 30-14 72-21 127-21 66 0 117 13 155 41 38 28 62 58 72 91 10 33 14 86 14 161v240c0 25 2 43 7 53 5 14 13 25 25 32s27 11 44 11h13v17h-218v-17c25 0 45-4 59-11 9-4 17-13 22-25 6-12 9-32 9-60v-258c0-67-6-114-18-141-12-27-30-49-54-64s-53-23-87-23c-30 0-55 6-74 18-20 12-34 28-42 46s-13 56-13 112v310c0 36 2 58 6 67 4 9 10 16 19 21 9 6 26 8 51 8h16v17h-326v-17c27 0 45-2 55-7 10-6 17-13 21-22z m-98-644v-91h689v91h-689z" horiz-adv-x="1000" />

<glyph glyph-name="cancel" unicode="&#xe88d;" d="M881 850h-762c-69 0-119-50-119-119v-762c0-63 50-119 119-119h762c63 0 119 50 119 119v762c0 69-50 119-119 119z m-93-675l-82-81-206 206-206-206-81 81 206 206-213 213 82 81 212-206 206 206 82-81-207-213 207-206z" horiz-adv-x="1000" />

<glyph glyph-name="editor-text-background-colour" unicode="&#xe88f;" d="M350 308h188l-93 214-95-214z m-241 497v-782h782v782h-782z m721-708h-301v17h13c24 0 41 3 51 10 6 5 10 12 10 21 0 5-1 11-3 17-1 3-5 14-14 34l-33 78h-219l-26-61c-9-20-13-37-13-50 0-17 7-30 21-38 8-5 28-9 61-11v-17h-207v17c22 3 41 12 55 27s32 47 53 94l223 496h8l224-510c22-48 39-78 53-91 10-9 25-15 44-16v-17z" horiz-adv-x="1000" />

<glyph glyph-name="save" unicode="&#xe893;" d="M881-150h-175v331c0 13-12 25-25 25h-362c-13 0-25-12-25-25v-331h-175c-63 0-119 50-119 119v762c0 63 50 119 119 119h762c63 0 119-50 119-119v-762c0-63-50-119-119-119z m-81 769c0 62-50 119-119 119h-362c-63 0-119-50-119-119v-6c0-63 50-119 119-119h362c63 0 119 50 119 119v6z m-269-769h-181v175h175v-175z m-237 0l0 0 412 0c0 0-412 0-412 0z" horiz-adv-x="1000" />

<glyph glyph-name="save-to-cloud-1" unicode="&#xe895;" d="M1032 455c-37 183-198 321-392 321-154 0-287-87-354-215-160-17-285-153-285-317 0-177 143-320 320-320h692c147 0 266 119 266 266 0 141-109 255-247 265z m-285-158v-213h-213v213h-160l266 266 266-266z" horiz-adv-x="1280" />

<glyph glyph-name="options" unicode="&#xe897;" d="M0-21c0 72 56 130 125 130 69 0 125-58 125-130 0-71-56-129-125-129-69 0-125 58-125 129z m0 371c0 72 56 130 125 130 69 0 125-58 125-130s-56-130-125-130c-69 0-125 58-125 130z m0 371c0 71 56 129 125 129 69 0 125-58 125-129 0-72-56-130-125-130-69 0-125 58-125 130z" horiz-adv-x="250" />

<glyph glyph-name="checkbox-selected" unicode="&#xe899;" d="M500 850c-275 0-500-225-500-500s225-500 500-500 500 225 500 500-225 500-500 500z m313-331l-388-388c-19-6-19-12-37-12-7 0-19 6-25 12l-175 169c-13 19-13 44 0 56 18 19 37 19 56 0l150-143 362 362c19 19 38 19 57 0s12-44 0-56z" horiz-adv-x="1000" />

<glyph glyph-name="cloud-link" unicode="&#xe89c;" d="M1293-143h-959a288 288 0 0 0-144 538 432 432 0 0 0 799 217 312 312 0 0 0 380-189 288 288 0 0 0 212-278 288 288 0 0 0-288-288z m0 480h-1a216 216 0 0 1-349 145 336 336 0 0 1-653-150 192 192 0 0 1 43-379h960a192 192 0 0 1 0 384z m-320-257h-168a159 159 0 0 0-158 158v12 1a40 40 0 0 0 80 0v1c0-1 0-6 0-7 0-44 36-81 80-81h164c44 0 81 37 81 81 0 44-37 80-81 80h-19a43 43 0 1 0-8 85l2 0v0h27a159 159 0 0 0 159-159v-13a159 159 0 0 0-159-158z m-133 119a40 40 0 0 0-40 39l0-1c0 1 0 7 0 8 0 44-37 80-81 80h-164c-44 0-80-36-80-80 0-45 36-81 80-81h19a43 43 0 1 0 9-84l-3 0v0h-27a159 159 0 0 0-158 158v13a159 159 0 0 0 158 159h168a159 159 0 0 0 159-159v-12a40 40 0 0 0-40-40z" horiz-adv-x="1632" />

<glyph glyph-name="link" unicode="&#xe89e;" d="M408 145l-36-35c-31-31-81-31-112 0-15 15-23 34-23 55 0 21 8 40 23 55l131 130c27 27 78 67 116 30 17-17 44-17 61 0 17 17 17 45 0 61-63 63-157 52-238-29l-131-130c-32-31-49-73-49-117 0-44 17-86 49-117 32-32 75-48 117-48s85 16 117 48l36 36c17 17 17 44 0 61s-44 17-61 0z m396 505c-67 68-162 71-225 9l-45-44c-17-17-17-45 0-62 17-17 45-17 62 0l44 44c33 32 75 19 103-9 15-14 23-34 23-55s-8-40-23-55l-140-138c-64-64-93-34-106-21-17 17-45 17-62-1-17-17-17-44 0-61 30-29 63-44 98-44 43 0 89 22 132 65l139 138c32 32 49 73 49 117 0 44-17 86-49 117z" horiz-adv-x="1000" />

<glyph glyph-name="close-1" unicode="&#xe8a0;" d="M969-150c-6 0-13 0-19 6l-450 450-450-450c-12-12-31-12-44 0-12 13-12 31 0 44l450 450-450 450c-6 13-6 31 0 44 13 6 32 6 44 0l450-450 450 450c13 12 31 12 44 0 12-13 12-31 0-44l-450-450 450-450c12-13 12-31 0-44-6-6-13-6-25-6z" horiz-adv-x="1000" />

<glyph glyph-name="addto-calendar" unicode="&#xe8a1;" d="M200 540h105v-116h-105v116z m247-316h43c10 42 31 79 63 110h-106v-110z m-247 0h105v110h-105v-110z m853-100c0-153-121-274-274-274-116 0-216 68-253 174h-500c-15 0-26 10-26 26v705c0 16 11 32 26 32h174v63h105v-63h395v63h105v-63h163c16 0 27-11 27-26v-474c42-47 58-100 58-163z m-279 273c42 0 84-10 121-26v290c0 15-11 26-27 26h-63v-58h-105v58h-389v-58h-106v58h-73c-16 0-27-11-27-26v-506c0-15 11-26 27-26h368v-5c0 152 121 273 274 273z m141-308c-16 16-32 16-48 0l-56-56v239c0 16-16 32-32 32s-32-16-32-32v-239l-56 56c-16 16-32 16-48 0-16-16-16-32 0-48l64-64 48-48 8-8 8-7 8 7 8 8 64 56 64 56c16 16 16 32 0 48z m-468 335h106v116h-106v-116z m364 116h-106v-116h106v116z" horiz-adv-x="1053" />

<glyph glyph-name="exit" unicode="&#xe8a2;" d="M1143 279h-929l429-429-132 0-511 500 511 500 132 0-429-429h929v-142z" horiz-adv-x="1143" />

<glyph glyph-name="download-hugemail" unicode="&#xe8a3;" d="M570 849h-569v-998h798v779z m-192-860l-225 242 57 50 128-141 3 324h76l-3-324 133 139 56-50z m172 611v210l204-210z" horiz-adv-x="800" />

<glyph glyph-name="save-to-cloud" unicode="&#xe8a4;" d="M1032 455c-37 183-198 321-392 321-154 0-287-87-354-215-160-17-285-153-285-317 0-177 143-320 320-320h692c147 0 266 119 266 266 0 141-109 255-247 265z m-285-158v-213h-213v213h-160l266 266 266-266z" horiz-adv-x="1280" />

<glyph glyph-name="hugemail-link" unicode="&#xe8a5;" d="M1933 367v-34c0-230-187-419-416-419h-439c-229 0-417 189-417 419l0 32 1-6c0 2-1 5-1 7 0 58 47 105 105 105 58 0 105-47 105-105 0-2-1-5-1-7l1 11c-1-3 0-17 0-20 0-116 95-212 212-212h429c116 0 211 96 211 212s-95 213-211 213h-49a112 112 0 0 0-135 110c0 62 50 113 112 113 3 0 5-1 7-1v1h70c229 0 416-189 416-419z m-1933-34v34c0 230 187 419 416 419h440c229 0 416-189 416-419l0-32 0 6c0-2 0-4 0-7 0-58-47-105-105-105-57 0-104 47-104 105 0 3 0 5 0 7l0-11c0 3-1 17-1 20 0 116-95 212-211 212h-430c-116 0-211-96-211-212s95-212 211-212h49a112 112 0 0 0 135-111c0-62-50-113-112-113-2 0-5 1-7 1v-1h-70c-229 0-416 189-416 419z" horiz-adv-x="1933" />

<glyph glyph-name="checkbox-selected_one" unicode="&#xe8a6;" d="M758 379v-54h-520v54h520z m-258-425c-217 0-392 175-392 396s175 396 392 396 396-175 396-392-179-400-396-400z m-437 396c0-242 195-438 437-438 242 0 438 196 438 438s-196 438-438 438c-242 0-437-196-437-438z" horiz-adv-x="1000" />

<glyph glyph-name="plus" unicode="&#xe8a7;" d="M1000 318h-401v-404h-122v404h-403v118h403v404h122v-404h401v-118z" horiz-adv-x="1000" />

<glyph glyph-name="close" unicode="&#xe8a8;" d="M1000-10l-88-88-375 376-375-376-87 87 375 376-376 375 88 88 375-376 376 376 87-87-375-376 375-375z" horiz-adv-x="1000" />

<glyph glyph-name="ico-calendar" unicode="&#xe8aa;" d="M697 850c20 0 37-15 40-34l0-5 0-27 224 0c20 0 36-15 39-34l0-5 0-856c0-21-18-39-39-39l0 0-921 0c-22 0-40 18-40 39l0 0 0 856c0 22 18 39 40 39l0 0 212 0 0 27c0 21 18 39 40 39 20 0 36-15 39-34l0-5 0-27 327 0 0 27c0 21 18 39 39 39z m224-408l-842 0 0-513 842 0 0 513z m-125-283c22 0 40-17 40-39l0 0 0-66c0-22-18-39-40-39l0 0-197 0c-22 0-40 17-40 39l0 0 0 66c0 22 18 39 40 39l0 0z m-138 546l-327 0 0-26c0-22-17-39-39-39-20 0-37 14-39 34l-1 5 0 26-173 0 0-184 842 0 0 184-184 0 0-26c0-22-18-39-40-39-20 0-36 14-39 34l0 5 0 26z" horiz-adv-x="1042" />

<glyph glyph-name="ico-mail" unicode="&#xe8ab;" d="M868 775c60 0 110-41 126-96l-1 1c6-8 8-19 6-28 1-4 1-9 1-13l0 0 0-578c0-75-59-136-132-136l0 0-736 0c-73 0-132 61-132 136l0 0 0 578c0 4 0 9 1 13-2 9 0 19 5 27 16 55 66 96 126 96l0 0z m53-191l-399-267c-12-8-26-9-39-3l-5 3-399 267 0-523c0-29 21-53 47-56l6-1 736 0c29 0 53 26 53 57l0 0 0 523z m-53 112l-736 0c-17 0-33-9-43-23l411-275 411 275c-10 14-25 23-43 23l0 0z" horiz-adv-x="1042" />

<glyph glyph-name="ico-contacts-group" unicode="&#xe8ac;" d="M307 514c0-69 59-128 123-128 69 0 123 59 123 128s-54 128-123 128c-69 0-123-59-123-128m133-153c-123 0-222-93-232-221v-50c0-29 25-44 50-44h369c29 0 49 10 49 44l-5 50c-15 128-108 221-231 221m152 94c5-50 40-89 84-89 44 0 84 39 84 89 0 49-35 88-84 88-44 0-84-39-84-88m241-242v-9c0-20-10-64-29-64h-113c-8 32-19 69-34 103-16 33-35 64-60 84 30 19 54 24 84 29 79 0 142-64 152-143" horiz-adv-x="1000" />

<glyph glyph-name="search-active" unicode="&#xe8ae;" d="M725 188c131 162 119 393-25 543-150 157-412 157-569 7-162-157-162-419-6-582 144-150 369-162 525-43l269-269 69 68-263 276z m-75 12c-131-131-350-131-487 6-132 138-132 357 12 488 131 131 350 131 488-6 131-138 125-350-13-488z" horiz-adv-x="1000" />

<glyph glyph-name="mail-clutter" unicode="&#xe8b7;" d="M788 531v125l-400-325-388 313v-475c0 0 0-13 6-19 13-6 32-12 57-12h206v-82c0-6 0-25 12-43 13-19 38-26 75-26h563c0 0 0 0 6 0 13 0 38 0 56 19 13 13 19 32 19 50v438h0v37h-212z m0-37h162l-162-131v131z m181-431c0-13 0-19-6-25-13-13-32-13-38-13h-569c-25 0-37 6-43 13-7 6-7 12-7 12v88h432c6 0 31 0 43 12 7 13 13 19 13 31v138l181 150v-406z m-575 350l-363 300h725l-362-300z" horiz-adv-x="1000" />

<glyph glyph-name="ico-export" unicode="&#xe8bc;" d="M1000 240v-290c0-55-45-100-105-100h-790c-60 0-105 45-105 100v800c0 55 45 100 105 100h320c0-45 0-95 0-120h-195c-60 0-105-45-105-100v-560c0-55 50-100 105-100h540c60 0 105 45 105 100v170c35 0 85 0 125 0z m-705 120l200-195 350 340 155-155v500h-515l160-150-350-340z" horiz-adv-x="1000" />

<glyph glyph-name="attach-cloud" unicode="&#xe8be;" d="M1071 207q0-89-62-151t-152-63h-607q-103 0-177 73t-73 177q0 74 40 135t104 91q-1 16-1 24 0 118 84 202t202 84q88 0 159-49t105-129q39 35 93 35 59 0 101-42t42-101q0-42-23-77 72-17 119-75t46-134z" horiz-adv-x="1071.4" />

<glyph glyph-name="ico-import" unicode="&#xe8c0;" d="M1000 240v-290c0-55-45-100-105-100h-790c-60 0-105 45-105 100v800c0 55 45 100 105 100h320c0-45 0-95 0-120h-195c-60 0-105-45-105-100v-560c0-55 50-100 105-100h540c60 0 105 45 105 100v170c35 0 85 0 125 0z m0 415l-200 195-350-340-155 155v-500h515l-160 150 350 340z" horiz-adv-x="1000" />

<glyph glyph-name="ico-import-sim-card" unicode="&#xe8c1;" d="M950 510l-300 240h-555c-55 0-95-40-95-100v-295h240v95l325-205-325-180v90h-240v-105c0-60 40-100 95-100h805c55 0 105 45 105 100v425l-55 35z" horiz-adv-x="1000" />

<glyph glyph-name="ico-merge-contacts" unicode="&#xe8c3;" d="M749 109c-1 3-4 6-6 8l-257 248 0 145 162 0-273 341 0-1-1 1-273-341 162 0 0-145-256-248c-3-2-5-5-6-8-1-2-2-4-2-6l0-238c0-8 8-15 16-15l156 0c9 0 16 7 16 15l0 169 177 172 5 0 11 0 5 0 177-172 0-169c0-8 8-15 16-15l156 0c9 0 16 7 16 15l0 238c0 2 0 4-1 6z" horiz-adv-x="750" />

<glyph glyph-name="moveto-add-book" unicode="&#xe8c4;" d="M830-150l-701 0c-41 0-70 32-70 76l0 49 146 0c18 0 35 19 35 38l0 88c0 18-17 37-35 37l-152 0 0 138 146 0c18 0 35 18 35 37l0 88c0 18-17 37-35 37l-146 0 0 113 146 0c18 0 35 18 35 37l0 88c0 18-17 37-35 37l-146 0 0 63c0 43 35 75 76 75l444 0 57 0 200 0c36 0 71-32 71-75l0-850c0-44-30-76-71-76z m-496 157c0-25 11-32 35-32l298 0c23 0 41 13 41 38l0 38c-12 106-94 181-187 181-100 0-176-81-187-181l0-44z m292 356c0 63-47 113-99 113-53 0-100-50-100-113 0-62 47-112 100-112 52 0 99 50 99 112z m165 309l-137 156c-4 5-11 5-15 1 0-1 0-1-1-1l-43-49c-4-5-4-13 0-19l43-48-282 0c-7 0-12-6-12-13l0-69c0-7 5-13 12-13l284 0-45-51c-4-5-4-13 0-18l43-50c4-4 11-5 15 0 1 0 1 0 1 0l93 107 44 49c4 5 4 13 0 18z m-603-46c0-19-18-32-36-38l-117 0c-17 0-35 19-35 38 0 25 18 37 35 37l117 0c18 0 36-12 36-37z m-153-232l117 0c18 0 36-18 36-37 0-19-18-38-36-38l-117 0c-17 0-35 19-35 38 0 19 18 37 35 37z m0-306l117 0c18 0 36-19 36-37 0-19-18-38-36-38l-117 0c-17 0-35 19-35 38 0 18 18 37 35 37z" horiz-adv-x="900" />

<glyph glyph-name="moveto-category" unicode="&#xe8c5;" d="M1000 358l-201 200 0-129-187 0-42 0-4 0 0 220 142 0-216 201-200-201 129 0 0-220-220 0 0 129-201-200 201-216 0 142 220 0 0-233-129 0 200-201 216 201-142 0 0 233 4 0 42 0 187 0 0-142 201 216z" horiz-adv-x="1000" />

<glyph glyph-name="ico-radio-slctd" unicode="&#xe8c8;" d="M500 850c0 0 0 0 0 0-275 0-500-225-500-500 0-275 225-500 500-500 0 0 0 0 0 0 275 0 500 225 500 500 0 275-225 500-500 500z m0-880c-210 0-380 170-380 380 0 210 170 380 380 380 210 0 380-170 380-380-5-210-175-380-380-380z m200 380c0-110-90-200-200-200-110 0-200 90-200 200 0 110 90 200 200 200 0 0 0 0 0 0 110 0 200-90 200-200z" horiz-adv-x="1000" />

<glyph glyph-name="radio-unslctd" unicode="&#xe8c9;" d="M500 850l0 0c-275 0-500-225-500-500s225-500 500-500l0 0c275 0 500 225 500 500s-225 500-500 500z m0-880c-210 0-380 170-380 380s170 380 380 380 380-170 380-380c-5-210-175-380-380-380z" horiz-adv-x="1000" />

<glyph glyph-name="read-unread" unicode="&#xe8ca;" d="M340 250l60 0v-145l-330 0c-60 0-70 45-70 45v315l340-215z m55 65v145l280 215-580 10c0 0-95 10-95-50v-90l340-230h55z m605 105v-365c0-45-30-40-30-40h-480c-55 0-50 35-50 35v360l275 205 285-195z m-55-65l-225 160-220-160v-85l220-145 225 145v85z" horiz-adv-x="1000" />

<glyph glyph-name="saveto-cloud" unicode="&#xe8ce;" d="M1333 186c0-197-131-336-331-336-49 0-125 0-208 0l0 192c0 18 15 33 34 33l79 0c30 0 45 36 24 58l-239 236c-11 11-29 11-40 0l-240-237c-21-21-6-57 24-57l76 0c18 0 33-15 34-34l0-191c-80 0-152 0-200 0-200 0-346 139-346 336 0 196 144 324 342 326-1 9-2 19-2 28 0 171 147 309 329 309 181 0 328-138 328-309 0-9 0-19-1-28 2 0 4 0 6 0 200 0 331-128 331-326z" horiz-adv-x="1333" />

<glyph glyph-name="saveto-device" unicode="&#xe8cf;" d="M744-150l-53 0-531 0-53 0-106 0 0 412 113 0 0-294 623 0 0 294 113 0 0-412-106 0z m-573 529l169 0 0 471 170 0 0-471 170 0-255-235-254 235z" horiz-adv-x="850" />

<glyph glyph-name="forward" unicode="&#xe8d2;" d="M614 609l3-4 228-230c12-13 13-32 3-46l-3-3-228-231c-13-14-35-14-48 0-12 12-13 31-3 45l3 4 170 172-609 0c-19 0-35 15-35 34 0 17 13 32 30 34l5 0 609 0-170 172c-12 13-13 32-3 46l3 3c12 13 31 14 45 4z" horiz-adv-x="952" />

<glyph glyph-name="sort" unicode="&#xe8d4;" d="M763 743c22 0 40-17 40-39l0 0 0-647 130 127 4 4c16 11 37 10 51-4 16-15 16-39 0-55l0 0-197-193-4-4c-5-3-10-5-16-6l-5-1 0 0-6 0c-9 1-18 4-25 11l0 0-197 193c-15 16-15 40 0 55 14 14 36 15 51 4l5-4 130-127 0 647 0 6c3 18 19 33 39 33z m-503 25l5-4 197-193c16-15 16-40 0-55-14-14-36-15-51-4l-5 4-130 127 0-647c0-22-17-39-39-39-20 0-37 15-39 33l-1 6 0 647-130-127-4-4c-15-11-37-10-51 4-16 15-16 40 0 55l0 0 197 193 4 4c7 4 14 7 21 7l6 0c7 0 14-3 20-7z" horiz-adv-x="1000" />

<glyph glyph-name="flag-2" unicode="&#xe8d5;" d="M75 772c0 13 7 26 18 33 87 59 175 57 375 14l0 0 62-14c186-41 268-44 335 0 26 17 60-2 60-33l0 0 0-515c0-13-7-26-17-33-91-61-179-59-377-16l0 0-86 20c-149 32-228 36-293 5l0-344c0-21-17-39-38-39-20 0-36 15-39 34l0 5z m378-31c-161 35-239 40-299 9l0 0-2-1 0-431 7 3c71 21 153 15 281-12l0 0 39-8 49-11c172-39 252-45 318-12l0 0 2 2 0 429-11-4c-75-22-167-12-322 22l0 0z" horiz-adv-x="1000" />

<glyph glyph-name="flag-filled-1" unicode="&#xe8d6;" d="M75 772c0 13 7 26 18 33 87 59 175 57 375 14l0 0 62-14c186-41 268-44 335 0 26 17 60-2 60-33l0 0 0-515c0-13-7-26-17-33-91-61-179-59-377-16l0 0-86 20c-149 32-228 36-293 5l0-344c0-21-17-39-38-39-20 0-36 15-39 34l0 5z m378-31c-161 35-239 40-299 9l0 0-2-1 0-431 7 3c71 21 153 15 281-12l0 0 39-8 49-11c172-39 252-45 318-12l0 0 2 2 0 429-11-4c-75-22-167-12-322 22l0 0z" horiz-adv-x="1000" />

<glyph glyph-name="ico-duplicate-mail" unicode="&#xe8d7;" d="M645 185l-315 245h660l-345-245z m355 190v-400c0-50-55-45-55-45h-555c-65 0-60 45-60 45v390l320-240 350 250z m-665 55l-335 250v-405c0 0-5-45 65-45h440l-175 130 5 70 260-200h55c0 0 55-5 55 50v415l-370-265z m555-50l90 70v-450c0-55-60-55-60-55h-620c-75 0-70 50-70 50v85h600c0 0 60-5 60 55v245z m-40 150v-105l150 105h-150z m-20-340v495l-435-315-395 300v-480c0 0-10-55 75-55h690c0 0 65-5 65 55z m-15 560h-815l395-300 420 300z" horiz-adv-x="1000" />

<glyph glyph-name="help-circled" unicode="&#xe8d9;" d="M500 850c276 0 500-224 500-500 0-276-224-500-500-500-276 0-500 224-500 500 0 276 224 500 500 500z m0-59c-244 0-441-197-441-441 0-244 197-441 441-441 244 0 441 197 441 441 0 244-197 441-441 441z m0-629c26 0 47-21 47-47 0-26-21-47-47-47-26 0-47 21-47 47 0 26 21 47 47 47z m147 353c0-47-15-76-52-113l-17-17c-35-34-49-55-51-94l-1-15 1-20c0-16-14-29-30-29-16 0-29 13-29 29l0 28c0 58 19 93 60 135l18 17c32 31 42 48 42 79 0 108-156 121-177 14-3-16-18-26-34-23-16 3-27 18-23 34 33 177 293 155 293-25z" horiz-adv-x="1000" />

<glyph glyph-name="pin" unicode="&#xe8da;" d="M717 850c22 0 40-18 40-40l0 0 0-97c0-15-8-28-21-35l0 0-66-37 0-200 119-132c6-6 9-14 11-22l0 0 0-6 0-144c0-23-17-41-39-41l0 0-209 0 0-194c0-29-23-52-52-52-29 0-52 23-52 52l0 194-209 0c-20 0-36 16-39 36l0 5 0 144c0 10 4 20 11 28l0 0 119 132 0 200-66 37c-11 6-18 17-20 30l0 0 0 5 0 97c0 22 17 40 39 40l0 0z m-39-81l-356 0 0-31 66-37c11-6 19-17 20-30l0 0 1-6 0-240c0-10-4-20-11-28l0 0-120-132 0-88 444 0 0 88-120 132c-6 6-9 14-10 22l0 0-1 6 0 240c0 15 8 29 21 36l0 0 66 37 0 31z" horiz-adv-x="1000" />

<glyph glyph-name="people" unicode="&#xe8db;" d="M542 257c110 0 199-88 205-199l0-10 0-87c0-20-16-36-36-36-18 0-33 14-35 31l0 5 0 87c0 72-56 132-126 136l-8 0-337 0c-71 0-129-56-133-128l-1-8 0-87c0-20-16-36-35-36-18 0-33 14-36 31l0 5 0 87c0 112 86 203 195 209l10 0 337 0z m305-7c87-23 148-101 153-192l0-10 0-87c0-20-16-36-36-36-18 0-33 14-35 31l0 5 0 87c0 62-41 116-100 132-19 5-31 25-26 44 5 20 25 31 44 26z m-474 525c113 0 205-94 205-209 0-116-92-209-205-209-113 0-204 93-204 209 0 115 91 209 204 209z m305-7c90-23 154-107 154-202 0-96-64-179-154-203-19-5-39 7-44 26-4 20 7 40 26 45 59 15 100 69 100 132 0 62-41 116-100 132-19 5-30 25-26 44 5 20 25 31 44 26z m-305-66c-73 0-133-61-133-136 0-75 60-136 133-136 74 0 134 61 134 136 0 75-60 136-134 136z" horiz-adv-x="1000" />

<glyph glyph-name="up-open2" unicode="&#xe8dc;" d="M14 113c17-16 44-17 63-4l6 4 417 381 417-381c18-16 45-17 63-4l6 4c17 16 19 40 5 57l-5 5-452 412c-17 16-44 17-63 4l-5-4-452-412c-19-17-19-45 0-62z" horiz-adv-x="1000" />

<glyph glyph-name="attach" unicode="&#xe8dd;" d="M531 787c89 84 233 84 323 0 87-83 90-216 8-302l-8-8-436-411c-53-49-136-49-189 0-51 48-53 126-6 177l6 7 403 379c16 15 41 14 55-2 14-14 15-36 3-51l-4-5-402-379c-21-19-21-49 0-69 20-19 52-20 74-4l5 4 436 411c58 54 58 141 0 195-56 54-147 56-206 7l-8-7-435-410c-95-89-95-233 0-322 93-88 242-91 339-9l9 9 435 411c16 14 41 14 56-2 14-15 15-37 3-52l-4-4-436-411c-126-119-330-119-456 0-125 118-128 307-10 428l10 9 435 411z" horiz-adv-x="1000" />

<glyph glyph-name="down-open2" unicode="&#xe8de;" d="M14 587c17 16 44 17 63 4l6-4 417-380 417 380c18 16 45 17 63 4l6-4c17-16 19-40 5-57l-5-5-452-412c-17-16-44-17-63-4l-5 4-452 412c-19 17-19 45 0 62z" horiz-adv-x="1000" />

<glyph glyph-name="calendar-pet" unicode="&#xe8df;" d="M491 356l26 0c20-1 46-6 73-17 18-8 34-18 47-31 9-9 19-19 29-31 11-12 21-25 33-40 16-22 33-45 48-69 7-9 12-17 16-23l0 0 19-30c33-54 44-80 44-114 0-79-59-126-142-126l0 0-368 0c-83 0-142 47-142 126 0 34 11 59 45 115l0 0 13 21c1 2 3 4 5 7l0 0 14 24c15 23 32 46 48 67 14 19 28 36 42 51 8 9 15 16 23 23 12 11 26 20 41 27 32 15 63 20 86 20l0 0z m20-70l-1-1-22 0c-1 0-3 0-6 0l0 0-9-1c-13-2-27-6-39-12-9-4-17-9-24-15-5-6-12-12-18-19-12-13-25-28-38-45-15-21-30-42-44-64-3-4-6-8-8-12l0 0-27-44c-24-39-31-56-31-72 0-36 25-56 72-56l0 0 368 0c48 0 72 20 72 56 0 17-8 35-36 80l0 0-13 22-17 26c-15 22-31 44-47 65-10 14-20 26-29 37-9 10-18 19-25 26-7 7-16 13-26 17-12 5-24 8-37 10-3 1-6 1-8 1l0 0-7 1z m-389 187c68 0 122-55 122-123 0-68-54-123-122-123-67 0-122 55-122 123 0 68 55 123 122 123z m756 0c67 0 122-55 122-123 0-68-55-123-122-123-68 0-122 55-122 123 0 68 54 123 122 123z m-756-70c-29 0-52-24-52-53 0-29 23-53 52-53 29 0 52 24 52 53 0 29-23 53-52 53z m756 0c-29 0-52-24-52-53 0-29 23-53 52-53 29 0 52 24 52 53 0 29-23 53-52 53z m-552 422c83 0 151-68 151-152 0-85-68-153-151-153-84 0-152 68-152 153 0 84 68 152 152 152z m348 0c84 0 152-68 152-152 0-85-68-153-152-153-83 0-151 68-151 153 0 84 68 152 151 152z m-348-70c-45 0-82-37-82-82 0-46 37-83 82-83 45 0 81 37 81 83 0 45-36 82-81 82z m348 0c-45 0-81-37-81-82 0-46 36-83 81-83 45 0 82 37 82 83 0 45-37 82-82 82z" horiz-adv-x="1000" />

<glyph glyph-name="in-progress" unicode="&#xe8e0;" d="M854 704c195-196 195-512 0-708-196-195-512-195-707 0-196 196-196 512 0 708 195 195 511 195 707 0z m-310-309c-23 23-65 23-88 0-12-11-18-28-18-45 0-8 1-16 5-23 3-8 7-15 13-21 12-12 27-18 44-18 17 0 33 6 44 18 12 12 19 27 19 44 0 17-7 34-19 45z m-187 0c-23 23-66 23-89 0-11-11-18-28-18-45 0-8 2-16 5-23 3-8 8-15 13-21 12-12 28-18 45-18 16 0 32 6 44 18 12 12 18 27 18 44 0 17-7 34-18 45z m375 0c-23 23-66 23-89 0-11-11-18-28-18-45 0-8 2-16 5-23 3-8 8-15 13-21 12-12 28-18 45-18 16 0 32 6 44 18 12 12 18 27 18 44 0 17-7 34-18 45z" horiz-adv-x="1000" />

<glyph glyph-name="share" unicode="&#xe8e1;" d="M212 521c22 0 40-18 40-39 0-20-15-37-34-39l-6-1-133 0 0-513 842 0 0 513-133 0c-20 0-37 15-39 34l-1 6c0 20 15 36 35 39l5 0 173 0c20 0 36-15 39-34l0-5 0-593c0-20-15-36-34-39l-5 0-921 0c-20 0-37 15-40 34l0 5 0 593c0 20 15 36 34 39l6 0 172 0z m288 329l1 0c1 0 2 0 3 0l-4 0c2 0 4 0 7 0 1-1 2-1 3-1 0 0 1-1 2-1 1 0 2 0 2-1 1 0 3-1 4-1 0 0 1-1 1-1 1 0 2-1 3-2 1 0 1 0 2-1 0 0 0 0 0 0l4-4 197-197c16-15 16-40 0-56-14-14-36-15-51-4l-4 4-131 130 1-497c0-21-18-39-40-39-20 0-36 15-39 34l0 5 0 497-55-56-16-16c-34-33-53-52-61-59l-4-3c-18-13-42-8-55 10-11 16-8 38 6 51l5 5c11 10 84 83 191 191 1 2 3 3 4 4l-4-4c2 2 4 4 5 5 2 1 3 1 4 2 0 0 1 1 1 1 1 0 3 1 4 1 0 1 1 1 2 1 1 0 2 1 2 1 1 0 2 0 3 0 1 1 2 1 3 1 1 0 2 0 3 0 0 0 1 0 1 0z" horiz-adv-x="1000" />

<glyph glyph-name="down-open3" unicode="&#xe8e2;" d="M14 587c17 16 44 17 63 4l6-4 417-380 417 380c18 16 45 17 63 4l6-4c17-16 19-40 5-57l-5-5-452-412c-17-16-44-17-63-4l-5 4-452 412c-19 17-19 45 0 62z" horiz-adv-x="1000" />

<glyph glyph-name="preview-below" unicode="&#xe8e3;" d="M0 701c0 79 61 143 139 149l10 0 702 0c79 0 143-61 149-139l0-10 0-702c0-79-61-143-139-149l-10 0-702 0c-79 0-143 61-149 139l0 10 0 702z m903-302l0 302c0 27-20 49-45 52l-7 0-702 0c-27 0-49-20-52-45l0-7 0-302 806 0z m0-400l0 303-806 0 0-303c0-27 20-49 45-52l7 0 702 0c27 0 49 20 52 45l0 7z" horiz-adv-x="1000" />

<glyph glyph-name="calendar-general" unicode="&#xe8e4;" d="M697 850c20 0 37-15 40-34l0-5 0-27 224 0c20 0 36-15 39-34l0-5 0-856c0-21-18-39-39-39l0 0-921 0c-22 0-40 18-40 39l0 0 0 856c0 22 18 39 40 39l0 0 212 0 0 27c0 21 18 39 40 39 20 0 36-15 39-34l0-5 0-27 327 0 0 27c0 21 18 39 39 39z m224-408l-842 0 0-513 842 0 0 513z m-125-283c22 0 40-17 40-39l0 0 0-66c0-22-18-39-40-39l0 0-197 0c-22 0-40 17-40 39l0 0 0 66c0 22 18 39 40 39l0 0z m-138 546l-327 0 0-26c0-22-17-39-39-39-20 0-37 14-39 34l-1 5 0 26-173 0 0-184 842 0 0 184-184 0 0-26c0-22-18-39-40-39-20 0-36 14-39 34l0 5 0 26z" horiz-adv-x="1000" />

<glyph glyph-name="folder" unicode="&#xe8e5;" d="M0 736c0 22 18 39 40 39l0 0 394 0c22 0 40-17 40-39l0 0 0-154 487 0c20 0 36-15 39-34l0-5 0-579c0-22-18-39-39-39l0 0-921 0c-22 0-40 17-40 39l0 0z m921-231l-842 0 0-503 842 0 0 503z m-526 193l-316 0 0-116 316 0 0 116z" horiz-adv-x="1000" />

<glyph glyph-name="exclamation" unicode="&#xe8e6;" d="M500 50c28 0 50-22 50-50 0-28-22-50-50-50-28 0-50 22-50 50 0 28 22 50 50 50z m0 700c21 0 38-17 38-37l0-525c0-21-17-38-38-38-21 0-37 17-37 38l0 525c0 20 16 37 37 37z" horiz-adv-x="1000" />

<glyph glyph-name="calendar-phone" unicode="&#xe8e7;" d="M271 850l-138 0c-38 0-73-16-98-43-25-28-38-64-34-101 15-150 66-293 148-419 74-116 173-215 289-289 125-81 268-131 417-147 38-4 74 9 102 34 28 25 43 61 43 98l0 138c2 67-47 124-114 134-42 5-83 15-122 30l-9 3c-46 14-96 1-130-33l-37-36-12 7c-80 53-149 121-201 201l-8 12 37 36c34 35 47 85 33 131l-3 9c-15 39-25 79-30 121-10 66-66 115-133 114z m-138-80l139 0c26 0 48-19 52-45 6-47 18-94 35-138 7-19 2-41-12-55l-59-59c-13-13-15-32-6-48 69-122 170-223 292-292 16-9 36-6 48 6l59 59c15 14 36 19 55 12 45-17 92-29 139-35 26-4 45-26 45-53l0-139c0-15-7-29-17-39-11-10-26-15-40-13-136 14-266 61-381 135-107 68-198 158-265 265-75 115-122 246-136 382-2 14 3 29 13 40 10 10 24 17 39 17z" horiz-adv-x="1000" />

<glyph glyph-name="forward-1" unicode="&#xe8e8;" d="M614 609l3-4 228-230c12-13 13-32 3-46l-3-3-228-231c-13-14-35-14-48 0-12 12-13 31-3 45l3 4 170 172-609 0c-19 0-35 15-35 34 0 17 13 32 30 34l5 0 609 0-170 172c-12 13-13 32-3 46l3 3c12 13 31 14 45 4z" horiz-adv-x="952" />

<glyph glyph-name="reply" unicode="&#xe8e9;" d="M900 199l0-11 0-150c0-21-16-38-36-38-19 0-34 14-36 32l-1 6 0 150c0 105-66 187-145 187l-458 0 185-179 4-4c11-14 9-35-4-47-15-15-38-15-53 0l0 0-250 242-3 4c-11 14-10 34 3 47l0 0 250 243 4 3c15 11 36 10 49-3l0 0 4-4c11-15 9-35-4-48l0 0-185-179 458 0c119 0 213-112 218-251z" horiz-adv-x="1000" />

<glyph glyph-name="school" unicode="&#xe8ea;" d="M889 850c27 0 49-22 49-48l0 0 0-904c0-26-22-48-49-48l0 0-656 0c-94 0-170 71-170 161l0 0 0 678c0 90 76 161 170 161l0 0z m-49-742l-607 0c-40 0-73-35-73-81l0-16c0-35 32-64 73-64l0 0 607 0 0 161z m0 645l-607 0c-39 0-69-26-73-57l0 0 0-7 0-501c19 9 40 15 62 17l11 0 607 0 0 548z" horiz-adv-x="1000" />

<glyph glyph-name="sport" unicode="&#xe8eb;" d="M803 850l0-131 7-1c103 0 185-86 190-193l0-10c0-112-84-204-190-204l0 0-12 0c-22-136-127-243-258-261l-1-121 158 0c22 0 40-18 40-40 0-20-15-36-34-39l-6 0-394 0c-22 0-40 18-40 39 0 20 15 37 34 40l6 0 158 0 0 121c-132 18-237 125-259 261l-12 0c-106 0-190 92-190 204 0 111 84 203 190 203l7 1 0 131 606 0z m-79-79l-448 0 0-406c0-128 95-232 213-238l0 0 11-1c123 0 224 107 224 239l0 0 0 406z m79-131l0-250 7 0c58 0 107 50 111 116l0 9c0 69-50 125-111 125l0 0-7 0z m-606 0l-7 0c-61 0-111-56-111-125 0-70 50-125 111-125l7 0 0 250z" horiz-adv-x="1000" />

<glyph glyph-name="vacation" unicode="&#xe8ec;" d="M478 843l-73-50-4-3c-8-8-13-18-13-29l0-252-370-244-4-4c-29-24-9-74 31-68l343 43 0-190-149-126-4-4c-25-27-1-73 37-65l228 44 228-44 5-1c37-3 58 44 28 70l-149 126 0 190 343-43 6-1c38 0 55 51 21 73l-370 245-4 251c0 13-6 24-16 32l-69 50c-13 9-32 10-45 0z m-11-103l32 22 31-22 3-252 1-6c1-11 8-21 17-27l246-163-219 28c-24 3-45-15-45-39l0-253 1-6c1-9 6-18 13-24l48-41-87 17-5 1c-4 0-7 0-11-1l-87-17 48 41c9 7 14 18 14 30l0 253-1 5c-2 21-22 37-44 34l-219-28 246 163 5 4c8 7 13 18 13 29l0 252z" horiz-adv-x="1000" />

<glyph glyph-name="work" unicode="&#xe8ed;" d="M120-150c-66 0-120 54-120 120l0 0 0 563c0 66 54 120 120 120l0 0 143 0 0 55c0 75 57 137 130 142l8 0 198 0c73 0 133-59 138-133l0-9 0-55 143 0c64 0 116-50 120-112l0-8 0-563c0-66-54-120-120-120l0 0z m143 724l-143 0c-23 0-41-18-41-41l0 0 0-563c0-23 18-41 41-41l0 0 143 0 0 645z m395 0l-316 0 0-645 316 0 0 645z m222 0l-143 0 0-645 143 0c21 0 38 15 41 36l0 5 0 563c0 23-18 41-41 41l0 0z m-281 197l-198 0c-30 0-55-24-58-56l-1-7 0-55 316 0 0 55c0 33-23 59-53 63l-6 0z" horiz-adv-x="1000" />

<glyph glyph-name="up-open" unicode="&#xe8ee;" d="M14 113c17-16 44-17 63-4l6 4 417 381 417-381c18-16 45-17 63-4l6 4c17 16 19 40 5 57l-5 5-452 412c-17 16-44 17-63 4l-5-4-452-412c-19-17-19-45 0-62z" horiz-adv-x="1000" />

<glyph glyph-name="mail-1" unicode="&#xe8ef;" d="M868 775c60 0 110-41 126-96l-1 1c6-8 8-19 6-28 1-4 1-9 1-13l0 0 0-578c0-75-59-136-132-136l0 0-736 0c-73 0-132 61-132 136l0 0 0 578c0 4 0 9 1 13-2 9 0 19 5 27 16 55 66 96 126 96l0 0z m53-191l-399-267c-12-8-26-9-39-3l-5 3-399 267 0-523c0-29 21-53 47-56l6-1 736 0c29 0 53 26 53 57l0 0 0 523z m-53 112l-736 0c-17 0-33-9-43-23l411-275 411 275c-10 14-25 23-43 23l0 0z" horiz-adv-x="1000" />

<glyph glyph-name="anniversary" unicode="&#xe8f0;" d="M948 648c25 8 52-10 52-37l0 0 0-522 0-5c-4-26-32-42-57-30l0 0-329 159-4 2c-1 1-2 2-3 3-29-24-67-37-107-37-40 0-77 13-107 37l-3-3 0 0-4-2-329-159c-25-12-53 4-57 30l0 5 0 522c0 27 27 45 52 37l5-2 328-156c4-2 7-4 10-6 29 22 65 36 105 36 40 0 76-14 105-36 3 2 6 4 10 6l0 0 328 156z m-869-99l0-397 265 128c-10 21-15 45-15 70 0 26 6 50 16 72l-266 127z m842 0l-266-127c10-22 16-46 16-72 0-25-5-49-15-70l265-128 0 397z m-421-108c-51 0-92-41-92-91 0-50 41-91 92-91 51 0 92 41 92 91 0 50-41 91-92 91z" horiz-adv-x="1000" />

<glyph glyph-name="trash" unicode="&#xe8f1;" d="M636 850c23 0 41-18 41-39l0 0 0-158 232 0c23 0 41-18 41-40 0-20-15-36-35-39l-6 0-27 0 0-685c0-20-16-36-36-39l-5 0-682 0c-22 0-41 18-41 39l0 0 0 685-27 0c-23 0-41 17-41 39 0 20 15 37 35 39l6 1 232 0 0 158c0 20 15 36 36 39l5 0z m164-276l-600 0 0-645 600 0 0 645z m-402-119c20 0 38-15 40-34l1-5 0-329c0-22-19-40-41-40-21 0-38 15-41 35l0 5 0 329c0 22 18 39 41 39z m204 0c21 0 38-15 41-34l0-5 0-329c0-22-18-40-41-40-20 0-38 15-40 35l-1 5 0 329c0 22 19 39 41 39z m-6 316l-191 0 0-118 191 0 0 118z" horiz-adv-x="1000" />

<glyph glyph-name="bills" unicode="&#xe8f2;" d="M500 850c19 0 34-13 37-31l0-5 0-133 182 0c21 0 37-16 37-35 0-18-14-33-32-36l-5 0-182 0 0-224 73 0c105 0 190-82 190-184 0-98-80-178-181-183l-9 0-73 0 0-133c0-20-17-36-37-36-19 0-34 13-37 31l0 5 0 133-226 0c-20 0-37 16-37 36 0 18 14 32 32 35l5 0 226 0 0 224-73 0c-105 0-190 83-190 184 0 98 80 178 181 183l9 0 73 0 0 133c0 20 17 36 37 36z m37-760l73 0c64 0 116 50 116 112 0 60-48 108-108 112l-8 0-73 0 0-224z m-74 296l0 224-73 0c-64 0-116-50-116-112 0-60 48-108 108-112l8 0 73 0z" horiz-adv-x="1000" />

<glyph glyph-name="birthday" unicode="&#xe8f3;" d="M712 850c85 0 156-60 156-138 0-21-5-42-14-59l107 0c21 0 39-18 39-40l0 0 0-197c0-22-18-40-39-40l0 0-27 0 0-487c0-20-15-36-34-39l-5 0-790 0c-20 0-36 15-39 34l0 5 0 487-26 0c-20 0-37 15-40 34l0 6 0 197c0 22 18 40 40 40l0 0 107 0c-10 17-15 38-15 59 0 78 71 138 157 138 87 0 153-45 200-116 4-7 8-13 11-18l3 5 0 0 8 13c47 71 114 116 201 116z m-230-474l-337 0 0-447 337 0 0 447z m373 0l-294 0 0-447 294 0 0 447z m-373 198l-403 0 0-119 403 0 0 119z m439 0l-360 0 0-119 360 0 0 119z m-632 197c-45 0-78-28-78-59 0-31 33-59 78-59l0 0 155 0-4 8c-3 5-5 10-8 15l0 0-9 14c-34 52-77 81-134 81z m423 0c-57 0-101-29-135-81-6-9-12-19-17-29l0 0-4-8 156 0c41 0 73 24 77 53l0 0 1 6c0 31-34 59-78 59z" horiz-adv-x="1000" />

<glyph glyph-name="date" unicode="&#xe8f4;" d="M677 755c-80-4-153-42-199-102l-2-2-1 2c-49 63-126 102-211 102-146 0-264-113-264-252 0-21 3-42 10-65 6-24 16-49 29-74 40-76 106-154 192-234 49-46 102-89 154-128l26-20c9-6 17-12 25-17l19-13c13-9 30-9 42 0l20 13 24 17c9 6 17 13 27 20 52 39 104 82 153 128 86 80 153 158 192 234 13 25 23 50 30 74 6 23 9 44 9 65 0 139-118 252-263 252l-12 0z m12-74c104 0 188-80 188-178 0-14-2-29-7-45-5-20-13-40-24-61-35-66-96-139-177-214-47-43-97-85-147-123l-13-9-25-18-8-6 3-2c-14 10-31 22-48 35-51 38-101 80-148 123-80 75-142 148-176 214-11 21-19 41-24 60-5 17-8 32-8 46 0 98 84 178 189 178 80 0 151-48 177-119 12-33 59-33 71 0 26 71 96 119 177 119z" horiz-adv-x="952" />

<glyph glyph-name="doctor" unicode="&#xe8f5;" d="M347 850l-6 0c-19-3-34-19-34-39l0-268-267 0c-22 0-40-18-40-39l0-307 0-6c3-19 20-34 40-34l267 0 0-268c0-21 18-39 40-39l307 0 5 0c19 3 34 19 34 39l0 268 268 0c21 0 39 18 39 40l0 307 0 5c-3 19-19 34-39 34l-268 0 0 268c0 21-18 39-39 39l-307 0z m267-79l0-267 0-6c3-19 20-34 40-34l267 0 0-228-267 0-6 0c-19-3-34-19-34-39l0-268-228 0 0 268 0 5c-3 19-19 34-39 34l-268 0 0 228 268 0 5 0c19 3 34 20 34 40l0 267 228 0z" horiz-adv-x="1000" />

<glyph glyph-name="contact" unicode="&#xe8f6;" d="M707 232c131 0 237-103 243-232l0-11 0-103c0-20-16-36-36-36-19 0-34 14-37 31l0 5 0 103c0 91-71 165-161 170l-9 0-414 0c-91 0-165-71-170-160l0-10 0-103c0-20-16-36-36-36-19 0-34 14-37 31l0 5 0 103c0 131 103 237 233 243l10 0 414 0z m-207 618c134 0 243-109 243-242 0-134-109-243-243-243-134 0-243 109-243 243 0 133 109 242 243 242z m0-73c-94 0-170-76-170-169 0-94 76-170 170-170 94 0 170 76 170 170 0 93-76 169-170 169z" horiz-adv-x="1000" />

<glyph glyph-name="fun" unicode="&#xe8f7;" d="M500 850c276 0 500-224 500-500 0-276-224-500-500-500-276 0-500 224-500 500 0 276 224 500 500 500z m0-79c-232 0-421-188-421-421 0-232 189-421 421-421 233 0 421 189 421 421 0 233-188 421-421 421z m227-526c14-17 13-42-3-56-12-11-33-25-62-39-47-23-102-37-162-37-60 0-115 14-162 37-29 14-50 28-62 39-16 14-17 39-3 56 15 16 40 17 56 3 7-6 21-16 43-27 38-18 80-29 128-29 48 0 90 11 128 29 22 11 36 21 43 27 16 14 41 13 56-3z m-359 302c37 0 66-29 66-65 0-37-29-66-66-66-36 0-65 29-65 66 0 36 29 65 65 65z m264 0c36 0 65-29 65-65 0-37-29-66-65-66-37 0-66 29-66 66 0 36 29 65 66 65z" horiz-adv-x="1000" />

<glyph glyph-name="done" unicode="&#xe8f8;" d="M854 704c195-196 195-512 0-708-196-195-512-195-707 0-196 196-196 512 0 708 195 195 511 195 707 0z m-109-202c-15 14-39 14-53-1l0 0-249-250-135 133-5 3c-14 11-35 10-48-4-15-15-15-38 0-53l0 0 162-159 5-3c14-11 35-10 48 3l0 0 275 278 4 4c11 15 9 35-4 49z" horiz-adv-x="1000" />

<glyph glyph-name="new-folder" unicode="&#xe8f9;" d="M438 763c20 0 37-17 37-38l0 0 0-150 463 0c19 0 34-14 37-32l0-5 0-125c0-21-17-38-37-38-19 0-35 14-38 33l0 5 0 87-800 0 0-487 275 0c19 0 35-15 37-33l1-5c0-19-15-35-33-37l-5-1-312 0c-19 0-35 15-38 33l0 5 0 750c0 21 17 38 38 38l0 0z m250-375c19 0 34-15 37-33l0-5 0-150 150 0c21 0 38-17 38-37 0-19-15-35-33-38l-5 0-150 0 0-150c0-21-17-38-37-38-19 0-35 15-38 33l0 5 0 150-150 0c-21 0-37 17-37 38 0 19 14 34 32 37l5 0 150 0 0 150c0 21 17 38 38 38z m-288 300l-300 0 0-113 300 0 0 113z" horiz-adv-x="1000" />

<glyph glyph-name="ok-circled" unicode="&#xe8fa;" d="M854 704c195-196 195-512 0-708-196-195-512-195-707 0-196 196-196 512 0 708 195 195 511 195 707 0z m-109-202c-15 14-39 14-53-1l0 0-249-250-135 133-5 3c-14 11-35 10-48-4-15-15-15-38 0-53l0 0 162-159 5-3c14-11 35-10 48 3l0 0 275 278 4 4c11 15 9 35-4 49z" horiz-adv-x="1000" />

<glyph glyph-name="draft" unicode="&#xe8fb;" d="M835 850c22 0 40-18 40-39l0 0 0-922c0-21-18-39-40-39l0 0-670 0c-22 0-40 18-40 39l0 0 0 709c0 10 4 20 11 27l0 0 201 212c7 8 18 13 29 13l0 0z m-40-79l-322 0 0-224c0-20-15-36-34-39l-6 0-228 0 0-579 590 0 0 842z m-402 0l-9 0-175-184 184 0 0 184z" horiz-adv-x="1000" />

<glyph glyph-name="task-completed" unicode="&#xe8fc;" d="M854 704c195-196 195-512 0-708-196-195-512-195-707 0-196 196-196 512 0 708 195 195 511 195 707 0z m-109-202c-15 14-39 14-53-1l0 0-249-250-135 133-5 3c-14 11-35 10-48-4-15-15-15-38 0-53l0 0 162-159 5-3c14-11 35-10 48 3l0 0 275 278 4 4c11 15 9 35-4 49z" horiz-adv-x="1000" />

<glyph glyph-name="location" unicode="&#xe8fd;" d="M500 850c205 0 375-169 375-383 0-152-64-284-214-456l0 0-95-107-35-40c-16-19-46-19-62 0-9 11-20 24-34 40l0 0-96 107c-150 172-214 304-214 456 0 217 167 383 375 383z m0-79c-163 0-295-130-295-304 0-130 57-245 195-405l0 0 59-65 41-47 99 112 15 17c128 151 181 263 181 388 0 171-135 304-295 304z m0-184c78 0 141-62 141-138 0-77-63-138-141-138-78 0-141 61-141 138 0 76 63 138 141 138z m0-79c-33 0-60-27-60-59 0-33 27-59 60-59 33 0 60 26 60 59 0 32-27 59-60 59z" horiz-adv-x="1000" />

<glyph glyph-name="calendar-1" unicode="&#xe8fe;" d="M697 850c20 0 37-15 40-34l0-5 0-27 224 0c20 0 36-15 39-34l0-5 0-856c0-21-18-39-39-39l0 0-921 0c-22 0-40 18-40 39l0 0 0 856c0 22 18 39 40 39l0 0 212 0 0 27c0 21 18 39 40 39 20 0 36-15 39-34l0-5 0-27 327 0 0 27c0 21 18 39 39 39z m224-408l-842 0 0-513 842 0 0 513z m-125-283c22 0 40-17 40-39l0 0 0-66c0-22-18-39-40-39l0 0-197 0c-22 0-40 17-40 39l0 0 0 66c0 22 18 39 40 39l0 0z m-138 546l-327 0 0-26c0-22-17-39-39-39-20 0-37 14-39 34l-1 5 0 26-173 0 0-184 842 0 0 184-184 0 0-26c0-22-18-39-40-39-20 0-36 14-39 34l0 5 0 26z" horiz-adv-x="1000" />

<glyph glyph-name="preview-none" unicode="&#xe8ff;" d="M960-18c22 0 40-19 40-41 0-21-15-38-35-41l-5 0-602 0c-22 0-40 18-40 41 0 21 15 38 34 40l6 1 602 0z m-819 0c22 0 40-19 40-41 0-21-15-38-35-41l-5 0-101 0c-22 0-40 18-40 41 0 21 15 38 35 40l5 1 101 0z m819 409c22 0 40-18 40-41 0-21-15-38-35-40l-5-1-602 0c-22 0-40 18-40 41 0 21 15 38 34 41l6 0 602 0z m-819 0c22 0 40-18 40-41 0-21-15-38-35-40l-5-1-101 0c-22 0-40 18-40 41 0 21 15 38 35 41l5 0 101 0z m819 409c22 0 40-18 40-41 0-21-15-38-35-40l-5-1-602 0c-22 0-40 19-40 41 0 21 15 38 34 41l6 0 602 0z m-819 0c22 0 40-18 40-41 0-21-15-38-35-40l-5-1-101 0c-22 0-40 19-40 41 0 21 15 38 35 41l5 0 101 0z" horiz-adv-x="1000" />

<glyph glyph-name="preview-right" unicode="&#xe900;" d="M142-150c-75 0-137 59-142 133l0 9 0 716c0 76 59 137 133 142l9 0 716 0c76 0 137-59 142-133l0-9 0-716c0-76-59-137-133-142l-9 0-716 0z m319 921l-319 0c-33 0-59-25-63-56l0-7 0-716c0-33 25-60 56-63l7 0 319 0 0 842z m397 0l-319 0 0-842 319 0c33 0 60 25 63 56l0 7 0 716c0 33-25 60-56 63l-7 0z" horiz-adv-x="1000" />

<glyph glyph-name="signout" unicode="&#xe901;" d="M544 800c15 0 27-11 29-25l0-4 0-154c0-16-13-29-29-29-15 0-27 11-29 25l0 4 0 125-456 0 0-784 456 0 0 125c0 15 10 27 25 29l4 0c15 0 27-11 29-25l0-4 0-154c0-15-11-27-25-29l-4 0-515 0c-14 0-27 11-29 25l0 4 0 842c0 15 11 27 25 29l4 0 515 0z m210-143l4-4 234-280c10-12 11-28 3-41l-3-4-234-281c-12-15-35-17-49-4-14 11-17 30-8 45l3 4 191 229-632 0c-16 0-29 13-29 29 0 15 11 27 25 29l4 0 632 0-191 229c-11 14-11 33 1 46l4 4c13 11 33 10 45-1z" horiz-adv-x="1000" />

<glyph glyph-name="dropdown" unicode="&#xe902;" d="M14 587c17 16 44 17 63 4l6-4 417-380 417 380c18 16 45 17 63 4l6-4c17-16 19-40 5-57l-5-5-452-412c-17-16-44-17-63-4l-5 4-452 412c-19 17-19 45 0 62z" horiz-adv-x="1000" />

<glyph glyph-name="comment" unicode="&#xe903;" d="M943 850l-886 0c-32 0-57-27-57-59l0-638 0-6c3-29 27-53 57-53l83 0 11-188 0-7c8-49 71-68 102-26l162 221 528 0c32 0 57 27 57 59l0 638c0 32-25 59-57 59z m-22-79l0-598-525 0-6 0c-10-2-20-7-26-16l-138-187-9 166-1 5c-3 18-19 32-39 32l-98 0 0 598 842 0z" horiz-adv-x="1000" />

<glyph glyph-name="addto-group" unicode="&#xe904;" d="M693 276c72-19 124-84 128-160l1-10 0-70c0-20-16-36-36-36-18 0-33 14-35 31l0 5 0 70c0 47-31 88-76 100-19 5-30 25-26 44 5 19 25 31 44 26z m-248 6c92 0 167-74 172-167l0-9 0-70c0-20-16-36-36-36-18 0-32 14-35 31l0 5 0 70c0 55-41 99-94 103l-7 0-273 0c-53 0-97-42-101-96l0-7 0-70c0-20-16-36-36-36-17 0-32 14-35 31l0 5 0 70c0 94 72 171 163 175l9 1 273 0z m425 257c18 0 33-13 35-31l1-5 0-60 59 0c19 0 35-17 35-37 0-18-13-33-31-36l-4 0-59 0 0-60c0-20-16-36-36-36-18 0-33 13-35 31l0 5 0 60-59 0c-20 0-36 16-36 36 0 19 14 34 31 36l5 1 59 0 0 60c0 20 16 36 35 36z m-562 161c95 0 172-79 172-176 0-97-77-175-172-175-94 0-171 78-171 175 0 97 77 176 171 176z m248-6c76-20 129-90 129-170 0-80-53-150-129-170-19-5-38 7-43 26-5 19 7 39 26 44 44 12 75 53 75 100 0 47-31 89-75 100-19 5-31 25-26 44 5 20 24 31 43 26z m-248-66c-55 0-101-47-101-104 0-57 46-103 101-103 56 0 101 46 101 103 0 57-45 104-101 104z" horiz-adv-x="1000" />

<glyph glyph-name="reply-all" unicode="&#xe905;" d="M1000 210l0-11 0-139c0-19-16-35-35-35-17 0-32 13-34 30l-1 5 0 139c0 94-60 169-132 174l-7 0-439 0 172-173 4-4c10-13 9-33-4-45-13-14-35-14-49 0l0 0-232 233-3 3c-10 14-9 33 3 46l0 0 232 232 4 4c14 10 33 9 45-4l0 0 4-3c10-14 9-34-4-46l0 0-172-173 439 0c114 0 204-104 209-233z m-753 459c13 10 32 9 45-4l0 0 3-3c10-14 9-34-3-46l0 0-208-208 208-208 3-4c10-13 9-33-3-45-14-14-36-14-49 0l0 0-232 233-4 3c-10 14-9 33 4 46l0 0 232 232z" horiz-adv-x="1050" />

<glyph glyph-name="mail-nav" unicode="&#xe906;" d="M868 775c60 0 110-41 126-96l-1 1c6-8 8-19 6-28 1-4 1-9 1-13l0 0 0-578c0-75-59-136-132-136l0 0-736 0c-73 0-132 61-132 136l0 0 0 578c0 4 0 9 1 13-2 9 0 19 5 27 16 55 66 96 126 96l0 0z m53-191l-399-267c-12-8-26-9-39-3l-5 3-399 267 0-523c0-29 21-53 47-56l6-1 736 0c29 0 53 26 53 57l0 0 0 523z m-53 112l-736 0c-17 0-33-9-43-23l411-275 411 275c-10 14-25 23-43 23l0 0z" horiz-adv-x="1000" />

<glyph glyph-name="folder2" unicode="&#xe907;" d="M0 736c0 22 18 39 40 39l0 0 394 0c22 0 40-17 40-39l0 0 0-154 487 0c20 0 36-15 39-34l0-5 0-579c0-22-18-39-39-39l0 0-921 0c-22 0-40 17-40 39l0 0z m921-231l-842 0 0-503 842 0 0 503z m-526 193l-316 0 0-116 316 0 0 116z" horiz-adv-x="1000" />

<glyph glyph-name="trash-active" unicode="&#xe908;" d="M636 850c23 0 41-18 41-39l0 0 0-158 232 0c23 0 41-18 41-40 0-20-15-36-35-39l-6 0-27 0 0-685c0-20-16-36-36-39l-5 0-682 0c-22 0-41 18-41 39l0 0 0 685-27 0c-23 0-41 17-41 39 0 20 15 37 35 39l6 1 232 0 0 158c0 20 15 36 36 39l5 0z m164-276l-600 0 0-645 600 0 0 645z m-402-119c20 0 38-15 40-34l1-5 0-329c0-22-19-40-41-40-21 0-38 15-41 35l0 5 0 329c0 22 18 39 41 39z m204 0c21 0 38-15 41-34l0-5 0-329c0-22-18-40-41-40-20 0-38 15-40 35l-1 5 0 329c0 22 19 39 41 39z m-6 316l-191 0 0-118 191 0 0 118z" horiz-adv-x="1000" />

<glyph glyph-name="addressbook" unicode="&#xe909;" d="M960 850c22 0 40-18 40-39l0 0 0-922c0-21-18-39-40-39l0 0-849 0c-22 0-40 18-40 39l0 0 0 158-31 0c-22 0-40 18-40 40 0 20 15 36 34 39l6 0 31 0 0 185-31 0c-22 0-40 17-40 39 0 20 15 37 34 39l6 1 31 0 0 184-31 0c-22 0-40 17-40 39 0 20 15 37 34 39l6 1 31 0 0 158c0 20 15 36 35 39l5 0z m-40-79l-770 0 0-118 31 0c22 0 40-18 40-40 0-20-15-36-34-39l-6 0-31 0 0-184 31 0c22 0 40-18 40-40 0-20-15-36-34-39l-6 0-31 0 0-185 31 0c22 0 40-17 40-39 0-20-15-37-34-39l-6-1-31 0 0-118 770 0 0 842z m-261-513c68 0 124-53 128-119l1-8 0-44c0-22-18-40-40-40-20 0-37 15-40 35l0 5 0 44c0 24-19 45-43 48l-6 0-177 0c-25 0-45-19-48-43l0-5 0-44c0-22-18-40-40-40-20 0-37 15-40 35l0 5 0 44c0 67 53 122 120 127l8 0 177 0z m-88 329c80 0 146-61 146-138 0-77-66-138-146-138-80 0-146 61-146 138 0 77 66 138 146 138z m0-79c-37 0-67-27-67-59 0-32 30-59 67-59 37 0 66 27 66 59 0 32-29 59-66 59z" horiz-adv-x="1000" />

<glyph glyph-name="sheduled" unicode="&#xe90a;" d="M505 727c241 0 437-197 437-439 0-242-196-438-437-438-241 0-437 196-437 438 0 242 196 439 437 439z m0-74c-200 0-363-164-363-365 0-201 163-364 363-364 201 0 363 163 363 364 0 201-162 365-363 365z m-48-423l5 0c-2 0-5 0-7 1-1 0-2 0-3 0-1 1-1 1-2 1-1 0-2 1-3 1-1 0-1 1-2 1-1 1-2 1-2 2-1 0-2 0-2 1-1 0-2 1-2 1-1 1-2 2-2 2-1 1-1 1-2 1 0 1-1 2-2 3 0 0-1 1-1 2-1 0-1 1-1 2-1 0-1 1-2 2 0 1 0 1-1 2 0 1 0 2-1 3 0 1 0 1 0 2-1 3-2 6-2 10l0 228c0 20 17 37 37 37 19 0 34-14 37-32l0-5 0-191 190 0c21 0 37-17 37-37 0-19-14-34-32-37l-5 0-227 0 0 0c-2 0-3 0-5 0z m262 617l4-2 210-130c17-11 22-34 12-51-10-16-30-22-47-15l-4 3-210 129c-17 11-23 34-12 51 10 16 30 22 47 15z m-437 0c16 7 36 1 46-15 11-17 5-40-12-51l0 0-210-129-4-3c-17-7-37-1-46 15-11 17-6 40 12 51l0 0 209 130z" horiz-adv-x="1000" />

<glyph glyph-name="task-reminder" unicode="&#xe90b;" d="M588 11c18-11 23-34 13-51-21-37-59-60-101-60-42 0-80 23-101 60-10 17-4 40 13 51 16 9 36 5 47-10l3-4c8-14 22-23 38-23 14 0 27 7 35 18l3 5c11 18 33 24 50 14z m-88 789c154 0 279-128 279-285 0-120 21-211 56-276 20-37 38-57 49-65 28-19 17-63-15-67l-5-1-728 0c-35 0-50 48-20 68 11 8 29 28 49 65 33 61 54 145 56 255l0 21c0 157 125 285 279 285z m0-74c-110 0-201-89-206-201l0-10c0-132-24-235-65-312l-6-11-7-11 568 0c-2 3-4 7-6 11l-7 11c-38 72-62 168-65 290l0 22 0 10c-5 112-96 201-206 201z" horiz-adv-x="1000" />

<glyph glyph-name="waiting" unicode="&#xe90c;" d="M854 704c195-196 195-512 0-708-196-195-512-195-707 0-196 196-196 512 0 708 195 195 511 195 707 0z m-385-66c-21 0-38-17-38-38l0 0 0-281 1-5c2-19 18-33 37-33l0 0 281 0 5 1c18 2 33 18 33 37l0 0-1 5c-2 18-18 32-37 32l0 0-244 0 0 244 0 5c-3 18-18 33-37 33z" horiz-adv-x="1000" />

<glyph glyph-name="add-to-group" unicode="&#xe90d;" d="M693 276c72-19 124-84 128-160l1-10 0-70c0-20-16-36-36-36-18 0-33 14-35 31l0 5 0 70c0 47-31 88-76 100-19 5-30 25-26 44 5 19 25 31 44 26z m-248 6c92 0 167-74 172-167l0-9 0-70c0-20-16-36-36-36-18 0-32 14-35 31l0 5 0 70c0 55-41 99-94 103l-7 0-273 0c-53 0-97-42-101-96l0-7 0-70c0-20-16-36-36-36-17 0-32 14-35 31l0 5 0 70c0 94 72 171 163 175l9 1 273 0z m425 257c18 0 33-13 35-31l1-5 0-60 59 0c19 0 35-17 35-37 0-18-13-33-31-36l-4 0-59 0 0-60c0-20-16-36-36-36-18 0-33 13-35 31l0 5 0 60-59 0c-20 0-36 16-36 36 0 19 14 34 31 36l5 1 59 0 0 60c0 20 16 36 35 36z m-562 161c95 0 172-79 172-176 0-97-77-175-172-175-94 0-171 78-171 175 0 97 77 176 171 176z m248-6c76-20 129-90 129-170 0-80-53-150-129-170-19-5-38 7-43 26-5 19 7 39 26 44 44 12 75 53 75 100 0 47-31 89-75 100-19 5-31 25-26 44 5 20 24 31 43 26z m-248-66c-55 0-101-47-101-104 0-57 46-103 101-103 56 0 101 46 101 103 0 57-45 104-101 104z" horiz-adv-x="1000" />

<glyph glyph-name="create-event" unicode="&#xe90e;" d="M697 850c20 0 37-15 40-34l0-5 0-27 224 0c20 0 36-15 39-34l0-5 0-428c0-21-18-39-39-39-20 0-37 15-40 34l0 5 0 191-842 0 0-579 289 0c20 0 37-15 40-34l0-6c0-20-15-36-34-39l-6 0-328 0c-20 0-37 15-40 34l0 5 0 856c0 20 15 36 34 39l6 0 212 0 0 27c0 21 18 39 40 39 20 0 36-15 39-34l0-5 0-27 327 0 0 27c0 21 18 39 39 39z m0-526c20 0 37-15 40-34l0-6 0-158 158 0c22 0 39-17 39-39 0-20-15-37-34-39l-5-1-158 0 0-158c0-21-18-39-40-39-20 0-36 15-39 34l0 5 0 158-158 0c-22 0-39 18-39 40 0 20 14 36 34 39l5 0 158 0 0 158c0 22 18 40 39 40z m-39 381l-327 0 0-26c0-22-17-39-39-39-20 0-37 14-39 34l-1 5 0 26-173 0 0-118 842 0 0 118-184 0 0-26c0-22-18-39-40-39-20 0-36 14-39 34l0 5 0 26z" horiz-adv-x="1000" />

<glyph glyph-name="users" unicode="&#xe90f;" d="M542 257c110 0 199-88 205-199l0-10 0-87c0-20-16-36-36-36-18 0-33 14-35 31l0 5 0 87c0 72-56 132-126 136l-8 0-337 0c-71 0-129-56-133-128l-1-8 0-87c0-20-16-36-35-36-18 0-33 14-36 31l0 5 0 87c0 112 86 203 195 209l10 0 337 0z m305-7c87-23 148-101 153-192l0-10 0-87c0-20-16-36-36-36-18 0-33 14-35 31l0 5 0 87c0 62-41 116-100 132-19 5-31 25-26 44 5 20 25 31 44 26z m-474 525c113 0 205-94 205-209 0-116-92-209-205-209-113 0-204 93-204 209 0 115 91 209 204 209z m305-7c90-23 154-107 154-202 0-96-64-179-154-203-19-5-39 7-44 26-4 20 7 40 26 45 59 15 100 69 100 132 0 62-41 116-100 132-19 5-30 25-26 44 5 20 25 31 44 26z m-305-66c-73 0-133-61-133-136 0-75 60-136 133-136 74 0 134 61 134 136 0 75-60 136-134 136z" horiz-adv-x="1000" />

<glyph glyph-name="mail-social" unicode="&#xe910;" d="M542 257c110 0 199-88 205-199l0-10 0-87c0-20-16-36-36-36-18 0-33 14-35 31l0 5 0 87c0 72-56 132-126 136l-8 0-337 0c-71 0-129-56-133-128l-1-8 0-87c0-20-16-36-35-36-18 0-33 14-36 31l0 5 0 87c0 112 86 203 195 209l10 0 337 0z m305-7c87-23 148-101 153-192l0-10 0-87c0-20-16-36-36-36-18 0-33 14-35 31l0 5 0 87c0 62-41 116-100 132-19 5-31 25-26 44 5 20 25 31 44 26z m-474 525c113 0 205-94 205-209 0-116-92-209-205-209-113 0-204 93-204 209 0 115 91 209 204 209z m305-7c90-23 154-107 154-202 0-96-64-179-154-203-19-5-39 7-44 26-4 20 7 40 26 45 59 15 100 69 100 132 0 62-41 116-100 132-19 5-30 25-26 44 5 20 25 31 44 26z m-305-66c-73 0-133-61-133-136 0-75 60-136 133-136 74 0 134 61 134 136 0 75-60 136-134 136z" horiz-adv-x="1000" />

<glyph glyph-name="reminder" unicode="&#xe911;" d="M588 11c18-11 23-34 13-51-21-37-59-60-101-60-42 0-80 23-101 60-10 17-4 40 13 51 16 9 36 5 47-10l3-4c8-14 22-23 38-23 14 0 27 7 35 18l3 5c11 18 33 24 50 14z m-88 789c154 0 279-128 279-285 0-120 21-211 56-276 20-37 38-57 49-65 28-19 17-63-15-67l-5-1-728 0c-35 0-50 48-20 68 11 8 29 28 49 65 33 61 54 145 56 255l0 21c0 157 125 285 279 285z m0-74c-110 0-201-89-206-201l0-10c0-132-24-235-65-312l-6-11-7-11 568 0c-2 3-4 7-6 11l-7 11c-38 72-62 168-65 290l0 22 0 10c-5 112-96 201-206 201z" horiz-adv-x="1000" />

<glyph glyph-name="task-group" unicode="&#xe912;" d="M704 807c24-11 35-40 24-64-11-25-39-36-64-25-163 73-354 30-470-106-116-136-129-332-32-481 97-150 281-218 452-168 166 50 282 199 289 371l0 16 0 41c0 27 22 49 49 49 24 0 44-18 48-42l0-7 0-41c0-222-146-417-358-479-213-63-441 21-561 207-121 186-105 429 39 597 144 168 381 222 584 132z m239-100c17-17 19-44 5-63l-5-6-430-430c-17-17-44-19-63-5l-6 5-129 129c-19 19-19 49 0 68 17 18 44 19 63 5l6-5 95-94 395 396c19 19 50 19 69 0z" horiz-adv-x="1000" />

<glyph glyph-name="location2" unicode="&#xe913;" d="M500 850c205 0 375-169 375-383 0-152-64-284-214-456l0 0-95-107-35-40c-16-19-46-19-62 0-9 11-20 24-34 40l0 0-96 107c-150 172-214 304-214 456 0 217 167 383 375 383z m0-79c-163 0-295-130-295-304 0-130 57-245 195-405l0 0 59-65 41-47 99 112 15 17c128 151 181 263 181 388 0 171-135 304-295 304z m0-184c78 0 141-62 141-138 0-77-63-138-141-138-78 0-141 61-141 138 0 76 63 138 141 138z m0-79c-33 0-60-27-60-59 0-33 27-59 60-59 33 0 60 26 60 59 0 32-27 59-60 59z" horiz-adv-x="1000" />

<glyph glyph-name="priority-high" unicode="&#xe914;" d="M300 50c28 0 50-22 50-50 0-28-22-50-50-50-28 0-50 22-50 50 0 28 22 50 50 50z m0 700c21 0 38-17 38-37l0-525c0-21-17-38-38-38-21 0-37 17-37 38l0 525c0 20 16 37 37 37z m200-700c28 0 50-22 50-50 0-28-22-50-50-50-28 0-50 22-50 50 0 28 22 50 50 50z m0 700c21 0 38-17 38-37l0-525c0-21-17-38-38-38-21 0-37 17-37 38l0 525c0 20 16 37 37 37z m200-700c28 0 50-22 50-50 0-28-22-50-50-50-28 0-50 22-50 50 0 28 22 50 50 50z m0 700c21 0 38-17 38-37l0-525c0-21-17-38-38-38-21 0-37 17-37 38l0 525c0 20 16 37 37 37z" horiz-adv-x="1000" />

<glyph glyph-name="priority-low" unicode="&#xe915;" d="M500 50c28 0 50-22 50-50 0-28-22-50-50-50-28 0-50 22-50 50 0 28 22 50 50 50z m0 700c21 0 38-17 38-37l0-525c0-21-17-38-38-38-21 0-37 17-37 38l0 525c0 20 16 37 37 37z" horiz-adv-x="1000" />

<glyph glyph-name="priority-medium" unicode="&#xe916;" d="M400 50c28 0 50-22 50-50 0-28-22-50-50-50-28 0-50 22-50 50 0 28 22 50 50 50z m0 700c21 0 38-17 38-37l0-525c0-21-17-38-38-38-21 0-37 17-37 38l0 525c0 20 16 37 37 37z m200-700c28 0 50-22 50-50 0-28-22-50-50-50-28 0-50 22-50 50 0 28 22 50 50 50z m0 700c21 0 38-17 38-37l0-525c0-21-17-38-38-38-21 0-37 17-37 38l0 525c0 20 16 37 37 37z" horiz-adv-x="1000" />

</font>
</defs>
</svg>
